<?xml version="1.0" standalone="no"?>
<!DOCTYPE svg PUBLIC "-//W3C//DTD SVG 20010904//EN"
 "http://www.w3.org/TR/2001/REC-SVG-20010904/DTD/svg10.dtd">
<svg version="1.0" xmlns="http://www.w3.org/2000/svg"
 width="700.000000pt" height="700.000000pt" viewBox="0 0 700.000000 700.000000"
 preserveAspectRatio="xMidYMid meet">
<metadata>
Created by potrace 1.14, written by Peter Selinger 2001-2017
</metadata>
<g transform="translate(0.000000,700.000000) scale(0.100000,-0.100000)"
fill="#000000" stroke="none">
<path d="M2927 6054 c-1 -1 -101 -5 -222 -8 -121 -4 -258 -9 -305 -11 -155 -7
-755 -21 -1250 -30 -666 -12 -646 -11 -720 -56 -55 -34 -24 -46 107 -43 59 1
268 5 463 8 195 4 432 8 525 11 522 13 659 17 740 20 50 2 176 7 280 10 327
13 820 5 1230 -19 55 -3 152 -8 215 -11 63 -3 151 -7 195 -10 44 -2 125 -7
180 -10 383 -20 516 -28 780 -50 122 -10 216 -21 340 -40 298 -46 561 -167
744 -340 176 -167 260 -348 267 -575 9 -291 -116 -563 -375 -820 -114 -112
-204 -184 -413 -328 -247 -170 -313 -232 -362 -337 -63 -133 -64 -261 -5 -550
46 -231 51 -264 54 -398 5 -234 -53 -399 -192 -543 -181 -188 -612 -457 -1016
-635 -243 -108 -705 -271 -914 -325 -227 -57 -639 -161 -644 -162 -3 0 -57
-13 -120 -27 -176 -41 -207 -46 -315 -52 -161 -9 -252 18 -341 100 -77 71
-112 163 -108 288 2 42 6 91 10 110 11 55 53 187 75 234 11 24 20 46 20 50 0
19 304 703 510 1150 111 239 234 504 275 590 26 55 60 127 75 160 15 33 57
121 92 195 36 74 81 169 101 210 73 155 131 278 172 365 24 50 80 169 125 265
44 96 89 189 98 207 9 18 14 34 11 37 -20 21 -160 0 -207 -30 -13 -8 -32 -34
-42 -57 -10 -23 -50 -109 -90 -192 -40 -82 -85 -177 -100 -210 -15 -33 -54
-114 -85 -180 -32 -66 -75 -158 -97 -205 -22 -47 -69 -145 -104 -218 -35 -74
-64 -135 -64 -137 0 -1 -29 -63 -64 -136 -35 -74 -73 -154 -84 -179 -11 -25
-44 -94 -72 -155 -29 -60 -76 -162 -105 -225 -29 -63 -72 -155 -95 -205 -23
-49 -71 -155 -107 -235 -36 -80 -76 -167 -88 -195 -145 -312 -329 -751 -364
-870 -39 -135 -44 -270 -11 -358 67 -180 233 -271 485 -268 164 3 310 29 745
132 1101 262 1809 550 2415 982 202 144 314 256 375 376 31 63 65 172 75 244
7 52 8 235 1 277 -2 14 -7 48 -11 75 -3 28 -22 129 -42 225 -54 271 -53 390 6
514 42 86 116 158 289 278 294 203 379 272 519 419 327 343 433 766 278 1105
-131 286 -425 507 -803 603 -98 25 -291 59 -379 66 -37 3 -79 8 -93 10 -14 3
-65 7 -115 11 -49 3 -106 7 -125 9 -19 2 -82 7 -140 11 -58 3 -123 8 -145 9
-22 2 -101 6 -175 10 -74 4 -151 8 -170 10 -19 2 -105 6 -190 10 -85 4 -175 8
-200 10 -25 2 -117 6 -205 10 -88 4 -185 9 -215 11 -142 8 -778 22 -783 18z"/>
<path d="M2509 5826 c-2 -2 -130 -7 -284 -11 -154 -4 -318 -9 -365 -10 -81 -3
-423 -12 -740 -20 -644 -17 -646 -17 -690 -40 -33 -17 -60 -52 -60 -77 0 -10
11 -25 25 -34 21 -14 52 -15 257 -9 284 8 429 12 753 20 382 9 858 23 1050 31
109 4 731 3 880 -1 249 -7 533 -16 620 -20 50 -2 164 -7 255 -10 91 -3 197 -8
235 -10 39 -2 126 -6 195 -10 69 -3 145 -8 170 -10 25 -2 92 -6 150 -10 58 -3
123 -8 145 -10 22 -2 72 -7 110 -10 307 -27 523 -99 672 -224 229 -192 321
-426 270 -691 -34 -180 -146 -364 -319 -528 -77 -73 -222 -189 -329 -262 -109
-76 -236 -175 -276 -216 -166 -171 -211 -373 -153 -679 27 -138 29 -151 40
-200 5 -22 12 -62 15 -90 4 -27 9 -58 11 -67 9 -32 5 -212 -5 -267 -24 -119
-104 -246 -212 -336 -408 -338 -1099 -638 -1972 -856 -111 -27 -227 -56 -257
-64 -30 -8 -66 -16 -80 -19 -14 -2 -55 -11 -92 -19 -140 -30 -279 1 -356 80
-58 58 -77 114 -76 223 1 100 13 153 62 285 31 83 158 375 282 650 40 88 81
180 92 205 23 50 165 359 223 485 21 44 50 107 65 140 15 33 51 109 79 168 28
60 51 110 51 112 0 1 31 67 69 146 37 79 98 207 134 284 124 267 206 440 277
590 80 169 91 196 84 217 -12 41 -94 45 -157 9 -29 -16 -61 -76 -212 -401 -34
-74 -88 -189 -120 -255 -31 -66 -82 -174 -112 -240 -30 -66 -84 -180 -119
-254 -35 -73 -64 -135 -64 -136 0 -2 -27 -61 -61 -132 -34 -70 -72 -152 -85
-180 -13 -29 -35 -77 -48 -105 -13 -29 -40 -88 -60 -130 -90 -195 -114 -247
-213 -468 -57 -129 -117 -262 -133 -295 -41 -89 -148 -341 -177 -415 -125
-331 -80 -577 124 -679 100 -49 152 -60 282 -59 108 2 184 16 466 87 600 152
919 255 1365 441 130 54 411 196 525 265 398 241 586 444 641 690 4 17 8 82 9
145 2 113 -11 219 -50 400 -9 41 -18 91 -21 110 -3 19 -10 53 -14 75 -5 22 -8
92 -6 155 6 231 61 311 357 518 394 276 602 506 700 774 76 206 70 424 -16
603 -142 294 -439 484 -845 540 -25 3 -56 8 -70 10 -50 8 -229 23 -370 30 -58
3 -136 8 -175 10 -38 2 -122 7 -185 10 -63 3 -160 7 -215 10 -117 7 -245 12
-480 21 -93 3 -195 8 -225 10 -72 6 -1236 15 -1241 10z"/>
<path d="M2408 5555 c-2 -2 -124 -6 -273 -10 -471 -11 -788 -21 -995 -30 -52
-2 -183 -7 -290 -10 -430 -13 -441 -15 -483 -53 -50 -45 -36 -82 28 -76 19 1
115 5 213 9 97 4 211 8 252 10 180 7 628 21 987 30 125 4 293 8 373 10 213 6
1102 6 1345 0 366 -9 793 -22 940 -30 55 -3 156 -7 225 -10 172 -8 282 -14
370 -20 295 -22 465 -87 599 -230 128 -137 180 -321 146 -515 -12 -69 -76
-210 -130 -286 -89 -125 -217 -238 -521 -459 -268 -196 -385 -388 -386 -634
-1 -94 11 -168 47 -306 68 -258 84 -390 58 -499 -47 -201 -224 -369 -578 -546
-428 -215 -848 -362 -1535 -539 -142 -36 -209 -35 -275 4 -70 41 -98 93 -101
190 -6 149 38 296 179 605 14 30 52 116 85 190 55 125 170 379 263 578 22 46
39 85 39 87 0 2 27 60 60 130 33 70 60 128 60 130 0 1 24 54 54 116 56 120
103 220 141 304 13 28 48 103 79 169 31 65 56 119 56 121 0 2 25 57 56 122 31
65 70 147 86 183 17 36 55 118 85 183 30 65 53 126 51 135 -6 29 -71 27 -128
-4 -28 -15 -50 -30 -50 -34 0 -4 -22 -54 -49 -111 -26 -57 -60 -129 -74 -159
-14 -30 -42 -91 -62 -135 -21 -44 -50 -107 -65 -140 -39 -84 -411 -886 -448
-965 -16 -36 -50 -110 -75 -165 -25 -55 -62 -136 -82 -180 -21 -44 -54 -118
-75 -165 -21 -47 -59 -129 -84 -183 -25 -54 -46 -100 -46 -102 0 -2 -18 -41
-39 -87 -98 -206 -169 -396 -197 -523 -13 -63 -13 -205 1 -251 37 -125 157
-196 318 -190 171 6 883 210 1297 371 263 103 585 250 695 318 198 123 262
171 355 266 81 83 157 194 172 250 25 96 30 124 30 194 0 67 -5 114 -17 177
-2 8 -19 80 -38 160 -55 229 -60 260 -59 370 1 97 27 193 74 277 52 93 131
165 368 336 369 268 553 502 598 764 12 67 8 205 -8 263 -78 296 -313 469
-700 516 -95 11 -112 13 -220 19 -58 3 -139 7 -180 10 -199 11 -456 22 -738
30 -118 4 -262 9 -320 11 -130 5 -1459 13 -1464 9z"/>
<path d="M2308 5295 c-2 -2 -147 -6 -323 -9 -176 -4 -369 -9 -430 -11 -204 -7
-429 -15 -535 -20 -58 -3 -160 -7 -228 -10 -67 -3 -157 -7 -200 -10 -42 -2
-119 -7 -170 -10 -51 -3 -102 -11 -112 -18 -29 -18 -24 -44 12 -63 27 -14 54
-15 192 -9 89 3 179 8 201 10 22 2 112 6 200 10 88 3 194 8 235 10 71 3 345
13 585 20 688 22 2175 22 2655 0 41 -2 165 -6 275 -10 355 -11 550 -25 575
-40 4 -2 22 -7 40 -10 77 -14 167 -73 224 -148 67 -88 82 -254 37 -387 -60
-172 -171 -295 -467 -517 -234 -176 -286 -221 -366 -322 -160 -200 -197 -378
-129 -614 17 -60 38 -124 46 -144 31 -73 67 -229 70 -297 9 -256 -167 -442
-605 -639 -106 -48 -325 -137 -470 -192 -178 -67 -505 -174 -505 -165 0 2 -9
-1 -20 -7 -11 -6 -91 -30 -178 -52 -169 -45 -177 -45 -215 4 -43 55 -38 106
23 240 72 157 122 266 168 365 19 41 46 100 59 130 87 190 472 1028 501 1090
19 41 57 125 85 185 27 61 63 139 80 175 16 36 41 90 55 120 14 30 66 145 117
255 51 110 106 228 121 263 l29 63 -25 25 c-19 19 -35 24 -72 24 -46 0 -93
-20 -93 -40 0 -5 -16 -44 -36 -87 -20 -43 -50 -107 -66 -143 -17 -36 -54 -117
-83 -180 -29 -63 -66 -144 -83 -180 -31 -67 -65 -141 -557 -1215 -161 -352
-314 -685 -340 -740 -97 -206 -106 -240 -83 -316 28 -96 125 -161 249 -167 64
-3 99 2 232 37 494 130 1001 317 1401 517 158 80 240 137 338 237 110 111 158
228 153 372 -3 98 -16 156 -70 315 -55 162 -75 252 -76 337 -1 99 13 160 56
246 71 141 173 244 443 444 332 247 444 376 500 580 47 170 16 332 -86 445
-84 94 -253 172 -417 194 -27 3 -58 8 -68 10 -40 7 -294 19 -662 30 -110 3
-254 8 -320 10 -137 5 -1863 13 -1867 9z"/>
</g>
</svg>
