<?xml version="1.0" encoding="UTF-8" standalone="no"?>
<!-- Created with Inkscape (http://www.inkscape.org/) -->

<svg
   xmlns:dc="http://purl.org/dc/elements/1.1/"
   xmlns:cc="http://creativecommons.org/ns#"
   xmlns:rdf="http://www.w3.org/1999/02/22-rdf-syntax-ns#"
   xmlns:svg="http://www.w3.org/2000/svg"
   xmlns="http://www.w3.org/2000/svg"
   xmlns:sodipodi="http://sodipodi.sourceforge.net/DTD/sodipodi-0.dtd"
   xmlns:inkscape="http://www.inkscape.org/namespaces/inkscape"
   width="580"
   height="607"
   viewBox="0 0 153.45833 160.60209"
   version="1.1"
   id="svg8"
   inkscape:version="0.92.4 (33fec40, 2019-01-16)"
   sodipodi:docname="ApexLogoStencil.svg">
  <defs
     id="defs2" />
  <sodipodi:namedview
     id="base"
     pagecolor="#ffffff"
     bordercolor="#666666"
     borderopacity="1.0"
     inkscape:pageopacity="0.0"
     inkscape:pageshadow="2"
     inkscape:zoom="0.98994949"
     inkscape:cx="446.44585"
     inkscape:cy="225.26391"
     inkscape:document-units="mm"
     inkscape:current-layer="layer1"
     showgrid="false"
     units="px"
     inkscape:window-width="1920"
     inkscape:window-height="1025"
     inkscape:window-x="0"
     inkscape:window-y="27"
     inkscape:window-maximized="1" />
  <metadata
     id="metadata5">
    <rdf:RDF>
      <cc:Work
         rdf:about="">
        <dc:format>image/svg+xml</dc:format>
        <dc:type
           rdf:resource="http://purl.org/dc/dcmitype/StillImage" />
        <dc:title></dc:title>
      </cc:Work>
    </rdf:RDF>
  </metadata>
  <g
     inkscape:label="Layer 1"
     inkscape:groupmode="layer"
     id="layer1"
     transform="translate(0,-136.3979)">
    <path
       style="fill:#f00;stroke:#000000;stroke-width:0.176;stroke-miterlimit:4;stroke-dasharray:none;stroke-opacity:1"
       d="m 42.224902,296.73941 c -0.10253,-0.13048 -0.22757,-0.39599 -0.27788,-0.59001 -0.0503,-0.19403 -1.99826,-7.2981 -4.328789,-15.78681 -2.330528,-8.48872 -5.358799,-19.56153 -6.72949,-24.60625 -2.837949,-10.44486 -3.047528,-11.17904 -3.121814,-10.93611 -0.02967,0.097 -1.814752,5.8517 -3.966857,12.78819 -2.911877,9.38533 -4.239438,13.96557 -5.189239,17.90347 -1.366929,5.66733 -5.300744,19.9635 -5.593791,20.32882 -0.279626,0.34859 -12.35815736,0.31633 -12.64872336,-0.0338 -0.168965,-0.20359 1.05494196,-4.41377 6.14036486,-21.12257 3.4932665,-11.47757 6.5552325,-21.78111 6.8043675,-22.89677 0.643768,-2.88287 1.739591,-6.12428 2.832507,-8.37848 0.971707,-2.00419 1.665889,-2.93175 5.028091,-6.71846 3.69874,-4.16573 7.981799,-9.74181 9.742986,-12.68431 1.695392,-2.83258 2.389371,-5.45854 2.082403,-7.87966 -0.356163,-2.80912 -0.78743,-3.94366 -1.855592,-4.88152 -0.82225,-0.72194 -1.620758,-1.05132 -3.355214,-1.38398 -2.373223,-0.45518 -3.655259,-0.19247 -7.12134,1.4593 -1.103335,0.5258 -2.106237,0.95599 -2.228672,0.95599 -0.122435,0 -0.357803,-0.20633 -0.523037,-0.45851 -0.29093,-0.44401 -0.279564,-0.51511 0.35958,-2.24896 0.978363,-2.65407 2.391357,-5.56429 3.456135,-7.11831 1.205033,-1.75872 5.237281,-5.81631 7.292056,-7.33789 2.57825,-1.90921 7.159575,-4.06808 12.788198,-6.02619 2.89827,-1.00827 12.46489,-4.02639 15.875,-5.00831 6.53245,-1.881 10.45174,-3.42764 17.10972,-6.75192 4.83176,-2.41246 9.15091,-4.81003 11.61038,-6.44493 4.53689,-3.01584 9.892849,-8.0366 15.009668,-14.0703 1.42436,-1.67958 1.95248,-2.0527 2.39069,-1.68901 0.45227,0.37535 0.3107,1.24993 -0.67523,4.17139 -1.2367,3.66455 -2.31634,6.27939 -3.887279,9.41489 -2.38918,4.76865 -4.126629,7.19159 -7.619509,10.62573 -5.63955,5.54471 -9.22959,7.07332 -19.58766,8.34027 -5.98764,0.73238 -8.32095,1.3124 -11.61676,2.88771 -3.37702,1.61413 -5.7521,3.44701 -7.17682,5.53847 -1.00067,1.46895 -2.11212,3.87369 -2.21589,4.79429 -0.08,0.70937 -0.0339,0.8426 0.446,1.29092 1.03109,0.96318 3.01144,1.18892 5.00348,0.57034 1.17445,-0.36469 2.53246,-1.10477 5.61893,-3.06216 2.2518,-1.42805 8.35981,-4.54456 12.43541,-6.34496 3.95906,-1.74892 6.55247,-2.77587 12.32032,-4.87866 10.483069,-3.82182 13.847138,-5.21923 19.782458,-8.21746 7.80037,-3.94036 10.84848,-5.70063 13.9838,-8.07559 3.41063,-2.58351 14.90305,-12.85688 18.20989,-16.2783 4.78928,-4.95522 10.23098,-11.9276 11.03307,-14.13655 0.51397,-1.41543 1.86369,-4.34616 2.15154,-4.67176 0.37047,-0.41905 0.68739,-0.38784 1.00643,0.0991 0.59644,0.91027 0.20391,6.26758 -1.06865,14.58529 -1.2374,8.0879 -3.59731,14.96396 -6.75263,19.67502 -2.11501,3.15784 -5.76584,7.09932 -8.31185,8.97359 -4.83706,3.56083 -12.41187,6.94681 -19.96645,8.9251 -1.87329,0.49056 -6.10474,1.79949 -9.40321,2.90874 -3.29847,1.10926 -7.38628,2.40897 -9.084029,2.88825 -1.69774,0.47929 -3.784529,1.1253 -4.637319,1.43559 -2.88764,1.05069 -14.6211,7.11552 -17.58767,9.09078 -4.70856,3.13514 -10.02977,8.18794 -14.25212,13.5332 -0.59635,0.75494 -3.11261,4.41971 -5.59171,8.14393 -4.93456,7.41297 -6.08055,9.51066 -7.90633,14.47233 -1.91118,5.19375 -2.92671,9.27715 -3.56191,14.32233 -0.3304,2.62426 -0.28483,4.61617 0.18283,7.99087 0.26778,1.93232 0.8719,4.02249 4.88728,16.90923 3.82538,12.27697 4.5424,14.74198 4.34344,14.9322 -0.1658,0.15853 -1.68694,0.3146 -5.00079,0.5131 -2.61937,0.1569 -5.24262,0.33073 -5.82943,0.38629 -0.78149,0.074 -1.11681,0.0375 -1.25334,-0.13622 z m 10.16958,-25.53551 v -10.39341 l 0.47924,-0.56955 c 0.89161,-1.05962 1.72393,-1.28955 4.94472,-1.36601 l 2.86632,-0.068 v 11.39521 11.39521 h -4.14514 -4.14514 z m -33.513889,8.79011 c 0,-0.39596 2.300797,-9.93954 2.423894,-10.05418 0.190722,-0.17762 10.856363,-4.578 10.9264,-4.50797 0.09997,0.1 2.203318,8.25595 2.141958,8.3057 -0.05139,0.0417 -4.010149,1.6866 -12.802321,5.31961 -1.479462,0.61133 -2.689931,1.03291 -2.689931,0.93684 z m 43.038889,-4.56159 v -2.30178 h 2.91041 2.91042 v -4.4642 c 0,-3.57517 -0.0498,-4.53239 -0.25015,-4.8066 -0.22474,-0.30761 -0.52041,-0.34851 -2.91042,-0.40267 l -2.66026,-0.0603 v -2.28954 -2.28955 l 5.86493,0.0568 c 5.61017,0.0543 5.89558,0.0733 6.57048,0.43648 0.8856,0.4766 1.40614,1.02991 1.75547,1.86599 0.22974,0.54983 0.27273,1.68161 0.27128,7.14134 -0.002,6.47673 -0.002,6.48953 -0.4251,7.39727 -0.32714,0.7026 -0.61744,1.02337 -1.2771,1.41111 l -0.85371,0.5018 -5.95313,0.0528 -5.95312,0.0528 z m 19.31088,2.03849 c -1.10978,-0.34775 -1.61919,-0.76985 -2.10455,-1.74384 l -0.44939,-0.9018 v -7.99106 -7.99107 h 4.32153 4.32152 v 6.75726 c 0,5.55601 0.0445,6.81813 0.25026,7.09966 0.24001,0.32838 0.56118,0.34442 7.8493,0.39193 l 7.599048,0.0495 v 2.28761 2.28762 l -10.539228,-0.0118 c -7.95499,-0.009 -10.71315,-0.0663 -11.24849,-0.23404 z m 24.080778,-0.0647 c 0,-0.17079 1.88516,-2.28566 4.18924,-4.69972 2.30408,-2.41405 4.21886,-4.46662 4.25506,-4.56126 0.0362,-0.0947 -1.98785,-2.22745 -4.49791,-4.73956 l -4.56375,-4.56748 4.50051,0.0466 4.5005,0.0466 8.94513,9.34861 8.94513,9.34861 -4.00335,0.0475 -4.00334,0.0475 -2.69542,-2.69121 -2.69541,-2.69121 -2.692,2.6878 -2.692,2.6878 h -3.74619 c -3.45873,0 -3.7462,-0.0238 -3.7462,-0.31054 z m -16.756938,-9.03808 v -2.29305 h 2.91041 2.91042 l -0.002,-0.74966 c -0.006,-1.74483 -0.28909,-1.89618 -3.5517,-1.89618 h -2.26673 v -2.30572 -2.30572 l 5.86493,0.0568 c 5.610168,0.0543 5.895568,0.0733 6.570478,0.43648 0.8856,0.4766 1.40614,1.02991 1.75547,1.86599 0.22174,0.53069 0.273,1.4825 0.273,5.06877 v 4.41539 h -7.231938 -7.23194 z m 32.458508,-3.26023 -2.19661,-2.20189 1.93467,-2.00691 1.93468,-2.00691 4.49653,-0.0245 4.49654,-0.0245 -4.23057,4.23334 c -2.32682,2.32833 -4.23239,4.23333 -4.23461,4.23333 -0.002,0 -0.9925,-0.99085 -2.20063,-2.2019 z m -71.559008,-9.71987 c -0.3086,-0.8042 0.34094,-5.24316 1.2555,-8.58014 1.50946,-5.50758 3.39738,-9.25279 5.96264,-11.82856 3.77777,-3.79326 14.43372,-8.67403 22.59521,-10.34936 3.28651,-0.67463 5.54877,-0.79208 10.92101,-0.56701 13.564498,0.5683 16.995728,0.476 21.860548,-0.58802 1.54496,-0.33791 4.72903,-0.93246 7.07571,-1.32123 2.34667,-0.38876 4.44527,-0.74763 4.66356,-0.79749 1.24027,-0.28327 -0.54155,1.9299 -3.66007,4.54611 -2.21856,1.86121 -6.70023,5.20779 -8.0257,5.993 -4.1457,2.45592 -6.19596,3.16511 -16.406738,5.67515 -6.28997,1.54622 -7.05049,1.62863 -11.7694,1.2754 -10.48434,-0.7848 -14.44912,-0.46666 -17.42038,1.39784 l -0.97014,0.60877 1.49931,-0.10326 c 0.82461,-0.0568 1.59958,-0.13431 1.72215,-0.17227 0.56125,-0.17381 3.28932,0.37641 8.28661,1.67132 7.67441,1.9886 9.63744,2.35785 12.56901,2.36421 3.30945,0.007 6.05645,-0.57538 10.230549,-2.16959 1.501809,-0.57358 2.293059,-0.74115 2.293059,-0.48561 0,0.0962 -0.27781,0.56166 -0.61736,1.03428 -0.33955,0.47263 -0.61736,0.93685 -0.61736,1.03161 0,0.29466 -4.074129,4.21744 -5.496048,5.29188 -1.79657,1.35753 -4.25219,2.72509 -5.86594,3.26681 -1.56652,0.52586 -3.84285,0.59072 -6.36509,0.18136 -1.59558,-0.25896 -12.17864,-2.37306 -15.9632,-3.18885 -1.1789,-0.25412 -2.95191,-0.48208 -4.23333,-0.54429 -2.54067,-0.12335 -3.22414,0.0418 -6.05451,1.46334 -2.45698,1.23397 -3.89469,2.26327 -5.28575,3.78423 -1.2841,1.40401 -1.94268,1.73886 -2.18385,1.11037 z m 11.40745,-29.25805 c 0,-0.39967 0.6104,-1.55466 1.58847,-3.00569 1.32534,-1.96622 7.94831,-8.08311 13.14,-12.13593 5.37888,-4.19896 13.71321,-8.59178 20.28989,-10.6943 2.763879,-0.8836 7.487288,-1.93252 12.342048,-2.74079 4.13499,-0.68844 11.71353,-2.2411 15.61041,-3.19821 7.32853,-1.79994 18.23834,-6.26032 24.21921,-9.90181 1.78011,-1.08383 1.92547,-1.14104 2.20045,-0.86606 0.33947,0.33948 0.38326,0.2474 -2.62336,5.51668 -5.04329,8.83869 -9.20001,14.53132 -12.83129,17.57247 -3.26369,2.7333 -5.69556,3.95523 -10.78862,5.42093 -7.41362,2.13352 -12.83259,3.09419 -18.9618,3.36152 -2.13431,0.0931 -4.95212,0.29344 -6.261809,0.44522 -5.779209,0.66977 -17.027349,2.85964 -22.189219,4.31996 -3.54496,1.00289 -5.68887,1.85353 -10.97189,4.35329 -2.02029,0.95595 -3.50207,1.56151 -4.19141,1.71291 -0.46038,0.10112 -0.57108,0.0701 -0.57108,-0.16019 z m 39.577888,-51.50471 c -0.16736,-0.43614 0.11226,-0.85834 2.41412,-3.64504 3.09658,-3.7488 5.04144,-7.15826 7.82655,-13.72043 2.99611,-7.05927 4.58386,-9.48105 8.01198,-12.2206 1.52291,-1.21701 4.78626,-3.18224 7.12004,-4.28776 1.46855,-0.69566 5.43187,-1.85275 6.34613,-1.85275 0.16997,0 0.44615,0.20927 0.61374,0.46504 0.3439,0.52485 0.49749,0.33421 -1.47247,1.82763 -0.50122,0.37998 -1.12128,0.96615 -1.37791,1.30261 -0.453,0.5939 -3.80411,7.65867 -5.2391,11.045 -2.28153,5.38399 -4.70568,9.00864 -8.3873,12.54092 -1.94771,1.86869 -3.65112,3.06308 -6.83854,4.79499 -1.16417,0.63256 -2.86756,1.59504 -3.78532,2.13885 -1.85818,1.10104 -3.05381,1.59816 -4.28937,1.78345 -0.68682,0.10299 -0.84837,0.0735 -0.94255,-0.17191 z"
       id="path3778"
       inkscape:connector-curvature="0" />
  </g>
</svg>
