<?xml version="1.0" encoding="UTF-8"?>
<svg xmlns="http://www.w3.org/2000/svg" xmlns:xlink="http://www.w3.org/1999/xlink" xmlns:svg="http://www.w3.org/2000/svg" xmlns:sodipodi="http://sodipodi.sourceforge.net/DTD/sodipodi-0.dtd" xmlns:rdf="http://www.w3.org/1999/02/22-rdf-syntax-ns#" xmlns:inkscape="http://www.inkscape.org/namespaces/inkscape" xmlns:dc="http://purl.org/dc/elements/1.1/" xmlns:cc="http://creativecommons.org/ns#" version="1.1" viewBox="0 0 396.7 395.6">
  <!-- Generator: Adobe Illustrator 29.3.1, SVG Export Plug-In . SVG Version: 2.1.0 Build 151)  -->
  <defs>
    <style>
      .st0 {
        fill: none;
      }

      .st1 {
        fill: #87774f;
      }

      .st2 {
        fill: #6f584b;
      }

      .st3 {
        fill: #d4c357;
      }

      .st4 {
        fill: #0e0a09;
      }

      .st5, .st6 {
        isolation: isolate;
      }

      .st6 {
        fill: #bb2d19;
        font-family: Arial-BoldItalicMT, Arial;
        font-size: 22.9px;
        font-style: italic;
      }

      .st6, .st7 {
        font-weight: 700;
      }

      .st8 {
        fill: #a99d5f;
      }

      .st9 {
        fill: #fff;
      }

      .st10 {
        fill: #cfbc53;
      }

      .st11 {
        fill: #382366;
      }

      .st7 {
        fill: #fef900;
        font-family: Arial-BoldMT, Arial;
        font-size: 28px;
      }

      .st12 {
        fill: #645827;
      }
    </style>
    <path id="path" d="M37.1,163.8C55.8,75,143.2,18.2,232.3,37c89.1,18.8,146.1,106,127.3,194.8s-106.1,145.6-195.2,126.8c-89.1-18.8-146.1-106-127.3-194.8Z"/>
    <path id="path1" d="M136.5,26.8C41.8,61.1-7.3,165.4,26.9,259.9s138.7,143.2,233.4,108.9c94.7-34.3,143.8-138.6,109.6-233.1"/>
  </defs>
  <g id="svg2">
    <sodipodi:namedview id="base" bordercolor="#666666" borderopacity="1.0" fit-margin-bottom="0" fit-margin-left="0" fit-margin-right="0" fit-margin-top="0" inkscape:current-layer="layer1" inkscape:cx="285.2225" inkscape:cy="147.88399" inkscape:document-units="px" inkscape:pageopacity="0.0" inkscape:pageshadow="2" inkscape:window-height="1182" inkscape:window-maximized="0" inkscape:window-width="1920" inkscape:window-x="1920" inkscape:window-y="18" inkscape:zoom="1.4324826" pagecolor="#ffffff" showgrid="false"/>
    <g id="layer1" inkscape:groupmode="layer" inkscape:label="Layer 1">
      <g id="g3886">
        <path id="path3077" class="st11" d="M396.7,197.8c0,109.2-88.8,197.8-198.4,197.8S0,307,0,197.8,88.8,0,198.4,0s198.4,88.6,198.4,197.8Z" sodipodi:cx="84.285713" sodipodi:cy="763.07648" sodipodi:rx="197.85715" sodipodi:ry="4.2857141" sodipodi:type="arc"/>
        <text>
          <textPath startOffset=".8%" xlink:href="#path"><tspan class="st7"><tspan x="0" y="0">CARNEGIE MELLON UNIVERSITY</tspan></tspan>
          </textPath></text>
        <path id="path3093" class="st0" d="M26.9,259.9c34.2,94.4,138.7,143.2,233.4,108.9,94.7-34.3,143.8-138.6,109.6-233.1S231.2-7.5,136.5,26.8C41.8,61.1-7.3,165.4,26.9,259.9Z" sodipodi:cx="84.285713" sodipodi:cy="763.07648" sodipodi:rx="197.85715" sodipodi:ry="4.2857141" sodipodi:type="arc"/>
        <path id="rect3869" class="st9" d="M157.5,50.9v76.2l-66-38.1-40.8,70.7,66,38.1-66,38.1,40.8,70.8,66-38.1v76.2h81.7v-76.2l66,38.1,40.8-70.8-66-38.1,66-38.1-40.8-70.7-66,38.1V50.9h-81.7Z" inkscape:connector-curvature="0"/>
        <g id="g3061" inkscape:transform-center-y="-36.998704">
          <path id="path3075" class="st3" d="M60.9,228.2l-9.5-.5-.3-20.8-.3-20.8,11-5.1c6.4-3,10.7-5.6,10.4-6.2-.4-.6,0-.8,1-.4.9.4,4.4-.7,7.9-2.3,6.2-3,6.3-3,25-3h18.8s17,8.5,17,8.5c9.3,4.7,17.2,8.5,17.4,8.5s.6-3.5.8-7.7q.3-7.7,4-10.2c3.4-2.2,3.8-2.8,3.8-6.8s.3-4.3,2-4.3,2-.7,2-5-.4-5-1.6-5-1.5-.9-1.2-3.8c.3-3.7.4-3.8,5-4.1l4.7-.3.3-24.2.3-24.2,3.2-.3c3.2-.3,3.2-.3,3.5-6.5l.3-6.2h24l.3,6.2.3,6.2h6.9v48.9l4.2.3c4.1.3,4.3.4,4.6,4.1.2,2.9,0,3.8-1.2,3.8s-1.6,1.1-1.6,4.9.2,5,2.8,5.2c2.4.3,2.8.8,3.2,4.6.4,3.5,1.1,4.6,3.8,6.2,3.2,2,3.2,2,3.2,10s.3,7.9,1.3,7.5c.7-.3,7.8-3.9,15.7-8l14.3-7.5h21.1s21.1,0,21.1,0l17.8,8.8,17.8,8.8-.3,20-.3,20-9.5.5c-5.2.3-10.5.2-11.8-.2-3-1-248.3-1-251.4,0-1.3.4-6.6.5-11.8.2h0Z" inkscape:connector-curvature="0"/>
          <path id="path3073" class="st10" d="M60.9,228.2l-9.5-.5-.3-20.8-.3-20.8,11-5.1c6.4-3,10.7-5.6,10.4-6.2-.4-.6,0-.8,1-.4.9.4,4.4-.7,7.9-2.3,6.2-3,6.3-3,25-3h18.8s17,8.5,17,8.5c9.3,4.7,17.4,8.5,17.9,8.5s1.1-3.7,1.3-8.2c.3-7.9.4-8.2,3.3-9.8,2.6-1.4,3-2.3,3.3-6.3.3-3.9.6-4.7,2.2-4.7s1.9-.7,1.9-5-.4-5-1.6-5-1.5-.9-1.2-3.8c.3-3.7.4-3.8,5-4.1l4.7-.3.3-24.2.3-24.2,3.2-.3c3.2-.3,3.2-.3,3.5-6.5l.3-6.2h24l.3,6.2.3,6.2h6.9v48.9l4.2.3c4.1.3,4.3.4,4.6,4.1.2,2.9,0,3.8-1.2,3.8s-1.6,1.1-1.6,4.9.2,5,2.8,5.2c2.4.3,2.8.8,3.2,4.7.4,3.6,1,4.7,3.5,6.1,2.9,1.6,3,1.9,3.3,9.8.2,4.5.4,8.2.5,8.2s7.2-3.6,15.7-8l15.5-8h21s21,0,21,0l17.8,8.8,17.8,8.8-.3,20-.3,20-9.5.5c-5.2.3-10.3.2-11.2-.2-2.2-1-248.9-1-252,0-1.3.4-6.6.5-11.8.2h0ZM54.1,201.4c.1-6.7,0-12.3-.5-12.2-.4,0-.7,8.4-.6,18.8.2,18.8.6,16.5,1-6.5ZM159.9,207.7c0-17-.1-18.5-1.8-18.4-1,0-1.2.3-.5.6.9.4,1.2,5,1.2,18.4s.2,17.9.5,17.9.5-8.3.5-18.5ZM187,174.8l3.1-2.6h-14.1c-7.7,0-14.1.3-14.1.8s5.7.6,12.7.4l12.7-.3-2.2,2.4c-2.2,2.3-2.2,2.8-2,26.8l.2,24.4.3-24.7.3-24.7,3.1-2.6h0ZM234.9,199.2v-27h-14.2c-14.1,0-14.1,0-12.3,2,2.1,2.3,4.4,2.8,2.5.5-1.1-1.3.2-1.5,10.9-1.5h12.1v26.5c0,14.6.2,26.5.5,26.5s.5-12.2.5-27ZM238.1,201.4c.1-6.7,0-12.3-.5-12.2-.4,0-.7,8.4-.6,18.8.2,18.8.6,16.5,1-6.5ZM343.9,207.7v-18.5h-2.8c-2.4.3-2.4.3-.5.7,2.2.4,2.2.6,2.2,18.4s.2,17.9.5,17.9.5-8.3.5-18.5ZM213.6,205c-.2-4-.3-1-.3,6.7,0,7.7.2,11,.3,7.3.2-3.7.2-10,0-14h0ZM213.2,178.1c-.4-.4-.6,3.8-.3,9.4l.5,10.2.3-9.4c.2-5.2,0-9.8-.5-10.2ZM122.1,189.4c-12.2-.2-32.3-.2-44.5,0s-2.2.3,22.2.3,34.5-.1,22.2-.3ZM153.6,189.5c-1.5-.2-4.2-.2-6,0-1.8.2-.6.4,2.7.4,3.3,0,4.8-.2,3.3-.4ZM162.5,188c-.3-.8-.6-.6-.6.6,0,1.1.2,1.6.5,1.3s.4-1.2,0-1.9h0ZM313.6,189.4c-13.6-.2-35.9-.2-49.5,0s-2.5.3,24.8.3,38.4-.1,24.8-.3ZM338.9,186.8c0-.6-14.3-7.6-14.7-7.2s2.1,1.6,5.2,3.1c3,1.5,5.5,2.9,5.5,3.1s-20.3.4-45.1.4-44.9-.3-44.4-1.1c.6-.9-3,.4-4.5,1.7-.2.2,21.7.4,48.8.4s49.2-.2,49.2-.4ZM152.9,185.8c0-.2-.7-.7-1.6-1-.9-.3-1.3-.2-.9.4.6,1,2.5,1.4,2.5.6ZM62.4,183.4c-.3-.3-1.1,0-1.8.7-1,1-.9,1.1.6.6,1-.4,1.5-.9,1.2-1.2h0ZM162.6,177.5c-.2-1.5-.4-.5-.4,2.2,0,2.8.2,4,.4,2.8.2-1.2.2-3.5,0-5h0ZM249.4,183.2c.4-.6,0-.7-.9-.4-1.7.7-2,1.4-.6,1.4s1.2-.4,1.6-1ZM72.4,179c.5-.5-.8-.2-3,.7s-4.5,2.1-5,2.6.8.2,3-.7,4.5-2.1,5-2.6ZM146.3,182.2c-.5-.5-2.8-1.7-5-2.6-4.9-2-3.9-.8,1.3,1.6,4.5,2.1,4.9,2.2,3.7,1h0ZM261.9,176.7c3.8-1.9,7-3.7,7-4,0-.4-13.9,6.2-14.9,7.1-1.3,1.2,1.8,0,7.9-3.1ZM322.9,178.8c0-.2-2.6-1.7-5.8-3.2s-6.1-2.9-6.5-3.1-.8-.2-.8.1c0,.4,11.8,6.5,12.8,6.6.1,0,.2-.2.2-.4ZM76.4,177.2c.4-.6,0-.7-.9-.4-1.7.7-2,1.4-.6,1.4s1.2-.4,1.6-1ZM80.4,175.2c.4-.6,0-.7-.9-.4-1.7.7-2,1.4-.6,1.4s1.2-.4,1.6-1ZM132.9,175.8c0-.2-.7-.7-1.6-1-.9-.3-1.3-.2-.9.4.6,1,2.5,1.4,2.5.6ZM85.4,173.2c.4-.6,8.3-1,20.5-1s20.1.4,20.5,1c.3.5,1.1,1,1.8,1s.3-.7-.8-1.5c-2.8-2.1-40-2.1-42.9,0-1.1.8-1.4,1.5-.8,1.5s1.4-.5,1.8-1ZM230.6,168.7c-5.1-2.6-5.3-2.7-3.3-1.1,1.8,1.4-.7,1.6-28.5,1.6h-30.4s5.5-3.5,5.5-3.5c3-1.9,5.1-3.5,4.7-3.5-.4,0-3.6,1.8-7,4l-6.2,4h34c30.1,0,33.7-.1,31.3-1.4h0ZM224.9,165.8c0-.2-.7-.7-1.6-1-.9-.3-1.3-.2-.9.4.6,1,2.5,1.4,2.5.6ZM174.5,160c-3.9-1.2-4.6-.9-4.6,1.6v2.5l3.4-1.7c3.1-1.6,3.2-1.8,1.2-2.4ZM170.9,161.2c0-.5.5-1,1-1s1,.5,1,1-.5,1-1,1-1-.5-1-1ZM227.9,161.7c0-2.6-.9-2.9-4.8-1.9l-2.3.6,2.8,1.8c3.8,2.4,4.3,2.4,4.3-.6ZM224.9,161.7c-1-1.2-1-1.5.4-1.5s1.6.7,1.6,1.5-.2,1.5-.4,1.5-.9-.7-1.6-1.5ZM217.4,161.2c-.3-.5-1.2-1-1.8-1-.7,0-.6.4.3,1,1.9,1.2,2.3,1.2,1.5,0ZM185.4,159.2c.4-.6,0-.7-.9-.4-1.7.7-2,1.4-.6,1.4s1.2-.4,1.6-1ZM175.5,153.8c-.5-3.7-.3-4.5,1.1-4.9,1.3-.3,1.1-.5-.5-.6-2-.1-2.2.3-2.2,4.9s.4,5,1.1,5,.9-1.4.5-4.4ZM210.9,157.8c0-.2-.7-.7-1.6-1-.9-.3-1.3-.2-.9.4.6,1,2.5,1.4,2.5.6ZM221.9,153.2c0-2.8-.3-5-.8-5-.4,0-.6,2.2-.4,5,.4,6.5,1.2,6.5,1.2,0ZM188.5,152.9c.6-1,.4-1-.6,0-1.9,1.7-2.6,1.6-3.2-.8-.3-1.2-1.3-2-2.4-1.9-1.7.1-1.7.2,0,.6,1.1.3,1.8,1.4,1.8,2.9,0,2.1.3,2.3,1.9,1.4,1.1-.6,2.3-1.6,2.6-2.3h0ZM199.4,152c.4.4.5.1,0-.6-.6-1-1.6-.8-4.4.9-5.5,3.3-6.4,4.6-1.1,1.6,2.5-1.4,5-2.3,5.4-1.9h0ZM212.8,153.9c0-1.8-.2-1.9-.9-.8-.5.8-.7,1.8-.4,2.2.9,1.4,1.4.9,1.4-1.5ZM203.4,153.2c-.3-.5-1.2-1-1.8-1-.7,0-.6.4.3,1,1.9,1.2,2.3,1.2,1.5,0ZM179.6,150.6c-.3-.3-1.2-.4-1.9,0-.8.3-.6.6.6.6,1.1,0,1.6-.2,1.3-.5h0ZM192.1,150.5c-.7-.3-1.8-.3-2.5,0s-.1.5,1.2.5,1.9-.2,1.2-.5ZM207.1,150.5c-.7-.3-2-.3-3,0-1,.3-.4.5,1.2.5s2.4-.2,1.8-.5h0ZM217.1,150.5c-.7-.3-1.8-.3-2.5,0s-.1.5,1.2.5,1.9-.2,1.2-.5ZM196.9,148.6c0-.2-.7-.4-1.5-.4s-1.5.4-1.5,1,.7.7,1.5.4,1.5-.8,1.5-1ZM209.4,149.2c-.3-.5-1.2-1-1.8-1-.7,0-.6.4.3,1,1.9,1.2,2.3,1.2,1.5,0ZM203.1,148.5c-.7-.3-1.8-.3-2.5,0s-.1.5,1.2.5,1.9-.2,1.2-.5ZM172.2,143.7c-.5-1.3,2.7-1.5,25.5-1.5s26.1.1,26.5,1.8c.3,1.3.5,1.2.6-.5v-2.2c.1,0-26.9,0-26.9,0-26.3,0-27,0-27,2s.4,2,1,2,.7-.7.4-1.5ZM184.6,144.5c-1.5-.2-4.2-.2-6,0-1.8.2-.6.4,2.7.4,3.3,0,4.8-.2,3.3-.4ZM195.6,144.6c-.3-.3-1.2-.4-1.9,0-.8.3-.6.6.6.6,1.1,0,1.6-.2,1.3-.5h0ZM200.1,144.5c-.7-.3-1.8-.3-2.5,0s-.1.5,1.2.5,1.9-.2,1.2-.5ZM210.6,144.5c-1-.3-2.8-.3-4,0s-.5.4,1.7.5,3.2-.2,2.3-.4ZM216.6,144.6c-.3-.3-1.2-.4-1.9,0-.8.3-.6.6.6.6,1.1,0,1.6-.2,1.3-.5h0ZM220.6,144.6c-.3-.3-1.2-.4-1.9,0-.8.3-.6.6.6.6,1.1,0,1.6-.2,1.3-.5h0ZM199.1,138.4l-17.2-.3v-2.7c0-2.1.3-2.4,1.2-1.5,1.4,1.4,4.4,1.6,5.2.4.3-.4-.7-.8-2.2-.8-2.3,0-2.7-.5-3.4-4-.4-2.2-.7-11.3-.8-20.2v-16.2c0,0,17.2-.3,17.2-.3l17.2-.3-17.8-.2-17.8-.2v47l17.8-.2,17.8-.2-17.2-.3h0ZM201.4,134.2c.3-.6.9-.8,1.3-.6.4.2.5-3.2.2-7.7l-.5-8.2-.5,8c-.5,7.4-.7,8-3,8.7-2.3.6-2.3.7-.3.8,1.2,0,2.5-.4,2.8-.9ZM206.6,110c-.2-4.6-.3-1.1-.3,7.7,0,8.8.2,12.5.3,8.3s.2-11.4,0-16h0ZM215.7,113.6c.1-12.7,0-14.3-1.8-15.8-1.1-1-2.7-1.5-3.8-1.3-1.5.4-1.4.5.4.6,1.2,0,2.6.9,3.2,1.9.6,1,.8,8.6.6,18.2-.2,10,0,15.3.5,13.5.5-1.7.9-9.3,1-17.1ZM194.6,106.4c-.2-4.8-.3-.9-.3,8.8s.1,13.6.3,8.8.2-12.7,0-17.5ZM190.6,114.9c-.2-1.2-.4-.2-.4,2.2s.2,3.5.4,2.2.2-3.3,0-4.5ZM190.6,102.5c-.2-2.1-.4-.6-.4,3.2,0,3.8.2,5.5.4,3.8.2-1.8.2-4.9,0-7h0ZM207.2,98.6c.3-.9.2-1.3-.4-.9-.5.3-1,1-1,1.6,0,1.4.7,1.1,1.4-.6h0ZM202.4,97.2c-1-1.1-2.8-1.9-3.9-1.9-1.9.1-1.9.2.2.6,1.3.2,2.6,1.1,2.9,1.9s1,1.4,1.6,1.4.2-.9-.8-2h0ZM188.9,96.7c-1.4-1.6-4.6-2-5.4-.6-.3.5.5.7,1.8.4,1.3-.2,2.7,0,3,.6.4.6.9,1.1,1.2,1.1s0-.7-.7-1.5ZM208.9,84.7v-5.5l-10.8.2-10.8.2,10.2.3,10.2.3v8.9l-10.2.3-10.2.3,10.8.2,10.8.2v-5.5Z" inkscape:connector-curvature="0"/>
          <path id="path3071" class="st8" d="M60.9,228.2l-9.5-.5-.3-20.8-.3-20.8,11-5.1c6.4-3,10.7-5.6,10.4-6.2-.4-.6,0-.8,1-.4.9.4,4.4-.7,7.9-2.3,6.2-3,6.3-3,25-3h18.8s17,8.5,17,8.5c9.3,4.7,17.4,8.5,17.9,8.5s1.1-3.7,1.3-8.2c.3-7.9.4-8.2,3.3-9.8,2.6-1.4,3-2.3,3.3-6.3.3-3.9.6-4.7,2.2-4.7s1.9-.7,1.9-5-.4-5-1.6-5-1.5-.9-1.2-3.8c.3-3.7.4-3.8,5-4.1l4.7-.3.3-24.2.3-24.2,3.2-.3c3.2-.3,3.2-.3,3.5-6.5l.3-6.2h24l.3,6.2.3,6.2h6.9v48.9l4.2.3c4.1.3,4.3.4,4.6,4.1.2,2.9,0,3.8-1.2,3.8s-1.6,1.1-1.6,4.9.2,5,2.8,5.2c2.4.3,2.8.8,3.2,4.7.4,3.6,1,4.7,3.5,6.1,2.9,1.6,3,1.9,3.3,9.8.2,4.5.4,8.2.5,8.2s7.2-3.6,15.7-8l15.5-8h21s21,0,21,0l17.8,8.8,17.8,8.8-.3,20-.3,20-9.5.5c-5.2.3-10.3.2-11.2-.2-2.2-1-248.9-1-252,0-1.3.4-6.6.5-11.8.2h0ZM159.9,207.4v-18.8H52.9v37.5h107v-18.8ZM62.9,209.1c0-10.5.1-11.2,2.6-13.6s3.2-2.4,5.8-1.9c5,1,5.7,2.7,5.7,15.3v11.3h-14v-11h0ZM87.7,219.5c0-.4,0-5.5,0-11.3.2-9.8.3-10.6,2.7-12.8,3.3-2.9,5.9-2.8,9,.3,2.5,2.5,2.5,2.9,2.2,13.2l-.4,10.7-6.7.3c-3.7.2-6.8,0-6.9-.5h0ZM111.9,209.1c0-10.5.1-11.2,2.6-13.6s3.2-2.4,5.8-1.9c5,1,5.7,2.7,5.7,15.3v11.3h-14v-11h0ZM136.8,219.5c0-.4,0-5.5,0-11.3.1-9.9.3-10.6,2.6-12.8,3.3-2.9,5.9-2.8,9,.2,2.4,2.4,2.5,2.9,2.2,13.2l-.3,10.8-6.8.3c-3.7.2-6.8,0-6.8-.5h0ZM183.9,202.2v-24l3.2-3,3.2-3h-14.2s-14.2,0-14.2,0v54h22v-24ZM234.9,199.2v-27h-28.2l3.1,3.5,3.1,3.5v46.9h22v-27ZM343.9,207.7v-18.5h-107v37h107v-18.5ZM295.6,220.6c-.4-.4-.7-5.5-.7-11.4,0-9.8.2-10.8,2.3-12.8,2.9-2.7,7.1-2.8,9.7-.1s2,3.1,1.8,13.2l-.3,11.2-6,.3c-3.3.2-6.4,0-6.8-.4h0ZM245.9,208.8c0-11.2,0-11.5,2.6-13.5,3.3-2.6,5.4-2.6,8.8,0,2.6,2.1,2.7,2.2,2.4,13.2l-.3,11.2-6.8.3-6.8.3v-11.5h0ZM270.2,218.7c-.3-.8-.4-6-.2-11.6.3-9.2.6-10.3,2.7-12,2.9-2.3,5.9-2.4,8.9-.4,2.1,1.5,2.2,2.3,2.2,13.5v11.9h-6.5c-4.8,0-6.7-.4-7.1-1.5h0ZM319.4,219.2c-.3-.5-.5-5.5-.4-11,.2-9,.4-10.3,2.5-12.5,2.7-2.9,6-3.2,9.2-1,2.1,1.5,2.2,2.3,2.2,13.5v11.9h-6.4c-3.5,0-6.7-.4-7-1h0ZM140.9,179.2l-15.5-7.9h-19.5s-19.5,0-19.5,0l-16,7.9-16,7.9h51s51,0,51,0l-15.5-7.9h0ZM324.9,179.2l-15.5-7.9h-19.5c0,0-19.5-.1-19.5-.1l-15,7.6c-8.3,4.2-15.2,7.8-15.4,8s22.3.3,50,.3h50.4c0,0-15.5-7.9-15.5-7.9h0ZM227.6,166.7c-3.2-1.9-6-3.5-6.2-3.5s-3.4-1.8-7-4-6.8-4-7-4-2.3-1.1-4.6-2.6l-4-2.6-4.2,2.4c-2.3,1.3-6.3,3.6-8.8,5s-8.4,4.8-13,7.6l-8.3,5h34.5s34.5,0,34.5,0l-5.8-3.5ZM174.7,160.1c-4.9-1.4-5.9-1-5.7,2.1l.2,2.9,3.9-2.2c3.7-2.1,3.8-2.2,1.5-2.8h0ZM227.9,161.7c0-2.6-1.6-3.1-5.5-1.6-1.8.7-1.8.9,1,2.4,4,2.2,4.5,2.1,4.5-.8h0ZM175.9,155.3c0-3.1,1-3.8,5-3.7,1.8,0,2.6.7,2.8,2.3.2,1.2.6,2.2,1,2.2,1.3,0,4.2-2.7,4.2-3.9s.4-1,.8-.7c.4.3,2.7-.4,5.1-1.4l4.3-1.9,4.2,2.2c2.3,1.2,4.4,2.5,4.7,2.8.3.3,1.5,1.1,2.7,1.7,1.9,1,2.2.9,2.5-1.1.3-1.8,1-2.2,3.8-2.2s3.5.1,3.2,3.2c-.2,2.5,0,3.2,1.3,3.2s1.6-.9,1.3-5.2l-.3-5.2-24.2-.3-24.2-.3v5.5c0,3,.5,5.5,1,5.5s1-1.3,1-2.9h0ZM224.9,143.5v-2.3h-54v5.1l27-.2,27-.2v-2.3h0ZM216.9,115.7v-23.5h-36v47h36v-23.5ZM208.6,134.1c-1.5-.9-1.7-2.9-1.7-18.4v-17.4l2.4-.6c1.3-.3,2.9-.3,3.5,0,.7.4,1.1,6.9,1.1,18.1s-.2,17.5-1.8,18.4c-1.1.6-2.4.6-3.5,0h0ZM183.5,133.4c-.3-.4-.6-8.6-.7-18.1-.1-13.8,0-17.5,1.2-18.2,1.9-1.2,2.5-1.1,4.4.8,1.5,1.5,1.6,3.4,1,18.2-.4,9.1-.9,16.9-1.2,17.3-.6,1-4.1,1-4.7,0ZM196.1,133c-.8-.8-1.2-6.3-1.2-18s.2-16.9,1.8-17.7c1.1-.6,2.4-.6,3.5,0,1.5.9,1.7,2.9,1.7,18.3s-.2,17.4-1.6,18c-2.2.9-2.9.8-4.2-.6ZM208.9,84.7v-5.5h-22v11h22v-5.5Z" inkscape:connector-curvature="0"/>
          <path id="path3069" class="st1" d="M325.4,228.1c-1.1-.5-63.2-.8-138-.7H51.4c0,.1,0-20.7,0-20.7v-20.8l18-8.3,18-8.3h18.5s18.5,0,18.5,0l18,9,18,9,.3-8.2c.3-8.1.3-8.3,3.7-10.5,2.9-1.9,3.5-2.9,3.7-6.5.3-3.6.7-4.3,2.6-4.6,2-.3,2.2-.9,2.2-5.1s-.3-4.9-2.1-5.4c-1.7-.4-2-1.2-1.8-3.9.3-3.2.5-3.3,5.1-3.6l4.7-.3.3-24.2.3-24.2,3.2-.3,3.2-.3v-11.9h25v11.9l3.2.3,3.2.3.3,24.2.3,24.2,4.2.3c4,.3,4.3.5,4.5,3.6.2,2.2-.2,3.4-1.2,3.9-1.1.4-1.6,2-1.6,5.5s.2,4.9,2.5,4.9,2.5.4,2.5,4.4.3,4.6,4,6.7l4,2.2v7.8c0,4.3.2,7.8.5,7.8s7.5-3.6,16-8l15.6-8h21.2c0,0,21.2.2,21.2.2l17,8.7,17,8.7.3,19.4c.2,14.9,0,19.6-1,20.3-.7.5-4.4.7-8.3.6s-7.5,0-8,.4c-.5.3-1.9.2-3-.3h0ZM160.1,207.6c.2-10.2.1-18.8-.1-19s-24.4-.4-53.8-.4h-53.3v38h106.9l.3-18.6ZM64,209.4c0-11.3,1.3-14.3,5.8-14.3s6,1.9,5.8,13.3l-.2,10.2-5.7.3-5.7.3v-9.8h0ZM88.9,208.8c0-11.3,1.1-13.6,6.1-13.6s4.9,1.6,4.9,13.1v10.7h-11v-10.3ZM94.5,209.9c-.3-.7-.5-.1-.5,1.2s.2,1.9.5,1.2.3-1.8,0-2.5ZM112.9,209.4c0-11.2,1.3-14.3,5.8-14.3s6.1,2.4,5.9,13.6l-.2,9.9-5.7.3-5.7.3v-9.8ZM119.9,207.2c0-.5-.2-1-.4-1s-.7.5-1.1,1c-.3.5-.1,1,.4,1s1.1-.5,1.1-1ZM137.9,208.8c0-11.3,1.1-13.6,6.1-13.6s4.9,1.6,4.9,13.1v10.7h-11v-10.3ZM183.9,202.3v-23.9l3.5-3.1,3.5-3.1h-29.1v54h22v-23.9ZM234.9,199.2v-27h-28.4l2.7,2.8,2.7,2.8v48.4h23v-27ZM344.9,207.7v-18.5h-108v37h108v-18.5ZM297,219.4c-.7-.2-1.1-3.8-1.1-10.1s.2-9.9,2.2-11.7c2.7-2.4,6.6-2.3,8.4.2,1.4,2,1.4,19.7,0,21.1-.8.8-7.6,1.1-9.5.5h0ZM247,209c0-11.4,1.1-13.8,5.9-13.8s6,2.7,5.9,12.1c-.2,12.1,0,11.9-6.4,11.9h-5.4v-10.2h0ZM271.9,208.8c0-8.1.3-10.8,1.6-12,.9-.9,2-1.6,2.5-1.6s.9,5.3.9,12v12h-5v-10.4ZM277.9,207.2c0-9.2.3-12,1.3-12,3,0,3.7,2.5,3.7,13.2v10.8h-5v-12ZM320.9,208.8c0-8.1.3-10.8,1.6-12,.9-.9,2-1.6,2.5-1.6s.9,5.3.9,12v12h-5v-10.4ZM326.9,207.2c0-9.2.3-12,1.3-12,3,0,3.7,2.5,3.7,13.2v10.8h-5v-12ZM150.2,183.8c-3.4-1.8-10.9-5.7-16.7-8.5l-10.5-5.1h-34.1l-15.9,7.4c-8.7,4.1-16.7,7.9-17.7,8.5-1.3.8,12.4,1.1,49.6,1.1h51.5s-6.2-3.3-6.2-3.3h0ZM324.9,179.2l-16.1-8h-39.2l-14.6,7.6c-8,4.2-14.8,7.8-15,8s22.4.4,50.4.4h50.8l-16.1-8h0ZM232.9,169.8c0-.2-1.2-1.1-2.8-1.8s-9.1-5.1-17-9.6-14.4-8.2-14.6-8.2-6.7,3.7-14.3,8.2c-7.6,4.5-15.1,8.8-16.6,9.6-1.5.8-2.8,1.6-2.8,1.8s15.3.4,34,.4,34-.2,34-.4ZM173.5,163c3.7-2.2,3.7-2.2,1.3-2.9-5-1.4-5.9-1.1-5.9,2.1s.2,3,.4,3,2.1-1,4.2-2.2ZM227.5,159.5c-.3-.3-2-.1-3.8.4l-3.2.9,3.5,2,3.5,2,.3-2.4c.2-1.3,0-2.7-.2-3h0ZM176.1,155.2c-.4-2.9-.3-3,3.7-3s4.1.3,4.1,2,.4,2,.8,2,1.8-.9,3-2,2.6-2,3.2-2,2.4-.9,4.2-1.9c3.1-1.9,3.2-1.9,7.8.2,2.5,1.2,4.8,2.4,5.1,2.8s1.5,1.1,2.8,1.8c2,1,2.2.9,2.2-.9s.6-2,3.5-2,3.5.2,3.5,3,.5,3,1.5,3,1.5-1.3,1.5-5.5v-5.5h-49v5.5c0,3.9.4,5.5,1.3,5.5s1.2-1,.9-3ZM224.9,143.7v-2.5h-54v5h54v-2.5ZM216.9,115.7v-23.5h-36v47h36v-23.5ZM184.1,133.4c-1-.6-1.2-5-1-18.2l.3-17.4,2.8-.3,2.8-.3v18c0,15.5-.2,18-1.6,18.6-1.9.7-1.6.8-3.2-.2h0ZM197.1,133.3c-.8-.5-1.3-6.1-1.4-18.2l-.3-17.4h6l.3,17.2c.3,15.8.1,17.3-1.6,18.2-1,.5-2.4.6-3,.2ZM207.6,132.8c-.3-.8-.5-8.8-.4-17.7.2-13.9.4-16.4,1.8-17.3,1.2-.8,2.1-.7,3.3.3,1.4,1.1,1.6,3.7,1.3,18.4l-.3,17.1-2.6.3c-1.6.2-2.8-.3-3.2-1.2h0ZM208.9,84.7v-5.5h-22v11h22v-5.5Z" inkscape:connector-curvature="0"/>
          <path id="path3067" class="st2" d="M51.2,226.7c-.2-.6-.3-10-.1-20.9l.3-19.9,11.5-5.3c27.8-12.8,22.9-11.5,43.1-11.5h17.9l18,9c9.9,5,18.2,9,18.5,9s.5-3.8.5-8.3v-8.3l3.5-1.9c3.1-1.6,3.5-2.4,3.8-6.4.3-3.8.6-4.6,2.5-4.9,2-.3,2.2-.9,2.2-5.1s-.3-4.9-2.1-5.4c-1.7-.4-2-1.2-1.8-3.9.3-3.2.5-3.3,5.1-3.6l4.7-.3.3-24.2.3-24.2,3.2-.3,3.2-.3v-11.9h25v11.9l3.2.3,3.2.3.3,24.2.3,24.2,4.2.3c4,.3,4.3.5,4.5,3.6.2,2.2-.2,3.4-1.2,3.9-1.1.4-1.6,2-1.6,5.5s.2,4.9,2.5,4.9,2.5.4,2.5,4.4.3,4.6,3.8,6.6l3.8,2.1-.4,7c-.2,4,0,7.5.6,8,.7.7,6-1.6,16.7-7.1l15.7-8.1h40.9l8.2,4c4.5,2.2,12.5,6.2,17.7,8.8l9.5,4.7.3,19.8c.1,10.9,0,19.8-.5,19.8-.4,0-66.6.1-147.1.2-99.5.1-146.5-.1-146.8-.8h0ZM160.9,207.2v-19H52.9v38h108v-19ZM119.9,213.6c0-4.7.2-5.4,2-5.4s2,.7,2,4.9-.3,5-2,5.4c-1.8.5-2,0-2-4.9ZM64.9,213.2c0-4.5.2-5,2.2-5s2.2.5,2.2,5-.2,5-2.2,5-2.2-.5-2.2-5ZM70.9,213.2c0-4.3.3-5,2-5s2,.7,2,5-.3,5-2,5-2-.7-2-5ZM88.9,213.2c0-4.7.2-5,2.5-5s2.5.3,2.5,5-.2,5-2.5,5-2.5-.3-2.5-5ZM94.9,213.2c0-4.7.2-5,2.5-5s2.5.3,2.5,5-.2,5-2.5,5-2.5-.3-2.5-5ZM113.9,213.2c0-4.7.2-5,2.5-5s2.5.3,2.5,5-.2,5-2.5,5-2.5-.3-2.5-5ZM137.9,213.2c0-4.7.2-5,2.5-5s2.5.3,2.5,5-.2,5-2.5,5-2.5-.3-2.5-5ZM143.9,213.2c0-4.7.2-5,2.5-5s2.5.3,2.5,5-.2,5-2.5,5-2.5-.3-2.5-5ZM64.9,202.7c0-2.8.6-4.8,1.8-5.9,1-.9,2-1.7,2.2-1.7s.5,2.4.5,5.4c0,4.9-.2,5.5-2.2,5.9-2.1.4-2.3,0-2.3-3.8ZM70.9,201.2c0-5.6.1-6,1.9-5,2.4,1.3,3,3,2.4,6.6-.5,2.8-1.8,4.4-3.5,4.4-.4,0-.8-2.7-.8-6h0ZM91.1,206.4c-1.8-.3-2.2-1-2.2-3.8s.8-4.2,2.2-5.7l2.2-2.2.3,3.2c.6,6.4-.1,8.8-2.6,8.4ZM95.4,206.4c-.9-.9-.6-11.2.3-11.2,3.8,0,5.8,10.3,2.2,11.3-1.1.3-2.2.3-2.5,0h0ZM113.9,202.7c0-2.8.6-4.8,1.8-5.9,1-.9,2-1.7,2.3-1.7s.5,2.4.5,5.4c0,4.9-.2,5.5-2.3,5.9-2.2.4-2.4.1-2.4-3.8h0ZM119.9,201.1c0-5.5.1-5.9,1.9-4.9,1,.6,2.1,1.7,2.5,2.5,1,2.6-.5,7.3-2.5,7.8-1.7.4-1.9-.1-1.9-5.4h0ZM140.1,206.4c-1.8-.3-2.2-1-2.2-3.8s.8-4.2,2.2-5.7l2.2-2.2.3,3.2c.6,6.4-.1,8.8-2.6,8.4ZM144.4,206.4c-.9-.9-.6-11.2.3-11.2,3.8,0,5.8,10.3,2.2,11.3-1.1.3-2.2.3-2.5,0h0ZM184.1,202.3l-.3-23.9,3.8-3.1,3.8-3.1h-29.5v54h11.2s11.2,0,11.2,0l-.3-23.9h0ZM235.1,206.9c.2-10.6.2-22.7,0-27l-.3-7.8h-28.2l2.7,2.8,2.7,2.8v48.4h22.9l.3-19.2ZM344.9,207.7v-18.5h-108v37h108v-18.5ZM296.7,214.2c.3-4.1.7-5,2.2-5s1.9.8,1.9,5-.2,5-2.2,5c-2.1,0-2.2-.4-1.9-5ZM302.9,213.7c0-4.8.2-5.5,2-5.5s2,.7,2,5.5-.2,5.5-2,5.5-2-.7-2-5.5ZM247.7,213.2c.3-4.1.7-5,2.2-5s1.9.8,1.9,5-.2,5-2.2,5c-2.1,0-2.2-.4-1.9-5ZM253.9,213.2c0-4.3.3-5,2-5s2,.7,2,5-.3,5-2,5-2-.7-2-5ZM271.9,213.2c0-4.7.2-5,2.5-5s2.5.3,2.5,5-.2,5-2.5,5-2.5-.3-2.5-5ZM277.9,213.2c0-4.7.2-5,2.5-5s2.5.2,2.3,5c-.2,4.5-.5,5-2.5,5s-2.3-.4-2.3-5ZM320.9,213.2c0-4.7.2-5,2.5-5s2.5.3,2.5,5-.2,5-2.5,5-2.5-.3-2.5-5ZM326.9,213.2c0-4.7.2-5,2.5-5s2.5.3,2.5,5-.2,5-2.5,5-2.5-.3-2.5-5ZM247.9,202.5c0-3.6,1.8-7.4,3.6-7.4s.4,2.6.4,5.8c0,5.1-.2,5.8-2,5.8s-2-.7-2-4.2ZM253.9,201.1c0-5.6.1-5.9,2-4.9,1.5.8,2,2.1,2,5.4s-.4,4.4-2,4.9c-1.8.5-2,0-2-5.4ZM272.1,202.4c.2-3.4.9-4.9,2.5-6,2.2-1.5,2.2-1.5,2.2,4s-.2,5.5-2.5,6c-2.5.5-2.5.3-2.2-4ZM277.9,201.3c0-6.4.6-7.3,3.3-4.3,1.7,1.9,2.3,9.2.7,9.2s-1.6.3-2.5.6c-1.3.5-1.6-.3-1.6-5.5ZM296.9,202.9c0-4,1.3-6.7,3.2-6.7s.8,2.5.8,5.5c0,4.8-.2,5.5-2,5.5s-2-.7-2-4.3ZM302.9,201.7c0-3,.4-5.5.8-5.5,1.9,0,3.2,2.7,3.2,6.7s-.3,4.3-2,4.3-2-.7-2-5.5ZM320.9,202.6c0-2.7.6-4.7,1.8-5.8,2.8-2.5,3.2-2.1,3.2,4.1s-.1,5.8-2.5,5.8-2.5-.4-2.5-4.1ZM326.9,201.3c0-6.4.6-7.3,3.3-4.3,1.7,1.9,2.3,9.2.7,9.2s-1.6.3-2.5.6c-1.3.5-1.6-.3-1.6-5.5ZM341.9,187.7c0-.3-7.2-4.1-16.1-8.5l-16.1-8h-40l-15.9,8.1c-8.8,4.5-15.9,8.3-15.9,8.5s23.4.4,52,.4,52-.2,52-.5h0ZM140.6,178.7l-16.8-8.5h-17.7s-17.7,0-17.7,0l-9.5,4.5c-5.2,2.5-13.1,6.3-17.5,8.4l-8,3.9h52s52,0,52,0l-16.8-8.5h0ZM233.8,169.8c-.2-.2-3.1-1.8-6.4-3.6s-11.1-6.2-17.3-9.8c-12.8-7.3-10.5-7.4-23.7.4-5.5,3.3-7.7,4-10.3,3.6-1.8-.3-3.5-.9-3.8-1.4-1.4-2.3-3.4-.7-3.4,2.6s.2,3.5.4,3.5,2.1-1,4-2.1,3.8-1.9,4.1-1.6c.5.5-6.1,4.7-7.4,4.8-.4,0-1.8.9-3.2,2-2.5,2-2.4,2,32.4,2,19.2,0,34.7-.1,34.5-.3h0ZM227.9,161.7c0-3.8-1-4.3-5.2-2.3l-2.6,1.2,3.7,2.2c2,1.2,3.8,2.2,3.9,2.3s.2-1.5.2-3.4ZM176.6,155.2c-.4-2.9-.3-3,3.4-3s3.8.3,3.8,2,.5,2,1,2,1.9-.9,3-2,2.6-2,3.2-2,2.1-.7,3.2-1.5c2.5-1.9,5.6-1.9,8.1,0,1.1.8,2.7,1.5,3.7,1.5s1.8.4,1.8.9c0,.7,4.3,3.2,5.5,3.2s.5-.9.5-2,.7-2,3-2,3,.3,3,3,.5,3,1.5,3,1.5-1.3,1.5-5.5v-5.5h-49v5.5c0,4.4.3,5.5,1.6,5.5s1.5-.7,1.2-3ZM225.4,143.3v-2.3s-27.3,0-27.3,0c-15,0-27.2.3-27.2.6,0,.3,0,1.5,0,2.6,0,2,.5,2,27.2,1.8l27.3-.3v-2.3s0,0,0,0ZM216.6,115.4l-.3-23.8h-36l-.3,23.8-.3,23.8h37.1l-.3-23.8ZM208.5,133.4c-.3-.4-.6-8.4-.7-17.6-.2-17.7.3-19.6,4.3-17.5,1.6.9,1.8,2.6,1.8,16.8s-.3,16.6-.6,17.5c-.6,1.7-3.9,2.2-4.8.8ZM183.3,132c-.3-.7-.4-8.8-.2-17.8l.3-16.5h5v17.5c0,17.4,0,17.5-2.3,17.8-1.2.2-2.5-.3-2.8-1ZM195.9,115.2v-18.1l2.8.3,2.8.3v35l-2.8.3-2.8.3v-18.1h0ZM209.9,84.7v-5.5h-23v11h23v-5.5Z" inkscape:connector-curvature="0"/>
          <path id="path3065" class="st12" d="M51.3,227.3c-.7-.7-.4-39.5.3-40.7.7-1.1,21.8-11.4,23.4-11.4s3.6-1.3,7-3c6.2-3,6.3-3,24-3h17.8l18,9c9.9,5,18.2,9,18.5,9s.5-3.8.5-8.3v-8.3l3.5-1.9c3.1-1.6,3.5-2.4,3.8-6.4.3-3.8.6-4.6,2.5-4.9,2-.3,2.2-.9,2.2-5.1s-.3-4.9-2.1-5.4c-1.7-.4-2-1.2-1.8-3.9.3-3.2.5-3.3,5.1-3.6l4.7-.3.3-24.2.3-24.2,3.2-.3,3.2-.3v-11.9l12.2.3,12.2.3.3,5.7c.3,5.6.3,5.7,3.5,6l3.2.3.3,24.2.3,24.2,4.2.3c4,.3,4.3.5,4.5,3.6.2,2.2-.2,3.4-1.2,3.9-1.1.4-1.6,2-1.6,5.4s.3,4.9,2.2,5.1c1.8.3,2.3,1.1,2.8,4.6.4,3.5,1.1,4.7,4,6.5l3.5,2.2v8c0,6.1.3,7.9,1.3,7.7.7-.2,1,.2.7.8-.4.7,16.1,1,51.4,1s52.1-.2,52.1-.5-3.8-2.4-8.5-4.6-8.3-4.3-8-4.6,4.9,1.7,10.3,4.4l9.7,4.9.3,19.8c.1,10.9,0,19.8-.5,19.8-46.2.3-293.6.4-293.9,0h0ZM160.9,207.2v-19H52.9v38h108v-19ZM184.1,202.3l-.3-23.9,3.8-3.1,3.8-3.1h-29.5v54h11.2s11.2,0,11.2,0l-.3-23.9h0ZM235.1,206.9c.2-10.6.2-22.7,0-27l-.3-7.8h-28.2l2.7,2.8,2.7,2.8v48.4h22.9l.3-19.2ZM344.9,207.7v-18.5h-108v37h108v-18.5ZM204.1,223.5c-2.9-.2-7.8-.2-11,0-3.2.2-.8.4,5.2.4,6,0,8.7-.2,5.8-.4h0ZM188.8,216.5c0-1.2.5-2.5,1-2.8.6-.4,1-5.3,1-11.5,0-10.1.2-11,2.2-12.4,2.6-1.8,7-2,9.8-.5,1.7.9,1.9,2.2,1.9,11.6s.4,11.4,2.2,15.5c1.2,2.7,2.6,4.9,3,4.9s.8-9.4.8-20.9v-20.9l-2.9-3.1c-2.6-2.8-3.5-3.1-8.9-3.1s-6.8.5-9.3,2.3l-3.4,2.3-.2,23c-.2,20.4,0,22.7,1.2,20.5.8-1.4,1.5-3.5,1.5-4.7ZM203.1,220.5c-2.3-.2-6.4-.2-9,0-2.6.2-.7.4,4.2.4,5,0,7.1-.2,4.8-.4h0ZM202.6,218.5c-2-.2-5.6-.2-8,0-2.4.2-.7.4,3.7.4,4.4,0,6.3-.2,4.3-.4h0ZM201.6,215.5c-2.1-.2-5.4-.2-7.5,0s-.4.4,3.8.4,5.8-.2,3.8-.4ZM197.5,207.4c.3-5,.2-5.2-2.2-5.2s-2.5.4-2.5,4.8.6,6.4,2.9,6c1-.2,1.6-1.9,1.8-5.5ZM202.9,207.7c0-4.8-.2-5.5-2-5.5s-2,.7-2,5.5.2,5.5,2,5.5,2-.7,2-5.5ZM203.9,195.7c0-3.9-.4-4.7-2.5-5.7-1.7-.8-3.4-.9-5.2-.2-2.4.8-2.7,1.6-3,5.7l-.3,4.7h11.1v-4.5ZM140.6,178.7l-16.8-8.5h-17.7s-17.7,0-17.7,0l-9.5,4.5c-5.2,2.5-13.1,6.3-17.5,8.4l-8,3.9h52s52,0,52,0l-16.8-8.5h0ZM233.8,169.8c-.2-.2-3.1-1.8-6.4-3.6s-11.1-6.2-17.3-9.8c-12.8-7.3-10.5-7.4-23.7.4-5.5,3.3-7.7,4-10.3,3.6-1.8-.3-3.5-.9-3.8-1.4-1.4-2.3-3.4-.7-3.4,2.6s.2,3.5.4,3.5,2.1-1,4-2.1,3.8-1.9,4.1-1.6c.5.5-6.1,4.7-7.4,4.8-.4,0-1.8.9-3.2,2-2.5,2-2.4,2,32.4,2,19.2,0,34.7-.1,34.5-.3h0ZM227.9,161.7c0-3.8-1-4.3-5.2-2.3l-2.6,1.2,3.7,2.2c2,1.2,3.8,2.2,3.9,2.3s.2-1.5.2-3.4ZM176.6,155.2c-.4-2.9-.3-3,3.4-3s3.8.3,3.8,2,.5,2,1,2,1.9-.9,3-2,2.6-2,3.2-2,2.1-.7,3.2-1.5c2.5-1.9,5.6-1.9,8.1,0,1.1.8,2.7,1.5,3.7,1.5s1.8.4,1.8.9c0,.7,4.3,3.2,5.5,3.2s.5-.9.5-2,.7-2,3-2,3,.3,3,3,.5,3,1.5,3,1.5-1.3,1.5-5.5v-5.5h-49v5.5c0,4.4.3,5.5,1.6,5.5s1.5-.7,1.2-3ZM225.4,143.3v-2.3s-27.3,0-27.3,0c-15,0-27.2.3-27.2.6,0,.3,0,1.5,0,2.6,0,2,.5,2,27.2,1.8l27.3-.3v-2.3s0,0,0,0ZM216.6,115.4l-.3-23.8h-36l-.3,23.8-.3,23.8h37.1l-.3-23.8ZM208.5,133.4c-.3-.5-.6-8.4-.6-17.6-.1-17.6.3-19.5,4.2-17.4,1.6.9,1.8,2.6,1.8,16.8s-.3,16.6-.6,17.5c-.6,1.7-3.9,2.2-4.8.7ZM183.3,132c-.3-.7-.4-8.8-.2-17.8l.3-16.5h5v17.5c0,17.4,0,17.5-2.3,17.8-1.2.2-2.5-.3-2.8-1ZM196.1,115.5l.3-17.8h5v35l-2.8.3-2.8.3.3-17.8ZM209.9,84.7v-5.5h-23v11h23v-5.5ZM241.4,184.9c1.1-.7,7.8-4.3,14.8-8l12.9-6.7h41l6.9,3.6c3.8,2,6.8,3.8,6.6,4-.2.2-3.2-1.2-6.8-3.1l-6.4-3.5h-20.4s-20.4,0-20.4,0l-14.6,7.5c-14.2,7.3-17.7,8.9-13.7,6.2h0Z" inkscape:connector-curvature="0"/>
          <path id="path3063" class="st4" d="M51.3,227.3c-.7-.7-.4-39.5.3-40.7.8-1.3,22-11.4,23.6-11.3.6,0-4,2.5-10.1,5.4s-11.2,5.6-11.2,5.9,23.3.5,51.8.5h51.8s-5.8-3-5.8-3c-3.2-1.6-5.8-3.2-5.8-3.5s3.1,1.1,7,3c3.8,1.9,7.2,3.5,7.5,3.5s.5-3.8.5-8.4c0-6.5.3-8.5,1.5-9,.8-.3,1.5-.2,1.5.3s-.4,1-.9,1.2c-1,.4-1.2,6.9-1.1,35.6v19.2h23.1v-48.9l2.8-2.1c1.5-1.1,3.3-2.5,4-3.1s3.9-1,7.2-1c5.7,0,6.2.2,9.5,3.8l3.5,3.8v23.8s0,23.8,0,23.8h133v-18.5c0-14.1-.3-18.5-1.2-18.5-.7,0-25.2,0-54.5,0-43.4,0-53.2-.3-53.2-1.3s.7-1.3,1.5-1.3,1.2.4.9.8,22.9.8,51.5.8,52.1-.2,52.1-.5-3.9-2.5-8.8-5-7.6-4.2-6.2-3.9,6.1,2.5,10.5,4.8l8,4.1.3,19.8c.1,10.9,0,19.8-.5,19.8-46.2.3-293.6.4-293.9,0h0ZM160.9,207.2v-19H51.9v38h109v-19ZM208.9,224.2c0-.6-4.2-1-10.5-1s-10.5.4-10.5,1,4.2,1,10.5,1,10.5-.4,10.5-1ZM210.9,202.1v-23.1l-3.4-3.4c-2.9-2.9-4.1-3.4-8.1-3.4s-7.7,1-11.3,4.3c-2.2,2-2.2,2.5-2.2,24.5s.3,22.2.7,21.8c2.6-2.6,4.3-10.8,4.3-20.4,0-11.7,1.3-14.2,7.2-14.2s6.8,2,6.8,13.9.3,11.1,2.5,15.3c1.4,2.6,2.5,5.4,2.5,6.2s.2,1.5.5,1.5.5-10.4.5-23.1ZM203.6,220.5c-2.6-.2-6.9-.2-9.5,0s-.5.4,4.8.4,7.4-.2,4.8-.4ZM205.9,218.2c0-.6-3.1-1-7.4-1s-7.7.5-8.1,1c-.4.6,2.3,1,7.4,1s8.1-.4,8.1-1ZM201.6,215.5c-2.1-.2-5.4-.2-7.5,0s-.4.4,3.8.4,5.8-.2,3.8-.4ZM197.7,207.4c-.3-5.1-.6-5.8-2.5-6.1-2.1-.3-2.2,0-2.2,5.8s0,6.1,2.5,6.1,2.5-.2,2.2-5.8ZM203.7,207.4c-.3-5.1-.6-5.8-2.5-6.1-2.1-.3-2.2,0-2.2,5.8s0,6.1,2.5,6.1,2.5-.2,2.2-5.8ZM203.9,195.9c0-5.1-1.3-6.7-5.4-6.7s-6.6,2.6-6.6,7.2v3.8h12v-4.3ZM241.9,184.7c0-.3,2.2-1.6,5-3s5-2.3,5-2-2.2,1.6-5,3-5,2.3-5,2ZM132.6,174.6c-3.7-1.9-6.8-3.7-6.8-4,0-.4,13.9,6.2,14.9,7.1,1.4,1.3-2.3-.2-8.2-3.2h0ZM316.4,174.4c-4.9-2.6-5.5-2.7-26.5-3.2l-21.5-.5,20.8-.2,20.8-.2,6,3c3.3,1.7,6,3.2,6,3.5,0,.7,0,.7-5.5-2.3h0ZM81.9,172.2c.8-.5,2-1,2.5-1s.3.4-.5,1-2,1-2.5,1-.3-.4.5-1ZM265.6,172.1c.7-.7,1.5-1,1.8-.7s-.2.9-1.2,1.2c-1.4.5-1.5.4-.6-.6h0ZM234.5,171.5c-.4-.4-.7-1.1-.7-1.7s.5-.6,1.2.2c.7.7,1,1.4.7,1.7s-.8.2-1.2-.2ZM86.7,169.9c.4-.4,9.3-.6,19.7-.5l18.9.3-19.7.5c-10.8.3-19.4.2-18.9-.3ZM166,167.9c1-.8,1.8-3.2,2-5.8.3-3.7.7-4.5,2.6-4.8,2-.3,2.2-.9,2.2-5.2s-.4-4.9-1.4-4.9-1.6-.3-1.9-.8,12.6-.8,28.5-.8,28.5.3,27.4,1.1c-1,.7-1.5,2.7-1.5,5.7s.3,4.6,2.2,4.9c1.9.3,2.3,1.1,2.8,5,.4,3,.2,4.5-.5,4.2-.6-.2-.9-2.2-.7-4.5.4-4,.3-4.1-2.2-3.6-2.6.5-2.6.4-2.6-5.4v-5.9h-49v5.9c0,5.7,0,5.8-2.5,5.4-2.3-.4-2.5-.2-2.5,3.2s.3,3.6,1.8,3.1c1.4-.5,1.4-.3-.2,1-1.1.9-2.9,2-4,2.6-1.8.9-1.8.8-.3-.4ZM223.3,163.6c-1.9-1.5-1.9-1.5.3-.5,1.2.6,2.2,1.3,2.2,1.6,0,.8-.5.5-2.6-1.1h0ZM174.3,162.7c1.1-.9,2.4-1.6,2.9-1.6,1.3,0,.7.5-2.4,1.9-2.4,1.1-2.4,1.1-.6-.4ZM178.4,160.2c-.3-.5.1-1,1-1s1.3.5,1,1c-.3.5-.8,1-1,1s-.7-.5-1-1ZM215.8,159.7c-2.1-1.1-2.5-1.9-2.1-4.4.4-2.6.9-3.1,3.3-3.1s2.9.4,2.9,2.5-.5,2.5-2,2.5c-2.7,0-2.5,1.8.2,2.2,1.2.2,1.8.6,1.2,1-.6.4-2.2,0-3.6-.7h0ZM181.9,158.2c0-.6-1.1-1-2.5-1-2,0-2.5-.5-2.5-2.5s.4-2.5,3.3-2.5,3.3.4,3.2,2.2c0,1.3.5,2.1,1.2,2,1.9-.4,1.5.5-.8,1.8-1.4.7-2,.7-2,0h0ZM209.3,155.6c-1.9-1.5-1.9-1.5.3-.5,1.2.6,2.2,1.3,2.2,1.6,0,.8-.5.5-2.6-1.1h0ZM187.9,154.5c.7-1.1,2.8-2.4,4.7-3,3.9-1.2,3.5-.7-2,2.6-3.5,2.1-3.7,2.1-2.6.4h0ZM201.4,151.6c-2.8-1.3-4.2-2.4-3.3-2.4.9,0,3.2.8,5,1.7,4.4,2.3,4.2,2.2,3.7,2.6-.2.2-2.7-.7-5.4-2ZM179.1,115.4l.2-24.8.3,24.2.3,24.2h37v-48h-18.2c-10-.2-17-.5-15.5-.7,2.6-.4,2.8-.6,2.8-6.4v-6l12.2.3,12.2.3.3,5.7c.3,5.6.3,5.7,3.5,6l3.2.3.5,24.8.5,24.8h-19.8s-19.8,0-19.8,0l.2-24.8h0ZM209.9,84.7v-5.5h-23v11h23v-5.5ZM208.6,133.6c-.4-.4-.7-8.5-.7-18v-17.3h5l-.3,17.7c-.2,15.1-.5,17.8-1.8,18-.9.2-1.9,0-2.2-.4ZM183.3,132c-.3-.7-.4-8.8-.2-17.8l.3-16.5h5v17.5c0,17.4,0,17.5-2.3,17.8-1.2.2-2.5-.3-2.8-1ZM196.3,131.9c-.3-.7-.4-8.7-.2-17.8.3-15.7.4-16.5,2.3-16.5s2,.8,2.3,17.8c.3,17.3.2,17.8-1.8,17.8s-2.3-.6-2.5-1.3Z" inkscape:connector-curvature="0"/>
        </g>
        <g id="text3880" class="st5" sodipodi:linespacing="125%">
          <text class="st6" transform="translate(64.1 258.1)"><tspan x="0" y="0">&quot;My heart is in the work&quot;</tspan></text>
        </g>
      </g>
    </g>
  </g>
  <g id="Layer_2">
    <text>
      <textPath startOffset="31.8%" xlink:href="#path1"><tspan class="st7"><tspan x="0" y="0">EMERGENCY MEDICAL SERVICE</tspan></tspan>
      </textPath></text>
  </g>
</svg>