<?xml version="1.0" encoding="UTF-8"?>
<svg id="Layer_1" xmlns="http://www.w3.org/2000/svg" version="1.1" viewBox="175 280 262 232">
  <!-- Generator: Adobe Illustrator 29.3.1, SVG Export Plug-In . SVG Version: 2.1.0 Build 151)  -->
  <path d="M259.6,308.1h49.5v49.9c1.7,0,3,.2,4.3.2,14.4,0,28.7,0,43.1,0,2.9,0,4.4.7,5.5,3.6,3.6,9.8,7.6,19.5,11.8,30.2,2.4-5.4,4.4-10,6.4-14.6,2.4-5.5,4.7-11,7.2-16.5.5-1.1,2-2.5,3-2.5,13.8-.2,27.7-.1,42.3-.1-19.8,43.9-39.3,87.4-59.2,131.4-.8-1.5-1.4-2.3-1.8-3.3-10.8-24.3-21.7-48.6-32.4-73-1.1-2.6-2.5-3.5-5.3-3.4-8.1.2-16.2,0-24.8,0,0,7.3,0,14.3,4,20.5,3.3,5.2,8.7,6.5,14.3,6.7,3.5.1,4.3,1.3,4.3,4.6-.2,14.6,0,29.2,0,43.9,0,1.2,0,2.4,0,3.9-9.7.7-18.8-.2-27.6-3.4-27.1-10-41.4-29.8-44.1-58.2-.4-4.3-.6-8.7-.6-13.1,0-34.1,0-68.2,0-102.3,0-1.4,0-2.7,0-4.5Z"/>
  <path d="M251.6,420.8v12.6h-49.4v-12.3c1.4-.2,2.7-.4,4.6-.6-3.9-4.6-6.3-9.5-6.1-15.4.2-6.1,3-10.7,9.1-14.5-1.4-.9-2.5-1.4-3.4-2.2-5.3-5.4-6.9-11.9-5-19,1.7-6.5,5.9-10.9,12.8-11.4,7.6-.5,15.2-.4,22.8-.5,4.7,0,9.5,0,14.5,0v12.6c-1.2,0-2.4.2-3.6.2-7.1,0-14.2,0-21.4,0-2,0-4,0-6,.3-5.1.6-7.7,2.8-8.3,6.7-.6,4.1,1.9,8.7,6.1,10.1,3.3,1.1,6.8,1.5,10.3,1.6,7.5.2,15,0,22.7,0v12.6c-1.3,0-2.6.2-3.9.2-7,0-14,0-21,0-2.4,0-4.8.2-7.1.6-3.7.7-6.5,2.6-7.2,6.6-.6,3.7,1.3,8.1,5.1,9.6,3.4,1.3,7.2,1.9,10.9,2.1,7.6.3,15.2,0,23.2,0Z"/>
  <path d="M202.2,349.8v-12.5c8,0,15.7,0,23.4,0,2.6,0,5.3,0,7.8-.5,5.1-.8,7.9-4,7.7-8.9-.2-4.9-3.1-8.2-8.2-8.4-8.7-.4-17.5-.3-26.2-.5-1.4,0-2.7,0-4.3,0v-13.3c12.1.6,24,.6,35.7,2,7.5.9,12.6,6.2,14.2,13.7,3.4,16.3-4,27.7-19.8,28.3-9.9.4-19.9,0-30.2,0Z"/>
  <path d="M235.8,450.5c2.2-3.3,4.4-6.3,6.7-9.6.9.7,1.8,1.2,2.4,1.8,10.6,10.2,11,30.7.8,40.9-7.7,7.7-17,9.8-27.2,6.4-10.4-3.5-15.9-11.4-17.4-22-1.4-10,.8-19.1,8.8-26.1.5-.4,1-.8,1.5-1.1.2-.1.5-.1,1.1-.3,1.6,2.9,3.5,5.9,4.8,9.1.4.9-.8,2.6-1.6,3.7-4,5.7-4.2,11.7-1.3,17.7,2.7,5.5,7.5,7.8,13.5,7.6,5.5-.2,9.7-2.8,11.9-7.7,2.7-6,2.2-11.9-1.6-17.4-.6-.9-1.4-1.7-2.4-2.9Z"/>
</svg>
