<?xml version="1.0" encoding="UTF-8" standalone="no"?>
<svg
   xmlns:dc="http://purl.org/dc/elements/1.1/"
   xmlns:cc="http://creativecommons.org/ns#"
   xmlns:rdf="http://www.w3.org/1999/02/22-rdf-syntax-ns#"
   xmlns:svg="http://www.w3.org/2000/svg"
   xmlns="http://www.w3.org/2000/svg"
   xmlns:sodipodi="http://sodipodi.sourceforge.net/DTD/sodipodi-0.dtd"
   xmlns:inkscape="http://www.inkscape.org/namespaces/inkscape"
   version="1.1"
   id="svg2"
   xml:space="preserve"
   width="652"
   height="240"
   viewBox="20 140 652 240"
   style="background-color:#002861"><metadata
     id="metadata8"><rdf:RDF><cc:Work
         rdf:about=""><dc:format>image/svg+xml</dc:format><dc:type
           rdf:resource="http://purl.org/dc/dcmitype/StillImage" /></cc:Work></rdf:RDF></metadata><defs
     id="defs6"><clipPath
       clipPathUnits="userSpaceOnUse"
       id="clipPath18"><path
         d="M 0,360 H 504 V 0 H 0 Z"
         id="path16" /></clipPath></defs><sodipodi:namedview
     pagecolor="#ffffff"
     bordercolor="#666666"
     borderopacity="1"
     objecttolerance="10"
     gridtolerance="10"
     guidetolerance="10"
     inkscape:pageopacity="0"
     inkscape:pageshadow="2"
     inkscape:window-width="640"
     inkscape:window-height="480"
     id="namedview4" /><g
     id="g10"
     inkscape:groupmode="layer"
     inkscape:label="fringe racing logo"
     transform="matrix(1.3333333,0,0,-1.3333333,0,480)"><g
       id="g12"><g
         id="g14"
         clip-path="url(#clipPath18)"><g
           id="g20"
           transform="translate(37.4565,111.3691)"><path
             d="m 0,0 c 2.449,1.609 4.904,3.209 7.345,4.831 2.399,1.594 4.396,3.661 6.558,5.539 2.139,1.858 4.587,3.211 7.349,4.081 2.775,0.874 5.588,0.924 8.39,0.769 2.253,-0.125 3.686,0.977 5.058,2.409 1.765,1.843 3.184,3.939 4.625,6.046 1.944,2.84 4.708,4.979 7.093,7.445 0.437,0.452 0.889,0.439 1.343,-0.032 0.387,-0.401 0.818,-0.759 1.35,-1.059 -0.225,0.311 -0.449,0.622 -0.677,0.932 -1.16,1.579 -1.183,1.761 0.187,3.114 1.455,1.438 2.889,2.971 3.842,4.712 1.592,2.909 3.835,5.171 6.176,7.39 2.569,2.433 5.668,4.093 8.702,5.849 1.962,1.136 3.897,2.305 6.097,2.939 4.907,0.862 9.295,2.803 12.965,6.235 2.432,1.726 5.009,3.141 7.833,4.165 1.389,0.503 2.607,1.482 3.902,2.245 2.311,1.435 4.757,2.662 6.758,4.566 0.999,0.95 1.044,1.337 0.111,2.337 -0.511,0.55 -1.206,0.917 -1.577,1.601 -0.21,0.241 -0.439,0.468 -0.625,0.726 -2.468,3.426 -5.778,3.274 -8.817,0.989 -2.61,-1.963 -5.227,-3.915 -7.841,-5.872 -1.046,-0.648 -2.067,-1.336 -3.106,-1.995 -1.694,-1.073 -2.726,-2.619 -3.389,-4.46 -1.071,-1.712 -2.641,-2.98 -3.989,-4.443 -0.582,-0.632 -3.293,-0.805 -4.01,-0.265 -1.315,0.991 -1.731,1.67 -1.428,3.226 0.704,3.617 2.191,6.81 4.81,9.411 1.65,1.638 2.775,3.65 4.152,5.481 0.547,0.743 1.222,1.388 1.688,2.194 l -0.002,-0.002 c 3.143,3.832 6.93,7.032 10.393,10.548 0.583,0.592 1.168,1.197 1.83,1.711 l -0.005,-0.004 c 0.546,0.928 1.472,1.064 2.416,1.162 1.399,0.686 2.859,0.591 4.314,0.275 4.182,-0.91 7.817,-3.037 11.386,-5.265 2.59,-1.618 5.306,-2.965 8.056,-4.28 2.284,-1.092 4.426,-2.48 6.63,-3.739 2.751,-1.571 5.499,-3.146 8.248,-4.719 1.676,-1.204 3.439,-2.342 5.283,-3.182 1.636,-0.746 3.373,-1.533 5.346,-1.424 1.605,0.088 3.223,-0.191 4.788,-0.651 1.07,-0.314 2.193,-0.334 3.289,-0.499 1.883,-0.284 3.694,-0.858 5.557,-1.203 5.415,-1.87 9.386,-5.191 10.85,-10.949 0.356,-1.399 0.094,-2.866 0.088,-4.301 -0.006,-1.256 0.377,-2.03 1.695,-2.495 4.043,-1.426 8.057,-2.943 12.033,-4.544 2.699,-1.088 5.124,-2.655 7.477,-4.406 2.83,-2.107 5.981,-3.707 9.381,-4.822 2.894,-0.949 5.924,-1.171 8.841,-1.94 1.734,-0.457 3.401,-1.135 4.894,-2.167 0.77,-0.533 1.033,-2.106 0.394,-2.898 -0.707,-0.876 -1.509,-1.614 -2.821,-1.503 -3.289,0.276 -6.654,-0.174 -9.861,0.857 -2.11,0.679 -4.111,1.716 -6.238,2.324 -2.019,0.578 -4.071,1.17 -6.137,1.482 -2.68,0.405 -5.299,1.025 -7.934,1.608 -2.908,0.644 -5.825,1.249 -8.732,1.896 -0.812,0.18 -1.604,0.447 -2.405,0.674 -3.049,1.146 -6.084,2.325 -9.112,3.527 -2.965,1.177 -6.013,2.007 -9.273,1.896 -2.149,-0.072 -4.309,-0.109 -6.463,0.063 -0.73,0.058 -1.405,0.248 -2.084,0.475 -1.959,0.685 -3.626,1.866 -5.258,3.105 -1.096,1.029 -2.034,2.222 -3.302,3.078 -0.98,0.663 -2.555,0.739 -3.569,0.134 -2.094,-1.252 -3.685,-3.107 -5.574,-4.603 -2.052,-1.378 -4.301,-2.257 -6.739,-2.652 -2.377,-0.511 -4.779,-0.824 -7.206,-0.948 l -0.002,-0.001 c -2.038,-0.466 -4.12,-0.118 -6.173,-0.33 -0.885,-0.092 -1.733,-0.249 -2.494,-0.741 -0.987,-0.636 -1.053,-1.207 -0.28,-2.128 0.708,-0.842 1.64,-1.397 2.544,-1.965 1.988,-1.248 4.004,-2.451 5.972,-3.73 2.677,-1.601 4.812,-3.836 6.872,-6.107 4.42,-4.875 4.179,-12.281 -0.246,-17.227 -2.155,-2.408 -4.782,-4.21 -7.575,-5.785 -3.866,-2.182 -7.763,-4.309 -11.592,-6.551 -1.33,-0.778 -2.539,-1.782 -3.733,-2.768 -3.05,-2.519 -5.943,-5.216 -8.609,-8.137 -1.189,-1.303 -2.095,-2.74 -2.69,-4.53 -0.926,-2.789 -2.023,-5.61 -4.198,-7.8 -0.702,-0.707 -1.177,-0.653 -1.907,-0.034 -2.263,1.917 -3.642,4.162 -3.325,7.272 0.14,1.385 0.087,2.799 0.01,4.193 -0.103,1.859 0.463,3.439 1.7,4.802 0.462,0.639 1.023,1.178 1.652,1.65 l 0.004,0.003 c 0.811,0.565 1.636,1.098 2.558,1.48 1.091,0.451 1.831,1.383 2.701,2.121 2.669,2.268 4.611,5.112 6.264,8.17 2.142,3.158 4.662,5.945 7.81,8.148 0.911,0.638 1.721,1.424 2.551,2.172 0.371,0.334 0.569,0.794 0.427,1.304 -0.146,0.524 -0.65,0.367 -1.014,0.439 -3.742,0.726 -7.514,1.323 -11.222,2.196 -3.019,0.71 -5.854,2.015 -8.642,3.38 -0.64,0.313 -1.236,0.732 -1.897,0.985 -1.297,0.496 -2.391,0.173 -3.554,-0.661 C 70.203,20.349 67.299,17.893 63.807,16.364 63.193,16.095 62.694,15.661 62.29,15.235 60.263,13.096 57.584,11.989 55.07,10.692 51.611,8.91 48.309,6.854 44.835,5.106 42.054,3.706 39.08,2.832 36.102,1.986 33.311,1.192 30.485,0.59 27.563,0.42 26.578,0.362 25.583,-0.135 24.663,-0.576 20.21,-2.712 15.542,-4.249 10.879,-5.842 7.471,-7.007 4.116,-8.369 0.746,-9.659 c -2.014,-0.771 -3.053,-2.575 -3.22,-4.787 -0.148,-1.957 -0.901,-3.63 -2.453,-4.868 -1.332,-1.063 -2.124,-0.859 -2.899,0.638 -0.876,1.693 -1.36,3.447 -1.289,5.389 0.099,2.715 0.013,5.436 0.069,8.154 0.039,1.966 0.964,3.403 2.807,4.194 1.783,0.747 3.713,0.504 5.56,0.818 C -0.452,-0.083 -0.205,-0.164 0,0"
             style="fill:#fef116;fill-opacity:1;fill-rule:nonzero;stroke:none"
             id="path22" /></g><g
           id="g24"
           transform="translate(225.9062,224.2183)"><path
             d="m 0,0 c -0.219,0.682 -1.169,0.899 -0.885,1.469 0.319,0.637 1.166,0.568 1.829,0.595 7.315,0.306 14.635,0.131 21.952,0.166 0.357,0.002 0.714,-0.08 1.072,-0.109 2.051,-0.167 2.072,-0.187 2.075,-2.298 0.002,-1.2 0.003,-2.399 0.001,-3.599 C 26.041,-5.108 25.746,-5.469 24.381,-5.56 22.787,-5.666 21.187,-5.729 19.588,-5.742 16.189,-5.77 12.789,-5.75 9.39,-5.758 7.581,-5.762 7.337,-6.011 7.333,-7.862 c -0.004,-2.76 -0.01,-5.518 0.005,-8.278 0.008,-1.426 0.281,-1.717 1.671,-1.72 6.598,-0.011 13.198,-0.012 19.797,10e-4 1.571,0.003 1.769,0.248 1.778,2.109 0.026,5.278 0.027,10.556 0.059,15.834 0.01,1.818 0.139,1.935 2.008,1.989 6.715,0.197 13.437,0.367 20.147,0.007 3.243,-0.174 6.232,-1.274 8.588,-3.69 1.277,-1.309 2.703,-2.493 3.29,-4.334 1.711,-5.369 0.857,-11.194 -3.729,-15.346 -0.444,-0.402 -0.859,-0.85 -1.349,-1.187 -2.658,-1.826 -1.941,-1.475 -1.153,-3.866 1.19,-3.609 2.838,-7.066 4.245,-10.605 1.565,-3.939 3.334,-7.79 4.817,-11.766 1.109,-2.973 2.472,-5.854 3.455,-8.879 0.376,-1.159 0.043,-1.681 -1.17,-1.717 -1.958,-0.058 -3.92,0.005 -5.877,-0.064 -1.134,-0.04 -1.819,0.48 -2.232,1.447 -1.136,2.665 -2.271,5.331 -3.372,8.01 -1.704,4.146 -3.359,8.311 -5.073,12.452 -1.315,3.18 -2.765,6.307 -4.007,9.515 -0.757,1.957 -1.924,2.86 -4.053,2.537 -0.939,-0.142 -1.916,-0.029 -2.876,-0.041 -1.61,-0.019 -1.847,-0.259 -1.851,-1.913 -0.011,-4.598 -0.013,-9.196 -0.02,-13.795 -0.002,-1.535 -0.372,-1.913 -1.898,-1.918 -1.92,-0.006 -3.84,-0.01 -5.759,0.003 -1.595,0.01 -2.107,0.476 -2.122,2.062 -0.042,4.438 -0.048,8.877 -0.063,13.315 -0.008,2.137 -0.107,2.246 -2.226,2.247 -6.359,0.003 -12.717,0.004 -19.077,-0.001 -1.858,-10e-4 -1.95,-0.097 -1.953,-1.974 -0.009,-4.598 -0.011,-9.197 -0.019,-13.795 -0.002,-1.47 -0.374,-1.862 -1.834,-1.853 -1.718,0.01 -3.438,0.019 -5.152,0.117 -0.584,0.033 -0.958,0.222 -1.202,1.088 -1.213,4.305 -0.423,8.669 -0.667,12.994 -0.031,0.558 0.004,1.12 -0.003,1.679 -0.018,1.504 -0.224,1.735 -1.762,1.739 -5.519,0.014 -11.038,0.006 -16.557,0.008 -1.08,0 -2.16,0.018 -3.24,0.01 -0.937,-0.007 -1.417,0.445 -1.422,1.378 -0.009,1.559 0.029,3.119 -0.017,4.677 -0.03,0.989 0.504,1.365 1.358,1.465 0.395,0.046 0.799,0.032 1.198,0.032 6.119,0.009 12.238,0.013 18.358,0.025 1.876,0.004 2.071,0.201 2.083,2.056 0.029,4.518 0.023,9.037 0.099,13.555 C -1.431,-1.311 -1.501,-0.143 0,0"
             style="fill:#fef116;fill-opacity:1;fill-rule:nonzero;stroke:none"
             id="path26" /></g><g
           id="g28"
           transform="translate(374.4219,198.9556)"><path
             d="m 0,0 c -0.85,0.081 -1.093,0.391 -1.125,1.379 -0.044,1.37 -0.336,2.747 -0.297,4.144 0.04,1.435 0.43,1.848 1.866,1.851 5.558,0.012 11.117,0.016 16.674,0.021 2.541,0.002 2.593,0.056 2.595,2.644 0.003,5.117 0.008,10.234 0.015,15.352 10e-4,1.505 0.292,1.873 1.779,1.929 7.594,0.291 15.191,0.183 22.787,0.146 1.358,-0.007 2.718,-0.114 4.075,-0.091 0.984,0.017 1.408,-0.481 1.43,-1.353 0.042,-1.717 0.056,-3.438 0.009,-5.156 C 49.779,19.822 48.881,19.749 48.141,19.708 46.146,19.599 44.146,19.529 42.148,19.515 38.19,19.486 34.231,19.513 30.272,19.502 28.614,19.497 28.095,19.046 28.057,17.395 27.996,14.717 27.994,12.038 28.021,9.36 28.036,7.897 28.648,7.398 30.267,7.397 43.382,7.388 56.498,7.383 69.613,7.376 71.479,7.376 71.668,7.2 71.688,5.323 71.702,4.004 71.649,2.683 71.695,1.365 71.729,0.397 71.244,-0.029 70.368,-0.129 69.973,-0.174 69.571,-0.171 69.172,-0.172 56.336,-0.179 43.5,-0.183 30.664,-0.189 c -0.439,0 -0.879,-0.02 -1.318,-0.023 -0.852,-0.004 -1.232,-0.479 -1.247,-1.28 -0.038,-1.918 -0.092,-3.837 -0.077,-5.755 0.009,-1.128 0.71,-1.762 1.904,-1.897 1.708,-0.191 3.418,-0.285 5.139,-0.274 3.958,0.025 7.917,10e-4 11.876,-0.016 0.516,-0.002 1.032,-0.081 1.547,-0.13 0.964,-0.095 1.392,-0.606 1.364,-1.596 -0.046,-1.598 -0.02,-3.198 -0.027,-4.797 -0.007,-1.465 -0.381,-1.857 -1.835,-1.859 -5.198,-0.006 -10.396,-0.002 -15.594,-0.002 -3.32,0 -6.638,-10e-4 -9.958,0.001 -2.161,0.001 -2.709,0.541 -2.71,2.657 -0.005,4.278 -0.003,8.556 -0.022,12.834 -0.008,1.675 -0.211,1.857 -1.876,1.878 -0.2,0.003 -0.4,0.002 -0.6,0.003 -3.51,0.024 -3.4,-0.006 -4.33,-3.392 C 11.303,-9.661 8.189,-14.3 2.418,-16.844 c -3.56,-1.569 -7.232,-1.646 -11.013,-1.478 -3.244,0.143 -6.101,1.175 -8.602,3.155 -4.596,3.638 -7.068,8.487 -7.547,14.272 -0.416,5.025 -0.311,10.06 1.051,14.972 0.719,2.6 1.849,4.968 3.893,6.87 2.129,1.98 4.036,4.205 6.785,5.401 4.505,1.959 9.072,2.955 13.885,1.106 C 2.695,26.753 4.57,26.17 5.787,24.477 5.878,24.351 6.003,24.229 6.139,24.159 8.414,22.985 8.837,21.271 7.421,18.927 6.8,18.219 6.385,17.325 5.526,16.832 5.502,16.794 5.467,16.775 5.422,16.774 4.86,16.476 4.504,16.893 4.159,17.188 c -3.56,3.047 -7.733,3.339 -11.962,2.224 -3.552,-0.938 -6.018,-3.329 -7.471,-6.866 -0.818,-1.989 -1.247,-4.011 -1.667,-6.071 -0.016,-0.131 -0.044,-0.258 -0.085,-0.383 -0.022,-1.674 -0.183,-3.35 0.086,-5.017 0.461,-2.139 0.998,-4.262 1.882,-6.27 0.597,-1.353 1.664,-2.4 2.899,-3.099 2.933,-1.664 6.123,-1.81 9.454,-1.523 2.829,0.245 4.607,1.786 6.097,3.879 0.937,1.317 1.145,2.946 1.472,4.493 0.18,0.85 -0.413,1.237 -1.187,1.297 -0.955,0.074 -1.914,0.009 -2.872,0.03 C 0.535,-0.112 0.244,-0.203 0,0"
             style="fill:#fef116;fill-opacity:1;fill-rule:nonzero;stroke:none"
             id="path30" /></g><g
           id="g32"
           transform="translate(298.335,97.4492)"><path
             d="m 0,0 c 0.371,-1.089 0.785,-2.165 1.098,-3.271 0.219,-0.778 0.115,-1.314 -0.981,-1.358 -2.196,-0.087 -4.385,-0.185 -6.581,0.011 -0.743,0.065 -1.157,0.44 -1.437,1.063 -2.081,4.628 -3.988,9.328 -5.875,14.038 -1.43,3.569 -2.948,7.102 -4.453,10.64 -0.993,2.333 -2.05,4.639 -3.043,6.972 -0.408,0.957 -1.314,0.904 -2.034,0.951 -1.469,0.096 -2.955,-0.022 -4.432,-0.063 -1.059,-0.029 -1.401,-0.611 -1.408,-1.631 -0.028,-4.636 -0.112,-9.271 -0.172,-13.907 -0.021,-1.595 -0.484,-2.087 -2.055,-2.099 -1.759,-0.015 -3.519,-0.021 -5.277,-0.002 -1.975,0.019 -2.421,0.502 -2.424,2.519 -0.004,4.397 -0.007,8.794 -0.022,13.191 -0.006,1.745 -0.206,1.943 -1.922,1.945 -4.357,0.005 -8.715,0.043 -13.072,-0.027 -1.151,-0.019 -1.435,0.365 -1.386,1.432 0.083,1.795 0.081,3.597 0.037,5.395 -0.021,0.848 0.273,1.115 1.105,1.085 4.313,-0.155 8.627,-0.158 12.942,-0.025 2.261,0.071 2.297,0.049 2.3,2.26 0.007,4.757 0.013,9.514 0.02,14.271 0,0.319 -0.017,0.64 0.01,0.958 0.166,1.93 0.501,2.233 2.446,2.233 6.236,10e-4 12.475,0.11 18.709,-0.033 5.058,-0.117 9.147,-2.297 11.875,-6.657 0.93,-1.489 1.429,-3.145 1.442,-4.98 0.021,-2.86 0.004,-5.672 -1.668,-8.166 -0.39,-0.583 -0.819,-1.141 -1.23,-1.711 -1.039,-1.329 -2.289,-2.434 -3.643,-3.426 -1.094,-0.8 -1.168,-1.059 -0.698,-2.294 1.635,-4.296 3.385,-8.546 5.13,-12.799 1.761,-4.289 3.57,-8.559 5.261,-12.876 C -0.963,2.425 -0.459,1.221 0,0"
             style="fill:#fef116;fill-opacity:1;fill-rule:nonzero;stroke:none"
             id="path34" /></g><g
           id="g36"
           transform="translate(337.4473,203.5127)"><path
             d="m 0,0 0.035,34.042 c 10e-4,1.119 -0.01,2.237 -0.003,3.356 0.009,1.299 0.434,1.757 1.688,1.769 1.638,0.016 3.277,0.021 4.916,-0.005 C 8.18,39.137 8.542,38.787 8.559,37.227 8.591,34.11 8.587,30.994 8.587,27.877 8.583,11.775 8.575,-4.328 8.568,-20.43 c -10e-4,-1.56 -0.356,-1.934 -1.871,-1.943 -1.598,-0.009 -3.197,0.02 -4.795,-0.013 -0.694,-0.015 -1.166,0.228 -1.665,0.726 -2.586,2.58 -4.423,5.69 -6.345,8.745 -2.197,3.49 -4.408,6.97 -6.629,10.443 -1.3,2.032 -2.495,4.134 -4.011,6.022 -0.41,0.638 -1.011,1.118 -1.448,1.736 -0.134,0.189 -0.272,0.449 -0.542,0.4 -0.365,-0.067 -0.332,-0.424 -0.328,-0.678 0.02,-1.553 -0.269,-3.087 -0.274,-4.639 -0.014,-4.379 0.053,-8.758 -0.033,-13.137 -0.03,-2.077 -0.042,-4.155 -0.103,-6.232 -0.02,-0.712 -0.14,-1.426 -0.261,-2.13 -0.131,-0.761 -0.605,-1.224 -1.39,-1.234 -1.758,-0.024 -3.518,-0.035 -5.275,0.004 -0.962,0.021 -1.407,0.583 -1.407,1.558 0.005,9.152 -0.004,18.304 -0.005,27.456 -0.001,4.276 0.008,8.552 0.013,12.828 0,0.2 -0.003,0.4 10e-4,0.6 0.045,2.103 0.148,2.29 2.234,2.617 1.936,0.304 3.902,0.29 5.861,0.229 1.064,-0.033 1.607,-0.835 2.116,-1.591 1.752,-2.605 3.475,-5.23 5.187,-7.861 1.966,-3.023 3.917,-6.056 5.863,-9.092 1.136,-1.773 2.248,-3.561 3.371,-5.342 0.602,-0.934 1.302,-1.792 2.034,-2.624 0.148,-0.168 0.338,-0.385 0.603,-0.241 0.191,0.105 0.177,0.34 0.194,0.536 C -0.242,-2.189 -0.315,-1.075 0,0"
             style="fill:#fef116;fill-opacity:1;fill-rule:nonzero;stroke:none"
             id="path38" /></g><g
           id="g40"
           transform="translate(418.2793,167.709)"><path
             d="M 0,0 C 2.517,0.018 5.034,0.004 7.551,0.067 8.437,0.09 8.371,-0.416 8.371,-1.001 8.372,-6.876 8.388,-12.75 8.387,-18.625 8.384,-31.254 8.374,-43.883 8.366,-56.512 c 0,-0.597 0.058,-1.204 -0.23,-1.763 -0.277,-0.59 -0.842,-0.731 -1.385,-0.763 -1.855,-0.11 -3.712,-0.056 -5.568,-0.029 -0.323,0.004 -0.609,0.156 -0.876,0.333 -2.26,1.963 -3.747,4.52 -5.344,6.988 -1.959,3.028 -3.962,6.03 -5.817,9.121 -2.233,3.721 -4.751,7.253 -7.016,10.95 -0.266,0.435 -0.59,1.014 -1.146,0.89 -0.601,-0.134 -0.365,-0.793 -0.388,-1.243 -0.418,-7.946 -0.046,-15.9 -0.29,-23.847 -0.023,-0.712 -0.104,-1.438 -0.282,-2.125 -0.204,-0.792 -0.849,-1.135 -1.635,-1.145 -1.639,-0.02 -3.279,-0.034 -4.917,-0.002 -1.206,0.023 -1.485,0.805 -1.483,1.871 0.013,8.752 0.002,17.505 10e-4,26.257 -10e-4,3.557 0.026,7.115 0,10.671 -0.011,1.555 0.195,3.093 0.239,4.636 0.024,0.853 0.383,1.187 1.052,1.312 2.336,0.435 4.701,0.23 7.055,0.218 0.738,-0.003 1.152,-0.67 1.572,-1.198 1.788,-2.248 3.289,-4.697 4.856,-7.097 2.229,-3.415 4.397,-6.871 6.592,-10.308 0.678,-1.063 1.36,-2.122 2.04,-3.184 0.702,-1.009 1.236,-2.126 2.002,-3.093 l -0.013,0.015 c 0.472,-0.376 0.809,-0.878 1.222,-1.308 0.185,-0.193 0.384,-0.456 0.708,-0.294 0.247,0.122 0.263,0.387 0.264,0.626 0.013,2.302 0.374,4.579 0.359,6.894 -0.067,10.608 -0.03,21.219 -0.025,31.828 C -0.086,-0.867 -0.174,-0.424 0,0"
             style="fill:#fef116;fill-opacity:1;fill-rule:nonzero;stroke:none"
             id="path42" /></g><g
           id="g44"
           transform="translate(466.5723,118.8037)"><path
             d="m 0,0 c -1.94,-4.22 -4.951,-7.402 -9.231,-9.256 -1.928,-0.835 -3.915,-1.571 -6.098,-1.482 -2.74,0.111 -5.506,-0.294 -8.205,0.566 -5.303,1.69 -8.821,5.355 -11.023,10.274 -1.841,4.115 -2.02,8.571 -1.816,13.011 0.126,2.739 0.427,5.488 1.181,8.124 0.734,2.569 1.838,4.998 3.85,6.897 1.854,1.748 3.473,3.757 5.785,4.979 6.551,3.465 12.72,3.588 18.679,-0.177 1.32,-0.835 2.627,-1.777 3.188,-3.415 0.269,-0.79 0.344,-1.422 -0.252,-2.084 -0.513,-0.57 -0.983,-1.104 -0.998,-2.037 -0.018,-1.059 -1.446,-1.559 -2.288,-0.948 -2.677,2.188 -5.675,3.118 -9.184,2.838 -4.289,-0.344 -7.451,-2.304 -9.637,-5.914 -0.716,-1.182 -1.145,-2.52 -1.751,-3.767 -0.7,-3.363 -1.29,-6.752 -0.438,-10.153 0.36,-1.44 0.358,-3.027 1.347,-4.278 1.144,-2.36 3.012,-3.985 5.283,-5.204 2.586,-0.55 5.178,-0.596 7.814,-0.348 2.74,0.258 4.523,1.825 5.842,3.996 0.736,1.212 0.972,2.678 1.305,4.065 0.201,0.836 -0.157,1.386 -1.114,1.421 -1.429,0.052 -2.814,0.458 -4.239,0.561 -0.375,0.083 -0.675,0.23 -0.702,0.684 -0.093,1.543 -0.291,3.08 -0.247,4.634 0.03,1.058 0.589,1.521 1.54,1.606 0.675,0.06 1.357,0.04 2.036,0.04 11.506,0.002 23.012,-0.013 34.517,0.024 1.13,0.003 1.661,-0.137 1.501,-1.469 C 26.479,11.811 26.556,10.395 26.625,9 26.668,8.146 26.381,7.936 25.55,7.939 18.399,7.971 11.248,7.963 4.098,7.945 3.66,7.944 3.124,8.192 2.79,7.653 1.73,5.149 1.136,2.477 0,0"
             style="fill:#fef116;fill-opacity:1;fill-rule:nonzero;stroke:none"
             id="path46" /></g><g
           id="g48"
           transform="translate(314.5957,154.0469)"><path
             d="m 0,0 c 2.11,0.21 4.607,-0.321 7.122,-0.21 0.403,0.018 0.815,-0.002 0.968,-0.504 0.566,-1.85 1.55,-3.532 2,-5.448 1.137,-4.839 2.411,-9.646 3.661,-14.457 1.182,-4.55 2.465,-9.075 3.586,-13.64 0.808,-3.287 1.725,-6.554 2.124,-9.934 0.137,-1.155 -0.3,-1.431 -1.38,-1.381 -1.756,0.082 -3.519,0.055 -5.277,0.006 -0.854,-0.024 -1.31,0.29 -1.601,1.094 -1.143,3.153 -1.957,6.394 -2.715,9.654 -0.26,1.123 -0.638,2.219 -0.915,3.341 -0.116,0.471 -0.406,0.522 -0.792,0.522 -3.439,0.003 -6.879,0 -10.317,0.025 -0.552,0.004 -0.795,-0.267 -0.941,-0.726 -0.374,-1.178 -0.812,-2.34 -1.108,-3.537 -0.676,-2.743 -1.634,-5.409 -2.146,-8.199 -0.229,-1.245 -1.533,-2.121 -2.795,-2.122 -2.039,-0.001 -4.082,0.069 -6.118,-0.029 -1.125,-0.054 -1.328,0.366 -1.292,1.373 0.058,1.634 0.696,3.108 1.095,4.644 0.57,2.194 1.233,4.364 1.855,6.545 1.188,4.164 2.39,8.324 3.559,12.493 0.894,3.187 1.637,6.421 2.646,9.569 0.959,2.994 1.591,6.087 2.751,9.017 0.631,1.594 1.076,1.903 2.744,1.904 0.96,0.001 1.92,0 3.286,0"
             style="fill:#fef116;fill-opacity:1;fill-rule:nonzero;stroke:none"
             id="path50" /></g><g
           id="g52"
           transform="translate(365.0342,124.5352)"><path
             d="M 0,0 C 0.232,1.159 1.008,1.325 2.05,1.256 3.363,1.17 4.687,1.243 6.007,1.229 6.317,1.225 6.765,1.383 6.615,0.712 6.292,-0.745 6.363,-2.253 6.519,-3.7 6.769,-6.028 5.795,-7.825 4.444,-9.496 c -2.946,-3.645 -6.597,-6.225 -11.286,-7.101 -1.054,-0.197 -2.145,-0.317 -3.214,-0.28 -3.662,0.127 -7.438,0.117 -10.582,2.292 -3.032,2.098 -5.574,4.742 -7.15,8.193 -1.873,4.102 -2.174,8.455 -2.091,12.85 0.061,3.147 0.493,6.268 1.309,9.327 0.435,1.632 1.067,3.217 2.049,4.528 3.093,4.132 6.845,7.509 12.038,8.724 4.23,0.99 8.447,0.914 12.479,-1.009 0.619,-0.295 1.163,-0.675 1.675,-1.136 0.602,-0.543 1.125,-1.134 2.01,-1.395 1.09,-0.321 1.9,-3.092 1.317,-4.096 C 2.354,20.295 1.55,19.3 0.719,18.323 c -0.432,-0.508 -0.78,-0.42 -1.198,-0.06 -4.499,3.623 -9.384,3.964 -14.495,1.55 -2.351,-1.11 -3.961,-3.051 -4.984,-5.438 -0.435,-1.014 -0.973,-1.992 -1.183,-3.094 -0.077,-0.293 -0.154,-0.586 -0.231,-0.878 -0.723,-3.723 -0.727,-7.424 0.292,-11.105 0.685,-2.475 1.975,-4.564 4.088,-6.017 1.646,-1.133 3.63,-1.387 5.578,-1.534 1.715,-0.129 3.431,-0.036 5.121,0.379 1.038,0.256 1.95,0.685 2.652,1.507 1.431,1.206 2.397,2.702 2.908,4.512 C -0.554,-1.22 -0.464,-0.53 0,0"
             style="fill:#fef116;fill-opacity:1;fill-rule:nonzero;stroke:none"
             id="path54" /></g><g
           id="g56"
           transform="translate(294.7236,222.6919)"><path
             d="m 0,0 c 0.002,0.862 0.389,1.685 0.1,2.594 -0.172,0.54 0.36,0.904 0.85,0.954 2.574,0.264 5.159,0.577 7.666,-0.425 0.082,-1.621 0.104,-3.247 0.11,-4.865 0.045,-12.382 0.026,-24.764 0.024,-37.147 0,-2.17 -0.318,-2.484 -2.5,-2.486 -1.518,-10e-4 -3.036,-0.026 -4.554,0.008 -1.48,0.034 -1.787,0.383 -1.821,1.868 -0.274,12.02 -0.06,24.04 -0.099,36.06 C -0.228,-2.299 -0.229,-1.136 0,0"
             style="fill:#fef116;fill-opacity:1;fill-rule:nonzero;stroke:none"
             id="path58" /></g><g
           id="g60"
           transform="translate(375.3369,149.5566)"><path
             d="M 0,0 C -0.053,0.982 0.364,1.921 0.161,2.942 0.036,3.575 0.655,3.954 1.245,3.962 3.229,3.988 5.215,3.971 7.197,3.904 7.712,3.887 8.363,3.835 8.427,3.056 8.898,1.172 8.716,-0.764 8.729,-2.66 8.81,-14.563 8.772,-26.467 8.765,-38.371 c 0,-0.834 0.032,-1.703 -0.814,-2.241 l 0.004,0.005 c -2.281,-0.576 -4.602,-0.287 -6.907,-0.303 -0.797,-0.006 -1.149,0.488 -1.165,1.337 -0.243,12.004 -0.066,24.008 -0.081,36.011 C -0.199,-2.383 -0.22,-1.178 0,0"
             style="fill:#fef116;fill-opacity:1;fill-rule:nonzero;stroke:none"
             id="path62" /></g><g
           id="g64"
           transform="translate(294.7236,222.6919)"><path
             d="m 0,0 c -0.001,-13.032 -0.002,-26.065 -0.003,-39.098 -0.001,-1.83 0.09,-1.925 1.873,-1.924 1.68,0 3.361,0.059 5.037,-0.022 1.152,-0.057 1.529,0.327 1.522,1.496 -0.044,7.715 -0.025,15.431 -0.026,23.147 0,5.397 0.015,10.794 -0.011,16.191 -0.006,1.122 0.106,2.225 0.224,3.333 0.553,-1.471 0.391,-3.034 0.4,-4.532 0.074,-12.674 0.055,-25.348 0.055,-38.022 0,-1.423 -0.879,-2.257 -2.341,-2.266 -1.598,-0.011 -3.198,-0.011 -4.797,0 -1.697,0.01 -2.12,0.417 -2.225,2.08 -0.316,5.033 -0.123,10.07 -0.145,15.106 -0.03,6.876 -0.025,13.753 0.005,20.63 C -0.427,-2.583 -0.468,-1.257 0,0"
             style="fill:#fef116;fill-opacity:1;fill-rule:nonzero;stroke:none"
             id="path66" /></g><g
           id="g68"
           transform="translate(383.2881,108.9443)"><path
             d="M 0,0 C 0.412,0.529 0.482,1.127 0.482,1.788 0.469,15.749 0.474,29.709 0.476,43.669 1.2,42.68 0.96,41.526 0.992,40.434 1.303,29.931 1.069,19.425 1.135,8.92 1.149,6.643 1.164,4.365 1.121,2.089 1.104,1.243 1.187,0.257 0,0"
             style="fill:#fef116;fill-opacity:1;fill-rule:nonzero;stroke:none"
             id="path70" /></g><g
           id="g72"
           transform="translate(375.3369,149.5566)"><path
             d="m 0,0 c 0.006,-12.949 0.012,-25.898 0.016,-38.848 0.001,-1.742 -0.004,-1.737 1.704,-1.739 2.078,-0.002 4.156,-0.014 6.235,-0.02 -0.682,-0.581 -1.527,-0.656 -2.354,-0.683 -1.317,-0.044 -2.636,-0.014 -3.954,0.002 -1.413,0.017 -1.796,0.453 -1.887,1.855 -0.356,5.506 -0.146,11.019 -0.202,16.529 -0.065,6.261 -0.032,12.526 0.016,18.789 C -0.415,-2.742 -0.391,-1.346 0,0"
             style="fill:#fef116;fill-opacity:1;fill-rule:nonzero;stroke:none"
             id="path74" /></g><g
           id="g76"
           transform="translate(374.4219,198.9556)"><path
             d="M 0,0 C 1.277,0 2.555,0.02 3.832,-0.004 4.881,-0.025 5.379,-0.58 5.199,-1.602 4.631,-4.834 3.261,-7.671 0.279,-9.25 c -1.776,-0.941 -3.868,-1.247 -5.925,-1.06 -3.359,0.305 -6.577,0.934 -8.901,3.786 -0.709,0.871 -1.048,1.899 -1.43,2.848 -0.58,1.447 -1.059,2.998 -1.102,4.612 -0.179,1.775 -0.17,3.551 -0.007,5.327 -0.015,0.071 -0.014,0.141 0.003,0.212 0.086,0.084 0.17,0.087 0.254,-0.002 -0.353,-3.77 0.392,-7.368 1.741,-10.861 0.733,-1.897 2.112,-3.154 3.908,-4.122 2.364,-1.274 4.854,-0.92 7.333,-0.923 0.2,0 0.405,0.062 0.597,0.032 3.306,-0.527 5.12,1.656 6.644,3.951 0.745,1.122 0.9,2.683 1.135,4.077 0.148,0.88 -0.657,1.04 -1.374,1.115 C 2.105,-0.147 1.018,-0.498 0,0"
             style="fill:#fef116;fill-opacity:1;fill-rule:nonzero;stroke:none"
             id="path78" /></g><g
           id="g80"
           transform="translate(357.5928,205.4282)"><path
             d="m 0,0 c -0.084,0.001 -0.169,0.001 -0.253,0.002 0.287,2.044 0.773,4.012 1.483,5.976 0.9,2.482 2.383,4.388 4.496,5.822 1.724,1.17 3.691,1.776 5.789,1.864 1.791,0.075 3.62,0.203 5.343,-0.289 1.592,-0.454 3.04,-1.327 4.274,-2.482 0.322,-0.301 0.626,-0.623 1.12,-0.591 -0.731,-0.535 -1.17,0.103 -1.644,0.446 C 15.966,14.112 9.329,14.154 4.988,10.271 2.426,7.979 0.859,5.053 0.453,1.579 0.389,1.027 0.268,0.493 0,0"
             style="fill:#fef116;fill-opacity:1;fill-rule:nonzero;stroke:none"
             id="path82" /></g><g
           id="g84"
           transform="translate(298.335,97.4492)"><path
             d="m 0,0 c -0.775,0.513 -0.718,1.455 -1.058,2.179 -0.881,1.88 -1.572,3.848 -2.343,5.781 -0.469,1.176 -0.942,2.352 -1.421,3.523 -2.044,4.994 -4.072,9.995 -6.155,14.973 -0.455,1.088 -0.674,2.267 -1.341,3.276 -0.424,0.643 -0.192,1.273 0.412,1.664 1.614,1.046 2.994,2.368 4.418,3.638 -0.724,-1.47 -2.034,-2.423 -3.216,-3.446 -0.967,-0.838 -1.191,-1.566 -0.734,-2.78 C -8.263,20.354 -4.541,12.125 -1.279,3.709 -0.808,2.492 -0.158,1.328 0,0"
             style="fill:#fef116;fill-opacity:1;fill-rule:nonzero;stroke:none"
             id="path86" /></g><g
           id="g88"
           transform="translate(361.7012,118.0801)"><path
             d="m 0,0 c -1.458,-1.665 -3.493,-1.905 -5.492,-2.148 -2.039,-0.248 -4.115,-0.009 -6.027,0.583 -2.474,0.766 -4.45,2.321 -5.568,4.845 -1.875,4.233 -2.144,8.573 -1.185,13.041 0.04,0.187 0.154,0.358 0.233,0.536 0.067,-1.994 -0.404,-3.961 -0.267,-5.963 0.178,-2.569 0.619,-5.06 1.857,-7.353 0.842,-1.561 1.943,-2.902 3.403,-3.932 3.177,-1.478 6.492,-1.462 9.858,-0.918 0.356,0.058 0.693,0.163 1,0.353 0.354,0.33 0.949,0.251 1.221,0.718 0.181,0.216 0.38,0.398 0.687,0.391 C -0.168,0.137 -0.075,0.083 0,0"
             style="fill:#fef116;fill-opacity:1;fill-rule:nonzero;stroke:none"
             id="path90" /></g><g
           id="g92"
           transform="translate(180.4536,155.9805)"><path
             d="m 0,0 c 3.249,-0.446 6.514,-0.202 9.771,-0.191 2.07,0.006 3.919,-0.788 5.866,-1.261 2.48,-0.606 4.694,-1.861 7.09,-2.673 1.426,-0.483 2.943,-0.91 4.205,-1.836 -2.208,0.401 -4.317,1.225 -6.279,2.194 C 15.428,-1.184 9.892,-0.832 4.244,-0.907 2.764,-0.927 1.296,-0.857 0,0"
             style="fill:#fef116;fill-opacity:1;fill-rule:nonzero;stroke:none"
             id="path94" /></g><g
           id="g96"
           transform="translate(418.2793,167.709)"><path
             d="m 0,0 c 0.001,-12.208 0.001,-24.416 0.005,-36.624 0,-1.187 -0.28,-2.366 -0.022,-3.562 0.108,-0.495 -0.058,-0.991 -0.574,-1.197 -0.57,-0.228 -0.723,0.316 -0.992,0.638 -0.43,0.516 -0.98,0.954 -1.032,1.698 0.264,-0.07 0.552,-0.097 0.79,-0.221 0.579,-0.3 0.978,-0.104 1.075,0.47 0.184,1.093 0.546,2.136 0.542,3.285 -0.039,11.387 -0.026,22.775 -0.013,34.161 0,0.45 -0.214,0.962 0.221,1.352"
             style="fill:#fef116;fill-opacity:1;fill-rule:nonzero;stroke:none"
             id="path98" /></g><g
           id="g100"
           transform="translate(454.5723,126.4727)"><path
             d="M 0,0 C 1.55,-0.075 3.1,-0.146 4.648,-0.227 5.375,-0.265 5.807,-0.687 5.707,-1.39 5.278,-4.411 4.388,-7.228 1.626,-8.981 c -2.811,-1.786 -5.909,-1.885 -9.051,-1.248 -0.806,0.163 -1.681,-0.077 -2.424,0.415 0.221,0.213 0.457,0.146 0.696,0.036 2.436,-0.014 4.873,-0.044 7.309,-0.036 2.272,0.007 5.482,2.51 6.055,4.71 0.24,0.921 0.345,1.886 0.654,2.782 C 5.208,-1.33 4.763,-1.031 3.916,-0.861 2.606,-0.599 1.305,-0.29 0,0"
             style="fill:#fef116;fill-opacity:1;fill-rule:nonzero;stroke:none"
             id="path102" /></g><g
           id="g104"
           transform="translate(343.8936,135.8164)"><path
             d="m 0,0 c 0.546,3.208 1.903,5.987 4.57,7.935 3.539,2.583 7.592,2.696 11.652,1.856 1.699,-0.352 3.329,-1.291 4.44,-2.81 -1.5,0.638 -2.794,1.68 -4.373,2.175 C 9.23,11.365 3.123,7.714 0.704,1.505 0.504,0.989 0.236,0.501 0,0"
             style="fill:#fef116;fill-opacity:1;fill-rule:nonzero;stroke:none"
             id="path106" /></g><g
           id="g108"
           transform="translate(438.6943,136.5537)"><path
             d="m 0,0 c 0.98,2.557 1.922,5.124 4.142,6.96 1.795,1.484 3.792,2.453 6.126,2.657 1.664,0.146 3.323,0.331 4.996,0.007 2.112,-0.409 4.001,-1.19 5.385,-2.922 C 19.74,7.19 18.854,7.733 17.916,8.157 12.943,10.4 8.348,9.725 4.24,6.172 2.228,4.432 1.226,1.999 0.228,-0.4 0.183,-0.507 0.11,-0.603 0.052,-0.704 -0.193,-0.485 -0.132,-0.245 0,0"
             style="fill:#fef116;fill-opacity:1;fill-rule:nonzero;stroke:none"
             id="path110" /></g><g
           id="g112"
           transform="translate(148.3721,145.1992)"><path
             d="m 0,0 c -1.559,0.455 -2.743,1.58 -4.13,2.344 -1.654,0.911 -3.366,1.782 -4.694,3.193 -0.907,0.965 -0.817,1.675 0.225,2.448 0.811,0.602 1.71,0.857 2.679,0.873 2.116,0.037 4.234,0.027 6.351,0.036 C -0.558,8.379 -1.63,8.414 -2.696,8.429 -4.262,8.451 -5.796,8.244 -7.274,7.737 -8.905,7.179 -8.996,6.688 -7.805,5.457 -6.933,4.555 -5.801,4.027 -4.803,3.307 -3.227,2.169 -1.414,1.373 0,0"
             style="fill:#fef116;fill-opacity:1;fill-rule:nonzero;stroke:none"
             id="path114" /></g><g
           id="g116"
           transform="translate(195.8608,181.2031)"><path
             d="m 0,0 c -1.365,0.022 -2.669,0.326 -3.968,0.745 -0.746,0.24 -1.555,0.307 -2.343,0.4 -2.904,0.341 -5.739,1.062 -8.713,1.104 -2.202,0.031 -4.268,1.164 -6.087,2.459 -1.05,0.749 -2.369,1.132 -3.152,2.251 1.632,-0.9 3.214,-1.914 4.911,-2.669 1.789,-0.796 3.583,-1.684 5.632,-1.688 1.676,-0.004 3.302,-0.418 4.941,-0.698 2.575,-0.439 5.182,-0.718 7.7,-1.459 C -0.705,0.335 -0.289,0.318 0,0"
             style="fill:#fef116;fill-opacity:1;fill-rule:nonzero;stroke:none"
             id="path118" /></g><g
           id="g120"
           transform="translate(318.0742,190.7451)"><path
             d="m 0,0 c -0.017,6.028 -0.035,12.056 -0.044,18.083 -0.001,0.422 -0.107,0.954 0.463,1.103 C 0.956,19.327 1.22,18.9 1.399,18.499 1.743,17.733 2.421,17.158 2.624,16.317 0.893,17.556 0.822,17.471 0.372,15.235 -0.162,12.587 0.168,9.929 0.087,7.278 0.013,4.853 0.025,2.426 0,0"
             style="fill:#fef116;fill-opacity:1;fill-rule:nonzero;stroke:none"
             id="path122" /></g><g
           id="g124"
           transform="translate(162.751,157.6943)"><path
             d="M 0,0 C 1.718,1.864 3.492,3.662 5.719,4.938 6.741,5.524 8.438,5.363 9.379,4.657 10.596,3.743 11.649,2.692 12.445,1.391 11.74,1.579 11.376,2.203 10.889,2.655 10.148,3.344 9.323,3.896 8.414,4.302 7.236,4.828 6.087,4.994 4.992,3.988 3.795,2.888 2.425,1.986 1.288,0.81 0.936,0.445 0.535,0.1 0,0"
             style="fill:#fef116;fill-opacity:1;fill-rule:nonzero;stroke:none"
             id="path126" /></g><g
           id="g128"
           transform="translate(126.2588,115.9512)"><path
             d="m 0,0 c -0.363,-1.531 -1.383,-2.71 -2.193,-3.991 -1.508,-2.382 -3.589,-4.257 -5.795,-5.951 -1.036,-0.795 -2.348,-1.231 -3.535,-1.829 0.221,0.22 0.406,0.508 0.67,0.653 4.431,2.413 7.645,6.019 10.191,10.297 C -0.486,-0.525 -0.371,-0.151 0,0"
             style="fill:#fef116;fill-opacity:1;fill-rule:nonzero;stroke:none"
             id="path130" /></g><g
           id="g132"
           transform="translate(130.5527,204.7324)"><path
             d="m 0,0 c -2.318,-2.583 -4.738,-5.07 -7.325,-7.382 -1.255,-1.121 -2.405,-2.323 -3.516,-3.578 -0.415,-0.471 -0.786,-1.011 -1.382,-1.299 0.239,0.839 0.893,1.406 1.453,1.985 3.268,3.379 6.575,6.72 10.061,9.879 C -0.503,-0.208 -0.311,0.001 0,0"
             style="fill:#fef116;fill-opacity:1;fill-rule:nonzero;stroke:none"
             id="path134" /></g><g
           id="g136"
           transform="translate(123.8599,172.5693)"><path
             d="m 0,0 c -1.647,-1.806 -3.558,-3.253 -5.773,-4.303 -2.283,-1.082 -4.665,-1.772 -7.193,-1.932 0.704,0.473 1.534,0.673 2.325,0.833 3.781,0.76 6.94,2.704 9.922,5.016 C -0.498,-0.214 -0.306,-0.007 0,0"
             style="fill:#fef116;fill-opacity:1;fill-rule:nonzero;stroke:none"
             id="path138" /></g><g
           id="g140"
           transform="translate(140.8862,187.4829)"><path
             d="m 0,0 c 0.701,-0.583 1.407,-1.16 2.1,-1.752 0.739,-0.632 0.675,-1.373 0.049,-1.971 -2.167,-2.069 -4.708,-3.579 -7.44,-4.78 0.837,0.861 1.925,1.353 2.926,1.97 1.468,0.904 2.74,2.01 3.787,3.392 0.456,0.602 0.394,0.977 -0.145,1.479 C 0.771,-1.19 0.117,-0.787 0,0"
             style="fill:#fef116;fill-opacity:1;fill-rule:nonzero;stroke:none"
             id="path142" /></g><g
           id="g144"
           transform="translate(438.6943,136.5537)"><path
             d="m 0,0 c 0.017,-0.234 0.033,-0.47 0.051,-0.704 -0.219,-2.706 -0.827,-5.387 -0.519,-8.127 0.427,-1.808 0.692,-3.66 1.449,-5.38 0.099,-0.224 0.176,-0.45 -0.023,-0.665 -0.456,0.233 -0.739,0.628 -0.858,1.098 -0.361,1.416 -0.86,2.828 -0.979,4.269 C -1.145,-6.305 -1.06,-3.099 0,0"
             style="fill:#fef116;fill-opacity:1;fill-rule:nonzero;stroke:none"
             id="path146" /></g><g
           id="g148"
           transform="translate(439.6523,121.6777)"><path
             d="M 0,0 C -0.7,1.962 -1.294,3.948 -1.426,6.045 -1.025,4.653 -0.714,3.228 -0.204,1.877 0.824,-0.847 2.365,-3.185 5.13,-4.479 5.369,-4.59 5.556,-4.813 5.767,-4.984 5.534,-4.996 5.303,-5.008 5.07,-5.02 3.639,-4.13 2.184,-3.282 1.096,-1.933 0.616,-1.337 0.179,-0.751 0,0"
             style="fill:#fef116;fill-opacity:1;fill-rule:nonzero;stroke:none"
             id="path150" /></g><g
           id="g152"
           transform="translate(117.1089,176.8711)"><path
             d="M 0,0 C 0.112,2.104 1.415,3.445 3.023,4.521 4.122,5.255 5.172,6.11 6.495,6.455 5.691,5.5 4.511,5.039 3.597,4.222 2.202,2.976 1.065,1.521 0,0"
             style="fill:#fef116;fill-opacity:1;fill-rule:nonzero;stroke:none"
             id="path154" /></g><g
           id="g156"
           transform="translate(418.5859,108.9746)"><path
             d="M 0,0 C 2.099,-0.002 4.198,0.011 6.298,-0.018 6.879,-0.025 7.393,0.062 7.829,0.459 7.682,-0.542 6.813,-0.633 6.128,-0.671 4.429,-0.766 2.721,-0.705 1.017,-0.697 0.531,-0.695 0.212,-0.418 0,0"
             style="fill:#fef116;fill-opacity:1;fill-rule:nonzero;stroke:none"
             id="path158" /></g><g
           id="g160"
           transform="translate(337.4473,203.5127)"><path
             d="m 0,0 c 0.008,-1.191 0.021,-2.382 0.021,-3.572 0,-0.361 -0.016,-0.759 -0.44,-0.883 -0.372,-0.11 -0.559,0.233 -0.772,0.452 -0.859,0.884 -1.515,1.902 -1.976,3.045 0.56,-0.406 0.808,-1.105 1.539,-1.396 0.821,-0.326 1.111,-0.12 1.151,0.689 C -0.447,-1.073 -0.303,-0.514 0,0"
             style="fill:#fef116;fill-opacity:1;fill-rule:nonzero;stroke:none"
             id="path162" /></g><g
           id="g164"
           transform="translate(359.5137,117.124)"><path
             d="m 0,0 c -0.249,-0.566 -0.798,-0.413 -1.24,-0.523 -2.638,-0.658 -5.267,-0.238 -7.88,0.131 -0.611,0.087 -1.16,0.626 -1.737,0.957 0.102,0.047 0.238,0.163 0.303,0.131 C -7.127,-0.945 -3.579,-0.701 0,0"
             style="fill:#fef116;fill-opacity:1;fill-rule:nonzero;stroke:none"
             id="path166" /></g><g
           id="g168"
           transform="translate(466.5723,118.8037)"><path
             d="M 0,0 C -0.104,0.374 0.038,0.716 0.201,1.023 1.093,2.708 1.275,4.623 1.976,6.365 2.162,6.829 2.514,7.227 2.79,7.654 2.889,6.312 2.037,5.253 1.707,4.038 1.322,2.619 0.81,1.244 0,0"
             style="fill:#fef116;fill-opacity:1;fill-rule:nonzero;stroke:none"
             id="path170" /></g><g
           id="g172"
           transform="translate(361.7012,118.0801)"><path
             d="M 0,0 C -0.095,0.009 -0.19,0.018 -0.285,0.026 -0.187,1.061 0.841,1.453 1.277,2.284 1.716,3.12 2.158,3.929 2.359,4.854 2.644,5.412 2.218,6.402 3.333,6.455 2.882,3.963 2.134,1.624 0,0"
             style="fill:#fef116;fill-opacity:1;fill-rule:nonzero;stroke:none"
             id="path174" /></g><g
           id="g176"
           transform="translate(37.4565,111.3691)"><path
             d="M 0,0 C -1.166,-0.312 -2.306,-0.768 -3.542,-0.708 -4.454,-0.664 -5.345,-0.804 -6.239,-0.94 -4.3,0.305 -2.122,-0.035 0,0"
             style="fill:#fef116;fill-opacity:1;fill-rule:nonzero;stroke:none"
             id="path178" /></g><g
           id="g180"
           transform="translate(364.0605,122.9336)"><path
             d="m 0,0 c 0.021,-1.57 -0.874,-2.722 -1.779,-3.864 -0.268,-0.337 -0.576,-0.643 -0.866,-0.963 -0.227,-0.088 -0.454,-0.176 -0.681,-0.264 -0.103,0.325 0.096,0.53 0.305,0.718 C -1.665,-3.155 -0.712,-1.661 0,0"
             style="fill:#fef116;fill-opacity:1;fill-rule:nonzero;stroke:none"
             id="path182" /></g><g
           id="g184"
           transform="translate(148.8052,154.0937)"><path
             d="M 0,0 C 1.582,0.24 3.162,0.496 4.747,0.715 5.562,0.827 6.386,0.872 7.206,0.948 4.867,0.154 2.459,-0.12 0,0"
             style="fill:#fef116;fill-opacity:1;fill-rule:nonzero;stroke:none"
             id="path186" /></g><g
           id="g188"
           transform="translate(415.6777,128.6475)"><path
             d="M 0,0 C -0.981,0.827 -1.523,1.939 -2.002,3.093 -1.077,2.229 -0.565,1.097 0,0"
             style="fill:#fef116;fill-opacity:1;fill-rule:nonzero;stroke:none"
             id="path190" /></g><g
           id="g192"
           transform="translate(118.3315,192.4756)"><path
             d="M 0,0 C -0.189,-1.019 -0.937,-1.607 -1.688,-2.194 -1.328,-1.307 -0.771,-0.571 0,0"
             style="fill:#fef116;fill-opacity:1;fill-rule:nonzero;stroke:none"
             id="path194" /></g><g
           id="g196"
           transform="translate(379.9482,215.7876)"><path
             d="M 0,0 C 0.645,0.686 1.093,1.55 1.895,2.095 1.482,1.198 0.976,0.387 0,0"
             style="fill:#fef116;fill-opacity:1;fill-rule:nonzero;stroke:none"
             id="path198" /></g><g
           id="g200"
           transform="translate(132.9634,205.8896)"><path
             d="M 0,0 C -0.892,-0.206 -1.704,-0.579 -2.416,-1.161 -2.044,0.127 -1.025,0.07 0,0"
             style="fill:#fef116;fill-opacity:1;fill-rule:nonzero;stroke:none"
             id="path202" /></g><g
           id="g204"
           transform="translate(114.7314,104.1768)"><path
             d="M 0,0 C -0.431,-0.671 -1.021,-1.181 -1.652,-1.649 -1.421,-0.779 -0.786,-0.314 0,0"
             style="fill:#fef116;fill-opacity:1;fill-rule:nonzero;stroke:none"
             id="path206" /></g><g
           id="g208"
           transform="translate(272.499,207.6392)"><path
             d="m 0,0 c -1.477,-0.001 -2.955,-0.029 -4.432,0.007 -1.427,0.035 -1.692,0.301 -1.705,1.702 -0.027,2.834 0.002,5.669 -0.038,8.503 -0.013,0.924 0.348,1.469 1.256,1.552 2.945,0.269 5.933,0.414 8.835,-0.005 C 7.47,11.247 9.88,6.869 8.853,3.413 8.416,1.946 5.978,0.04 4.433,0.007 2.956,-0.024 1.478,0 0,0"
             style="fill:#002861;fill-opacity:1;fill-rule:nonzero;stroke:none"
             id="path210" /></g><g
           id="g212"
           transform="translate(357.3359,205.2187)"><path
             d="M 0,0 C 0.002,-1.776 0.005,-3.551 0.007,-5.327 -0.371,-3.552 -0.356,-1.776 0,0"
             style="fill:#fef116;fill-opacity:1;fill-rule:nonzero;stroke:none"
             id="path214" /></g><g
           id="g216"
           transform="translate(283.8047,138.7109)"><path
             d="m 0,0 c -0.807,-1.729 -2.975,-3.628 -4.994,-3.452 -2.615,0.228 -5.265,0.045 -7.9,0.062 -1.5,0.01 -1.667,0.179 -1.702,1.633 -0.07,2.911 -0.093,5.825 -0.203,8.735 -0.036,0.956 0.474,1.365 1.242,1.41 2.911,0.167 5.867,0.395 8.723,-0.08 C -2.768,7.963 -0.967,6.671 0.001,4.593 0.419,4.145 0.342,3.551 0.291,3.058 0.187,2.039 0.277,1 0,0"
             style="fill:#002861;fill-opacity:1;fill-rule:nonzero;stroke:none"
             id="path218" /></g><g
           id="g220"
           transform="translate(283.8047,138.7109)"><path
             d="M 0,0 C -0.422,1.531 0.269,3.063 0.002,4.594 0.777,3.467 0.776,1.216 0,0"
             style="fill:#fef116;fill-opacity:1;fill-rule:nonzero;stroke:none"
             id="path222" /></g><g
           id="g224"
           transform="translate(314.4336,146.0742)"><path
             d="M 0,0 -4.732,-15.149 H 7.321 L 3.189,0 Z"
             style="fill:#002861;fill-opacity:1;fill-rule:nonzero;stroke:none"
             id="path226" /></g></g></g></g></svg>
