<?xml version="1.0" encoding="UTF-8"?>
<!DOCTYPE svg PUBLIC "-//W3C//DTD SVG 1.1//EN" "http://www.w3.org/Graphics/SVG/1.1/DTD/svg11.dtd">
<!-- Creator: CorelDRAW 2017 -->
<svg xmlns="http://www.w3.org/2000/svg" xml:space="preserve" width="20in" height="20in" version="1.1" style="shape-rendering:geometricPrecision; text-rendering:geometricPrecision; image-rendering:optimizeQuality; fill-rule:evenodd; clip-rule:evenodd"
viewBox="0 0 20000 20000"
 xmlns:xlink="http://www.w3.org/1999/xlink">
 <defs>
  <style type="text/css">
   <![CDATA[
    .str1 {stroke:#E00000;stroke-width:222.22;stroke-miterlimit:2.61313}
    .str0 {stroke:#E00000;stroke-width:6.94;stroke-miterlimit:2.61313}
    .str2 {stroke:#E00000;stroke-width:3;stroke-miterlimit:2.61313}
    .fil2 {fill:none}
    .fil0 {fill:#E00000}
    .fil1 {fill:#E00000;fill-rule:nonzero}
   ]]>
  </style>
 </defs>
 <g id="Layer_x0020_1">
  <metadata id="CorelCorpID_0Corel-Layer"/>
  <g id="_2878243487728">
   <path class="fil0 str0" d="M13477.49 10878.85c22.76,-290.96 255.67,-479.82 548.59,-565.38 0.93,330.94 0,1156.76 1.43,1470.68 184.23,0 560.85,-0.77 712.3,0 -1.92,-152.78 -1.92,-1300.4 0,-1484.38 308.1,76.82 556.4,266.14 576.4,569.27 113.08,1713.98 -2.98,3912.39 -114.29,5475.5 -121.94,1712.48 -1560.2,1615.94 -1638.51,-40.74 -79.61,-1684.18 -206.84,-3879.54 -85.92,-5424.95z"/>
   <g>
    <path class="fil1" d="M5586.34 17081.74l98.2 0 -277.76 277.76 -98.2 -98.2 277.76 -277.76 98.2 0 -98.2 98.2zm0 -98.2l49.1 -49.1 49.1 49.1 -98.2 0zm326.87 326.87l-49.1 49.1 -277.76 -277.76 98.2 -98.2 277.76 277.76 -49.1 49.1zm-326.87 49.1l98.2 0 -277.76 277.76 -98.2 -98.2 277.76 -277.76 98.2 0 -98.2 98.2zm0 -98.2l49.1 -49.1 49.1 49.1 -98.2 0zm326.87 326.87l-49.1 49.1 -277.76 -277.76 98.2 -98.2 277.76 277.76 -49.1 49.1zm-208.32 -4798.41l-0 4308.15 -138.88 0 0 -4308.15 118.54 -49.1 20.34 49.1zm-20.34 -49.1l20.34 20.34 0 28.76 -20.34 -49.1zm-1732.95 -1732.94l1732.95 1732.94 -98.2 98.2 -1732.95 -1732.94 -20.34 -48.84 118.54 -49.37zm-98.2 98.2l-20.23 -20.23 -0.11 -28.61 20.34 48.84zm113.4 -1408.78l5.15 1359.41 -138.88 0.53 -5.15 -1359.41 20.34 -49.37 118.54 48.84zm-138.88 0.53l-0.11 -28.92 20.45 -20.45 -20.34 49.37zm987.59 -820.21l-869.05 869.05 -98.2 -98.2 869.05 -869.05 118.55 49.1 -20.34 49.1zm20.34 -49.1l0 28.76 -20.34 20.34 20.34 -49.1zm0 -1661.39l0 1661.39 -138.89 0 0 -1661.39 20.34 -49.1 118.55 49.1zm-138.89 0l0 -28.76 20.34 -20.34 -20.34 49.1zm1855.91 -1688.27l-1737.36 1737.37 -98.2 -98.2 1737.36 -1737.37 118.54 49.15 -20.34 49.06zm20.34 -49.06l-0.02 28.74 -20.32 20.32 20.34 -49.06zm0.74 -1181.72l-0.74 1181.72 -138.88 -0.09 0.74 -1181.72 138.89 0.04 -0 0.04zm0 -818.19l0 818.15 -138.89 0 0 -818.15 20.34 -49.1 118.55 49.1zm-138.89 0l0 -28.76 20.34 -20.34 -20.34 49.1zm817.69 -650.05l-699.15 699.15 -98.2 -98.2 699.15 -699.15 98.2 98.2zm-109.8 -381.23l98.2 98.2 0 0 -4.95 5.2 -4.6 5.36 -4.27 5.52 -3.95 5.67 -3.63 5.82 -3.31 5.95 -3 6.08 -2.69 6.19 -2.37 6.3 -2.06 6.4 -1.74 6.48 -1.43 6.56 -1.11 6.61 -0.8 6.65 -0.48 6.68 -0.16 6.7 0.15 6.7 0.48 6.69 0.79 6.65 1.11 6.61 1.43 6.56 1.74 6.48 2.06 6.4 2.37 6.31 2.69 6.2 3 6.08 3.31 5.96 3.63 5.82 3.95 5.69 4.28 5.53 4.61 5.38 4.96 5.22 -98.2 98.2 -9.81 -10.32 -9.2 -10.72 -8.58 -11.09 -7.95 -11.42 -7.32 -11.72 -6.68 -12 -6.04 -12.25 -5.4 -12.47 -4.76 -12.65 -4.13 -12.83 -3.48 -12.97 -2.85 -13.07 -2.22 -13.17 -1.57 -13.24 -0.94 -13.28 -0.31 -13.3 0.32 -13.3 0.96 -13.28 1.59 -13.23 2.22 -13.16 2.86 -13.07 3.49 -12.96 4.13 -12.81 4.77 -12.64 5.4 -12.45 6.04 -12.23 6.68 -11.98 7.31 -11.7 7.94 -11.4 8.57 -11.07 9.19 -10.7 9.79 -10.3 0 0zm392.82 0l-98.2 98.2 0 0 -5.22 -4.96 -5.38 -4.61 -5.53 -4.28 -5.69 -3.95 -5.82 -3.63 -5.96 -3.31 -6.08 -3 -6.2 -2.69 -6.31 -2.37 -6.4 -2.06 -6.48 -1.74 -6.56 -1.43 -6.61 -1.11 -6.65 -0.79 -6.68 -0.48 -6.7 -0.15 -6.7 0.16 -6.68 0.48 -6.65 0.8 -6.61 1.11 -6.55 1.43 -6.48 1.75 -6.4 2.06 -6.3 2.37 -6.19 2.69 -6.08 3 -5.95 3.31 -5.82 3.63 -5.67 3.95 -5.52 4.27 -5.36 4.6 -5.2 4.94 -98.2 -98.2 10.3 -9.79 10.7 -9.19 11.07 -8.57 11.4 -7.94 11.7 -7.31 11.98 -6.68 12.23 -6.04 12.45 -5.4 12.65 -4.77 12.81 -4.13 12.96 -3.49 13.07 -2.86 13.16 -2.22 13.23 -1.59 13.28 -0.96 13.3 -0.32 13.31 0.31 13.28 0.94 13.24 1.57 13.17 2.21 13.08 2.85 12.96 3.48 12.83 4.13 12.65 4.76 12.47 5.4 12.25 6.04 12 6.68 11.73 7.32 11.42 7.95 11.09 8.58 10.72 9.2 10.32 9.81 0 0zm0 392.82l-98.2 -98.2 0 0 4.95 -5.2 4.6 -5.36 4.27 -5.52 3.95 -5.67 3.63 -5.82 3.31 -5.95 3 -6.08 2.69 -6.19 2.37 -6.3 2.06 -6.4 1.74 -6.48 1.43 -6.56 1.11 -6.61 0.8 -6.65 0.48 -6.68 0.16 -6.7 -0.15 -6.7 -0.48 -6.69 -0.79 -6.65 -1.11 -6.61 -1.43 -6.56 -1.74 -6.48 -2.06 -6.4 -2.37 -6.31 -2.69 -6.2 -3 -6.08 -3.31 -5.96 -3.63 -5.82 -3.95 -5.69 -4.28 -5.53 -4.61 -5.38 -4.96 -5.22 98.2 -98.2 9.81 10.32 9.2 10.72 8.58 11.09 7.95 11.42 7.32 11.72 6.68 12 6.04 12.25 5.4 12.47 4.76 12.65 4.13 12.83 3.48 12.97 2.85 13.07 2.22 13.17 1.57 13.24 0.94 13.28 0.31 13.3 -0.32 13.3 -0.96 13.28 -1.59 13.23 -2.22 13.16 -2.86 13.07 -3.49 12.96 -4.13 12.81 -4.77 12.64 -5.4 12.45 -6.04 12.23 -6.68 11.98 -7.31 11.7 -7.94 11.4 -8.57 11.07 -9.19 10.7 -9.79 10.3 0 0zm-392.82 0l98.2 -98.2 5.22 4.96 5.38 4.61 5.53 4.28 5.69 3.95 5.82 3.63 5.96 3.31 6.08 3 6.2 2.69 6.31 2.37 6.4 2.06 6.48 1.74 6.56 1.43 6.61 1.11 6.65 0.79 6.68 0.48 6.7 0.15 6.7 -0.16 6.68 -0.48 6.65 -0.8 6.61 -1.11 6.55 -1.43 6.48 -1.75 6.4 -2.06 6.3 -2.37 6.19 -2.69 6.08 -3 5.95 -3.31 5.82 -3.63 5.67 -3.95 5.52 -4.27 5.36 -4.6 5.2 -4.94 98.2 98.2 -10.3 9.79 -10.7 9.19 -11.07 8.57 -11.4 7.94 -11.7 7.31 -11.98 6.68 -12.23 6.04 -12.45 5.4 -12.65 4.77 -12.81 4.13 -12.96 3.49 -13.07 2.86 -13.16 2.22 -13.23 1.59 -13.28 0.96 -13.3 0.32 -13.31 -0.31 -13.28 -0.94 -13.24 -1.57 -13.17 -2.21 -13.08 -2.85 -12.96 -3.48 -12.83 -4.13 -12.65 -4.76 -12.47 -5.4 -12.25 -6.04 -12 -6.68 -11.73 -7.32 -11.42 -7.95 -11.09 -8.58 -10.72 -9.2 -10.32 -9.81z"/>
   </g>
   <g>
    <path class="fil1" d="M3848.5 17081.77l98.2 0.11 -278.08 277.45 -98.09 -98.32 278.08 -277.44 98.2 0.11 -98.32 98.09zm0.11 -98.2l49.16 -49.05 49.05 49.16 -98.2 -0.11zm326.49 327.24l-49.16 49.05 -277.45 -278.08 98.32 -98.09 277.44 278.08 -49.16 49.04zm-326.92 48.73l98.2 0.11 -278.08 277.45 -98.09 -98.32 278.08 -277.44 98.2 0.11 -98.31 98.09zm0.11 -98.2l49.16 -49.05 49.05 49.16 -98.2 -0.11zm326.49 327.24l-49.16 49.05 -277.44 -278.08 98.31 -98.09 277.45 278.08 -49.16 49.04zm-202.85 -4798.72l-4.92 4308.24 -138.88 -0.16 4.92 -4308.24 20.34 -49.02 118.54 49.18zm-138.88 -0.16l0.03 -28.72 20.31 -20.31 -20.34 49.02zm1851.49 -1683.76l-1732.95 1732.94 -98.2 -98.2 1732.95 -1732.94 118.55 49.1 -20.34 49.1zm20.34 -49.1l0 28.76 -20.34 20.34 20.34 -49.1zm0 -3116.66l0 3116.66 -138.89 0 0 -3116.66 0 -0.01 138.89 0.01zm-138.89 58.8l0.01 -58.8 138.88 0.02 -0.01 58.8 -138.89 -0.01 0 -0.01zm138.89 -2552.09l0 2552.09 -138.89 0 0 -2552.09 138.89 0zm-347.22 -191.94l138.89 0 0 0 0.18 7.18 0.54 7.05 0.88 6.92 1.22 6.8 1.54 6.68 1.87 6.55 2.17 6.42 2.48 6.28 2.78 6.14 3.06 5.98 3.35 5.81 3.62 5.65 3.89 5.46 4.14 5.27 4.38 5.06 4.62 4.85 4.85 4.63 5.06 4.39 5.27 4.15 5.45 3.89 5.65 3.63 5.81 3.35 5.98 3.07 6.14 2.78 6.28 2.48 6.42 2.18 6.56 1.87 6.69 1.55 6.81 1.22 6.94 0.88 7.06 0.54 7.2 0.18 0 138.89 -14.23 -0.36 -14.09 -1.07 -13.91 -1.77 -13.7 -2.46 -13.46 -3.11 -13.21 -3.76 -12.94 -4.39 -12.63 -5 -12.31 -5.58 -11.99 -6.15 -11.63 -6.7 -11.26 -7.24 -10.88 -7.75 -10.48 -8.24 -10.06 -8.72 -9.63 -9.19 -9.18 -9.63 -8.72 -10.07 -8.23 -10.48 -7.74 -10.88 -7.22 -11.26 -6.69 -11.63 -6.14 -11.98 -5.57 -12.31 -4.98 -12.63 -4.38 -12.92 -3.75 -13.2 -3.11 -13.44 -2.45 -13.68 -1.77 -13.89 -1.07 -14.06 -0.36 -14.2 0 0zm277.78 -277.78l0 138.89 0 0 -7.2 0.18 -7.06 0.54 -6.94 0.88 -6.81 1.22 -6.69 1.55 -6.56 1.87 -6.43 2.18 -6.28 2.48 -6.14 2.78 -5.98 3.07 -5.81 3.35 -5.65 3.63 -5.45 3.89 -5.27 4.14 -5.06 4.39 -4.85 4.63 -4.62 4.85 -4.38 5.06 -4.14 5.27 -3.89 5.46 -3.62 5.65 -3.35 5.81 -3.06 5.98 -2.78 6.14 -2.48 6.28 -2.17 6.42 -1.87 6.55 -1.54 6.68 -1.22 6.8 -0.88 6.92 -0.54 7.05 -0.18 7.18 -138.89 0 0.36 -14.2 1.07 -14.06 1.77 -13.89 2.45 -13.68 3.11 -13.44 3.75 -13.2 4.38 -12.92 4.98 -12.63 5.57 -12.31 6.14 -11.98 6.69 -11.63 7.22 -11.26 7.74 -10.88 8.23 -10.48 8.72 -10.07 9.18 -9.63 9.63 -9.19 10.06 -8.72 10.48 -8.24 10.88 -7.75 11.26 -7.24 11.63 -6.7 11.99 -6.15 12.31 -5.58 12.63 -5 12.94 -4.39 13.21 -3.76 13.46 -3.11 13.7 -2.46 13.91 -1.77 14.09 -1.07 14.23 -0.36 0 0zm277.78 277.78l-138.89 0 0 0 -0.18 -7.18 -0.54 -7.05 -0.88 -6.92 -1.22 -6.8 -1.54 -6.68 -1.87 -6.55 -2.17 -6.42 -2.48 -6.28 -2.78 -6.14 -3.06 -5.98 -3.35 -5.81 -3.62 -5.65 -3.89 -5.46 -4.14 -5.27 -4.38 -5.06 -4.62 -4.85 -4.85 -4.63 -5.06 -4.39 -5.27 -4.15 -5.45 -3.89 -5.65 -3.63 -5.81 -3.35 -5.98 -3.07 -6.14 -2.78 -6.28 -2.48 -6.42 -2.18 -6.56 -1.87 -6.69 -1.55 -6.81 -1.22 -6.94 -0.88 -7.06 -0.54 -7.2 -0.18 0 -138.89 14.23 0.36 14.09 1.07 13.91 1.77 13.7 2.46 13.46 3.11 13.21 3.76 12.94 4.39 12.63 5 12.31 5.58 11.99 6.15 11.63 6.7 11.26 7.24 10.88 7.75 10.48 8.24 10.06 8.72 9.63 9.19 9.18 9.63 8.72 10.07 8.23 10.48 7.74 10.88 7.22 11.26 6.69 11.63 6.14 11.98 5.57 12.31 4.98 12.63 4.38 12.92 3.75 13.2 3.11 13.44 2.45 13.68 1.77 13.89 1.07 14.06 0.36 14.2 0 0zm-277.78 277.78l0 -138.89 7.2 -0.18 7.06 -0.54 6.94 -0.88 6.81 -1.22 6.69 -1.55 6.56 -1.87 6.43 -2.18 6.28 -2.48 6.14 -2.78 5.98 -3.07 5.81 -3.35 5.65 -3.63 5.45 -3.89 5.27 -4.14 5.06 -4.39 4.85 -4.63 4.62 -4.85 4.38 -5.06 4.14 -5.27 3.89 -5.46 3.62 -5.65 3.35 -5.81 3.06 -5.98 2.78 -6.14 2.48 -6.28 2.17 -6.42 1.87 -6.55 1.54 -6.68 1.22 -6.8 0.88 -6.92 0.54 -7.05 0.18 -7.18 138.89 0 -0.36 14.2 -1.07 14.06 -1.77 13.89 -2.45 13.68 -3.11 13.44 -3.75 13.2 -4.38 12.92 -4.98 12.63 -5.57 12.31 -6.14 11.98 -6.69 11.63 -7.22 11.26 -7.74 10.88 -8.23 10.48 -8.72 10.07 -9.18 9.63 -9.63 9.19 -10.06 8.72 -10.48 8.24 -10.88 7.75 -11.26 7.24 -11.63 6.7 -11.99 6.15 -12.31 5.58 -12.63 5 -12.94 4.39 -13.21 3.76 -13.46 3.11 -13.7 2.46 -13.91 1.77 -14.09 1.07 -14.23 0.36z"/>
   </g>
   <g>
    <path class="fil1" d="M4717.29 17081.77l98.21 0 -277.78 277.78 -98.21 -98.21 277.78 -277.78 98.21 0 -98.21 98.21zm0 -98.21l49.11 -49.1 49.11 49.1 -98.21 0zm326.89 326.89l-49.11 49.11 -277.78 -277.78 98.21 -98.21 277.78 277.78 -49.11 49.11zm-326.89 49.11l98.21 0 -277.78 277.78 -98.21 -98.21 277.78 -277.78 98.21 0 -98.21 98.21zm0 -98.21l49.11 -49.1 49.11 49.1 -98.21 0zm326.89 326.89l-49.11 49.11 -277.78 -277.78 98.21 -98.21 277.78 277.78 -49.11 49.11zm-208.33 -3821.65l0 3331.37 -138.89 0 0 -3331.37 34.72 -60.14 104.17 60.14zm-138.89 0l0 -40.09 34.72 -20.05 -34.72 60.14zm1866.83 -957.54l-1762.67 1017.67 -69.44 -120.28 1762.67 -1017.67 104.16 59.58 -34.72 60.7zm34.72 -60.7l0.33 40.46 -35.05 20.23 34.72 -60.7zm-23.03 -2859.56l23.03 2859.56 -138.88 1.12 -23.03 -2859.56 138.88 -1.12zm-348.75 -189.14l138.88 -1.12 0 0 0.24 7.18 0.59 7.04 0.94 6.91 1.28 6.8 1.6 6.67 1.92 6.53 2.23 6.41 2.53 6.26 2.83 6.11 3.11 5.96 3.39 5.79 3.67 5.62 3.93 5.43 4.18 5.23 4.42 5.03 4.66 4.81 4.88 4.59 5.1 4.35 5.3 4.1 5.49 3.84 5.67 3.58 5.84 3.3 6 3.02 6.16 2.73 6.3 2.43 6.44 2.13 6.57 1.81 6.7 1.5 6.82 1.17 6.94 0.83 7.07 0.48 7.2 0.13 1.12 138.88 -14.23 -0.25 -14.09 -0.96 -13.92 -1.66 -13.72 -2.34 -13.49 -3.01 -13.24 -3.65 -12.97 -4.29 -12.67 -4.89 -12.36 -5.48 -12.04 -6.06 -11.69 -6.61 -11.32 -7.14 -10.94 -7.66 -10.54 -8.16 -10.13 -8.64 -9.7 -9.11 -9.26 -9.56 -8.8 -10 -8.31 -10.41 -7.82 -10.81 -7.31 -11.2 -6.78 -11.57 -6.24 -11.93 -5.67 -12.26 -5.09 -12.59 -4.48 -12.89 -3.86 -13.17 -3.22 -13.42 -2.56 -13.66 -1.88 -13.87 -1.19 -14.06 -0.48 -14.2 0 0zm275.53 -280l1.12 138.88 0 0 -7.2 0.24 -7.06 0.6 -6.93 0.94 -6.81 1.28 -6.67 1.6 -6.54 1.92 -6.41 2.23 -6.26 2.54 -6.12 2.83 -5.95 3.12 -5.78 3.39 -5.62 3.67 -5.43 3.93 -5.23 4.19 -5.03 4.43 -4.81 4.67 -4.58 4.89 -4.34 5.09 -4.09 5.3 -3.84 5.5 -3.57 5.67 -3.3 5.84 -3.02 6 -2.73 6.16 -2.43 6.3 -2.13 6.44 -1.81 6.56 -1.49 6.7 -1.17 6.81 -0.83 6.93 -0.48 7.05 -0.13 7.18 -138.88 1.12 0.25 -14.2 0.96 -14.07 1.66 -13.9 2.34 -13.7 3 -13.47 3.65 -13.22 4.27 -12.96 4.88 -12.67 5.47 -12.35 6.04 -12.03 6.59 -11.69 7.13 -11.32 7.65 -10.94 8.15 -10.55 8.63 -10.14 9.1 -9.71 9.56 -9.27 9.99 -8.8 10.41 -8.33 10.81 -7.83 11.2 -7.32 11.58 -6.8 11.94 -6.25 12.27 -5.68 12.59 -5.1 12.9 -4.49 13.18 -3.87 13.44 -3.22 13.68 -2.56 13.89 -1.89 14.08 -1.19 14.23 -0.48 0 0zm280 275.53l-138.88 1.12 0 0 -0.24 -7.18 -0.59 -7.04 -0.94 -6.91 -1.28 -6.8 -1.6 -6.67 -1.92 -6.53 -2.23 -6.41 -2.53 -6.26 -2.83 -6.11 -3.11 -5.96 -3.39 -5.79 -3.67 -5.62 -3.93 -5.43 -4.18 -5.23 -4.42 -5.03 -4.66 -4.81 -4.88 -4.59 -5.1 -4.35 -5.3 -4.1 -5.49 -3.84 -5.67 -3.58 -5.84 -3.3 -6 -3.02 -6.16 -2.73 -6.3 -2.43 -6.44 -2.13 -6.57 -1.81 -6.7 -1.5 -6.82 -1.17 -6.94 -0.83 -7.07 -0.48 -7.2 -0.13 -1.12 -138.88 14.23 0.25 14.09 0.96 13.92 1.66 13.72 2.34 13.49 3.01 13.24 3.65 12.97 4.29 12.67 4.89 12.36 5.48 12.04 6.06 11.69 6.61 11.32 7.14 10.94 7.66 10.54 8.16 10.13 8.64 9.7 9.11 9.26 9.56 8.8 10 8.31 10.41 7.82 10.81 7.31 11.2 6.78 11.57 6.24 11.93 5.67 12.26 5.09 12.59 4.48 12.89 3.86 13.17 3.22 13.42 2.56 13.66 1.88 13.87 1.19 14.06 0.48 14.2 0 0zm-275.53 280l-1.12 -138.88 7.2 -0.24 7.06 -0.6 6.93 -0.94 6.81 -1.28 6.67 -1.6 6.54 -1.92 6.41 -2.23 6.26 -2.54 6.12 -2.83 5.95 -3.12 5.78 -3.39 5.62 -3.67 5.43 -3.93 5.23 -4.19 5.03 -4.43 4.81 -4.67 4.58 -4.89 4.34 -5.09 4.09 -5.3 3.84 -5.5 3.57 -5.67 3.3 -5.84 3.02 -6 2.73 -6.16 2.43 -6.3 2.13 -6.44 1.81 -6.56 1.49 -6.7 1.17 -6.81 0.83 -6.93 0.48 -7.05 0.13 -7.18 138.88 -1.12 -0.25 14.2 -0.96 14.07 -1.66 13.9 -2.34 13.7 -3 13.47 -3.65 13.22 -4.27 12.96 -4.88 12.67 -5.47 12.35 -6.04 12.03 -6.59 11.69 -7.13 11.32 -7.65 10.94 -8.15 10.55 -8.63 10.14 -9.1 9.71 -9.56 9.27 -9.99 8.8 -10.41 8.33 -10.81 7.83 -11.2 7.32 -11.58 6.8 -11.94 6.25 -12.27 5.68 -12.59 5.1 -12.9 4.49 -13.18 3.87 -13.44 3.22 -13.68 2.56 -13.89 1.89 -14.08 1.19 -14.23 0.48z"/>
   </g>
   <g>
    <path class="fil1" d="M7324.43 17081.65l98.21 0 -277.78 277.78 -98.21 -98.21 277.78 -277.78 98.21 0 -98.21 98.21zm0 -98.21l49.11 -49.1 49.11 49.1 -98.21 0zm326.89 326.89l-49.11 49.11 -277.78 -277.78 98.21 -98.21 277.78 277.78 -49.11 49.11zm-326.89 49.11l98.21 0 -277.78 277.78 -98.21 -98.21 277.78 -277.78 98.21 0 -98.21 98.21zm0 -98.21l49.11 -49.1 49.11 49.1 -98.21 0zm326.89 326.89l-49.11 49.11 -277.78 -277.78 98.21 -98.21 277.78 277.78 -49.11 49.11zm-208.33 -2250.94l0 1760.66 -138.89 0 0 -1760.66 118.55 -49.1 20.34 49.1zm-20.34 -49.1l20.34 20.34 0 28.76 -20.34 -49.1zm-869.04 -869.04l869.04 869.04 -98.2 98.2 -869.04 -869.04 -20.34 -49.1 118.55 -49.1zm-98.2 98.2l-20.34 -20.34 0 -28.76 20.34 49.1zm118.55 -558.71l0 509.61 -138.89 0 0 -509.61 138.89 0zm-347.22 -191.94l138.89 0 0 0 0.18 7.18 0.54 7.05 0.88 6.92 1.22 6.8 1.54 6.68 1.87 6.55 2.17 6.42 2.48 6.28 2.78 6.14 3.06 5.98 3.35 5.81 3.62 5.65 3.89 5.46 4.14 5.27 4.38 5.06 4.62 4.85 4.85 4.63 5.06 4.39 5.27 4.15 5.45 3.89 5.65 3.63 5.81 3.35 5.98 3.07 6.14 2.78 6.28 2.48 6.42 2.18 6.56 1.87 6.69 1.55 6.81 1.22 6.94 0.88 7.06 0.54 7.2 0.18 0 138.89 -14.23 -0.36 -14.09 -1.07 -13.91 -1.77 -13.7 -2.46 -13.46 -3.11 -13.21 -3.76 -12.94 -4.39 -12.63 -5 -12.31 -5.58 -11.99 -6.15 -11.63 -6.7 -11.26 -7.24 -10.88 -7.75 -10.48 -8.24 -10.06 -8.72 -9.63 -9.19 -9.18 -9.63 -8.72 -10.07 -8.23 -10.48 -7.74 -10.88 -7.22 -11.26 -6.69 -11.63 -6.14 -11.98 -5.57 -12.31 -4.98 -12.63 -4.38 -12.92 -3.75 -13.2 -3.11 -13.44 -2.45 -13.68 -1.77 -13.89 -1.07 -14.06 -0.36 -14.2 0 0zm277.78 -277.78l0 138.89 0 0 -7.2 0.18 -7.06 0.54 -6.94 0.88 -6.81 1.22 -6.69 1.55 -6.56 1.87 -6.43 2.18 -6.28 2.48 -6.14 2.78 -5.98 3.07 -5.81 3.35 -5.65 3.63 -5.45 3.89 -5.27 4.14 -5.06 4.39 -4.85 4.63 -4.62 4.85 -4.38 5.06 -4.14 5.27 -3.89 5.46 -3.62 5.65 -3.35 5.81 -3.06 5.98 -2.78 6.14 -2.48 6.28 -2.17 6.42 -1.87 6.55 -1.54 6.68 -1.22 6.8 -0.88 6.92 -0.54 7.05 -0.18 7.18 -138.89 0 0.36 -14.2 1.07 -14.06 1.77 -13.89 2.45 -13.68 3.11 -13.44 3.75 -13.2 4.38 -12.92 4.98 -12.63 5.57 -12.31 6.14 -11.98 6.69 -11.63 7.22 -11.26 7.74 -10.88 8.23 -10.48 8.72 -10.07 9.18 -9.63 9.63 -9.19 10.06 -8.72 10.48 -8.24 10.88 -7.75 11.26 -7.24 11.63 -6.7 11.99 -6.15 12.31 -5.58 12.63 -5 12.94 -4.39 13.21 -3.76 13.46 -3.11 13.7 -2.46 13.91 -1.77 14.09 -1.07 14.23 -0.36 0 0zm277.78 277.78l-138.89 0 0 0 -0.18 -7.18 -0.54 -7.05 -0.88 -6.92 -1.22 -6.8 -1.54 -6.68 -1.87 -6.55 -2.17 -6.42 -2.48 -6.28 -2.78 -6.14 -3.06 -5.98 -3.35 -5.81 -3.62 -5.65 -3.89 -5.46 -4.14 -5.27 -4.38 -5.06 -4.62 -4.85 -4.85 -4.63 -5.06 -4.39 -5.27 -4.15 -5.45 -3.89 -5.65 -3.63 -5.81 -3.35 -5.98 -3.07 -6.14 -2.78 -6.28 -2.48 -6.42 -2.18 -6.56 -1.87 -6.69 -1.55 -6.81 -1.22 -6.94 -0.88 -7.06 -0.54 -7.2 -0.18 0 -138.89 14.23 0.36 14.09 1.07 13.91 1.77 13.7 2.46 13.46 3.11 13.21 3.76 12.94 4.39 12.63 5 12.31 5.58 11.99 6.15 11.63 6.7 11.26 7.24 10.88 7.75 10.48 8.24 10.06 8.72 9.63 9.19 9.18 9.63 8.72 10.07 8.23 10.48 7.74 10.88 7.22 11.26 6.69 11.63 6.14 11.98 5.57 12.31 4.98 12.63 4.38 12.92 3.75 13.2 3.11 13.44 2.45 13.68 1.77 13.89 1.07 14.06 0.36 14.2 0 0zm-277.78 277.78l0 -138.89 7.2 -0.18 7.06 -0.54 6.94 -0.88 6.81 -1.22 6.69 -1.55 6.56 -1.87 6.43 -2.18 6.28 -2.48 6.14 -2.78 5.98 -3.07 5.81 -3.35 5.65 -3.63 5.45 -3.89 5.27 -4.14 5.06 -4.39 4.85 -4.63 4.62 -4.85 4.38 -5.06 4.14 -5.27 3.89 -5.46 3.62 -5.65 3.35 -5.81 3.06 -5.98 2.78 -6.14 2.48 -6.28 2.17 -6.42 1.87 -6.55 1.54 -6.68 1.22 -6.8 0.88 -6.92 0.54 -7.05 0.18 -7.18 138.89 0 -0.36 14.2 -1.07 14.06 -1.77 13.89 -2.45 13.68 -3.11 13.44 -3.75 13.2 -4.38 12.92 -4.98 12.63 -5.57 12.31 -6.14 11.98 -6.69 11.63 -7.22 11.26 -7.74 10.88 -8.23 10.48 -8.72 10.07 -9.18 9.63 -9.63 9.19 -10.06 8.72 -10.48 8.24 -10.88 7.75 -11.26 7.24 -11.63 6.7 -11.99 6.15 -12.31 5.58 -12.63 5 -12.94 4.39 -13.21 3.76 -13.46 3.11 -13.7 2.46 -13.91 1.77 -14.09 1.07 -14.23 0.36z"/>
   </g>
   <g>
    <path class="fil1" d="M6448.14 17081.65l98.21 0 -277.78 277.78 -98.21 -98.21 277.78 -277.78 98.21 0 -98.21 98.21zm0 -98.21l49.11 -49.1 49.11 49.1 -98.21 0zm326.89 326.89l-49.11 49.11 -277.78 -277.78 98.21 -98.21 277.78 277.78 -49.11 49.11zm-326.89 49.11l98.21 0 -277.78 277.78 -98.21 -98.21 277.78 -277.78 98.21 0 -98.21 98.21zm0 -98.21l49.11 -49.1 49.11 49.1 -98.21 0zm326.89 326.89l-49.11 49.11 -277.78 -277.78 98.21 -98.21 277.78 277.78 -49.11 49.11zm-208.33 -2250.94l0 1760.66 -138.89 0 0 -1760.66 20.34 -49.1 118.55 49.1zm-138.89 0l0 -28.76 20.34 -20.34 -20.34 49.1zm982.56 -814.91l-864.01 864.01 -98.2 -98.2 864.01 -864.01 118.54 49.32 -20.34 48.89zm20.34 -48.89l-0.09 28.64 -20.25 20.25 20.34 -48.89zm14.91 -4775.76l-14.91 4775.76 -138.88 -0.43 14.91 -4775.76 118.54 -48.89 20.34 49.32zm-20.34 -49.32l20.43 20.43 -0.09 28.89 -20.34 -49.32zm-734.58 -734.58l734.58 734.58 -98.2 98.2 -734.58 -734.58 98.2 -98.2zm-381.23 109.8l98.2 -98.2 0 0 5.2 4.95 5.36 4.6 5.52 4.27 5.67 3.95 5.82 3.63 5.95 3.31 6.08 3 6.19 2.69 6.3 2.37 6.4 2.06 6.48 1.75 6.55 1.43 6.61 1.11 6.65 0.8 6.68 0.48 6.7 0.16 6.7 -0.15 6.68 -0.48 6.65 -0.79 6.61 -1.11 6.56 -1.43 6.48 -1.74 6.4 -2.06 6.31 -2.37 6.2 -2.69 6.08 -3 5.96 -3.31 5.82 -3.63 5.69 -3.95 5.53 -4.28 5.38 -4.61 5.22 -4.96 98.2 98.2 -10.32 9.81 -10.72 9.2 -11.09 8.58 -11.42 7.95 -11.73 7.32 -12 6.68 -12.25 6.04 -12.47 5.4 -12.65 4.76 -12.83 4.13 -12.97 3.48 -13.08 2.85 -13.17 2.22 -13.24 1.57 -13.28 0.94 -13.3 0.31 -13.31 -0.32 -13.28 -0.96 -13.23 -1.59 -13.16 -2.22 -13.07 -2.86 -12.96 -3.49 -12.81 -4.13 -12.64 -4.77 -12.45 -5.4 -12.23 -6.04 -11.98 -6.68 -11.7 -7.31 -11.4 -7.94 -11.07 -8.57 -10.7 -9.19 -10.3 -9.79 0 0zm0 -392.82l98.2 98.2 0 0 -4.96 5.22 -4.61 5.38 -4.28 5.53 -3.95 5.69 -3.63 5.82 -3.31 5.96 -3 6.08 -2.69 6.2 -2.37 6.31 -2.06 6.4 -1.74 6.48 -1.43 6.56 -1.11 6.61 -0.79 6.65 -0.48 6.68 -0.15 6.7 0.16 6.7 0.48 6.68 0.8 6.65 1.11 6.61 1.43 6.56 1.74 6.48 2.06 6.4 2.37 6.3 2.69 6.19 3 6.08 3.31 5.95 3.63 5.82 3.95 5.67 4.27 5.52 4.6 5.36 4.95 5.2 -98.2 98.2 -9.79 -10.3 -9.19 -10.7 -8.57 -11.07 -7.94 -11.4 -7.31 -11.7 -6.68 -11.98 -6.04 -12.23 -5.4 -12.45 -4.77 -12.64 -4.13 -12.81 -3.49 -12.96 -2.86 -13.07 -2.22 -13.16 -1.59 -13.23 -0.96 -13.29 -0.32 -13.3 0.31 -13.3 0.94 -13.28 1.57 -13.24 2.22 -13.17 2.85 -13.08 3.48 -12.97 4.13 -12.83 4.76 -12.65 5.4 -12.47 6.04 -12.25 6.68 -12 7.32 -11.72 7.95 -11.42 8.58 -11.09 9.2 -10.72 9.81 -10.32 0 0zm392.82 0l-98.2 98.2 0 0 -5.2 -4.95 -5.36 -4.6 -5.52 -4.27 -5.67 -3.95 -5.82 -3.63 -5.95 -3.31 -6.08 -3 -6.19 -2.69 -6.3 -2.37 -6.4 -2.06 -6.48 -1.75 -6.55 -1.43 -6.61 -1.11 -6.65 -0.8 -6.68 -0.48 -6.7 -0.16 -6.7 0.15 -6.68 0.48 -6.65 0.79 -6.61 1.11 -6.56 1.43 -6.48 1.74 -6.4 2.06 -6.31 2.37 -6.2 2.69 -6.08 3 -5.96 3.31 -5.82 3.63 -5.69 3.95 -5.53 4.28 -5.38 4.61 -5.22 4.96 -98.2 -98.2 10.32 -9.81 10.72 -9.2 11.09 -8.58 11.42 -7.95 11.73 -7.32 12 -6.68 12.25 -6.04 12.47 -5.4 12.65 -4.76 12.83 -4.13 12.97 -3.48 13.08 -2.85 13.17 -2.22 13.24 -1.57 13.28 -0.94 13.3 -0.31 13.31 0.32 13.28 0.96 13.23 1.59 13.16 2.22 13.07 2.86 12.96 3.49 12.81 4.13 12.64 4.77 12.45 5.4 12.23 6.04 11.98 6.68 11.7 7.31 11.4 7.94 11.07 8.57 10.7 9.19 10.3 9.79 0 0zm0 392.82l-98.2 -98.2 4.96 -5.22 4.61 -5.38 4.28 -5.53 3.95 -5.69 3.63 -5.82 3.31 -5.96 3 -6.08 2.69 -6.2 2.37 -6.31 2.06 -6.4 1.74 -6.48 1.43 -6.56 1.11 -6.61 0.79 -6.65 0.48 -6.68 0.15 -6.7 -0.16 -6.7 -0.48 -6.68 -0.8 -6.65 -1.11 -6.61 -1.43 -6.56 -1.74 -6.48 -2.06 -6.4 -2.37 -6.3 -2.69 -6.19 -3 -6.08 -3.31 -5.95 -3.63 -5.82 -3.95 -5.67 -4.27 -5.52 -4.6 -5.36 -4.95 -5.2 98.2 -98.2 9.79 10.3 9.19 10.7 8.57 11.07 7.94 11.4 7.31 11.7 6.68 11.98 6.04 12.23 5.4 12.45 4.77 12.64 4.13 12.81 3.49 12.96 2.86 13.07 2.22 13.16 1.59 13.23 0.96 13.29 0.32 13.3 -0.31 13.3 -0.94 13.28 -1.57 13.24 -2.22 13.17 -2.85 13.08 -3.48 12.97 -4.13 12.83 -4.76 12.65 -5.4 12.47 -6.04 12.25 -6.68 12 -7.32 11.72 -7.95 11.42 -8.58 11.09 -9.2 10.72 -9.81 10.32z"/>
   </g>
   <g>
    <path class="fil1" d="M4488.61 11164.68l0 0 0.36 -14.2 1.07 -14.06 1.77 -13.89 2.45 -13.68 3.11 -13.44 3.75 -13.2 4.38 -12.92 4.98 -12.63 5.57 -12.31 6.14 -11.98 6.69 -11.63 7.22 -11.26 7.74 -10.88 8.23 -10.48 8.72 -10.07 9.18 -9.63 9.63 -9.19 10.06 -8.72 10.48 -8.24 10.88 -7.75 11.26 -7.24 11.63 -6.7 11.99 -6.15 12.31 -5.58 12.63 -5 12.94 -4.39 13.21 -3.76 13.46 -3.11 13.7 -2.46 13.91 -1.77 14.09 -1.07 14.23 -0.36 0 138.89 -7.2 0.18 -7.06 0.54 -6.94 0.88 -6.81 1.22 -6.69 1.55 -6.56 1.87 -6.42 2.18 -6.28 2.48 -6.14 2.78 -5.98 3.07 -5.81 3.35 -5.65 3.63 -5.45 3.89 -5.27 4.15 -5.06 4.39 -4.85 4.63 -4.62 4.85 -4.38 5.06 -4.14 5.27 -3.89 5.46 -3.62 5.65 -3.35 5.81 -3.06 5.98 -2.78 6.14 -2.48 6.28 -2.17 6.42 -1.87 6.55 -1.54 6.68 -1.22 6.8 -0.88 6.92 -0.54 7.05 -0.18 7.18 0 0 -138.89 0zm277.78 277.78l0 0 -14.23 -0.36 -14.09 -1.07 -13.91 -1.77 -13.7 -2.46 -13.46 -3.11 -13.21 -3.76 -12.94 -4.39 -12.63 -5 -12.31 -5.58 -11.99 -6.15 -11.63 -6.7 -11.26 -7.24 -10.88 -7.75 -10.48 -8.24 -10.06 -8.72 -9.63 -9.19 -9.18 -9.63 -8.72 -10.07 -8.23 -10.48 -7.74 -10.88 -7.22 -11.26 -6.69 -11.63 -6.14 -11.98 -5.57 -12.31 -4.98 -12.63 -4.38 -12.92 -3.75 -13.2 -3.11 -13.44 -2.45 -13.68 -1.77 -13.89 -1.07 -14.06 -0.36 -14.2 138.89 0 0.18 7.18 0.54 7.05 0.88 6.92 1.22 6.8 1.54 6.68 1.87 6.55 2.17 6.42 2.48 6.28 2.78 6.14 3.06 5.98 3.35 5.81 3.62 5.65 3.89 5.46 4.14 5.27 4.38 5.06 4.62 4.85 4.85 4.63 5.06 4.39 5.27 4.14 5.45 3.89 5.65 3.63 5.81 3.35 5.98 3.07 6.14 2.78 6.28 2.48 6.43 2.18 6.56 1.87 6.69 1.55 6.81 1.22 6.94 0.88 7.06 0.54 7.2 0.18 0 0 0 138.89zm277.78 -277.78l0 0 -0.36 14.2 -1.07 14.06 -1.77 13.89 -2.45 13.68 -3.11 13.44 -3.75 13.2 -4.38 12.92 -4.98 12.63 -5.57 12.31 -6.14 11.98 -6.69 11.63 -7.22 11.26 -7.74 10.88 -8.23 10.48 -8.72 10.07 -9.18 9.63 -9.63 9.19 -10.06 8.72 -10.48 8.24 -10.88 7.75 -11.26 7.24 -11.63 6.7 -11.99 6.15 -12.31 5.58 -12.63 5 -12.94 4.39 -13.21 3.76 -13.46 3.11 -13.7 2.46 -13.91 1.77 -14.09 1.07 -14.23 0.36 0 -138.89 7.2 -0.18 7.06 -0.54 6.94 -0.88 6.81 -1.22 6.69 -1.55 6.56 -1.87 6.42 -2.18 6.28 -2.48 6.14 -2.78 5.98 -3.07 5.81 -3.35 5.65 -3.63 5.45 -3.89 5.27 -4.15 5.06 -4.39 4.85 -4.63 4.62 -4.85 4.38 -5.06 4.14 -5.27 3.89 -5.46 3.62 -5.65 3.35 -5.81 3.06 -5.98 2.78 -6.14 2.48 -6.28 2.17 -6.42 1.87 -6.55 1.54 -6.68 1.22 -6.8 0.88 -6.92 0.54 -7.05 0.18 -7.18 0 0 138.89 0zm-277.78 -277.78l14.23 0.36 14.09 1.07 13.91 1.77 13.7 2.46 13.46 3.11 13.21 3.76 12.94 4.39 12.63 5 12.31 5.58 11.99 6.15 11.63 6.7 11.26 7.24 10.88 7.75 10.48 8.24 10.06 8.72 9.63 9.19 9.18 9.63 8.72 10.07 8.23 10.48 7.74 10.88 7.22 11.26 6.69 11.63 6.14 11.98 5.57 12.31 4.98 12.63 4.38 12.92 3.75 13.2 3.11 13.44 2.45 13.68 1.77 13.89 1.07 14.06 0.36 14.2 -138.89 0 -0.18 -7.18 -0.54 -7.05 -0.88 -6.92 -1.22 -6.8 -1.54 -6.68 -1.87 -6.55 -2.17 -6.42 -2.48 -6.28 -2.78 -6.14 -3.06 -5.98 -3.35 -5.81 -3.62 -5.65 -3.89 -5.46 -4.14 -5.27 -4.38 -5.06 -4.62 -4.85 -4.85 -4.63 -5.06 -4.39 -5.27 -4.14 -5.45 -3.89 -5.65 -3.63 -5.81 -3.35 -5.98 -3.07 -6.14 -2.78 -6.28 -2.48 -6.43 -2.18 -6.56 -1.87 -6.69 -1.55 -6.81 -1.22 -6.94 -0.88 -7.06 -0.54 -7.2 -0.18 0 -138.89zm69.44 -1189.5l0 1275.33 -138.89 0 0 -1275.33 20.34 -49.1 118.55 49.1zm-138.89 0l0 -28.76 20.34 -20.34 -20.34 49.1zm1850.32 -1682.68l-1731.77 1731.78 -98.2 -98.2 1731.77 -1731.78 118.54 49.36 -20.34 48.85zm20.34 -48.85l-0.11 28.61 -20.23 20.23 20.34 -48.85zm6.33 -1709.67l-6.33 1709.67 -138.88 -0.51 6.33 -1709.67 20.34 -48.85 118.54 49.36zm-138.88 -0.51l0.11 -28.61 20.23 -20.23 -20.34 48.85zm2369.89 -2201.99l-2251.35 2251.35 -98.2 -98.2 2251.35 -2251.35 48.8 -20.34 49.4 118.54zm-98.2 -98.2l20.22 -20.22 28.59 -0.12 -48.8 20.34zm2810.82 106.65l-2761.42 11.89 -0.6 -138.88 2761.42 -11.89 49.4 118.54 -48.8 20.34zm48.8 -20.34l-20.22 20.22 -28.59 0.12 48.8 -20.34zm1069.53 -1069.53l-1069.53 1069.53 -98.2 -98.2 1069.53 -1069.53 49.1 -20.34 49.1 118.55zm-98.2 -98.2l20.34 -20.34 28.76 0 -49.1 20.34zm479.09 118.55l-429.99 0 0 -138.89 429.99 0 49.1 20.34 -49.1 118.55zm0 -138.89l28.76 0 20.34 20.34 -49.1 -20.34zm322.48 490.12l-371.58 -371.57 98.2 -98.2 371.58 371.57 -98.2 98.2zm381.23 -109.8l-98.2 98.2 0 0 -5.2 -4.95 -5.36 -4.6 -5.52 -4.27 -5.67 -3.95 -5.82 -3.63 -5.95 -3.31 -6.08 -3 -6.19 -2.69 -6.3 -2.37 -6.4 -2.06 -6.48 -1.74 -6.56 -1.43 -6.61 -1.11 -6.65 -0.8 -6.68 -0.48 -6.7 -0.16 -6.7 0.15 -6.69 0.48 -6.65 0.79 -6.6 1.11 -6.56 1.43 -6.48 1.74 -6.4 2.06 -6.31 2.37 -6.2 2.69 -6.08 3 -5.96 3.31 -5.82 3.63 -5.68 3.95 -5.53 4.28 -5.38 4.61 -5.22 4.96 -98.2 -98.2 10.32 -9.8 10.72 -9.2 11.09 -8.58 11.42 -7.95 11.72 -7.32 12 -6.68 12.25 -6.04 12.46 -5.4 12.66 -4.76 12.83 -4.13 12.97 -3.48 13.07 -2.85 13.17 -2.22 13.24 -1.57 13.28 -0.94 13.31 -0.31 13.3 0.32 13.28 0.96 13.23 1.59 13.16 2.22 13.07 2.86 12.96 3.49 12.81 4.13 12.64 4.77 12.45 5.4 12.23 6.04 11.98 6.68 11.7 7.31 11.4 7.94 11.07 8.57 10.7 9.19 10.3 9.79 0 0zm0 392.82l-98.2 -98.2 0 0 4.96 -5.22 4.61 -5.38 4.28 -5.53 3.95 -5.68 3.63 -5.82 3.31 -5.96 3 -6.08 2.69 -6.2 2.37 -6.31 2.06 -6.39 1.74 -6.48 1.43 -6.56 1.11 -6.61 0.79 -6.65 0.48 -6.68 0.15 -6.7 -0.16 -6.69 -0.48 -6.68 -0.8 -6.65 -1.11 -6.61 -1.43 -6.55 -1.75 -6.48 -2.06 -6.39 -2.37 -6.3 -2.69 -6.19 -3 -6.08 -3.31 -5.95 -3.63 -5.82 -3.95 -5.67 -4.27 -5.52 -4.6 -5.36 -4.94 -5.2 98.2 -98.2 9.79 10.3 9.19 10.7 8.57 11.07 7.94 11.4 7.31 11.7 6.68 11.98 6.04 12.23 5.41 12.45 4.76 12.65 4.13 12.81 3.49 12.96 2.86 13.07 2.22 13.16 1.59 13.23 0.96 13.28 0.32 13.3 -0.31 13.31 -0.94 13.28 -1.57 13.24 -2.21 13.17 -2.85 13.08 -3.48 12.96 -4.13 12.83 -4.76 12.65 -5.4 12.46 -6.04 12.25 -6.68 12 -7.31 11.73 -7.95 11.42 -8.58 11.09 -9.2 10.72 -9.81 10.32 0 0zm-392.82 0l98.2 -98.2 0 0 5.2 4.95 5.36 4.6 5.52 4.27 5.67 3.95 5.82 3.63 5.95 3.31 6.08 3 6.19 2.69 6.3 2.37 6.4 2.06 6.48 1.74 6.56 1.43 6.61 1.11 6.65 0.8 6.68 0.48 6.7 0.16 6.7 -0.15 6.69 -0.48 6.65 -0.79 6.6 -1.11 6.56 -1.43 6.48 -1.74 6.4 -2.06 6.31 -2.37 6.2 -2.69 6.08 -3 5.96 -3.31 5.82 -3.63 5.68 -3.95 5.53 -4.28 5.38 -4.61 5.22 -4.96 98.2 98.2 -10.32 9.8 -10.72 9.2 -11.09 8.58 -11.42 7.95 -11.72 7.32 -12 6.68 -12.25 6.04 -12.46 5.4 -12.66 4.76 -12.83 4.13 -12.97 3.48 -13.07 2.85 -13.17 2.22 -13.24 1.57 -13.28 0.94 -13.31 0.31 -13.3 -0.32 -13.28 -0.96 -13.23 -1.59 -13.16 -2.22 -13.07 -2.86 -12.96 -3.49 -12.81 -4.13 -12.64 -4.77 -12.45 -5.4 -12.23 -6.04 -11.98 -6.68 -11.7 -7.31 -11.4 -7.94 -11.07 -8.57 -10.7 -9.19 -10.3 -9.79 0 0zm0 -392.82l98.2 98.2 -4.96 5.22 -4.61 5.38 -4.28 5.53 -3.95 5.68 -3.63 5.82 -3.31 5.96 -3 6.08 -2.69 6.2 -2.37 6.31 -2.06 6.39 -1.74 6.48 -1.43 6.56 -1.11 6.61 -0.79 6.65 -0.48 6.68 -0.15 6.7 0.16 6.69 0.48 6.68 0.8 6.65 1.11 6.61 1.43 6.55 1.75 6.48 2.06 6.39 2.37 6.3 2.69 6.19 3 6.08 3.31 5.95 3.63 5.82 3.95 5.67 4.27 5.52 4.6 5.36 4.94 5.2 -98.2 98.2 -9.79 -10.3 -9.19 -10.7 -8.57 -11.07 -7.94 -11.4 -7.31 -11.7 -6.68 -11.98 -6.04 -12.23 -5.41 -12.45 -4.76 -12.65 -4.13 -12.81 -3.49 -12.96 -2.86 -13.07 -2.22 -13.16 -1.59 -13.23 -0.96 -13.28 -0.32 -13.3 0.31 -13.31 0.94 -13.28 1.57 -13.24 2.21 -13.17 2.85 -13.08 3.48 -12.96 4.13 -12.83 4.76 -12.65 5.4 -12.46 6.04 -12.25 6.68 -12 7.31 -11.73 7.95 -11.42 8.58 -11.09 9.2 -10.72 9.81 -10.32z"/>
   </g>
   <g>
    <path class="fil1" d="M12700.59 9421.25l-98.2 0.21 -278.36 -277.17 97.99 -98.41 278.36 277.17 -98.2 0.21 98.41 97.99zm0 0l-49 49.21 -49.2 -49 98.2 -0.21zm227.96 -327.35l49.2 49 -277.17 278.36 -98.41 -97.99 277.17 -278.36 49.21 49zm-228.56 49.59l-98.2 0.21 -278.36 -277.17 98 -98.41 278.35 277.17 -98.2 0.21 98.41 97.99zm0 0l-49 49.21 -49.2 -49 98.2 -0.21zm227.96 -327.35l49.21 49 -277.17 278.35 -98.41 -97.99 277.17 -278.36 49.2 49zm-209.89 -733.68l2.11 989.67 -138.88 0.3 -2.11 -989.67 118.54 -49.25 20.34 48.95zm-20.34 -48.95l20.28 20.28 0.06 28.68 -20.34 -48.95zm-703.09 -703.1l703.09 703.1 -98.2 98.2 -703.09 -703.1 -20.34 -49.1 118.55 -49.1zm-98.2 98.2l-20.34 -20.34 0 -28.76 20.34 49.1zm118.55 -1102.75l0 1053.65 -138.89 0 0 -1053.65 118.55 -49.1 20.34 49.1zm-20.34 -49.1l20.34 20.34 0 28.76 -20.34 -49.1zm-662.57 -662.57l662.57 662.57 -98.2 98.2 -662.57 -662.57 49.1 -118.55 49.1 20.34zm-49.1 -20.34l28.76 0 20.34 20.34 -49.1 -20.34zm-3237.75 0l3237.75 0 0 138.89 -3237.75 0 -49.1 -118.55 49.1 -20.34zm-49.1 20.34l20.34 -20.34 28.76 0 -49.1 20.34zm-671.68 671.69l671.68 -671.69 98.2 98.2 -671.68 671.69 -118.55 -49.1 20.34 -49.1zm-20.34 49.1l0 -28.76 20.34 -20.34 -20.34 49.1zm0 937.02l0 -937.02 138.89 0 0 937.02 -138.89 0zm347.22 191.94l-138.89 0 0 0 -0.18 -7.18 -0.54 -7.05 -0.88 -6.92 -1.22 -6.8 -1.54 -6.68 -1.87 -6.55 -2.17 -6.42 -2.48 -6.28 -2.78 -6.14 -3.06 -5.98 -3.35 -5.81 -3.62 -5.65 -3.89 -5.46 -4.14 -5.27 -4.38 -5.06 -4.62 -4.85 -4.85 -4.63 -5.06 -4.39 -5.27 -4.14 -5.45 -3.89 -5.65 -3.63 -5.81 -3.35 -5.98 -3.07 -6.14 -2.78 -6.28 -2.48 -6.43 -2.18 -6.56 -1.87 -6.69 -1.55 -6.81 -1.22 -6.94 -0.88 -7.06 -0.54 -7.2 -0.18 0 -138.89 14.23 0.36 14.09 1.07 13.91 1.77 13.7 2.46 13.46 3.11 13.21 3.76 12.94 4.39 12.63 5 12.31 5.58 11.99 6.15 11.63 6.7 11.26 7.24 10.88 7.75 10.48 8.24 10.06 8.72 9.63 9.19 9.18 9.63 8.72 10.07 8.23 10.48 7.74 10.88 7.22 11.26 6.69 11.63 6.14 11.98 5.57 12.31 4.98 12.63 4.38 12.92 3.75 13.2 3.11 13.44 2.45 13.68 1.77 13.89 1.07 14.06 0.36 14.2 0 0zm-277.78 277.78l0 -138.89 0 0 7.2 -0.18 7.06 -0.54 6.94 -0.88 6.81 -1.22 6.69 -1.55 6.56 -1.87 6.42 -2.18 6.28 -2.48 6.14 -2.78 5.98 -3.07 5.81 -3.35 5.65 -3.63 5.45 -3.89 5.27 -4.15 5.06 -4.39 4.85 -4.63 4.62 -4.85 4.38 -5.06 4.14 -5.27 3.89 -5.46 3.62 -5.65 3.35 -5.81 3.06 -5.98 2.78 -6.14 2.48 -6.28 2.17 -6.42 1.87 -6.55 1.54 -6.68 1.22 -6.8 0.88 -6.92 0.54 -7.05 0.18 -7.18 138.89 0 -0.36 14.2 -1.07 14.06 -1.77 13.89 -2.45 13.68 -3.11 13.44 -3.75 13.2 -4.38 12.92 -4.98 12.63 -5.57 12.31 -6.14 11.98 -6.69 11.63 -7.22 11.26 -7.74 10.88 -8.23 10.48 -8.72 10.07 -9.18 9.63 -9.63 9.19 -10.06 8.72 -10.48 8.24 -10.88 7.75 -11.26 7.24 -11.63 6.7 -11.99 6.15 -12.31 5.58 -12.63 5 -12.94 4.39 -13.21 3.76 -13.46 3.11 -13.7 2.46 -13.91 1.77 -14.09 1.07 -14.23 0.36 0 0zm-277.78 -277.78l138.89 0 0 0 0.18 7.18 0.54 7.05 0.88 6.92 1.22 6.8 1.54 6.68 1.87 6.55 2.17 6.42 2.48 6.28 2.78 6.14 3.06 5.98 3.35 5.81 3.62 5.65 3.89 5.46 4.14 5.27 4.38 5.06 4.62 4.85 4.85 4.63 5.06 4.39 5.27 4.14 5.45 3.89 5.65 3.63 5.81 3.35 5.98 3.07 6.14 2.78 6.28 2.48 6.43 2.18 6.56 1.87 6.69 1.55 6.81 1.22 6.94 0.88 7.06 0.54 7.2 0.18 0 138.89 -14.23 -0.36 -14.09 -1.07 -13.91 -1.77 -13.7 -2.46 -13.46 -3.11 -13.21 -3.76 -12.94 -4.39 -12.63 -5 -12.31 -5.58 -11.99 -6.15 -11.63 -6.7 -11.26 -7.24 -10.88 -7.75 -10.48 -8.24 -10.06 -8.72 -9.63 -9.19 -9.18 -9.63 -8.72 -10.07 -8.23 -10.48 -7.74 -10.88 -7.22 -11.26 -6.69 -11.63 -6.14 -11.98 -5.57 -12.31 -4.98 -12.63 -4.38 -12.92 -3.75 -13.2 -3.11 -13.44 -2.45 -13.68 -1.77 -13.89 -1.07 -14.06 -0.36 -14.2 0 0zm277.78 -277.78l0 138.89 -7.2 0.18 -7.06 0.54 -6.94 0.88 -6.81 1.22 -6.69 1.55 -6.56 1.87 -6.42 2.18 -6.28 2.48 -6.14 2.78 -5.98 3.07 -5.81 3.35 -5.65 3.63 -5.45 3.89 -5.27 4.15 -5.06 4.39 -4.85 4.63 -4.62 4.85 -4.38 5.06 -4.14 5.27 -3.89 5.46 -3.62 5.65 -3.35 5.81 -3.06 5.98 -2.78 6.14 -2.48 6.28 -2.17 6.42 -1.87 6.55 -1.54 6.68 -1.22 6.8 -0.88 6.92 -0.54 7.05 -0.18 7.18 -138.89 0 0.36 -14.2 1.07 -14.06 1.77 -13.89 2.45 -13.68 3.11 -13.44 3.75 -13.2 4.38 -12.92 4.98 -12.63 5.57 -12.31 6.14 -11.98 6.69 -11.63 7.22 -11.26 7.74 -10.88 8.23 -10.48 8.72 -10.07 9.18 -9.63 9.63 -9.19 10.06 -8.72 10.48 -8.24 10.88 -7.75 11.26 -7.24 11.63 -6.7 11.99 -6.15 12.31 -5.58 12.63 -5 12.94 -4.39 13.21 -3.76 13.46 -3.11 13.7 -2.46 13.91 -1.77 14.09 -1.07 14.23 -0.36z"/>
   </g>
   <g>
    <path class="fil1" d="M3609.09 8826.61l0 0 0.45 -14.2 1.16 -14.06 1.86 -13.87 2.54 -13.66 3.19 -13.43 3.83 -13.17 4.46 -12.89 5.06 -12.59 5.65 -12.28 6.22 -11.94 6.76 -11.59 7.29 -11.22 7.8 -10.83 8.3 -10.43 8.78 -10.02 9.24 -9.58 9.69 -9.13 10.11 -8.66 10.53 -8.18 10.93 -7.68 11.31 -7.16 11.68 -6.63 12.03 -6.08 12.35 -5.5 12.67 -4.92 12.96 -4.31 13.23 -3.68 13.49 -3.03 13.71 -2.37 13.92 -1.69 14.09 -0.98 14.23 -0.28 -0.87 138.89 -7.2 0.14 -7.07 0.5 -6.94 0.84 -6.82 1.18 -6.7 1.5 -6.57 1.83 -6.44 2.14 -6.3 2.44 -6.16 2.74 -6 3.03 -5.83 3.31 -5.67 3.59 -5.48 3.85 -5.29 4.11 -5.09 4.36 -4.88 4.59 -4.65 4.82 -4.41 5.03 -4.17 5.24 -3.92 5.44 -3.66 5.62 -3.38 5.8 -3.1 5.96 -2.81 6.12 -2.52 6.26 -2.22 6.41 -1.91 6.54 -1.59 6.67 -1.26 6.8 -0.93 6.92 -0.58 7.04 -0.22 7.18 0 0 -138.89 -0.87zm276.02 279.52l0 0 -14.23 -0.45 -14.08 -1.16 -13.9 -1.86 -13.68 -2.54 -13.44 -3.2 -13.19 -3.85 -12.91 -4.47 -12.6 -5.07 -12.28 -5.66 -11.95 -6.23 -11.59 -6.78 -11.22 -7.3 -10.83 -7.81 -10.43 -8.31 -10 -8.79 -9.57 -9.25 -9.12 -9.69 -8.65 -10.13 -8.17 -10.53 -7.67 -10.93 -7.15 -11.31 -6.62 -11.67 -6.06 -12.02 -5.49 -12.35 -4.91 -12.66 -4.3 -12.95 -3.67 -13.22 -3.02 -13.46 -2.36 -13.69 -1.68 -13.9 -0.98 -14.07 -0.27 -14.2 138.89 0.87 0.13 7.18 0.5 7.05 0.84 6.93 1.18 6.81 1.5 6.69 1.82 6.56 2.14 6.44 2.44 6.3 2.74 6.15 3.03 6 3.31 5.83 3.59 5.67 3.85 5.49 4.1 5.3 4.35 5.09 4.59 4.87 4.81 4.66 5.04 4.42 5.24 4.18 5.43 3.92 5.62 3.66 5.8 3.39 5.96 3.11 6.12 2.82 6.26 2.52 6.41 2.22 6.54 1.91 6.68 1.59 6.81 1.26 6.93 0.93 7.06 0.58 7.2 0.23 0 0 -0.87 138.89zm279.52 -276.02l0 0 -0.45 14.2 -1.16 14.06 -1.86 13.87 -2.54 13.66 -3.19 13.43 -3.83 13.17 -4.46 12.89 -5.06 12.59 -5.65 12.28 -6.22 11.94 -6.76 11.59 -7.29 11.22 -7.8 10.83 -8.3 10.43 -8.78 10.02 -9.24 9.58 -9.69 9.13 -10.11 8.66 -10.53 8.18 -10.93 7.68 -11.31 7.16 -11.68 6.63 -12.03 6.08 -12.35 5.5 -12.67 4.92 -12.96 4.31 -13.23 3.68 -13.49 3.03 -13.71 2.37 -13.92 1.69 -14.09 0.98 -14.23 0.28 0.87 -138.89 7.2 -0.14 7.07 -0.5 6.94 -0.84 6.82 -1.18 6.7 -1.5 6.57 -1.83 6.44 -2.14 6.3 -2.44 6.16 -2.74 6 -3.03 5.83 -3.31 5.67 -3.59 5.48 -3.85 5.29 -4.11 5.09 -4.36 4.88 -4.59 4.65 -4.82 4.41 -5.03 4.17 -5.24 3.92 -5.44 3.66 -5.62 3.38 -5.8 3.1 -5.96 2.81 -6.12 2.52 -6.26 2.22 -6.41 1.91 -6.54 1.59 -6.67 1.26 -6.8 0.93 -6.92 0.58 -7.04 0.22 -7.18 0 0 138.89 0.87zm-276.02 -279.52l14.23 0.45 14.08 1.16 13.9 1.86 13.68 2.54 13.44 3.2 13.19 3.85 12.91 4.47 12.6 5.07 12.28 5.66 11.95 6.23 11.59 6.78 11.22 7.3 10.83 7.81 10.43 8.31 10 8.79 9.57 9.25 9.12 9.69 8.65 10.13 8.17 10.53 7.67 10.93 7.15 11.31 6.62 11.67 6.06 12.02 5.49 12.35 4.91 12.66 4.3 12.95 3.67 13.22 3.02 13.46 2.36 13.69 1.68 13.9 0.98 14.07 0.27 14.2 -138.89 -0.87 -0.13 -7.18 -0.5 -7.05 -0.84 -6.93 -1.18 -6.81 -1.5 -6.69 -1.82 -6.56 -2.14 -6.44 -2.44 -6.3 -2.74 -6.15 -3.03 -6 -3.31 -5.83 -3.59 -5.67 -3.85 -5.49 -4.1 -5.3 -4.35 -5.09 -4.59 -4.87 -4.81 -4.66 -5.04 -4.42 -5.24 -4.18 -5.43 -3.92 -5.62 -3.66 -5.8 -3.39 -5.96 -3.11 -6.12 -2.82 -6.26 -2.52 -6.41 -2.22 -6.54 -1.91 -6.68 -1.59 -6.81 -1.26 -6.93 -0.93 -7.06 -0.58 -7.2 -0.23 0.87 -138.89zm78.18 -1389.07l-9.28 1475.35 -138.88 -0.87 9.28 -1475.35 20.34 -48.67 118.54 49.54zm-138.88 -0.87l0.18 -28.51 20.16 -20.16 -20.34 48.67zm987.59 -819.51l-869.05 869.05 -98.2 -98.2 869.05 -869.05 118.55 49.1 -20.34 49.1zm20.34 -49.1l0 28.76 -20.34 20.34 20.34 -49.1zm0 -1006.16l0 1006.16 -138.89 0 0 -1006.16 20.34 -49.1 118.55 49.1zm-138.89 0l0 -28.76 20.34 -20.34 -20.34 49.1zm987.59 -819.94l-869.05 869.05 -98.2 -98.2 869.05 -869.05 49.1 -20.34 49.1 118.55zm-98.2 -98.2l20.34 -20.34 28.76 0 -49.1 20.34zm1787.2 118.55l-1738.09 0 0 -138.89 1738.09 0 49.1 118.55 -49.1 20.34zm49.1 -20.34l-20.34 20.34 -28.76 0 49.1 -20.34zm2004.94 -2004.94l-2004.94 2004.94 -98.2 -98.2 2004.94 -2004.94 49.1 -20.34 49.1 118.55zm-98.2 -98.2l20.34 -20.34 28.76 0 -49.1 20.34zm682.79 118.55l-633.69 0 0 -138.89 633.69 0 0 0 0 138.89zm633.68 0l-633.68 0 0 -138.89 633.68 0 49.1 20.34 -49.1 118.55zm0 -138.89l28.76 0 20.34 20.34 -49.1 -20.34zm1944.26 2111.91l-1993.37 -1993.37 98.2 -98.2 1993.37 1993.37 0 0 -98.2 98.2zm888.06 888.06l-888.06 -888.06 98.2 -98.2 888.06 888.06 -49.1 118.55 -49.1 -20.34zm49.1 20.34l-28.76 0 -20.34 -20.34 49.1 20.34zm929.43 0l-929.43 0 0 -138.89 929.43 0 49.1 20.34 -49.1 118.55zm0 -138.89l28.76 0 20.34 20.34 -49.1 -20.34zm1607.35 1775l-1656.45 -1656.46 98.2 -98.2 1656.45 1656.46 20.34 49.1 -118.55 49.1zm98.2 -98.2l20.34 20.34 0 28.76 -20.34 -49.1zm-118.55 1245.51l0 -1196.41 138.89 0 0 1196.41 0 0 -138.89 0zm0 956.06l0 -956.06 138.89 0 0 956.06 -138.89 0zm20.34 349.11l98.21 -98.21 -98.21 0 277.78 -277.78 98.21 98.21 -277.78 277.78 -98.21 0zm0 0l98.21 0 -49.11 49.1 -49.11 -49.1zm-228.67 -326.89l49.11 -49.11 277.78 277.78 -98.21 98.21 -277.78 -277.78 49.11 -49.11zm228.67 49.11l98.21 -98.21 -98.21 0 277.78 -277.78 98.21 98.21 -277.78 277.78 -98.21 0zm0 0l98.21 0 -49.11 49.1 -49.11 -49.1zm-228.67 -326.89l49.11 -49.11 277.78 277.78 -98.21 98.21 -277.78 -277.78 49.11 -49.11z"/>
   </g>
   <g>
    <path class="fil1" d="M7373.54 3089.17l0 0 14.2 0.36 14.06 1.07 13.89 1.77 13.68 2.45 13.44 3.11 13.2 3.75 12.92 4.38 12.63 4.98 12.31 5.57 11.98 6.14 11.63 6.69 11.26 7.22 10.88 7.74 10.48 8.23 10.07 8.72 9.63 9.18 9.19 9.63 8.72 10.06 8.24 10.48 7.75 10.88 7.24 11.26 6.7 11.63 6.15 11.99 5.58 12.31 5 12.63 4.39 12.94 3.76 13.21 3.11 13.46 2.46 13.7 1.77 13.91 1.07 14.09 0.36 14.23 -138.89 0 -0.18 -7.2 -0.54 -7.06 -0.88 -6.94 -1.22 -6.81 -1.55 -6.69 -1.87 -6.56 -2.18 -6.42 -2.48 -6.28 -2.78 -6.14 -3.07 -5.98 -3.35 -5.81 -3.63 -5.65 -3.89 -5.45 -4.15 -5.27 -4.39 -5.06 -4.63 -4.85 -4.85 -4.62 -5.06 -4.38 -5.27 -4.14 -5.46 -3.89 -5.65 -3.62 -5.81 -3.35 -5.98 -3.06 -6.14 -2.78 -6.28 -2.48 -6.42 -2.17 -6.55 -1.87 -6.68 -1.54 -6.8 -1.22 -6.92 -0.88 -7.05 -0.54 -7.18 -0.18 0 0 0 -138.89zm-277.78 277.78l0 0 0.36 -14.23 1.07 -14.09 1.77 -13.91 2.46 -13.7 3.11 -13.46 3.76 -13.21 4.39 -12.94 5 -12.63 5.58 -12.31 6.15 -11.99 6.7 -11.63 7.24 -11.26 7.75 -10.88 8.24 -10.48 8.72 -10.06 9.19 -9.63 9.63 -9.18 10.07 -8.72 10.48 -8.23 10.88 -7.74 11.26 -7.22 11.63 -6.69 11.98 -6.14 12.31 -5.57 12.63 -4.98 12.92 -4.38 13.2 -3.75 13.44 -3.11 13.68 -2.45 13.89 -1.77 14.06 -1.07 14.2 -0.36 0 138.89 -7.18 0.18 -7.05 0.54 -6.92 0.88 -6.8 1.22 -6.68 1.54 -6.55 1.87 -6.42 2.17 -6.28 2.48 -6.14 2.78 -5.98 3.06 -5.81 3.35 -5.65 3.62 -5.46 3.89 -5.27 4.14 -5.06 4.38 -4.85 4.62 -4.63 4.85 -4.39 5.06 -4.14 5.27 -3.89 5.45 -3.63 5.65 -3.35 5.81 -3.07 5.98 -2.78 6.14 -2.48 6.28 -2.18 6.43 -1.87 6.56 -1.55 6.69 -1.22 6.81 -0.88 6.94 -0.54 7.06 -0.18 7.2 0 0 -138.89 0zm277.78 277.78l0 0 -14.2 -0.36 -14.06 -1.07 -13.89 -1.77 -13.68 -2.45 -13.44 -3.11 -13.2 -3.75 -12.92 -4.38 -12.63 -4.98 -12.31 -5.57 -11.98 -6.14 -11.63 -6.69 -11.26 -7.22 -10.88 -7.74 -10.48 -8.23 -10.07 -8.72 -9.63 -9.18 -9.19 -9.63 -8.72 -10.06 -8.24 -10.48 -7.75 -10.88 -7.24 -11.26 -6.7 -11.63 -6.15 -11.99 -5.58 -12.31 -5 -12.63 -4.39 -12.94 -3.76 -13.21 -3.11 -13.46 -2.46 -13.7 -1.77 -13.91 -1.07 -14.09 -0.36 -14.23 138.89 0 0.18 7.2 0.54 7.06 0.88 6.94 1.22 6.81 1.55 6.69 1.87 6.56 2.18 6.42 2.48 6.28 2.78 6.14 3.07 5.98 3.35 5.81 3.63 5.65 3.89 5.45 4.15 5.27 4.39 5.06 4.63 4.85 4.85 4.62 5.06 4.38 5.27 4.14 5.46 3.89 5.65 3.62 5.81 3.35 5.98 3.06 6.14 2.78 6.28 2.48 6.42 2.17 6.55 1.87 6.68 1.54 6.8 1.22 6.92 0.88 7.05 0.54 7.18 0.18 0 0 0 138.89zm277.78 -277.78l-0.36 14.23 -1.07 14.09 -1.77 13.91 -2.46 13.7 -3.11 13.46 -3.76 13.21 -4.39 12.94 -5 12.63 -5.58 12.31 -6.15 11.99 -6.7 11.63 -7.24 11.26 -7.75 10.88 -8.24 10.48 -8.72 10.06 -9.19 9.63 -9.63 9.18 -10.07 8.72 -10.48 8.23 -10.88 7.74 -11.26 7.22 -11.63 6.69 -11.98 6.14 -12.31 5.57 -12.63 4.98 -12.92 4.38 -13.2 3.75 -13.44 3.11 -13.68 2.45 -13.89 1.77 -14.06 1.07 -14.2 0.36 0 -138.89 7.18 -0.18 7.05 -0.54 6.92 -0.88 6.8 -1.22 6.68 -1.54 6.55 -1.87 6.42 -2.17 6.28 -2.48 6.14 -2.78 5.98 -3.06 5.81 -3.35 5.65 -3.62 5.46 -3.89 5.27 -4.14 5.06 -4.38 4.85 -4.62 4.63 -4.85 4.39 -5.06 4.14 -5.27 3.89 -5.45 3.63 -5.65 3.35 -5.81 3.07 -5.98 2.78 -6.14 2.48 -6.28 2.18 -6.43 1.87 -6.56 1.55 -6.69 1.22 -6.81 0.88 -6.94 0.54 -7.06 0.18 -7.2 138.89 0zm2319.76 69.44l-2405.6 0 0 -138.89 2405.6 0 49.1 20.34 -49.1 118.55zm0 -138.89l28.76 0 20.34 20.34 -49.1 -20.34zm2879.43 3047.08l-2928.54 -2928.54 98.2 -98.2 2928.54 2928.54 -49.1 118.55 -49.1 -20.34zm49.1 20.34l-28.76 0 -20.34 -20.34 49.1 20.34zm616.76 0l-616.76 0 0 -138.89 616.76 0 49.1 20.34 -49.1 118.55zm0 -138.89l28.76 0 20.34 20.34 -49.1 -20.34zm816.5 984.14l-865.6 -865.59 98.2 -98.2 865.6 865.59 20.34 49.15 -118.54 49.06zm98.2 -98.2l20.36 20.36 -0.02 28.79 -20.34 -49.15zm-119.16 992.35l0.61 -943.29 138.88 0.09 -0.61 943.29 -138.88 -0.09zm20.11 349.1l98.27 -98.14 -98.2 -0.06 277.94 -277.58 98.14 98.27 -277.94 277.58 -98.2 -0.06zm0 0l98.2 0.06 -49.13 49.07 -49.07 -49.13zm-228.45 -327.02l49.13 -49.07 277.58 277.94 -98.27 98.14 -277.58 -277.94 49.13 -49.07zm228.63 49.25l98.27 -98.14 -98.2 -0.06 277.94 -277.58 98.14 98.27 -277.94 277.58 -98.2 -0.06zm0 0l98.2 0.06 -49.13 49.07 -49.07 -49.13zm-228.45 -327.02l49.13 -49.07 277.58 277.94 -98.27 98.14 -277.58 -277.94 49.13 -49.07z"/>
   </g>
   <g>
    <path class="fil1" d="M7095.76 8828.35l0 0 0.36 -14.2 1.07 -14.06 1.77 -13.89 2.45 -13.68 3.11 -13.44 3.75 -13.2 4.38 -12.92 4.98 -12.63 5.57 -12.31 6.14 -11.98 6.69 -11.63 7.22 -11.26 7.74 -10.88 8.23 -10.48 8.72 -10.07 9.18 -9.63 9.63 -9.19 10.06 -8.72 10.48 -8.24 10.88 -7.75 11.26 -7.24 11.63 -6.7 11.99 -6.15 12.31 -5.58 12.63 -5 12.94 -4.39 13.21 -3.76 13.46 -3.11 13.7 -2.46 13.91 -1.77 14.09 -1.07 14.23 -0.36 0 138.89 -7.2 0.18 -7.06 0.54 -6.94 0.88 -6.81 1.22 -6.69 1.55 -6.56 1.87 -6.42 2.18 -6.28 2.48 -6.14 2.78 -5.98 3.07 -5.81 3.35 -5.65 3.63 -5.45 3.89 -5.27 4.15 -5.06 4.39 -4.85 4.63 -4.62 4.85 -4.38 5.06 -4.14 5.27 -3.89 5.46 -3.62 5.65 -3.35 5.81 -3.06 5.98 -2.78 6.14 -2.48 6.28 -2.17 6.42 -1.87 6.55 -1.54 6.68 -1.22 6.8 -0.88 6.92 -0.54 7.05 -0.18 7.18 0 0 -138.89 0zm277.78 277.78l0 0 -14.23 -0.36 -14.09 -1.07 -13.91 -1.77 -13.7 -2.46 -13.46 -3.11 -13.21 -3.76 -12.94 -4.39 -12.63 -5 -12.31 -5.58 -11.99 -6.15 -11.63 -6.7 -11.26 -7.24 -10.88 -7.75 -10.48 -8.24 -10.06 -8.72 -9.63 -9.19 -9.18 -9.63 -8.72 -10.07 -8.23 -10.48 -7.74 -10.88 -7.22 -11.26 -6.69 -11.63 -6.14 -11.98 -5.57 -12.31 -4.98 -12.63 -4.38 -12.92 -3.75 -13.2 -3.11 -13.44 -2.45 -13.68 -1.77 -13.89 -1.07 -14.06 -0.36 -14.2 138.89 0 0.18 7.18 0.54 7.05 0.88 6.92 1.22 6.8 1.54 6.68 1.87 6.55 2.17 6.42 2.48 6.28 2.78 6.14 3.06 5.98 3.35 5.81 3.62 5.65 3.89 5.46 4.14 5.27 4.38 5.06 4.62 4.85 4.85 4.63 5.06 4.39 5.27 4.14 5.45 3.89 5.65 3.63 5.81 3.35 5.98 3.07 6.14 2.78 6.28 2.48 6.43 2.18 6.56 1.87 6.69 1.55 6.81 1.22 6.94 0.88 7.06 0.54 7.2 0.18 0 0 0 138.89zm277.78 -277.78l0 0 -0.36 14.2 -1.07 14.06 -1.77 13.89 -2.45 13.68 -3.11 13.44 -3.75 13.2 -4.38 12.92 -4.98 12.63 -5.57 12.31 -6.14 11.98 -6.69 11.63 -7.22 11.26 -7.74 10.88 -8.23 10.48 -8.72 10.07 -9.18 9.63 -9.63 9.19 -10.06 8.72 -10.48 8.24 -10.88 7.75 -11.26 7.24 -11.63 6.7 -11.99 6.15 -12.31 5.58 -12.63 5 -12.94 4.39 -13.21 3.76 -13.46 3.11 -13.7 2.46 -13.91 1.77 -14.09 1.07 -14.23 0.36 0 -138.89 7.2 -0.18 7.06 -0.54 6.94 -0.88 6.81 -1.22 6.69 -1.55 6.56 -1.87 6.42 -2.18 6.28 -2.48 6.14 -2.78 5.98 -3.07 5.81 -3.35 5.65 -3.63 5.45 -3.89 5.27 -4.15 5.06 -4.39 4.85 -4.63 4.62 -4.85 4.38 -5.06 4.14 -5.27 3.89 -5.46 3.62 -5.65 3.35 -5.81 3.06 -5.98 2.78 -6.14 2.48 -6.28 2.17 -6.42 1.87 -6.55 1.54 -6.68 1.22 -6.8 0.88 -6.92 0.54 -7.05 0.18 -7.18 0 0 138.89 0zm-277.78 -277.78l14.23 0.36 14.09 1.07 13.91 1.77 13.7 2.46 13.46 3.11 13.21 3.76 12.94 4.39 12.63 5 12.31 5.58 11.99 6.15 11.63 6.7 11.26 7.24 10.88 7.75 10.48 8.24 10.06 8.72 9.63 9.19 9.18 9.63 8.72 10.07 8.23 10.48 7.74 10.88 7.22 11.26 6.69 11.63 6.14 11.98 5.57 12.31 4.98 12.63 4.38 12.92 3.75 13.2 3.11 13.44 2.45 13.68 1.77 13.89 1.07 14.06 0.36 14.2 -138.89 0 -0.18 -7.18 -0.54 -7.05 -0.88 -6.92 -1.22 -6.8 -1.54 -6.68 -1.87 -6.55 -2.17 -6.42 -2.48 -6.28 -2.78 -6.14 -3.06 -5.98 -3.35 -5.81 -3.62 -5.65 -3.89 -5.46 -4.14 -5.27 -4.38 -5.06 -4.62 -4.85 -4.85 -4.63 -5.06 -4.39 -5.27 -4.14 -5.45 -3.89 -5.65 -3.63 -5.81 -3.35 -5.98 -3.07 -6.14 -2.78 -6.28 -2.48 -6.43 -2.18 -6.56 -1.87 -6.69 -1.55 -6.81 -1.22 -6.94 -0.88 -7.06 -0.54 -7.2 -0.18 0 -138.89zm69.44 -390.7l0 476.53 -138.89 0 0 -476.53 20.34 -49.1 118.55 49.1zm-138.89 0l0 -28.76 20.34 -20.34 -20.34 49.1zm1083.48 -915.83l-964.94 964.94 -98.2 -98.2 964.94 -964.94 118.55 49.1 -20.34 49.1zm20.34 -49.1l0 28.76 -20.34 20.34 20.34 -49.1zm0 -795.88l0 795.88 -138.89 0 0 -795.88 20.34 -49.1 118.55 49.1zm-138.89 0l0 -28.76 20.34 -20.34 -20.34 49.1zm1777.7 -1610.05l-1659.15 1659.15 -98.2 -98.2 1659.15 -1659.15 49.1 -20.34 49.1 118.55zm-98.2 -98.2l20.34 -20.34 28.76 0 -49.1 20.34zm2312.13 118.55l-2263.03 0 0 -138.89 2263.03 0 0 0 0 138.89zm1255.72 0l-1255.72 0 0 -138.89 1255.72 0 49.1 118.55 -49.1 20.34zm49.1 -20.34l-20.34 20.34 -28.76 0 49.1 -20.34zm593.56 -593.56l-593.56 593.56 -98.2 -98.2 593.56 -593.56 98.2 98.2zm-109.8 -381.23l98.2 98.2 0 0 -4.95 5.2 -4.6 5.36 -4.27 5.52 -3.95 5.67 -3.63 5.82 -3.31 5.95 -3 6.08 -2.69 6.19 -2.37 6.3 -2.06 6.4 -1.74 6.48 -1.43 6.56 -1.11 6.61 -0.8 6.65 -0.48 6.68 -0.16 6.7 0.15 6.7 0.48 6.68 0.79 6.65 1.11 6.61 1.43 6.56 1.74 6.48 2.06 6.4 2.37 6.31 2.69 6.2 3 6.08 3.31 5.96 3.63 5.82 3.95 5.69 4.28 5.53 4.61 5.38 4.96 5.22 -98.2 98.2 -9.81 -10.32 -9.2 -10.72 -8.58 -11.09 -7.95 -11.42 -7.32 -11.73 -6.68 -12 -6.04 -12.25 -5.4 -12.47 -4.76 -12.65 -4.13 -12.83 -3.48 -12.97 -2.85 -13.08 -2.22 -13.17 -1.57 -13.24 -0.94 -13.28 -0.31 -13.3 0.32 -13.31 0.96 -13.28 1.59 -13.23 2.22 -13.16 2.86 -13.07 3.49 -12.96 4.13 -12.81 4.77 -12.64 5.4 -12.45 6.04 -12.23 6.68 -11.98 7.31 -11.7 7.94 -11.4 8.57 -11.07 9.19 -10.7 9.79 -10.3 0 0zm392.82 0l-98.2 98.2 0 0 -5.22 -4.96 -5.38 -4.61 -5.53 -4.28 -5.69 -3.95 -5.82 -3.63 -5.96 -3.31 -6.08 -3 -6.2 -2.69 -6.31 -2.37 -6.4 -2.06 -6.48 -1.74 -6.56 -1.43 -6.61 -1.11 -6.65 -0.79 -6.68 -0.48 -6.7 -0.15 -6.7 0.16 -6.68 0.48 -6.65 0.8 -6.61 1.11 -6.56 1.43 -6.48 1.74 -6.4 2.06 -6.3 2.37 -6.19 2.69 -6.08 3 -5.95 3.31 -5.82 3.63 -5.67 3.95 -5.52 4.27 -5.36 4.6 -5.2 4.95 -98.2 -98.2 10.3 -9.79 10.7 -9.19 11.07 -8.57 11.4 -7.94 11.7 -7.31 11.98 -6.68 12.23 -6.04 12.45 -5.4 12.64 -4.77 12.81 -4.13 12.96 -3.49 13.07 -2.86 13.16 -2.22 13.23 -1.59 13.28 -0.96 13.31 -0.32 13.3 0.31 13.28 0.94 13.24 1.57 13.17 2.22 13.08 2.85 12.97 3.48 12.83 4.13 12.65 4.76 12.47 5.4 12.25 6.04 12 6.68 11.72 7.32 11.42 7.95 11.09 8.58 10.72 9.2 10.32 9.81 0 0zm0 392.82l-98.2 -98.2 0 0 4.95 -5.2 4.6 -5.36 4.27 -5.52 3.95 -5.67 3.63 -5.82 3.31 -5.95 3 -6.08 2.69 -6.19 2.37 -6.3 2.06 -6.4 1.74 -6.48 1.43 -6.56 1.11 -6.61 0.8 -6.65 0.48 -6.68 0.16 -6.7 -0.15 -6.7 -0.48 -6.68 -0.79 -6.65 -1.11 -6.61 -1.43 -6.56 -1.74 -6.48 -2.06 -6.4 -2.37 -6.31 -2.69 -6.2 -3 -6.08 -3.31 -5.96 -3.63 -5.82 -3.95 -5.69 -4.28 -5.53 -4.61 -5.38 -4.96 -5.22 98.2 -98.2 9.81 10.32 9.2 10.72 8.58 11.09 7.95 11.42 7.32 11.73 6.68 12 6.04 12.25 5.4 12.47 4.76 12.65 4.13 12.83 3.48 12.97 2.85 13.08 2.22 13.17 1.57 13.24 0.94 13.28 0.31 13.3 -0.32 13.31 -0.96 13.28 -1.59 13.23 -2.22 13.16 -2.86 13.07 -3.49 12.96 -4.13 12.81 -4.77 12.64 -5.4 12.45 -6.04 12.23 -6.68 11.98 -7.31 11.7 -7.94 11.4 -8.57 11.07 -9.19 10.7 -9.79 10.3 0 0zm-392.82 0l98.2 -98.2 5.22 4.96 5.38 4.61 5.53 4.28 5.69 3.95 5.82 3.63 5.96 3.31 6.08 3 6.2 2.69 6.31 2.37 6.4 2.06 6.48 1.74 6.56 1.43 6.61 1.11 6.65 0.79 6.68 0.48 6.7 0.15 6.7 -0.16 6.68 -0.48 6.65 -0.8 6.61 -1.11 6.56 -1.43 6.48 -1.74 6.4 -2.06 6.3 -2.37 6.19 -2.69 6.08 -3 5.95 -3.31 5.82 -3.63 5.67 -3.95 5.52 -4.27 5.36 -4.6 5.2 -4.95 98.2 98.2 -10.3 9.79 -10.7 9.19 -11.07 8.57 -11.4 7.94 -11.7 7.31 -11.98 6.68 -12.23 6.04 -12.45 5.4 -12.64 4.77 -12.81 4.13 -12.96 3.49 -13.07 2.86 -13.16 2.22 -13.23 1.59 -13.28 0.96 -13.31 0.32 -13.3 -0.31 -13.28 -0.94 -13.24 -1.57 -13.17 -2.22 -13.08 -2.85 -12.97 -3.48 -12.83 -4.13 -12.65 -4.76 -12.47 -5.4 -12.25 -6.04 -12 -6.68 -11.72 -7.32 -11.42 -7.95 -11.09 -8.58 -10.72 -9.2 -10.32 -9.81z"/>
   </g>
   <g>
    <path class="fil1" d="M13565.48 8728.8l-98.21 0 -277.78 -277.78 98.21 -98.21 277.78 277.78 -98.21 0 98.21 98.21zm0 0l-49.11 49.1 -49.11 -49.1 98.21 0zm228.67 -326.89l49.11 49.11 -277.78 277.78 -98.21 -98.21 277.78 -277.78 49.11 49.11zm-228.67 49.11l-98.21 0 -277.78 -277.78 98.21 -98.21 277.78 277.78 -98.21 0 98.21 98.21zm0 0l-49.11 49.1 -49.11 -49.1 98.21 0zm228.67 -326.89l49.11 49.11 -277.78 277.78 -98.21 -98.21 277.78 -277.78 49.11 49.11zm-208.33 -963.06l0 1218.62 -138.89 0 0 -1218.62 20.34 -49.1 118.55 49.1zm-138.89 0l0 -28.76 20.34 -20.34 -20.34 49.1zm848.43 -680.77l-729.88 729.87 -98.2 -98.2 729.88 -729.87 98.2 98.2zm-109.8 -381.23l98.2 98.2 0 0 -4.94 5.2 -4.6 5.36 -4.27 5.52 -3.95 5.67 -3.63 5.82 -3.31 5.95 -3 6.08 -2.69 6.19 -2.37 6.3 -2.06 6.4 -1.75 6.48 -1.43 6.55 -1.11 6.61 -0.8 6.65 -0.48 6.68 -0.16 6.7 0.15 6.7 0.48 6.68 0.79 6.65 1.11 6.61 1.43 6.56 1.74 6.48 2.06 6.4 2.37 6.31 2.69 6.2 3 6.08 3.31 5.96 3.63 5.82 3.95 5.69 4.28 5.53 4.61 5.38 4.96 5.22 -98.2 98.2 -9.81 -10.32 -9.2 -10.72 -8.58 -11.09 -7.95 -11.42 -7.32 -11.73 -6.68 -12 -6.04 -12.25 -5.4 -12.47 -4.76 -12.65 -4.13 -12.83 -3.48 -12.96 -2.85 -13.08 -2.21 -13.17 -1.57 -13.24 -0.94 -13.28 -0.31 -13.3 0.32 -13.31 0.96 -13.28 1.59 -13.23 2.22 -13.16 2.86 -13.07 3.49 -12.96 4.13 -12.81 4.77 -12.65 5.4 -12.45 6.04 -12.23 6.68 -11.98 7.31 -11.7 7.94 -11.4 8.57 -11.07 9.19 -10.7 9.79 -10.3 0 0zm392.82 0l-98.2 98.2 0 0 -5.22 -4.96 -5.38 -4.61 -5.53 -4.28 -5.69 -3.95 -5.82 -3.63 -5.96 -3.31 -6.08 -3 -6.2 -2.69 -6.31 -2.37 -6.4 -2.06 -6.48 -1.74 -6.56 -1.43 -6.61 -1.11 -6.65 -0.79 -6.69 -0.48 -6.7 -0.15 -6.7 0.16 -6.68 0.48 -6.65 0.8 -6.61 1.11 -6.56 1.43 -6.48 1.74 -6.4 2.06 -6.3 2.37 -6.19 2.69 -6.08 3 -5.95 3.31 -5.82 3.63 -5.67 3.95 -5.52 4.27 -5.36 4.6 -5.2 4.95 -98.2 -98.2 10.3 -9.79 10.7 -9.19 11.07 -8.57 11.4 -7.94 11.7 -7.31 11.98 -6.68 12.23 -6.04 12.45 -5.4 12.64 -4.77 12.81 -4.13 12.96 -3.49 13.07 -2.86 13.16 -2.22 13.23 -1.59 13.28 -0.96 13.3 -0.32 13.3 0.31 13.28 0.94 13.24 1.57 13.17 2.22 13.07 2.85 12.97 3.48 12.83 4.13 12.65 4.76 12.47 5.4 12.25 6.04 12 6.68 11.72 7.32 11.42 7.95 11.09 8.58 10.72 9.2 10.32 9.81 0 0zm0 392.82l-98.2 -98.2 0 0 4.94 -5.2 4.6 -5.36 4.27 -5.52 3.95 -5.67 3.63 -5.82 3.31 -5.95 3 -6.08 2.69 -6.19 2.37 -6.3 2.06 -6.4 1.75 -6.48 1.43 -6.55 1.11 -6.61 0.8 -6.65 0.48 -6.68 0.16 -6.7 -0.15 -6.7 -0.48 -6.68 -0.79 -6.65 -1.11 -6.61 -1.43 -6.56 -1.74 -6.48 -2.06 -6.4 -2.37 -6.31 -2.69 -6.2 -3 -6.08 -3.31 -5.96 -3.63 -5.82 -3.95 -5.69 -4.28 -5.53 -4.61 -5.38 -4.96 -5.22 98.2 -98.2 9.81 10.32 9.2 10.72 8.58 11.09 7.95 11.42 7.32 11.73 6.68 12 6.04 12.25 5.4 12.47 4.76 12.65 4.13 12.83 3.48 12.96 2.85 13.08 2.21 13.17 1.57 13.24 0.94 13.28 0.31 13.3 -0.32 13.31 -0.96 13.28 -1.59 13.23 -2.22 13.16 -2.86 13.07 -3.49 12.96 -4.13 12.81 -4.77 12.65 -5.4 12.45 -6.04 12.23 -6.68 11.98 -7.31 11.7 -7.94 11.4 -8.57 11.07 -9.19 10.7 -9.79 10.3 0 0zm-392.82 0l98.2 -98.2 5.22 4.96 5.38 4.61 5.53 4.28 5.69 3.95 5.82 3.63 5.96 3.31 6.08 3 6.2 2.69 6.31 2.37 6.4 2.06 6.48 1.74 6.56 1.43 6.61 1.11 6.65 0.79 6.69 0.48 6.7 0.15 6.7 -0.16 6.68 -0.48 6.65 -0.8 6.61 -1.11 6.56 -1.43 6.48 -1.74 6.4 -2.06 6.3 -2.37 6.19 -2.69 6.08 -3 5.95 -3.31 5.82 -3.63 5.67 -3.95 5.52 -4.27 5.36 -4.6 5.2 -4.95 98.2 98.2 -10.3 9.79 -10.7 9.19 -11.07 8.57 -11.4 7.94 -11.7 7.31 -11.98 6.68 -12.23 6.04 -12.45 5.4 -12.64 4.77 -12.81 4.13 -12.96 3.49 -13.07 2.86 -13.16 2.22 -13.23 1.59 -13.28 0.96 -13.3 0.32 -13.3 -0.31 -13.28 -0.94 -13.24 -1.57 -13.17 -2.22 -13.07 -2.85 -12.97 -3.48 -12.83 -4.13 -12.65 -4.76 -12.47 -5.4 -12.25 -6.04 -12 -6.68 -11.72 -7.32 -11.42 -7.95 -11.09 -8.58 -10.72 -9.2 -10.32 -9.81z"/>
   </g>
   <g>
    <path class="fil1" d="M15265.56 8692.1l-98.2 -1.28 -274.14 -281.35 99.47 -96.93 274.14 281.35 -98.2 -1.28 96.93 99.47zm0 0l-49.74 48.46 -48.46 -49.74 98.2 1.28zm232.89 -323.88l48.46 49.74 -281.35 274.14 -96.93 -99.47 281.35 -274.14 48.46 49.74zm-229.29 46.13l-98.2 -1.28 -274.14 -281.35 99.47 -96.92 274.14 281.35 -98.2 -1.28 96.92 99.47zm0 0l-49.74 48.46 -48.46 -49.74 98.2 1.28zm232.89 -323.88l48.46 49.74 -281.35 274.14 -96.92 -99.47 281.35 -274.14 48.46 49.74zm-185.06 -1794.09l-26.57 2046.92 -138.87 -1.8 26.57 -2046.92 138.88 0.9 -0.01 0.9zm0.01 -0.9l0 0.3 -0.01 0.61 0.01 -0.9zm0 -376.52l0 376.52 -138.89 0 0 -376.52 0 0 138.89 0zm0 -647.95l0 647.95 -138.89 0 0 -647.95 118.55 -49.1 20.34 49.1zm-20.34 -49.1l20.34 20.34 0 28.76 -20.34 -49.1zm-390.97 -390.97l390.97 390.97 -98.2 98.2 -390.97 -390.97 98.2 -98.2zm-381.23 109.8l98.2 -98.2 0 0 5.2 4.95 5.36 4.6 5.52 4.27 5.67 3.95 5.82 3.63 5.95 3.31 6.08 3 6.19 2.69 6.3 2.37 6.4 2.06 6.48 1.75 6.55 1.43 6.61 1.11 6.65 0.8 6.68 0.48 6.7 0.16 6.7 -0.15 6.68 -0.48 6.65 -0.79 6.61 -1.11 6.56 -1.43 6.48 -1.74 6.4 -2.06 6.31 -2.37 6.2 -2.69 6.08 -3 5.96 -3.31 5.82 -3.63 5.69 -3.95 5.53 -4.28 5.38 -4.61 5.22 -4.96 98.2 98.2 -10.32 9.81 -10.72 9.2 -11.09 8.58 -11.42 7.95 -11.73 7.32 -12 6.68 -12.25 6.04 -12.47 5.4 -12.65 4.76 -12.83 4.13 -12.97 3.48 -13.08 2.85 -13.17 2.22 -13.24 1.57 -13.28 0.94 -13.3 0.31 -13.31 -0.32 -13.28 -0.96 -13.23 -1.59 -13.16 -2.22 -13.07 -2.86 -12.96 -3.49 -12.81 -4.13 -12.64 -4.77 -12.45 -5.4 -12.23 -6.04 -11.98 -6.68 -11.7 -7.31 -11.4 -7.94 -11.07 -8.57 -10.7 -9.19 -10.3 -9.79 0 0zm0 -392.82l98.2 98.2 0 0 -4.96 5.22 -4.61 5.38 -4.28 5.53 -3.95 5.69 -3.63 5.82 -3.31 5.96 -3 6.08 -2.69 6.2 -2.37 6.31 -2.06 6.4 -1.74 6.48 -1.43 6.56 -1.11 6.61 -0.79 6.65 -0.48 6.68 -0.15 6.7 0.16 6.7 0.48 6.68 0.8 6.65 1.11 6.61 1.43 6.56 1.74 6.48 2.06 6.4 2.37 6.3 2.69 6.19 3 6.08 3.31 5.95 3.63 5.82 3.95 5.67 4.27 5.52 4.6 5.36 4.95 5.2 -98.2 98.2 -9.79 -10.3 -9.19 -10.7 -8.57 -11.07 -7.94 -11.4 -7.31 -11.7 -6.68 -11.98 -6.04 -12.23 -5.4 -12.45 -4.77 -12.64 -4.13 -12.81 -3.49 -12.96 -2.86 -13.07 -2.22 -13.16 -1.59 -13.23 -0.96 -13.29 -0.32 -13.3 0.31 -13.3 0.94 -13.28 1.57 -13.24 2.22 -13.17 2.85 -13.08 3.48 -12.97 4.13 -12.83 4.76 -12.65 5.4 -12.47 6.04 -12.25 6.68 -12 7.32 -11.72 7.95 -11.42 8.58 -11.09 9.2 -10.72 9.81 -10.32 0 0zm392.82 0l-98.2 98.2 0 0 -5.2 -4.95 -5.36 -4.6 -5.52 -4.27 -5.67 -3.95 -5.82 -3.63 -5.95 -3.31 -6.08 -3 -6.19 -2.69 -6.3 -2.37 -6.4 -2.06 -6.48 -1.75 -6.55 -1.43 -6.61 -1.11 -6.65 -0.8 -6.68 -0.48 -6.7 -0.16 -6.7 0.15 -6.68 0.48 -6.65 0.79 -6.61 1.11 -6.56 1.43 -6.48 1.74 -6.4 2.06 -6.31 2.37 -6.2 2.69 -6.08 3 -5.96 3.31 -5.82 3.63 -5.69 3.95 -5.53 4.28 -5.38 4.61 -5.22 4.96 -98.2 -98.2 10.32 -9.81 10.72 -9.2 11.09 -8.58 11.42 -7.95 11.73 -7.32 12 -6.68 12.25 -6.04 12.47 -5.4 12.65 -4.76 12.83 -4.13 12.97 -3.48 13.08 -2.85 13.17 -2.22 13.24 -1.57 13.28 -0.94 13.3 -0.31 13.31 0.32 13.28 0.96 13.23 1.59 13.16 2.22 13.07 2.86 12.96 3.49 12.81 4.13 12.64 4.77 12.45 5.4 12.23 6.04 11.98 6.68 11.7 7.31 11.4 7.94 11.07 8.57 10.7 9.19 10.3 9.79 0 0zm0 392.82l-98.2 -98.2 4.96 -5.22 4.61 -5.38 4.28 -5.53 3.95 -5.69 3.63 -5.82 3.31 -5.96 3 -6.08 2.69 -6.2 2.37 -6.31 2.06 -6.4 1.74 -6.48 1.43 -6.56 1.11 -6.61 0.79 -6.65 0.48 -6.68 0.15 -6.7 -0.16 -6.7 -0.48 -6.68 -0.8 -6.65 -1.11 -6.61 -1.43 -6.56 -1.74 -6.48 -2.06 -6.4 -2.37 -6.3 -2.69 -6.19 -3 -6.08 -3.31 -5.95 -3.63 -5.82 -3.95 -5.67 -4.27 -5.52 -4.6 -5.36 -4.95 -5.2 98.2 -98.2 9.79 10.3 9.19 10.7 8.57 11.07 7.94 11.4 7.31 11.7 6.68 11.98 6.04 12.23 5.4 12.45 4.77 12.64 4.13 12.81 3.49 12.96 2.86 13.07 2.22 13.16 1.59 13.23 0.96 13.29 0.32 13.3 -0.31 13.3 -0.94 13.28 -1.57 13.24 -2.22 13.17 -2.85 13.08 -3.48 12.97 -4.13 12.83 -4.76 12.65 -5.4 12.47 -6.04 12.25 -6.68 12 -7.32 11.72 -7.95 11.42 -8.58 11.09 -9.2 10.72 -9.81 10.32z"/>
   </g>
   <line class="fil2 str1" x1="12886.4" y1="12033.73" x2="15987.47" y2= "12033.73" />
   <line class="fil2 str1" x1="12909.96" y1="11496.79" x2="12909.96" y2= "12570.67" />
   <rect class="fil0 str2" x="14158.42" y="9060.97" width="447.11" height="2626.17"/>
   <line class="fil2 str1" x1="15890.41" y1="11496.79" x2="15890.41" y2= "12570.67" />
   <line class="fil2 str1" x1="13516.38" y1="9118.07" x2="15247.56" y2= "9118.07" />
  </g>
 </g>
</svg>
