<?xml version="1.0" encoding="UTF-8" standalone="no"?>
<!DOCTYPE svg PUBLIC "-//W3C//DTD SVG 1.1//EN" "http://www.w3.org/Graphics/SVG/1.1/DTD/svg11.dtd">
<svg xmlns="http://www.w3.org/2000/svg" xmlns:xlink="http://www.w3.org/1999/xlink" version="1.1" width="864pt" height="612pt" viewBox="0 0 864 612">
<g enable-background="new">
<g id="Layer-1" data-name="Layer 1">
<clipPath id="cp0">
<path transform="matrix(1,0,0,-1,0,612)" d="M 0 612 L 864 612 L 864 0 L 0 0 Z "/>
</clipPath>
<g clip-path="url(#cp0)">
<path transform="matrix(1,0,0,-1,577.6953,281.624)" d="M 0 0 C 47.095 9.35 97.016 19.35 97.016 19.35 C 69.626 26.353 53.98 29.609 26.044 34.084 C -31.944 43.372 -65.646 45.35 -124.228 43.761 C -169.577 42.532 -199.821 40.323 -254.205 30.957 C -292.352 24.387 -312.995 20.551 -349.295 9.139 C -384.044 -1.787 -403.683 -8.764 -436.023 -25.53 C -447.023 -31.233 -466.198 -42.457 -466.198 -42.457 C -470.392 -45.508 -478.504 -42.203 -479.632 -36.482 C -480.467 -32.232 -479.289 -28.083 -475.301 -25.759 L -463.878 -19.174 C -444.341 -7.803 -432.688 -2.415 -411.934 6.548 C -386.341 17.604 -371.378 22.777 -344.626 30.622 C -314.403 39.487 -283.638 44.892 -245.271 50.813 C -217.051 55.167 -200.846 57.253 -172.264 59.592 C -141.094 62.147 -127.172 62.757 -92.139 62.824 C -76.139 79.244 -66.588 88.37 -47.525 101.098 C -24.299 116.605 -10.596 124.091 14.492 135.933 C 37.619 146.847 51.304 151.681 75.48 159.989 C 98.521 167.904 119.886 174.614 135.359 177.756 L 176.717 186.351 C 181.384 187.284 187.1 184.993 188.33 178.696 C 189.081 174.854 186.989 169.077 180.772 167.708 C 180.772 167.708 155.251 163.187 127.327 155.97 C 102.351 149.515 76.66 140.444 67.404 137.204 C 41.535 128.143 19.746 117.746 1.133 108.236 C -13.668 100.674 -20.065 95.311 -32.873 88.099 C -32.873 88.099 -41.015 82.977 -46.152 78.692 C -48.961 76.345 -50.792 75.329 -52.105 72.137 C -53.061 69.818 -52.501 66.674 -51.853 65.409 C -51.063 63.875 -48.817 61.506 -45.374 61.221 C -41 60.856 -40.486 60.884 -35.987 60.605 C -23.499 59.65 -16.477 58.852 -4.054 57.322 C 15.464 54.917 26.4 52.951 45.774 49.58 C 62.77 46.622 72.35 44.862 89.23 41.298 C 106.723 37.604 116.818 36.256 133.88 30.913 C 139.423 29.173 142.994 29.094 147.983 26.114 C 150.063 24.87 151.672 22.428 152.16 19.596 C 152.955 14.995 149.941 9.985 144.43 8.92 C 144.43 8.92 14.579 -17.303 4.981 -19.253 L 4.935 -22.16 C 4.274 -27.427 2.419 -34.33 -1.889 -40.732 C -8.242 -50.172 -14.643 -54.743 -25.634 -57.69 C -37.802 -60.832 -46.715 -58.303 -57.444 -52.561 C -62.103 -50.067 -65.749 -45.694 -68.823 -41.501 C -71.268 -38.172 -73.21 -34.028 -73.21 -34.028 L -86.024 -36.472 C -90.947 -37.449 -95.295 -33.484 -96.206 -29.062 C -97.262 -23.945 -95.469 -19.662 -89.238 -17.564 C -88.953 -17.527 -84.101 -16.477 -76.382 -14.957 C -76.382 -14.957 -75.72 -10.015 -73.989 -4.58 C -72.647 -.356 -69.863 4.069 -67.379 7.258 C -60.735 15.77 -53.155 19.309 -42.601 21.567 C -32.354 23.762 -21.502 20.354 -16.619 17.667 C -9.7 13.854 -1.115 4.776 0 0 M -5.983 -23.058 C -4.345 -13.463 -6.236 -6.434 -12.473 1.042 C -18.955 8.822 -26.007 12.014 -36.133 11.752 C -38.954 1.976 -37.216 -6.018 -30.586 -13.74 C -23.904 -21.526 -16.148 -24.464 -5.983 -23.058 M -53.884 -40.177 C -46.638 -46.454 -39.741 -48.446 -30.262 -46.994 C -20.008 -45.425 -13.418 -40.69 -8.662 -31.47 C -15.853 -24.438 -23.833 -23.017 -33.327 -23.947 C -44.384 -25.027 -49.757 -30.833 -53.884 -40.177 M -45.861 10.383 C -54.319 6.826 -58.941 2.178 -62.449 -6.297 C -66.463 -15.98 -66.01 -23.964 -60.933 -33.136 C -51.28 -31.055 -45.258 -25.967 -41.592 -16.796 C -37.609 -6.833 -39.015 2.12 -45.861 10.383 " fill="#030404" fill-rule="evenodd"/>
<path transform="matrix(1,0,0,-1,153.6226,376.7754)" d="M 0 0 L -4.525 -.899 L -5.846 -14.748 L -1.422 -13.867 C 1.594 -13.268 4.308 -12.902 6.72 -12.77 C 9.132 -12.64 10.875 -12.467 11.948 -12.254 C 19.318 -10.787 24.396 -8.279 27.172 -4.731 C 29.548 -1.61 31.109 3.854 31.854 11.668 C 32.18 15.285 32.081 18.4 31.562 21.016 C 30.829 24.701 29.245 27.939 26.807 30.729 C 26.459 31.08 24.265 33.012 20.22 36.527 C 17.876 38.498 16.504 40.489 16.106 42.5 C 15.706 44.511 15.789 46.548 16.354 48.611 C 17.039 51.117 18.288 52.55 20.097 52.91 C 21.772 53.243 22.79 52.504 23.148 50.695 C 23.336 49.756 23.179 47.219 22.679 43.078 L 34.844 45.496 C 35.547 52.813 35.667 57.644 35.202 59.99 C 33.987 66.088 29.394 68.344 21.417 66.758 C 15.319 65.545 10.881 62.99 8.102 59.094 C 5.7 55.759 4.18 50.788 3.543 44.182 C 3.177 40.417 3.254 37.228 3.774 34.614 C 4.508 30.927 6.112 27.762 8.589 25.121 C 10.704 23.242 12.86 21.336 15.056 19.404 C 17.426 17.297 18.838 15.104 19.292 12.828 C 19.745 10.546 19.695 8.342 19.144 6.213 C 18.497 3.506 17.168 1.952 15.158 1.553 C 12.275 .98 9.464 .666 6.724 .607 C 3.982 .55 1.742 .348 0 0 " fill="#030404" fill-rule="evenodd"/>
<path transform="matrix(1,0,0,-1,202.8154,363.8545)" d="M 0 0 L -12.496 -2.484 L -6.797 56.547 L 8.581 59.606 C 12.535 60.394 15.51 60.496 17.507 59.919 C 20.373 59.166 22.154 57.046 22.846 53.56 C 23.262 51.483 23.278 48.596 22.899 44.897 L 19.098 4.636 C 18.476 -1.689 16.909 -6.425 14.399 -9.57 C 11.662 -12.974 7.277 -15.274 1.243 -16.474 L -14.138 -19.533 L -12.8 -5.685 C -2.483 -3.633 3.037 -2.499 3.76 -2.287 C 4.483 -2.073 5.167 -1.311 5.812 0 C 6.296 1.072 6.645 2.64 6.862 4.7 C 9.286 29.626 10.391 42.626 10.178 43.696 C 9.911 45.036 9.092 45.708 7.72 45.716 C 7.509 45.742 6.282 45.532 4.039 45.087 Z " fill="#030404" fill-rule="evenodd"/>
<path transform="matrix(1,0,0,-1,260.8354,338.9365)" d="M 0 0 L -1.265 -14.254 C -1.874 -20.646 -3.406 -25.376 -5.863 -28.443 C -8.532 -31.831 -12.917 -34.13 -19.017 -35.344 C -22.971 -36.131 -25.947 -36.236 -27.942 -35.654 C -30.743 -34.892 -32.496 -32.729 -33.202 -29.179 C -33.603 -27.167 -33.646 -24.319 -33.334 -20.634 L -29.188 22.624 C -28.577 29.015 -27.045 33.743 -24.59 36.811 C -21.919 40.198 -17.533 42.497 -11.435 43.711 C -7.615 44.471 -4.672 44.567 -2.61 44.003 C .324 43.262 2.138 41.149 2.831 37.665 C 3.245 35.588 3.262 32.7 2.88 29.003 L 1.894 18.249 L -10.534 15.776 L -9.516 26.415 C -9.469 27.07 -9.5 27.672 -9.609 28.227 C -9.911 29.742 -10.968 30.321 -12.776 29.961 C -15.126 29.494 -16.436 27.841 -16.707 25.001 L -20.936 -18.049 C -20.996 -18.993 -20.977 -19.706 -20.881 -20.188 C -20.62 -21.499 -19.55 -21.969 -17.674 -21.596 C -15.325 -21.127 -14.015 -19.474 -13.743 -16.635 L -12.385 -2.464 Z " fill="#030404" fill-rule="evenodd"/>
<path transform="matrix(1,0,0,-1,299.0923,315.6494)" d="M 0 0 L 15.869 3.157 C 17.956 3.569 19.395 5.495 20.186 8.926 C 20.742 11.755 20.769 14.444 20.261 16.99 C 20.142 17.591 19.982 18.048 19.782 18.358 C 19.355 18.759 17.76 18.756 14.998 18.347 C 13.037 18.095 10.427 17.611 7.171 16.894 C 2.926 15.894 1.106 15.454 1.709 15.574 L 3.049 29.451 L 21.244 33.069 C 28.147 34.444 32.152 32.348 33.259 26.785 C 33.617 24.977 33.668 22.792 33.411 20.232 C 32.842 13.988 32.204 9.854 31.489 7.83 C 30.171 3.598 27.634 .41 23.881 -1.729 L 23.819 -1.951 C 27.518 -1.982 29.735 -3.841 30.468 -7.526 C 30.881 -9.604 30.891 -12.46 30.499 -16.089 C 30.161 -18.944 29.79 -21.806 29.384 -24.673 C 28.181 -35.085 23.156 -41.169 14.307 -42.93 L -4.289 -46.63 Z M 9.529 -30.401 L 12.643 -29.78 C 14.316 -29.446 15.483 -28.668 16.144 -27.444 C 16.807 -26.222 17.33 -23.774 17.712 -20.104 C 18.097 -16.435 18.14 -13.854 17.844 -12.365 C 17.535 -10.804 16.395 -10.22 14.423 -10.612 L 11.375 -11.257 Z " fill="#030404" fill-rule="evenodd"/>
<path transform="matrix(1,0,0,-1,347.9424,353.1709)" d="M 0 0 C -3.952 -.788 -6.929 -.891 -8.926 -.313 C -11.725 .455 -13.478 2.614 -14.185 6.167 C -14.584 8.176 -14.629 11.025 -14.318 14.71 L -8.625 74.368 L 3.76 76.831 L -1.706 19.522 C -1.878 17.646 -1.868 16.229 -1.678 15.273 C -1.408 13.909 -.397 13.403 1.353 13.75 C 2.969 14.071 4.084 14.966 4.702 16.433 C 5.025 17.274 5.284 18.774 5.482 20.938 L 10.952 78.261 L 23.445 80.747 L 17.752 21.091 C 17.144 14.696 15.61 9.968 13.154 6.901 C 10.484 3.513 6.1 1.213 0 0 " fill="#030404" fill-rule="evenodd"/>
<path transform="matrix(1,0,0,-1,402.3589,335.7637)" d="M 0 0 C -1.185 -3.51 -5.026 -5.912 -11.527 -7.204 L -16.653 -8.225 C -19.939 -8.878 -22.854 -8.762 -25.396 -7.872 C -28.531 -6.824 -30.406 -4.759 -31.019 -1.676 C -31.232 -.603 -31.266 .61 -31.115 1.963 L -26.604 48.114 C -26.021 54.291 -24.51 58.946 -22.068 62.08 C -19.357 65.614 -15.086 67.961 -9.254 69.123 C -7.779 69.415 -6.493 69.601 -5.394 69.68 L -7.421 54.647 C -7.93 55.451 -8.854 55.72 -10.193 55.453 C -12.539 54.986 -13.853 53.365 -14.139 50.585 C -15.014 42.73 -15.856 34.882 -16.665 27.043 C -18.043 13.992 -18.589 6.762 -18.308 5.352 C -18.054 4.076 -16.989 3.623 -15.113 3.995 C -12.766 4.463 -11.453 6.082 -11.167 8.857 L -8.103 36.535 L 3.861 38.915 Z " fill="#030404" fill-rule="evenodd"/>
<path transform="matrix(1,0,0,-1,440.9092,328.0957)" d="M 0 0 C -1.184 -3.51 -5.026 -5.911 -11.528 -7.205 L -16.654 -8.224 C -19.938 -8.877 -22.851 -8.76 -25.399 -7.873 C -28.533 -6.824 -30.406 -4.758 -31.02 -1.676 C -31.234 -.604 -31.265 .609 -31.119 1.963 L -26.604 48.114 C -26.022 54.29 -24.509 58.946 -22.068 62.078 C -19.358 65.614 -15.089 67.962 -9.255 69.121 C -7.782 69.416 -6.494 69.602 -5.396 69.68 L -7.422 54.646 C -7.929 55.451 -8.854 55.719 -10.195 55.453 C -12.54 54.987 -13.854 53.364 -14.137 50.585 C -15.014 42.73 -15.857 34.882 -16.666 27.042 C -18.042 13.991 -18.59 6.762 -18.308 5.354 C -18.053 4.074 -16.989 3.624 -15.113 3.995 C -12.77 4.463 -11.453 6.084 -11.169 8.857 L -8.104 36.534 L 3.859 38.914 Z " fill="#030404" fill-rule="evenodd"/>
<path transform="matrix(1,0,0,-1,468.5859,279.9497)" d="M 0 0 L 8.987 28.647 L 22.104 31.255 L 4.342 -18.368 L 1.525 -47.458 L -10.971 -49.943 L -8.162 -20.96 L -17.005 23.478 L -3.735 26.116 Z " fill="#030404" fill-rule="evenodd"/>
<path transform="matrix(1,0,0,-1,657.4229,355.4648)" d="M 0 0 C 61.402 .916 121.524 -1.963 179.901 -8.245 C 97.942 13.068 10.221 24.01 -80.878 22.65 C -294.571 19.461 -487.743 -50.741 -629.99 -162.613 C -460.832 -64.536 -241.043 -3.598 0 0 " fill="#030404"/>
</g>
</g>
</g>
</svg>
