<?xml version="1.0" encoding="UTF-8" standalone="no"?>
<!-- Created with Inkscape (http://www.inkscape.org/) -->

<svg
   width="114.3mm"
   height="85.926605mm"
   viewBox="0 0 114.3 85.926605"
   version="1.1"
   id="svg6276"
   inkscape:version="1.1.1 (3bf5ae0d25, 2021-09-20)"
   sodipodi:docname="esp logo.svg"
   xmlns:inkscape="http://www.inkscape.org/namespaces/inkscape"
   xmlns:sodipodi="http://sodipodi.sourceforge.net/DTD/sodipodi-0.dtd"
   xmlns="http://www.w3.org/2000/svg"
   xmlns:svg="http://www.w3.org/2000/svg">
  <sodipodi:namedview
     id="namedview6278"
     pagecolor="#ffffff"
     bordercolor="#cccccc"
     borderopacity="1"
     inkscape:pageshadow="0"
     inkscape:pageopacity="1"
     inkscape:pagecheckerboard="0"
     inkscape:document-units="mm"
     showgrid="false"
     inkscape:zoom="0.64052329"
     inkscape:cx="8.5867292"
     inkscape:cy="186.56621"
     inkscape:window-width="1920"
     inkscape:window-height="1057"
     inkscape:window-x="840"
     inkscape:window-y="2152"
     inkscape:window-maximized="1"
     inkscape:current-layer="layer1" />
  <defs
     id="defs6273" />
  <g
     inkscape:label="Layer 1"
     inkscape:groupmode="layer"
     id="layer1"
     transform="translate(-98.25813,-99.14762)">
    <path
       class="e s_acfc31ea2bceb66110917ccfca74e3eb_l0 s-acfc31ea2bceb66110917ccfca74e3eb-l0"
       id="e0"
       d="m 175.94882,109.75845 0.0431,-5.51866 1.39421,2.3283 c 0.76683,1.28055 1.50493,2.52498 1.64026,2.76538 0.13527,0.24041 0.33829,0.53728 0.45107,0.65971 0.11275,0.1224 0.20502,0.32188 0.20502,0.44325 0,0.12146 0.0568,0.24526 0.12619,0.27531 0.0694,0.0299 0.45071,0.60828 0.84746,1.28488 0.39675,0.6766 0.76591,1.26708 0.82038,1.31218 0.0545,0.045 0.19057,0.26655 0.30246,0.49208 0.67905,1.36877 0.70885,1.39053 1.97788,1.44244 l 1.17844,0.0481 -0.0429,-6.28117 -0.0429,-6.28115 -0.69493,-0.0503 -0.69495,-0.0503 -0.0431,5.59504 -0.0431,5.59504 -0.90213,-1.56587 c -0.49619,-0.86123 -0.95751,-1.56643 -1.02517,-1.56711 -0.0677,-5e-4 -0.12297,-0.10671 -0.12297,-0.23556 0,-0.12884 -0.0982,-0.33247 -0.21806,-0.45239 -0.11994,-0.11995 -0.32293,-0.41696 -0.45106,-0.66003 -0.20119,-0.38161 -1.52311,-2.56918 -2.73788,-4.53069 -0.20487,-0.33086 -0.42093,-0.71226 -0.48011,-0.84759 -0.0592,-0.13527 -0.15154,-0.28293 -0.20534,-0.32804 -0.0537,-0.045 -0.22917,-0.28842 -0.38977,-0.5407 -0.27514,-0.43213 -0.35082,-0.45587 -1.30842,-0.41005 l -1.0164,0.0488 -0.0431,6.06826 c -0.0236,3.33755 -0.008,6.16084 0.0358,6.27396 0.0452,0.11768 0.36094,0.20569 0.73799,0.20569 h 0.65906 z m -51.13264,-0.7963 v -6.23293 l -0.6394,-0.0524 c -0.3988,-0.0327 -0.68922,0.0282 -0.77175,0.16175 -0.16573,0.26809 -0.19793,12.16893 -0.0333,12.33344 0.0662,0.0662 0.41837,0.0986 0.7825,0.0717 l 0.66205,-0.0488 z m 71.26886,6.06763 c 0.73481,-0.39569 1.02439,-0.68269 1.4056,-1.39293 0.27925,-0.52021 0.31338,-1.06368 0.36389,-5.79179 l 0.0558,-5.21775 -0.70759,0.0511 -0.70758,0.0511 -0.0821,5.16705 c -0.0797,5.01436 -0.0925,5.17744 -0.43487,5.51964 -0.46356,0.46322 -0.98207,0.59529 -2.92764,0.74573 -0.31865,0.0246 -2.46482,-0.21026 -2.78842,-0.3052 -0.18049,-0.053 -0.47566,-0.2513 -0.65609,-0.44083 -0.30997,-0.32556 -0.33258,-0.62956 -0.41007,-5.51548 l -0.0819,-5.17091 -0.69709,-0.0505 -0.69711,-0.0505 v 5.01441 c 0,2.75794 0.0619,5.14259 0.13735,5.29924 0.0755,0.15665 0.27849,0.57915 0.45107,0.93888 0.29629,0.61764 1.09388,1.20267 1.97824,1.45108 0.16706,0.0469 1.41098,0.0677 2.76419,0.0464 2.04757,-0.0327 2.55669,-0.0912 3.03447,-0.34833 z m -35.04194,-4.34536 -2.48302,-0.0821 0.43269,-1.3122 c 0.238,-0.7217 0.46963,-1.34911 0.51473,-1.39421 0.0452,-0.045 0.26449,-0.63559 0.48752,-1.3122 0.22304,-0.6766 0.49984,-1.37577 0.6151,-1.55372 0.11521,-0.17803 0.20958,-0.45474 0.20958,-0.6151 0,-0.37639 0.4733,-0.37995 0.59678,-0.004 0.052,0.15778 0.19725,0.51963 0.32291,0.8039 0.12562,0.28428 0.22848,0.63489 0.22848,0.77911 0,0.14416 0.0613,0.26227 0.13641,0.26227 0.0749,0 0.21636,0.31368 0.31411,0.69709 0.20853,0.81801 0.74092,2.30149 0.86827,2.41935 0.15911,0.14719 0.45755,1.3108 0.34708,1.35307 -0.0592,0.0227 -1.22498,0.004 -2.59063,-0.0409 z m -4.20102,4.38914 c 0.11276,-0.0904 0.2055,-0.28479 0.20605,-0.43162 4.9e-4,-0.14681 0.0999,-0.45642 0.22071,-0.68797 0.12089,-0.23155 0.27395,-0.63709 0.34024,-0.9012 0.22392,-0.89226 0.22343,-0.89214 3.62773,-0.89214 h 3.16537 l 0.11351,0.53308 c 0.0624,0.2932 0.25289,0.84274 0.4231,1.22122 0.17027,0.37843 0.30948,0.76903 0.30948,0.86802 0,0.37853 0.39051,0.5789 1.0126,0.51957 0.694,-0.0662 0.71311,-0.17444 0.21424,-1.21293 -0.11881,-0.24718 -0.26579,-0.67657 -0.32677,-0.95418 -0.0609,-0.27766 -0.21418,-0.7028 -0.34043,-0.94482 -0.12619,-0.24201 -0.23003,-0.56302 -0.23058,-0.71339 -4.9e-4,-0.15041 -0.0564,-0.29798 -0.12411,-0.32806 -0.0677,-0.0299 -0.34412,-0.71897 -0.61434,-1.53088 -0.27024,-0.81193 -0.58348,-1.66075 -0.6961,-1.8863 -0.11257,-0.22553 -0.20522,-0.53923 -0.20578,-0.69709 -4.9e-4,-0.15778 -0.0683,-0.28705 -0.1506,-0.28705 -0.0823,0 -0.19948,-0.29525 -0.26044,-0.65609 -0.0609,-0.36088 -0.17159,-0.65611 -0.24606,-0.65611 -0.0744,0 -0.18483,-0.27679 -0.24551,-0.6151 -0.0607,-0.33829 -0.27084,-0.94723 -0.46703,-1.35321 l -0.35672,-0.73809 -1.10681,-0.0486 c -1.08136,-0.0475 -1.11057,-0.038 -1.26971,0.41005 -0.0895,0.25223 -0.23163,0.57866 -0.31563,0.72545 -0.084,0.14681 -0.20305,0.53508 -0.26456,0.86293 -0.0615,0.32785 -0.17519,0.63532 -0.2528,0.68322 -0.0776,0.0479 -0.22112,0.39771 -0.31908,0.7773 -0.17292,0.67045 -0.5166,1.56165 -0.81168,2.10521 -0.0797,0.14681 -0.19504,0.53427 -0.25635,0.86114 -0.0613,0.32684 -0.16895,0.59428 -0.23901,0.59428 -0.0702,0 -0.17538,0.25521 -0.23391,0.56715 -0.0585,0.31194 -0.21396,0.77326 -0.34542,1.02516 -0.13149,0.25189 -0.28455,0.69789 -0.34017,0.99107 -0.0556,0.29321 -0.16667,0.53308 -0.24693,0.53308 -0.0802,0 -0.14624,0.12922 -0.14681,0.28704 -4.9e-4,0.15778 -0.10859,0.49316 -0.23989,0.74505 -0.1313,0.25189 -0.28413,0.69905 -0.33939,0.99366 l -0.10046,0.53567 0.62743,-0.07 c 0.3451,-0.0384 0.71972,-0.14416 0.83247,-0.23463 z m -9.32271,0.20355 c 0.49155,0 0.54903,-0.0857 1.15489,-1.72225 0.20039,-0.54129 0.42995,-1.13179 0.51015,-1.3122 0.1593,-0.35819 1.53573,-4.03027 1.90608,-5.08477 0.12676,-0.36086 0.33784,-0.8887 0.46914,-1.17298 0.13129,-0.28428 0.2387,-0.58951 0.2387,-0.67834 0,-0.0889 0.11029,-0.37291 0.24502,-0.63132 0.22182,-0.4253 0.24513,0.0549 0.24604,5.06602 l 0.002,5.53584 h 0.73811 0.7381 v -6.31496 -6.31496 h -1.22707 c -1.20313,0 -1.22914,0.009 -1.3348,0.45108 -0.0592,0.24809 -0.16176,0.52487 -0.22779,0.6151 -0.066,0.0902 -0.20983,0.45926 -0.31958,0.82012 -0.10973,0.36086 -0.30389,0.88868 -0.43144,1.17297 -0.12752,0.28426 -0.23189,0.59898 -0.23189,0.69932 0,0.10027 -0.0702,0.31063 -0.15609,0.4673 -0.35299,0.64413 -0.9701,2.23083 -1.33558,3.43396 -0.0876,0.28861 -0.26723,0.7315 -0.39902,0.98415 -0.13186,0.25266 -0.24008,0.58855 -0.24063,0.74643 -4.9e-4,0.15797 -0.0683,0.28703 -0.15059,0.28703 -0.0823,0 -0.1995,0.29525 -0.26046,0.65611 -0.0641,0.37933 -0.20247,0.65609 -0.32806,0.65609 -0.12562,0 -0.26397,-0.27676 -0.32805,-0.65609 -0.0609,-0.36086 -0.17822,-0.65611 -0.26046,-0.65611 -0.0823,0 -0.15211,-0.12902 -0.15513,-0.28703 -0.004,-0.15779 -0.14814,-0.58229 -0.3225,-0.94313 -0.17424,-0.36086 -0.31941,-0.73994 -0.32247,-0.84241 -0.004,-0.10254 -0.11578,-0.39767 -0.25058,-0.65609 -0.1347,-0.25837 -0.24784,-0.58053 -0.25126,-0.71585 -0.004,-0.13527 -0.11465,-0.38932 -0.24707,-0.56443 -0.13243,-0.17519 -0.24127,-0.43345 -0.24182,-0.5741 -4.9e-4,-0.14057 -0.11124,-0.46709 -0.24604,-0.7255 -0.1347,-0.2584 -0.24752,-0.55365 -0.25058,-0.65609 -0.004,-0.10254 -0.14814,-0.48153 -0.32249,-0.84239 -0.17425,-0.36086 -0.31943,-0.73918 -0.32248,-0.84074 -0.004,-0.1014 -0.18919,-0.59973 -0.41357,-1.10716 l -0.40798,-0.92254 h -1.15026 -1.15023 v 6.31496 6.31496 h 0.7381 0.73812 l 0.0114,-5.53584 0.0114,-5.53584 0.3996,1.06616 c 0.21978,0.58639 0.47298,1.19434 0.56265,1.35098 0.0897,0.15665 0.16554,0.37808 0.16857,0.49207 0.004,0.11389 0.14814,0.5025 0.32249,0.86336 0.17425,0.36086 0.31941,0.73992 0.32248,0.84239 0.004,0.10254 0.11578,0.3977 0.2506,0.65609 0.1347,0.25841 0.24547,0.59464 0.24602,0.74719 4.9e-4,0.15248 0.0647,0.31672 0.14246,0.36483 0.0778,0.0481 0.2356,0.42342 0.35057,0.83402 0.11503,0.41062 0.2727,0.78593 0.35055,0.83404 0.0778,0.0481 0.14189,0.21228 0.14246,0.36484 4.7e-4,0.15249 0.10424,0.47536 0.23056,0.71735 0.12619,0.24203 0.27711,0.65647 0.33521,0.92101 0.13432,0.61195 0.70486,1.23204 1.0216,1.11051 0.13357,-0.0511 0.44564,-0.0933 0.69365,-0.0933 z m -11.46743,-0.25094 c 1.44225,-0.76762 1.69796,-1.32516 1.77742,-3.87548 l 0.0657,-2.10653 h -2.47977 -2.47976 v 0.65609 c 0,0.41115 0.0766,0.65918 0.20502,0.66432 0.11276,0.004 0.90624,0.0231 1.76327,0.0409 l 1.55824,0.0327 0.0505,0.88637 c 0.0893,1.56806 -0.45145,2.39119 -1.72978,2.63322 -0.86511,0.16384 -4.20244,0.1033 -4.71767,-0.0857 -0.50348,-0.18465 -1.06616,-0.75162 -1.06616,-1.07443 0,-0.1593 -0.0738,-0.3354 -0.16403,-0.39115 -0.20582,-0.12733 -0.22349,-6.53054 -0.0191,-6.93227 0.0797,-0.15665 0.23584,-0.48044 0.34701,-0.71952 0.35235,-0.75776 1.28942,-1.04153 3.43941,-1.04153 2.49649,0 3.29203,0.27758 3.67586,1.28259 0.14625,0.38319 0.26606,0.86028 0.26606,1.06026 0,0.31481 0.088,0.36354 0.65611,0.36354 0.65255,0 0.65609,-0.004 0.65609,-0.6356 0,-1.41334 -0.38668,-2.13239 -1.55824,-2.89757 -0.4467,-0.29177 -0.79127,-0.32139 -3.73744,-0.32139 -2.12856,0 -3.28571,0.0607 -3.36254,0.17594 -0.0645,0.0967 -0.2385,0.22065 -0.38684,0.27524 -0.51562,0.18975 -1.12445,1.21039 -1.30516,2.18797 -0.10633,0.57491 -0.15552,2.39463 -0.12184,4.50118 0.0501,3.13098 0.0921,3.59169 0.3672,4.02076 0.92682,1.44569 1.80759,1.72735 5.18419,1.65779 2.09635,-0.0433 2.64309,-0.10595 3.11646,-0.35795 z m -16.79669,-0.0284 c 1.13824,-0.60586 1.29626,-0.9936 1.29626,-3.18049 0,-2.56927 -0.28748,-3.06239 -2.01181,-3.45085 -0.78094,-0.17595 -3.28652,-0.42326 -4.59768,-0.45387 -1.1232,-0.0261 -1.50979,-0.52903 -1.50979,-1.96384 0,-1.40935 0.0725,-1.60533 0.7161,-1.93817 1.10674,-0.57234 4.95834,-0.42211 5.59878,0.21836 0.15116,0.15097 0.24615,0.55298 0.24615,1.04088 0,0.86636 0.0884,0.9482 0.92009,0.85111 0.55312,-0.0645 0.55614,-0.0694 0.55614,-0.92391 0,-0.97497 -0.34888,-1.80687 -0.87358,-2.08303 -0.19613,-0.1033 -0.40927,-0.2689 -0.47364,-0.36817 -0.0789,-0.12146 -1.20426,-0.18048 -3.44453,-0.18048 -3.74649,0 -3.77347,0.008 -4.406,1.302 -0.45158,0.92381 -0.44365,3.13502 0.0151,4.03294 0.57349,1.12412 1.38532,1.39495 4.84413,1.616 1.17691,0.0753 2.29935,0.22211 2.49435,0.32644 0.21289,0.1139 0.39747,0.41868 0.46204,0.76287 0.14719,0.78431 0.017,2.82241 -0.19339,3.03298 -0.32371,0.3237 -2.25058,0.5222 -4.00066,0.41213 -1.82824,-0.11503 -2.4604,-0.3487 -2.4604,-0.90955 0,-0.17841 -0.0738,-0.32425 -0.16402,-0.32425 -0.0902,0 -0.16403,-0.36905 -0.16403,-0.82014 v -0.82012 h -0.67403 -0.67404 l 0.0647,1.18919 c 0.0499,0.91638 0.1576,1.32949 0.469,1.80075 0.36421,0.55105 0.60437,0.70933 1.71643,1.13131 0.18048,0.0685 1.50903,0.10935 2.95245,0.0912 2.34434,-0.0299 2.69614,-0.0715 3.29648,-0.39115 z m -9.61145,-6.03547 v -8.44728 h 45.10698 45.10683 v 8.44728 8.44726 H 154.75078 109.6438 Z m -2.51004,30.97838 c -0.1644,-0.16441 0.33926,-2.24084 0.79032,-3.25817 0.11995,-0.27065 0.26878,-0.69506 0.33063,-0.94316 0.0617,-0.24809 0.17027,-0.45107 0.24092,-0.45107 0.0707,0 0.17916,-0.20222 0.24125,-0.44942 0.062,-0.24718 0.16251,-0.48707 0.22326,-0.53308 0.0607,-0.046 0.32931,-0.4158 0.59674,-0.82176 0.82555,-1.25318 3.34041,-3.60855 3.85287,-3.60855 0.0938,0 0.17065,-0.0681 0.17065,-0.15097 0,-0.0831 0.22143,-0.19964 0.49206,-0.2591 0.27066,-0.0594 0.49208,-0.16403 0.49208,-0.23253 0,-0.0685 0.6301,-0.28405 1.40025,-0.47905 4.7897,-1.2128 9.59757,0.59697 12.34048,4.64521 0.24563,0.36251 0.49224,0.69599 0.54801,0.7411 0.0893,0.0723 0.74461,1.45373 1.12823,2.37836 0.28664,0.69086 0.66771,2.07856 0.76429,2.7832 l 0.10065,0.73495 -11.80222,0.006 c -6.49121,0.004 -11.85097,-0.0426 -11.91058,-0.10216 z m 82.55433,-5.65957 v -6.58401 l 5.12577,0.0986 c 5.41926,0.10424 6.11604,0.19316 7.51962,0.95974 1.19432,0.65229 1.90648,1.52438 2.72299,3.33437 0.40365,0.89479 0.40163,3.86297 -0.004,4.59269 -0.15003,0.27064 -0.27342,0.58434 -0.27397,0.69711 -4.9e-4,0.11276 -0.0668,0.20503 -0.14719,0.20503 -0.0804,0 -0.19012,0.17481 -0.24375,0.38846 -0.14643,0.58374 -1.32985,1.6801 -2.31795,2.14753 -1.29175,0.61112 -2.6146,0.73765 -7.74864,0.74126 l -4.63369,0.004 z m -24.35771,29.25114 c 1.64392,-0.46437 2.88942,-0.88238 3.36252,-1.12854 0.22552,-0.1173 0.50232,-0.21378 0.6151,-0.21433 0.11275,-4.9e-4 0.20502,-0.0747 0.20502,-0.16498 0,-0.0902 0.0849,-0.16402 0.18862,-0.16402 0.28426,0 1.94368,-0.86948 1.94368,-1.01843 0,-0.0715 0.0745,-0.12978 0.16573,-0.12978 0.15854,0 1.40348,-0.82911 2.15377,-1.43446 0.75472,-0.60891 2.43726,-2.41642 2.43726,-2.61827 0,-0.11654 0.0585,-0.21191 0.12978,-0.21191 0.16346,0 1.01841,-1.67289 1.01841,-1.99289 0,-0.13073 0.0923,-0.33019 0.20502,-0.44302 0.14681,-0.14681 0.20293,-0.91403 0.19763,-2.6982 -0.006,-2.03351 -0.0588,-2.58377 -0.28604,-2.98513 -0.15324,-0.27064 -0.27907,-0.62124 -0.27964,-0.77912 -4.9e-4,-0.15779 -0.0668,-0.28702 -0.14719,-0.28702 -0.0804,0 -0.19401,-0.19037 -0.25239,-0.42303 -0.105,-0.41839 -2.41605,-2.85748 -2.70746,-2.85748 -0.0831,0 -0.2485,-0.0925 -0.36771,-0.20552 -0.41803,-0.39639 -3.51947,-1.81556 -4.38138,-2.00486 -0.28053,-0.0617 -0.51008,-0.17178 -0.51008,-0.24477 0,-0.073 -0.25834,-0.18125 -0.57407,-0.24045 -0.31576,-0.0594 -0.5741,-0.17821 -0.5741,-0.26427 0,-0.0861 -0.11805,-0.15665 -0.26225,-0.15665 -0.14417,0 -0.49485,-0.10614 -0.77913,-0.23581 -0.28427,-0.12978 -0.99663,-0.42823 -1.58302,-0.66345 -0.58639,-0.23518 -1.21378,-0.49411 -1.39421,-0.57536 -1.3428,-0.60471 -1.90108,-0.82175 -2.11365,-0.82175 -0.13489,0 -0.28471,-0.0637 -0.33282,-0.14151 -0.0481,-0.0778 -0.42152,-0.23505 -0.82981,-0.34938 -0.40829,-0.11427 -0.74232,-0.27205 -0.74232,-0.35055 0,-0.0783 -0.11805,-0.14265 -0.26225,-0.14265 -0.14417,0 -0.49487,-0.10556 -0.77914,-0.23497 -0.28426,-0.12922 -1.25497,-0.53929 -2.15711,-0.91131 -1.98917,-0.82023 -2.71394,-1.16711 -3.00266,-1.4371 -0.12052,-0.11276 -0.26933,-0.20595 -0.33055,-0.20709 -0.0611,-0.004 -0.44176,-0.30885 -0.84563,-0.68388 -0.7153,-0.66415 -0.736,-0.71166 -0.79942,-1.8338 -0.0785,-1.38993 0.17879,-1.97406 1.18989,-2.70011 1.11959,-0.80402 2.28108,-1.03945 5.58639,-1.13234 2.68761,-0.0755 3.08711,-0.0492 4.5517,0.29966 0.88302,0.21038 1.6055,0.44036 1.6055,0.51108 0,0.0708 0.11446,0.12865 0.25453,0.12865 0.22317,0 1.29132,0.51429 1.78569,0.85979 0.97009,0.67792 1.94392,1.52309 2.17697,1.88934 0.15721,0.24714 0.33373,0.48625 0.39217,0.53136 0.20985,0.16194 0.80347,1.39518 0.80347,1.66916 0,0.15381 0.0738,0.32541 0.16402,0.38118 0.0902,0.0556 0.16403,0.24464 0.16403,0.41972 0,0.30715 0.15343,0.31838 4.34665,0.31838 2.39066,0 4.34665,-0.0377 4.34665,-0.0838 0,-0.3458 -0.68674,-3.04985 -0.87434,-3.44278 -0.12921,-0.27065 -0.36861,-0.80577 -0.53198,-1.18919 -0.16327,-0.38341 -0.35666,-0.69708 -0.42952,-0.69708 -0.0728,0 -0.13243,-0.0753 -0.13243,-0.16763 0,-0.50528 -2.31105,-3.14376 -3.9366,-4.49436 -0.97599,-0.81091 -4.0385,-2.56795 -5.03625,-2.88942 -0.34243,-0.1103 -0.69642,-0.25819 -0.78665,-0.32857 -0.0902,-0.0704 -0.45926,-0.18105 -0.82012,-0.24604 -0.36086,-0.0649 -0.72991,-0.17481 -0.82011,-0.24411 -0.0902,-0.0692 -1.2343,-0.29025 -2.54239,-0.49097 -1.87756,-0.28804 -2.77556,-0.3451 -4.26466,-0.27092 -1.90916,0.0952 -4.56556,0.4867 -5.16678,0.76159 -0.18049,0.0827 -0.58397,0.20058 -0.89676,0.2624 -0.31277,0.0617 -0.68184,0.1716 -0.82012,0.24387 -0.22379,0.11692 -1.30734,0.59668 -1.97368,0.87377 -0.35687,0.14851 -1.95592,1.0648 -2.18406,1.25164 -0.1069,0.0874 -0.59412,0.46641 -1.08277,0.84199 -0.48864,0.37556 -1.11603,0.94534 -1.3942,1.26617 -0.27818,0.32083 -0.63492,0.71536 -0.79282,0.87672 -0.15778,0.16138 -0.28704,0.36194 -0.28704,0.44572 0,0.0838 -0.0925,0.24984 -0.20559,0.36905 -0.32363,0.3412 -0.91108,1.76179 -1.18467,2.86484 -0.65887,2.65632 0.14417,5.65601 2.03317,7.59475 0.73052,0.74978 2.6747,2.10294 3.21698,2.23902 0.22262,0.056 0.40477,0.16744 0.40477,0.24784 0,0.0804 0.0779,0.14624 0.17311,0.14624 0.15778,0 0.91679,0.31037 2.20534,0.90191 0.27064,0.1243 0.82423,0.36831 1.23019,0.54239 0.40596,0.17405 1.00761,0.43699 1.33698,0.58427 0.32938,0.14719 0.67999,0.26778 0.77913,0.26778 0.0991,0 0.18048,0.0554 0.18086,0.12297 3.2e-4,0.0675 0.59056,0.34444 1.31158,0.6151 0.72102,0.27063 1.31123,0.54742 1.31157,0.61509 3.2e-4,0.0675 0.11541,0.12297 0.25565,0.12297 0.14019,0 0.60161,0.15552 1.02517,0.34537 1.04801,0.46998 1.59666,0.70131 2.65641,1.12004 0.49617,0.19602 1.04975,0.42227 1.23018,0.50273 0.18049,0.0806 0.69711,0.30428 1.14818,0.49736 0.45106,0.19311 1.12021,0.49241 1.48701,0.66508 0.36678,0.17273 0.74813,0.31394 0.84745,0.31394 0.0993,0 0.20518,0.0554 0.23526,0.12298 0.0301,0.0675 0.31302,0.25568 0.62877,0.41786 0.69414,0.35651 1.44231,1.01678 1.93307,1.706 0.27334,0.38388 0.36326,0.74272 0.36326,1.44962 0,1.00492 -0.32234,1.718 -1.16111,2.56852 -0.59605,0.6044 -2.60227,1.61617 -3.42297,1.72624 -0.36998,0.0496 -0.71217,0.154 -0.76039,0.23212 -0.0482,0.0781 -1.13516,0.14208 -2.41537,0.14227 -2.32732,4.9e-4 -3.97864,-0.24247 -5.14089,-0.75616 -0.28429,-0.12562 -0.5915,-0.22842 -0.68271,-0.22842 -0.0912,0 -0.70743,-0.31209 -1.36941,-0.6935 -1.31263,-0.75632 -3.19354,-2.53535 -3.35321,-3.17159 -0.0553,-0.21976 -0.15211,-0.39957 -0.21549,-0.39957 -0.0634,0 -0.24786,-0.44285 -0.41001,-0.98414 l -0.2948,-0.98417 h -4.25207 c -3.40939,0 -4.26884,0.0437 -4.33668,0.2205 -0.0834,0.21759 0.50523,2.7253 0.75521,3.21685 0.0708,0.13924 0.33621,0.71453 0.58974,1.27839 0.25353,0.56382 0.51885,1.02514 0.58961,1.02514 0.0708,0 0.12865,0.0817 0.12865,0.18182 0,0.58035 2.50805,3.1679 4.43948,4.58022 0.49023,0.35849 0.96663,0.70691 1.05867,0.77431 0.0921,0.0675 0.60874,0.34397 1.14817,0.61462 0.53946,0.27064 1.00543,0.54742 1.03551,0.6151 0.0301,0.0675 0.14076,0.12354 0.24604,0.12411 0.10519,4.9e-4 0.37589,0.0971 0.60142,0.21435 0.8152,0.42409 3.40855,1.19057 4.83875,1.43008 0.45107,0.0755 2.37015,0.11162 4.26464,0.0802 2.81077,-0.0467 3.65578,-0.11692 4.59271,-0.38162 z m -55.68658,0.62303 c 0,-2.13897 0.0199,-2.28684 0.28704,-2.14026 0.74728,0.40994 2.55351,1.09586 3.48555,1.32365 0.31576,0.0772 0.90624,0.23535 1.3122,0.35153 0.51043,0.14605 1.9524,0.21095 4.67474,0.21027 3.30609,-5e-4 4.05485,-0.0458 4.67473,-0.28008 0.40598,-0.15343 0.84883,-0.28061 0.98416,-0.28248 0.13527,-0.004 0.45746,-0.1137 0.71586,-0.24843 0.25839,-0.1347 0.55364,-0.24687 0.65611,-0.24916 0.38869,-0.009 3.26566,-1.5498 3.81574,-2.04404 0.10179,-0.0912 0.35532,-0.27686 0.56354,-0.41219 0.87652,-0.56961 3.32221,-2.96046 3.66568,-3.58344 0.0823,-0.14908 0.2483,-0.33017 0.36906,-0.40229 0.1207,-0.0723 0.21957,-0.23823 0.21957,-0.36907 0,-0.13073 0.0649,-0.23789 0.14416,-0.23789 0.0793,0 0.23584,-0.22143 0.34794,-0.49208 0.112,-0.27064 0.26068,-0.49206 0.33017,-0.49206 0.0694,0 0.17273,-0.18446 0.22926,-0.41007 0.0566,-0.22554 0.17538,-0.41007 0.26381,-0.41007 0.0885,0 0.161,-0.0768 0.161,-0.17084 0,-0.094 0.21492,-0.63055 0.47761,-1.19237 0.42373,-0.90635 1.16264,-2.90506 1.16264,-3.14495 0,-0.0494 -1.97443,-0.0702 -4.38766,-0.0464 l -4.38769,0.0437 -0.22392,0.94315 c -0.12316,0.51872 -0.28923,0.94313 -0.36905,0.94313 -0.0798,0 -0.14511,0.0995 -0.14511,0.22095 0,0.12146 -0.14757,0.39113 -0.32806,0.59916 -0.18048,0.20806 -0.32805,0.43007 -0.32805,0.49337 0,0.13754 -1.28303,1.43767 -1.81984,1.844 -0.20858,0.15797 -0.47494,0.28703 -0.59189,0.28703 -0.11692,0 -0.21269,0.0585 -0.21269,0.12979 0,0.14038 -1.47956,0.84115 -2.54241,1.20421 -1.06275,0.36305 -5.82121,0.30787 -6.97109,-0.0808 -2.46988,-0.83492 -4.99084,-2.71041 -6.31452,-4.69781 -0.27039,-0.40594 -0.52873,-0.77502 -0.5741,-0.82012 -0.30611,-0.30438 -1.26153,-2.6565 -1.39147,-3.42552 l -0.11408,-0.67511 h 15.92492 15.92489 v -2.95936 c 0,-1.90419 -0.0836,-3.38089 -0.23437,-4.14162 -0.12884,-0.65025 -0.28566,-1.51157 -0.34834,-1.91407 -0.0626,-0.4025 -0.16838,-0.84536 -0.23474,-0.98415 -0.0664,-0.13886 -0.32936,-0.87975 -0.58428,-1.64655 -0.47373,-1.42511 -1.07106,-2.6506 -1.90273,-3.90382 -0.25747,-0.38793 -0.4681,-0.74152 -0.4681,-0.78576 0,-0.0855 -0.62691,-0.99725 -0.90213,-1.31206 -0.0902,-0.1033 -0.5331,-0.61375 -0.98416,-1.13461 -0.45107,-0.52086 -0.95454,-1.06582 -1.11881,-1.21104 -0.16422,-0.14511 -0.62609,-0.57086 -1.02624,-0.94588 -1.51717,-1.42193 -4.14846,-2.90048 -6.65463,-3.73933 -2.52389,-0.84477 -6.71117,-1.06184 -9.94025,-0.51529 -1.01493,0.17178 -1.8453,0.37478 -1.8453,0.45108 0,0.0762 -0.15495,0.13887 -0.34438,0.13887 -0.18942,0 -0.94054,0.25835 -1.66915,0.57409 -0.72861,0.31576 -1.34866,0.5741 -1.37789,0.5741 -0.0293,0 -0.0532,-0.99646 -0.0532,-2.21433 v -2.21434 h 45.10699 45.10683 v 1.65676 1.65675 l -0.77912,-0.11843 c -0.42852,-0.0651 -4.59829,-0.14776 -9.26617,-0.18352 l -8.48706,-0.0649 -0.0422,21.24414 -0.0422,21.2441 h 4.22364 4.22364 v -8.18805 -8.18803 l 3.81357,-0.0938 c 2.09747,-0.0516 4.38562,-0.13735 5.08477,-0.19019 l 1.27118,-0.0965 v 9.60841 9.60841 h -45.10685 -45.10696 z m 60.2361,12.54195 0.0431,-5.50218 1.47623,2.4829 c 0.81193,1.36559 1.63878,2.75285 1.83745,3.08281 0.19868,0.32995 0.41474,0.71062 0.48012,0.84594 0.0655,0.13527 0.16365,0.28294 0.21825,0.32806 0.0547,0.045 0.42295,0.6356 0.81842,1.3122 0.39546,0.6766 0.76358,1.2671 0.81805,1.3122 0.0545,0.045 0.20824,0.29773 0.34174,0.56136 0.57392,1.13363 0.48682,1.07889 1.7168,1.07884 l 1.15029,-4e-5 v -6.23293 -6.23294 l -0.69711,3e-5 -0.69711,2e-5 v 5.41283 c 0,2.97705 -0.0554,5.41179 -0.12297,5.41054 -0.0677,-0.004 -0.52897,-0.71402 -1.02516,-1.58391 -0.49617,-0.86992 -0.9818,-1.66294 -1.07918,-1.76231 -0.16743,-0.17102 -0.44453,-0.64498 -0.91876,-1.57224 -0.1154,-0.22553 -0.25414,-0.44696 -0.30845,-0.49208 -0.0819,-0.0681 -0.70331,-1.09247 -2.33816,-3.85459 -0.1067,-0.18048 -0.23923,-0.36494 -0.2943,-0.41005 -0.0551,-0.045 -0.22306,-0.32188 -0.37327,-0.61509 -0.26867,-0.52436 -0.29185,-0.5331 -1.41711,-0.5331 h -1.14395 v 6.23297 6.23294 h 0.73593 0.73592 z m -7.91203,-0.73076 v -6.23297 h -0.82011 -0.82014 v 6.12362 c 0,3.36797 0.0492,6.1728 0.10935,6.23292 0.0602,0.0602 0.4292,0.10935 0.82014,0.10935 h 0.71076 z m -30.2243,1.70588 c -0.0944,-0.0944 -0.0114,-0.35337 0.47683,-1.48464 0.12259,-0.28428 0.22298,-0.62011 0.22298,-0.74632 0,-0.12619 0.067,-0.29956 0.14889,-0.38526 0.0819,-0.0857 0.22495,-0.41418 0.31803,-0.72992 0.20816,-0.70615 0.64033,-1.93715 0.83495,-2.37836 0.0797,-0.18048 0.18597,-0.45723 0.23645,-0.61509 0.0505,-0.15778 0.18673,-0.28704 0.30289,-0.28704 0.22118,0 0.45281,0.45837 0.78737,1.55824 0.10973,0.36083 0.26447,0.72621 0.3438,0.81191 0.0793,0.0857 0.14473,0.27024 0.14529,0.41005 5.1e-4,0.13981 0.11125,0.46567 0.24604,0.72407 0.13471,0.25841 0.24504,0.5425 0.24504,0.6313 0,0.0889 0.10349,0.39408 0.22983,0.67836 0.26765,0.60195 0.59029,1.57022 0.59029,1.77153 0,0.1559 -4.97372,0.19593 -5.12848,0.0412 z m -1.27198,3.21486 c 0.76644,-2.18886 0.37062,-1.99288 3.90939,-1.93577 l 3.06516,0.0494 0.26013,0.73813 c 0.14303,0.40594 0.34603,0.94589 0.45107,1.19984 0.105,0.25396 0.19093,0.55288 0.19093,0.66428 0,0.37195 0.3875,0.59625 1.02999,0.59625 0.63195,0 0.63554,-0.004 0.52235,-0.53308 -0.0626,-0.29323 -0.1716,-0.6069 -0.24201,-0.69711 -0.0704,-0.0902 -0.20501,-0.42238 -0.29909,-0.73812 -0.25333,-0.85026 -0.66591,-1.98116 -0.93655,-2.56719 -0.1313,-0.28426 -0.2387,-0.63051 -0.2387,-0.76943 0,-0.13887 -0.0681,-0.29469 -0.15135,-0.34615 -0.0832,-0.0515 -0.20177,-0.33261 -0.26333,-0.62476 -0.10425,-0.49448 -0.22467,-0.81673 -0.82915,-2.21802 -0.1277,-0.29627 -0.23484,-0.62841 -0.2379,-0.73812 -0.004,-0.10973 -0.14814,-0.49471 -0.32249,-0.85555 -0.17425,-0.36088 -0.31943,-0.78092 -0.32248,-0.93347 -0.004,-0.15248 -0.0738,-0.31948 -0.15703,-0.37094 -0.0832,-0.0515 -0.2005,-0.31716 -0.26051,-0.5904 l -0.10916,-0.49683 -1.24355,0.0477 c -1.22312,0.0469 -1.246,0.0556 -1.39442,0.53972 -0.083,0.27062 -0.25499,0.72465 -0.38222,1.00891 -0.12732,0.2843 -0.23134,0.63053 -0.23134,0.76947 0,0.13887 -0.0681,0.29467 -0.15135,0.34615 -0.0832,0.0515 -0.20383,0.33229 -0.26793,0.62409 -0.0641,0.29181 -0.21225,0.7523 -0.32925,1.02329 -0.11692,0.271 -0.3765,0.93558 -0.57668,1.47687 -0.20019,0.54127 -0.46367,1.21674 -0.58553,1.50101 -0.12184,0.28428 -0.22154,0.62013 -0.22154,0.74634 0,0.12619 -0.067,0.29954 -0.1487,0.38525 -0.0819,0.0857 -0.22493,0.41417 -0.31803,0.72993 -0.20816,0.70613 -0.64033,1.93713 -0.83497,2.37834 -0.39824,0.90281 -0.38805,0.92343 0.43029,0.87004 l 0.76533,-0.0499 z m -14.75885,-7.38112 v -2.6244 l 2.3374,0.004 c 3.7135,0.004 4.05603,0.17973 4.18061,2.17678 0.17273,2.7668 -0.23391,3.071 -4.10411,3.071 h -2.4139 z m 0,6.31495 v -2.37836 l 2.74745,1.7e-4 c 2.69031,1.5e-4 2.75728,0.009 3.22189,0.40823 0.46378,0.39887 0.47627,0.45231 0.5556,2.37817 l 0.0812,1.97016 h 0.71559 0.71559 l -0.001,-1.68127 c -0.002,-2.02003 -0.19578,-2.80994 -0.83686,-3.3955 l -0.48227,-0.44045 0.41024,-0.21955 c 0.69645,-0.37275 0.96439,-1.38867 0.87663,-3.32376 -0.084,-1.85313 -0.31371,-2.50234 -1.06563,-3.01196 -0.4141,-0.28066 -0.852,-0.31647 -4.43708,-0.36296 l -3.97762,-0.0516 v 6.24351 6.2435 h 0.7381 0.73813 v -2.37836 z m 76.76143,2.38204 c 0.58511,-0.0844 1.08948,-0.23067 1.12083,-0.32474 0.0314,-0.0942 0.1383,-0.17103 0.2378,-0.17103 0.25272,0 0.94004,-0.67052 0.94004,-0.91706 0,-0.11219 0.0897,-0.23368 0.19948,-0.27025 0.13925,-0.0463 0.21931,-0.74522 0.26517,-2.31453 l 0.0657,-2.24803 -2.4385,0.0456 -2.43851,0.0456 -0.0509,0.6151 -0.0509,0.61509 h 1.81418 1.81417 l -0.0113,1.10716 c -0.0132,1.30372 -0.30951,1.91692 -1.13725,2.36084 -0.81639,0.43786 -4.15737,0.43806 -5.30986,3.4e-4 -1.25623,-0.47712 -1.32998,-0.74645 -1.33112,-4.86259 -10e-4,-5.04612 0.0904,-5.16677 3.93564,-5.16677 2.496,0 3.28549,0.21002 3.46408,0.92164 0.0539,0.21476 0.16384,0.3905 0.24426,0.3905 0.0804,0 0.14625,0.29529 0.14625,0.65613 v 0.65609 h 0.65609 0.65611 v -0.80945 c 0,-0.98933 -0.15608,-1.41398 -0.76877,-2.09194 -0.79738,-0.88223 -1.75217,-1.11851 -4.48001,-1.10856 -1.84451,0.008 -2.54239,0.0723 -3.10901,0.2916 -0.90628,0.35097 -1.76181,1.2608 -1.93029,2.05284 -0.0702,0.3297 -0.12751,2.33398 -0.12751,4.45398 0,3.46037 0.032,3.91891 0.31233,4.4836 0.3781,0.76143 1.35125,1.40962 2.3767,1.58299 1.0808,0.18276 3.69067,0.18597 4.93578,0.006 z m -39.66103,-0.0995 c 0.7984,-0.18541 1.39425,-0.88887 1.67686,-1.97955 0.47462,-1.8316 0.34675,-2.35319 -0.57691,-2.35319 h -0.63854 v 0.87693 c 0,1.87576 -0.75639,2.40358 -3.44453,2.40358 -1.57294,0 -2.95244,-0.30942 -2.95244,-0.66221 0,-0.074 -0.12922,-0.26365 -0.28704,-0.42153 -0.25699,-0.25699 -0.28706,-0.6882 -0.28706,-4.11834 0,-2.3668 0.0626,-3.876 0.16403,-3.94831 0.0902,-0.0645 0.24508,-0.26465 0.34416,-0.44507 0.32453,-0.59108 0.87979,-0.73316 2.87483,-0.7357 1.04873,-0.004 2.13708,0.0435 2.41856,0.0999 0.66506,0.133 1.16949,0.93259 1.16949,1.85373 v 0.68718 l 0.69711,-0.0505 c 0.62455,-0.045 0.70252,-0.0976 0.74917,-0.50343 0.0736,-0.64012 -0.41237,-2.20366 -0.80789,-2.59916 -0.68366,-0.68368 -1.55348,-0.86954 -4.08292,-0.87243 -2.11045,-0.004 -2.46151,0.0375 -3.11649,0.35424 -1.06016,0.5127 -1.2198,0.68327 -1.52802,1.63287 -0.22427,0.69083 -0.27624,1.51933 -0.27624,4.40341 0,4.43589 0.14549,5.07993 1.37986,6.10479 0.42779,0.3552 1.90915,0.51893 4.03297,0.44575 1.12766,-0.039 2.24863,-0.11673 2.49104,-0.17311 z m -43.16934,-6.46506 v -8.03721 h 45.10698 45.10683 v 8.03721 8.03721 H 154.75078 109.6438 Z m 91.36199,-9.64453 v -18.82995 l 0.53308,-0.1837 c 0.2932,-0.10103 0.85171,-0.23395 1.24116,-0.29527 2.63002,-0.41402 5.54323,-2.25557 7.17164,-4.53345 0.21555,-0.30152 0.44988,-0.62266 0.52075,-0.71367 0.36041,-0.46283 1.20659,-2.42196 1.45169,-3.36108 0.15305,-0.58641 0.31409,-1.96008 0.35787,-3.05259 0.0664,-1.65657 0.0206,-2.238 -0.2761,-3.50154 -0.19566,-0.83335 -0.41471,-1.63712 -0.48681,-1.78618 -0.0721,-0.14908 -0.30809,-0.64007 -0.52445,-1.09113 -0.21636,-0.45107 -0.4305,-0.85703 -0.47585,-0.90214 -0.0454,-0.045 -0.28335,-0.37849 -0.52888,-0.74084 -0.67932,-1.00261 -1.94084,-2.2542 -3.01962,-2.99578 -0.66848,-0.45956 -2.96793,-1.47203 -3.58612,-1.57902 -0.36086,-0.0624 -1.0431,-0.20033 -1.51611,-0.30643 l -0.86002,-0.19288 -0.042,-11.23966 -0.0422,-11.239671 -46.07384,-0.04124 c -33.92262,-0.03048 -46.13258,0.0076 -46.29615,0.143028 -0.18333,0.152108 -0.2222,2.307313 -0.2222,12.291093 0,11.96267 -0.004,12.10795 -0.32804,12.21081 -0.18049,0.0571 -0.32806,0.168 -0.32806,0.24604 0,0.0781 -0.147,0.18862 -0.32644,0.24555 -0.39982,0.12675 -3.14961,2.81139 -4.03286,3.93709 -0.35392,0.45107 -0.68211,0.85703 -0.72929,0.90213 -0.0936,0.0897 -0.61504,0.87372 -0.9269,1.39423 -0.10806,0.18049 -0.40323,0.734 -0.65585,1.23017 -0.25264,0.49619 -0.49792,0.93904 -0.54511,0.98415 -0.15602,0.14927 -0.813352,1.87672 -0.920537,2.41935 -0.05782,0.29321 -0.160395,0.5331 -0.227707,0.5331 -0.06735,0 -0.173544,0.38567 -0.236082,0.85703 -0.06266,0.47137 -0.198874,0.95969 -0.302991,1.08514 -0.256884,0.30953 -0.369005,7.17706 -0.136973,8.39141 0.405817,2.1238 0.579083,2.87536 0.680763,2.95243 0.05948,0.045 0.159884,0.30344 0.22309,0.57408 0.126379,0.54095 0.785367,2.24799 0.918207,2.37838 0.0459,0.045 0.26808,0.44898 0.49362,0.8975 1.18841,2.36333 3.90211,5.5137 6.17757,7.17161 l 1.19443,0.87023 0.006,11.74145 c 0.002,6.4578 0.0537,11.79067 0.1139,11.85082 0.0602,0.0602 20.9119,0.10935 46.33715,0.10935 h 46.22768 z"
       style="fill:#000000;fill-opacity:1;stroke:#000000;stroke-width:0.500564" />
  </g>
</svg>
