<?xml version="1.0" encoding="UTF-8" standalone="no"?>
<svg
   xmlns:dc="http://purl.org/dc/elements/1.1/"
   xmlns:cc="http://creativecommons.org/ns#"
   xmlns:rdf="http://www.w3.org/1999/02/22-rdf-syntax-ns#"
   xmlns:svg="http://www.w3.org/2000/svg"
   xmlns="http://www.w3.org/2000/svg"
   viewBox="0 0 581.33331 779.11603"
   height="779.11603"
   width="581.33331"
   xml:space="preserve"
   id="svg2"
   version="1.1"><metadata
     id="metadata8"><rdf:RDF><cc:Work
         rdf:about=""><dc:format>image/svg+xml</dc:format><dc:type
           rdf:resource="http://purl.org/dc/dcmitype/StillImage" /></cc:Work></rdf:RDF></metadata><defs
     id="defs6"><clipPath
       id="clipPath18"
       clipPathUnits="userSpaceOnUse"><path
         id="path16"
         d="M 0,584.337 H 436 V 0 H 0 Z" /></clipPath><clipPath
       id="clipPath138"
       clipPathUnits="userSpaceOnUse"><path
         id="path136"
         d="M 0,584.337 H 436 V 0 H 0 Z" /></clipPath><clipPath
       id="clipPath240"
       clipPathUnits="userSpaceOnUse"><path
         id="path238"
         d="m 33.215,113.348 h 368.64 v 32.649 H 33.215 Z" /></clipPath><clipPath
       id="clipPath252"
       clipPathUnits="userSpaceOnUse"><path
         id="path250"
         d="M 0,584.337 H 436 V 0 H 0 Z" /></clipPath></defs><g
     transform="matrix(1.3333333,0,0,-1.3333333,0,779.116)"
     id="g10"><g
       id="g12"><g
         clip-path="url(#clipPath18)"
         id="g14"><g
           transform="translate(34.1362,63.6952)"
           id="g20"><path
             id="path22"
             style="fill:#100f0d;fill-opacity:1;fill-rule:nonzero;stroke:none"
             d="m 0,0 c 2.475,-1.523 6.093,-2.792 9.901,-2.792 5.648,0 8.948,2.982 8.948,7.299 0,3.997 -2.284,6.282 -8.06,8.504 -6.981,2.474 -11.297,6.092 -11.297,12.121 0,6.665 5.522,11.614 13.836,11.614 4.379,0 7.552,-1.016 9.456,-2.094 l -1.523,-4.506 c -1.396,0.761 -4.252,2.031 -8.124,2.031 -5.838,0 -8.059,-3.49 -8.059,-6.41 0,-3.997 2.602,-5.965 8.504,-8.25 7.235,-2.793 10.916,-6.284 10.916,-12.566 0,-6.6 -4.887,-12.313 -14.978,-12.313 -4.125,0 -8.631,1.206 -10.916,2.729 z" /></g><g
           transform="translate(73.165,56.9687)"
           id="g24"><path
             id="path26"
             style="fill:#100f0d;fill-opacity:1;fill-rule:nonzero;stroke:none"
             d="m 0,0 -10.853,42.775 h 5.839 L 0.063,21.134 C 1.333,15.802 2.475,10.472 3.236,6.346 h 0.127 c 0.699,4.252 2.031,9.33 3.491,14.85 l 5.712,21.579 h 5.775 L 23.545,21.069 C 24.751,15.992 25.894,10.916 26.528,6.41 h 0.127 c 0.888,4.696 2.095,9.456 3.427,14.786 l 5.648,21.579 h 5.649 L 29.257,0 h -5.775 l -5.395,22.276 c -1.332,5.458 -2.221,9.647 -2.792,13.962 h -0.127 c -0.762,-4.252 -1.713,-8.441 -3.3,-13.962 L 5.775,0 Z" /></g><g
           transform="translate(142.0195,77.0224)"
           id="g28"><path
             id="path30"
             style="fill:#100f0d;fill-opacity:1;fill-rule:nonzero;stroke:none"
             d="M 0,0 H -16.628 V -15.421 H 1.904 v -4.633 H -22.149 V 22.722 H 0.952 v -4.633 h -17.58 V 4.57 L 0,4.57 Z" /></g><g
           transform="translate(173.2412,77.0224)"
           id="g32"><path
             id="path34"
             style="fill:#100f0d;fill-opacity:1;fill-rule:nonzero;stroke:none"
             d="M 0,0 H -16.627 V -15.421 H 1.904 v -4.633 H -22.149 V 22.722 H 0.952 V 18.089 H -16.627 V 4.57 L 0,4.57 Z" /></g><g
           transform="translate(187.8354,78.6093)"
           id="g36"><path
             id="path38"
             style="fill:#100f0d;fill-opacity:1;fill-rule:nonzero;stroke:none"
             d="m 0,0 c 1.206,-0.316 2.729,-0.444 4.57,-0.444 6.663,0 10.725,3.237 10.725,9.139 0,5.649 -3.998,8.377 -10.091,8.377 -2.412,0 -4.252,-0.189 -5.204,-0.444 z m -5.521,20.626 c 2.666,0.444 6.155,0.825 10.599,0.825 5.457,0 9.456,-1.268 11.994,-3.553 2.348,-2.032 3.745,-5.141 3.745,-8.949 0,-3.871 -1.143,-6.917 -3.3,-9.139 -2.92,-3.11 -7.68,-4.697 -13.075,-4.697 -1.65,0 -3.172,0.064 -4.442,0.381 v -17.135 h -5.521 z" /></g><g
           transform="translate(215.313,63.6952)"
           id="g40"><path
             id="path42"
             style="fill:#100f0d;fill-opacity:1;fill-rule:nonzero;stroke:none"
             d="m 0,0 c 2.475,-1.523 6.093,-2.792 9.901,-2.792 5.648,0 8.948,2.982 8.948,7.299 0,3.997 -2.284,6.282 -8.06,8.504 -6.981,2.474 -11.297,6.092 -11.297,12.121 0,6.665 5.522,11.614 13.836,11.614 4.379,0 7.552,-1.016 9.456,-2.094 l -1.523,-4.506 c -1.396,0.761 -4.253,2.031 -8.124,2.031 -5.838,0 -8.059,-3.49 -8.059,-6.41 0,-3.997 2.602,-5.965 8.504,-8.25 7.235,-2.793 10.916,-6.284 10.916,-12.566 0,-6.6 -4.887,-12.313 -14.978,-12.313 -4.125,0 -8.631,1.206 -10.916,2.729 z" /></g><g
           transform="translate(255.4844,95.0468)"
           id="g44"><path
             id="path46"
             style="fill:#100f0d;fill-opacity:1;fill-rule:nonzero;stroke:none"
             d="M 0,0 H -13.011 V 4.697 H 18.658 V 0 H 5.584 V -38.078 H 0 Z" /></g><g
           transform="translate(295.085,74.7382)"
           id="g48"><path
             id="path50"
             style="fill:#100f0d;fill-opacity:1;fill-rule:nonzero;stroke:none"
             d="m 0,0 -4.189,12.312 c -0.953,2.792 -1.587,5.332 -2.222,7.806 H -6.538 C -7.172,17.58 -7.87,14.979 -8.696,12.376 L -12.884,0 Z m -14.026,-4.316 -4.443,-13.454 h -5.712 l 14.534,42.776 h 6.664 L 11.612,-17.77 H 5.711 L 1.143,-4.316 Z" /></g><g
           transform="translate(312.9775,99.7441)"
           id="g52"><path
             id="path54"
             style="fill:#100f0d;fill-opacity:1;fill-rule:nonzero;stroke:none"
             d="m 0,0 h 5.521 v -20.627 h 0.191 c 1.142,1.65 2.285,3.174 3.363,4.57 L 22.149,0 h 6.856 L 13.519,-18.151 30.209,-42.775 H 23.673 L 9.584,-21.77 5.521,-26.465 v -16.31 H 0 Z" /></g><g
           transform="translate(369.5225,77.0224)"
           id="g56"><path
             id="path58"
             style="fill:#100f0d;fill-opacity:1;fill-rule:nonzero;stroke:none"
             d="M 0,0 H -16.628 V -15.421 H 1.903 v -4.633 H -22.15 V 22.722 H 0.951 V 18.089 H -16.628 V 4.57 L 0,4.57 Z" /></g><g
           transform="translate(377.833,63.6952)"
           id="g60"><path
             id="path62"
             style="fill:#100f0d;fill-opacity:1;fill-rule:nonzero;stroke:none"
             d="m 0,0 c 2.476,-1.523 6.092,-2.792 9.901,-2.792 5.649,0 8.949,2.982 8.949,7.299 0,3.997 -2.286,6.282 -8.061,8.504 -6.981,2.474 -11.296,6.092 -11.296,12.121 0,6.665 5.521,11.614 13.835,11.614 4.378,0 7.552,-1.016 9.456,-2.094 l -1.523,-4.506 c -1.397,0.761 -4.252,2.031 -8.123,2.031 -5.839,0 -8.06,-3.49 -8.06,-6.41 0,-3.997 2.601,-5.965 8.504,-8.25 7.234,-2.793 10.915,-6.284 10.915,-12.566 0,-6.6 -4.886,-12.313 -14.976,-12.313 -4.126,0 -8.632,1.206 -10.917,2.729 z" /></g><g
           transform="translate(222.7773,546.7216)"
           id="g64"><path
             id="path66"
             style="fill:#100f0d;fill-opacity:1;fill-rule:nonzero;stroke:none"
             d="m 0,0 c 0,1.939 -2.35,9.373 -5.242,9.373 -2.9,0 -5.245,-7.434 -5.245,-9.373 v -120.052 c 0,-1.933 2.345,-3.503 5.245,-3.503 2.892,0 5.242,1.57 5.242,3.503 z" /></g><g
           transform="translate(165.6694,239.6845)"
           id="g68"><path
             id="path70"
             style="fill:#100f0d;fill-opacity:1;fill-rule:nonzero;stroke:none"
             d="m 0,0 c -7.116,5.266 -14.73,10.272 -22.746,14.901 -41.914,24.198 -85.708,31.164 -112.331,20.517 25.036,15.359 43.175,59.142 43.175,110.871 0,48.391 -15.595,89.847 -38.127,107.582 l 96.026,-53.591 c -14.145,-18.221 -22.567,-41.112 -22.567,-65.968 0,-38.79 20.51,-72.792 51.27,-91.752 -0.126,-4.037 -0.097,-8.2 -0.154,-12.359 -36.931,20.061 -61.887,59.128 -61.887,104.111 0,22.77 6.388,44.065 17.525,62.124 l -45.77,26.231 c 9.963,-20.68 15.062,-46.421 15.062,-76.378 0,-41.285 -7.362,-74.789 -24.738,-95.571 25.958,2.248 54.295,-7.58 86.98,-26.451 4.64,-2.682 9.149,-5.361 13.521,-8.05 C -3.192,10.56 -1.605,5.159 0,0" /></g><g
           transform="translate(274.7402,283.2001)"
           id="g72"><path
             id="path74"
             style="fill:#100f0d;fill-opacity:1;fill-rule:nonzero;stroke:none"
             d="m 0,0 c 29.918,19.133 49.752,52.646 49.752,90.796 0,24.873 -8.353,47.836 -22.521,66.072 l 96.199,53.284 C 101.166,192.196 85.703,150.8 85.703,102.773 85.703,50.349 104.174,6.042 129.737,-8.751 103.297,2.888 58.386,-3.91 15.589,-28.614 8.262,-32.845 1.456,-37.388 -4.817,-42.16 c 1.58,5.21 3.173,10.696 4.777,16.46 3.426,2.154 7.001,4.303 10.72,6.451 C 43.37,-0.378 73.087,9.45 99.046,7.202 81.669,27.984 74.308,61.488 74.302,102.773 c 0.006,28.717 5.574,55.011 14.809,75.353 L 43.272,152.829 C 54.342,134.813 60.529,113.492 60.529,90.796 60.529,46.535 36.255,7.944 0.292,-12.392 0.229,-8.204 0.132,-4.07 0,0" /></g><g
           transform="translate(161.1143,449.4409)"
           id="g76"><path
             id="path78"
             style="fill:#100f0d;fill-opacity:1;fill-rule:nonzero;stroke:none"
             d="m 0,0 c -1.135,0 -5.389,-1.831 -5.389,-4.188 v -33.607 c 0,-2.372 4.278,-4.28 5.389,-4.28 1.111,0 5.385,1.908 5.385,4.28 V -4.188 C 5.385,-1.831 1.134,0 0,0" /></g><g
           transform="translate(273.8643,449.4409)"
           id="g80"><path
             id="path82"
             style="fill:#100f0d;fill-opacity:1;fill-rule:nonzero;stroke:none"
             d="m 0,0 c -1.135,0 -5.386,-1.831 -5.386,-4.188 v -33.607 c 0,-2.372 4.275,-4.28 5.386,-4.28 1.111,0 5.385,1.908 5.385,4.28 V -4.188 C 5.385,-1.831 1.134,0 0,0" /></g><g
           transform="translate(217.5352,556.0947)"
           id="g84"><path
             id="path86"
             style="fill:#100f0d;fill-opacity:1;fill-rule:nonzero;stroke:none"
             d="m 0,0 c 2.893,0 5.242,-7.434 5.242,-9.373 v -120.052 c 0,-1.933 -2.349,-3.503 -5.242,-3.503 -2.899,0 -5.245,1.57 -5.245,3.503 V -9.373 C -5.245,-7.434 -2.899,0 0,0" /></g><g
           transform="translate(209.3569,542.3188)"
           id="g88"><path
             id="path90"
             style="fill:#100f0d;fill-opacity:1;fill-rule:nonzero;stroke:none"
             d="M 0,0 H -19.316 V 6.615 H 0.318 C 0.105,5.672 0,4.89 0,4.403 Z" /></g><g
           transform="translate(225.7109,542.3163)"
           id="g92"><path
             id="path94"
             style="fill:#100f0d;fill-opacity:1;fill-rule:nonzero;stroke:none"
             d="m 0,0 v 4.405 c 0,0.491 -0.106,1.269 -0.321,2.22 L 19.318,6.617 V 0.002 C 19.318,0.002 0,0.002 0,0" /></g><g
           transform="translate(267.5303,308.4033)"
           id="g96"><path
             id="path98"
             style="fill:#100f0d;fill-opacity:1;fill-rule:nonzero;stroke:none"
             d="M 0,0 -41.095,23.397 -22.827,33.831 -1.854,21.963 C -1.135,14.79 -0.516,7.465 0,0" /></g><g
           transform="translate(253.7256,347.3788)"
           id="g100"><path
             id="path102"
             style="fill:#100f0d;fill-opacity:1;fill-rule:nonzero;stroke:none"
             d="M 0,0 9.339,5.322 C 9.84,1.572 10.311,-2.231 10.76,-6.088 Z" /></g><g
           transform="translate(176.1904,380.997)"
           id="g104"><path
             id="path106"
             style="fill:#100f0d;fill-opacity:1;fill-rule:nonzero;stroke:none"
             d="M 0,0 32.189,-18.21 13.942,-28.517 -3.037,-18.849 C -2.097,-12.383 -1.071,-6.096 0,0" /></g><g
           transform="translate(170.4756,341.3857)"
           id="g108"><path
             id="path110"
             style="fill:#100f0d;fill-opacity:1;fill-rule:nonzero;stroke:none"
             d="m 0,0 10.602,5.987 c 0,0.003 -9.227,5.26 -9.227,5.26 C 0.891,7.548 0.433,3.799 0,0" /></g><g
           transform="translate(169.3213,330.5234)"
           id="g112"><path
             id="path114"
             style="fill:#100f0d;fill-opacity:1;fill-rule:nonzero;stroke:none"
             d="M 0,0 C -0.71,-7.21 -1.321,-14.575 -1.825,-22.08 L 39.099,1.277 20.668,11.773 Z" /></g><g
           transform="translate(198.9902,347.4272)"
           id="g116"><path
             id="path118"
             style="fill:#100f0d;fill-opacity:1;fill-rule:nonzero;stroke:none"
             d="M 0,0 18.207,10.367 36.684,-0.08 18.436,-10.493 Z" /></g><g
           transform="translate(226.2227,362.936)"
           id="g120"><path
             id="path122"
             style="fill:#100f0d;fill-opacity:1;fill-rule:nonzero;stroke:none"
             d="M 0,0 32.367,18.439 C 33.49,12.186 34.519,5.924 35.501,-0.719 L 18.457,-10.444 C 18.457,-10.444 0,0.003 0,0" /></g><g
           transform="translate(249.667,422.2929)"
           id="g124"><path
             id="path126"
             style="fill:#100f0d;fill-opacity:1;fill-rule:nonzero;stroke:none"
             d="m 0,0 c 2.581,-9.865 5.041,-20.639 7.29,-32.195 l -39.514,-22.195 -39.548,22.375 c 2.206,11.485 4.621,22.201 7.164,32.015 h -15.626 v 11.33 h 18.732 c 6.903,23.798 14.46,41.04 21.189,49.336 L -40.31,4.377 c 0,-3.609 3.592,-6.437 8.178,-6.437 4.583,0 8.176,2.828 8.176,6.437 l 0.002,56.02 c 6.497,-8.396 13.948,-25.512 20.823,-49.07 l 19.01,0.003 V 0 Z" /></g><g
           transform="translate(218.0278,259.2011)"
           id="g128"><path
             id="path130"
             style="fill:#100f0d;fill-opacity:1;fill-rule:nonzero;stroke:none"
             d="M 0,0 C -16.953,0 -32.304,-4.486 -34.745,-7.571 -16.552,-76.27 -1.645,-78.255 0,-78.255 c 5.551,0 17.319,9.228 33.799,70.965 C 31.879,-4.291 17.233,0 0,0 M -51.17,38.605 -0.582,67.467 50.156,38.565 C 50.821,26.223 51.181,13.541 51.181,0.607 29.623,-77.065 13.163,-92.921 0.097,-92.921 c -12.415,0 -31.533,18.052 -52.267,93.528 0,12.948 0.35,25.641 1,37.998" /></g></g></g><g
       id="g132"><g
         clip-path="url(#clipPath138)"
         id="g134"><g
           transform="translate(51.7554,127.0995)"
           id="g140"><path
             id="path142"
             style="fill:#100f0d;fill-opacity:1;fill-rule:nonzero;stroke:none"
             d="m 0,0 c -0.887,-0.443 -2.66,-0.887 -4.932,-0.887 -5.265,0 -9.228,3.325 -9.228,9.449 0,5.847 3.963,9.81 9.754,9.81 2.328,0 3.797,-0.499 4.434,-0.831 l -0.582,-1.968 c -0.914,0.444 -2.217,0.777 -3.769,0.777 -4.378,0 -7.287,-2.799 -7.287,-7.705 0,-4.572 2.632,-7.508 7.176,-7.508 1.469,0 2.966,0.304 3.935,0.775 z" /></g><g
           transform="translate(64.0332,134.2489)"
           id="g144"><path
             id="path146"
             style="fill:#100f0d;fill-opacity:1;fill-rule:nonzero;stroke:none"
             d="M 0,0 -1.829,5.376 C -2.244,6.595 -2.521,7.703 -2.798,8.784 H -2.854 C -3.131,7.676 -3.436,6.54 -3.796,5.403 L -5.625,0 Z m -6.124,-1.884 -1.939,-5.875 h -2.494 l 6.345,18.677 h 2.91 L 5.071,-7.759 H 2.494 l -1.995,5.875 z" /></g><g
           transform="translate(74.2612,136.4101)"
           id="g148"><path
             id="path150"
             style="fill:#100f0d;fill-opacity:1;fill-rule:nonzero;stroke:none"
             d="M 0,0 H 2.466 C 5.043,0 6.678,1.413 6.678,3.547 6.678,5.958 4.933,7.011 2.383,7.039 1.219,7.039 0.388,6.928 0,6.816 Z m -2.411,8.507 c 1.22,0.25 2.965,0.389 4.628,0.389 2.577,0 4.24,-0.472 5.404,-1.525 C 8.563,6.54 9.089,5.266 9.089,3.824 9.089,1.358 7.537,-0.277 5.57,-0.941 v -0.084 c 1.441,-0.498 2.3,-1.829 2.743,-3.769 0.61,-2.604 1.053,-4.405 1.441,-5.126 H 7.26 C 6.956,-9.394 6.54,-7.786 6.013,-5.459 5.459,-2.882 4.461,-1.912 2.272,-1.828 H 0 V -9.92 h -2.411 z" /></g><g
           transform="translate(86.7607,126.4902)"
           id="g152"><path
             id="path154"
             style="fill:#100f0d;fill-opacity:1;fill-rule:nonzero;stroke:none"
             d="M 0,0 V 18.677 H 2.632 L 8.618,9.228 c 1.385,-2.19 2.466,-4.157 3.353,-6.069 l 0.055,0.028 c -0.221,2.494 -0.277,4.766 -0.277,7.675 v 7.815 h 2.272 V 0 H 11.583 L 5.653,9.477 C 4.351,11.555 3.104,13.688 2.161,15.712 L 2.078,15.684 C 2.217,13.328 2.272,11.084 2.272,7.98 V 0 Z" /></g><g
           transform="translate(114.668,135.246)"
           id="g156"><path
             id="path158"
             style="fill:#100f0d;fill-opacity:1;fill-rule:nonzero;stroke:none"
             d="M 0,0 H -7.26 V -6.733 H 0.831 V -8.756 H -9.671 V 9.921 H 0.416 V 7.897 H -7.26 V 1.996 H 0 Z" /></g><g
           transform="translate(132.8477,127.3212)"
           id="g160"><path
             id="path162"
             style="fill:#100f0d;fill-opacity:1;fill-rule:nonzero;stroke:none"
             d="m 0,0 c -1.081,-0.388 -3.214,-1.025 -5.736,-1.025 -2.827,0 -5.154,0.72 -6.983,2.466 -1.607,1.552 -2.605,4.046 -2.605,6.955 0.028,5.57 3.852,9.643 10.115,9.643 2.161,0 3.851,-0.471 4.655,-0.858 l -0.582,-1.968 c -0.998,0.443 -2.245,0.804 -4.129,0.804 -4.545,0 -7.509,-2.827 -7.509,-7.51 0,-4.738 2.854,-7.537 7.204,-7.537 1.58,0 2.66,0.221 3.215,0.499 v 5.569 h -3.797 v 1.941 l 6.152,0 z" /></g><path
           id="path164"
           style="fill:#100f0d;fill-opacity:1;fill-rule:nonzero;stroke:none"
           d="m 138.947,126.49 h -2.411 v 18.677 h 2.411 z" /><g
           transform="translate(152.8306,135.246)"
           id="g166"><path
             id="path168"
             style="fill:#100f0d;fill-opacity:1;fill-rule:nonzero;stroke:none"
             d="M 0,0 H -7.26 V -6.733 H 0.831 V -8.756 H -9.671 V 9.921 H 0.416 V 7.897 H -7.26 V 1.996 H 0 Z" /></g><g
           transform="translate(178.4097,134.6923)"
           id="g170"><path
             id="path172"
             style="fill:#100f0d;fill-opacity:1;fill-rule:nonzero;stroke:none"
             d="M 0,0 C -0.139,2.604 -0.305,5.736 -0.277,8.063 H -0.36 C -0.998,5.874 -1.773,3.547 -2.715,0.97 l -3.298,-9.061 h -1.829 l -3.02,8.895 c -0.887,2.633 -1.635,5.043 -2.162,7.259 h -0.055 c -0.055,-2.327 -0.194,-5.459 -0.36,-8.257 l -0.499,-8.008 h -2.3 l 1.302,18.677 h 3.076 L -8.673,1.44 c 0.776,-2.299 1.413,-4.349 1.884,-6.29 h 0.083 c 0.471,1.885 1.136,3.936 1.968,6.29 l 3.325,9.035 H 1.663 L 2.827,-8.202 H 0.471 Z" /></g><g
           transform="translate(194.6235,135.246)"
           id="g174"><path
             id="path176"
             style="fill:#100f0d;fill-opacity:1;fill-rule:nonzero;stroke:none"
             d="M 0,0 H -7.26 V -6.733 H 0.831 V -8.756 H -9.671 V 9.921 H 0.416 V 7.897 H -7.26 V 1.996 H 0 Z" /></g><g
           transform="translate(198.5879,145.1669)"
           id="g178"><path
             id="path180"
             style="fill:#100f0d;fill-opacity:1;fill-rule:nonzero;stroke:none"
             d="m 0,0 h 2.411 v -16.654 h 7.98 v -2.023 H 0 Z" /></g><g
           transform="translate(211.6689,145.1669)"
           id="g182"><path
             id="path184"
             style="fill:#100f0d;fill-opacity:1;fill-rule:nonzero;stroke:none"
             d="m 0,0 h 2.411 v -16.654 h 7.981 v -2.023 H 0 Z" /></g><g
           transform="translate(225.1387,135.7177)"
           id="g186"><path
             id="path188"
             style="fill:#100f0d;fill-opacity:1;fill-rule:nonzero;stroke:none"
             d="m 0,0 c 0,-3.99 2.16,-7.565 5.957,-7.565 3.824,0 5.985,3.519 5.985,7.759 0,3.713 -1.939,7.592 -5.958,7.592 C 1.994,7.786 0,4.101 0,0 m 14.492,0.305 c 0,-6.429 -3.908,-9.837 -8.674,-9.837 -4.931,0 -8.396,3.824 -8.396,9.476 0,5.93 3.685,9.81 8.674,9.81 5.098,0 8.396,-3.907 8.396,-9.449" /></g><g
           transform="translate(242.7646,126.4902)"
           id="g190"><path
             id="path192"
             style="fill:#100f0d;fill-opacity:1;fill-rule:nonzero;stroke:none"
             d="M 0,0 V 18.677 H 2.632 L 8.618,9.228 c 1.385,-2.19 2.466,-4.157 3.353,-6.069 l 0.055,0.028 c -0.221,2.494 -0.277,4.766 -0.277,7.675 v 7.815 h 2.272 V 0 H 11.583 L 5.653,9.477 C 4.351,11.555 3.104,13.688 2.161,15.712 L 2.078,15.684 C 2.217,13.328 2.272,11.084 2.272,7.98 V 0 Z" /></g><g
           transform="translate(269.2871,145.1669)"
           id="g194"><path
             id="path196"
             style="fill:#100f0d;fill-opacity:1;fill-rule:nonzero;stroke:none"
             d="m 0,0 v -11.057 c 0,-4.184 1.856,-5.958 4.35,-5.958 2.771,0 4.545,1.829 4.545,5.958 V 0 h 2.438 v -10.891 c 0,-5.735 -3.02,-8.09 -7.065,-8.09 -3.825,0 -6.707,2.189 -6.707,7.98 V 0 Z" /></g><g
           transform="translate(284.8076,126.4902)"
           id="g198"><path
             id="path200"
             style="fill:#100f0d;fill-opacity:1;fill-rule:nonzero;stroke:none"
             d="M 0,0 V 18.677 H 2.632 L 8.617,9.228 c 1.386,-2.19 2.467,-4.157 3.354,-6.069 l 0.054,0.028 c -0.221,2.494 -0.277,4.766 -0.277,7.675 v 7.815 h 2.273 V 0 H 11.582 L 5.652,9.477 C 4.35,11.555 3.104,13.688 2.161,15.712 L 2.078,15.684 C 2.217,13.328 2.271,11.084 2.271,7.98 V 0 Z" /></g><path
           id="path202"
           style="fill:#100f0d;fill-opacity:1;fill-rule:nonzero;stroke:none"
           d="m 305.454,126.49 h -2.41 v 18.677 h 2.41 z" /><g
           transform="translate(313.7686,126.4902)"
           id="g204"><path
             id="path206"
             style="fill:#100f0d;fill-opacity:1;fill-rule:nonzero;stroke:none"
             d="m 0,0 -6.096,18.677 h 2.605 l 2.909,-9.2 C 0.222,6.955 0.914,4.683 1.413,2.494 h 0.056 c 0.526,2.161 1.302,4.517 2.134,6.955 l 3.159,9.228 H 9.338 L 2.66,0 Z" /></g><g
           transform="translate(334.8027,135.246)"
           id="g208"><path
             id="path210"
             style="fill:#100f0d;fill-opacity:1;fill-rule:nonzero;stroke:none"
             d="M 0,0 H -7.26 V -6.733 H 0.832 V -8.756 H -9.671 V 9.921 H 0.416 V 7.897 H -7.26 V 1.996 H 0 Z" /></g><g
           transform="translate(341.1777,136.4101)"
           id="g212"><path
             id="path214"
             style="fill:#100f0d;fill-opacity:1;fill-rule:nonzero;stroke:none"
             d="M 0,0 H 2.466 C 5.043,0 6.679,1.413 6.679,3.547 6.679,5.958 4.933,7.011 2.383,7.039 1.22,7.039 0.388,6.928 0,6.816 Z m -2.411,8.507 c 1.22,0.25 2.966,0.389 4.628,0.389 2.577,0 4.239,-0.472 5.403,-1.525 C 8.563,6.54 9.089,5.266 9.089,3.824 9.089,1.358 7.537,-0.277 5.569,-0.941 V -1.025 C 7.011,-1.523 7.87,-2.854 8.313,-4.794 8.923,-7.398 9.366,-9.199 9.754,-9.92 H 7.26 C 6.955,-9.394 6.54,-7.786 6.013,-5.459 5.459,-2.882 4.462,-1.912 2.272,-1.828 H 0 V -9.92 h -2.411 z" /></g><g
           transform="translate(353.3447,129.4277)"
           id="g216"><path
             id="path218"
             style="fill:#100f0d;fill-opacity:1;fill-rule:nonzero;stroke:none"
             d="m 0,0 c 1.081,-0.665 2.66,-1.22 4.322,-1.22 2.467,0 3.907,1.303 3.907,3.187 0,1.746 -0.997,2.744 -3.518,3.714 -3.049,1.08 -4.933,2.66 -4.933,5.292 0,2.91 2.411,5.071 6.041,5.071 1.912,0 3.297,-0.443 4.129,-0.915 L 9.283,13.162 c -0.61,0.332 -1.857,0.887 -3.547,0.887 -2.549,0 -3.519,-1.525 -3.519,-2.799 0,-1.746 1.136,-2.604 3.713,-3.603 3.159,-1.218 4.766,-2.743 4.766,-5.486 0,-2.882 -2.133,-5.376 -6.54,-5.376 -1.801,0 -3.768,0.527 -4.765,1.192 z" /></g><path
           id="path220"
           style="fill:#100f0d;fill-opacity:1;fill-rule:nonzero;stroke:none"
           d="m 369.752,126.49 h -2.411 v 18.677 h 2.411 z" /><g
           transform="translate(377.5107,143.1161)"
           id="g222"><path
             id="path224"
             style="fill:#100f0d;fill-opacity:1;fill-rule:nonzero;stroke:none"
             d="M 0,0 H -5.68 V 2.051 H 8.147 V 0 H 2.439 V -16.626 H 0 Z" /></g><g
           transform="translate(392.6719,126.4902)"
           id="g226"><path
             id="path228"
             style="fill:#100f0d;fill-opacity:1;fill-rule:nonzero;stroke:none"
             d="m 0,0 v 7.925 l -5.902,10.752 h 2.743 l 2.633,-5.155 C 0.193,12.109 0.748,10.973 1.33,9.671 h 0.056 c 0.526,1.219 1.163,2.438 1.884,3.851 l 2.687,5.155 H 8.7 L 2.438,7.953 V 0 Z" /></g></g></g></g></svg>