<?xml version="1.0" encoding="UTF-8" standalone="no"?>
<svg
   xmlns:dc="http://purl.org/dc/elements/1.1/"
   xmlns:cc="http://creativecommons.org/ns#"
   xmlns:rdf="http://www.w3.org/1999/02/22-rdf-syntax-ns#"
   xmlns:svg="http://www.w3.org/2000/svg"
   xmlns="http://www.w3.org/2000/svg"
   viewBox="0 0 581.33331 600"
   height="600"
   width="581.33331"
   xml:space="preserve"
   id="svg2"
   version="1.1"><metadata
     id="metadata8"><rdf:RDF><cc:Work
         rdf:about=""><dc:format>image/svg+xml</dc:format><dc:type
           rdf:resource="http://purl.org/dc/dcmitype/StillImage" /></cc:Work></rdf:RDF></metadata><defs
     id="defs6"><clipPath
       id="clipPath18"
       clipPathUnits="userSpaceOnUse"><path
         id="path16"
         d="M 0,584.337 H 436 V 0 H 0 Z" /></clipPath><clipPath
       id="clipPath138"
       clipPathUnits="userSpaceOnUse"><path
         id="path136"
         d="M 0,584.337 H 436 V 0 H 0 Z" /></clipPath><clipPath
       id="clipPath240"
       clipPathUnits="userSpaceOnUse"><path
         id="path238"
         d="m 33.215,113.348 h 368.64 v 32.649 H 33.215 Z" /></clipPath><clipPath
       id="clipPath252"
       clipPathUnits="userSpaceOnUse"><path
         id="path250"
         d="M 0,584.337 H 436 V 0 H 0 Z" /></clipPath></defs><g
     transform="matrix(1.3333333,0,0,-1.3333333,0,779.116)"
     id="g10"><g
       id="g12"><g
         clip-path="url(#clipPath18)"
         id="g14"><g
           transform="translate(222.7773,546.7216)"
           id="g64"><path
             id="path66"
             style="fill:#100f0d;fill-opacity:1;fill-rule:nonzero;stroke:none"
             d="m 0,0 c 0,1.939 -2.35,9.373 -5.242,9.373 -2.9,0 -5.245,-7.434 -5.245,-9.373 v -120.052 c 0,-1.933 2.345,-3.503 5.245,-3.503 2.892,0 5.242,1.57 5.242,3.503 z" /></g><g
           transform="translate(165.6694,239.6845)"
           id="g68"><path
             id="path70"
             style="fill:#100f0d;fill-opacity:1;fill-rule:nonzero;stroke:none"
             d="m 0,0 c -7.116,5.266 -14.73,10.272 -22.746,14.901 -41.914,24.198 -85.708,31.164 -112.331,20.517 25.036,15.359 43.175,59.142 43.175,110.871 0,48.391 -15.595,89.847 -38.127,107.582 l 96.026,-53.591 c -14.145,-18.221 -22.567,-41.112 -22.567,-65.968 0,-38.79 20.51,-72.792 51.27,-91.752 -0.126,-4.037 -0.097,-8.2 -0.154,-12.359 -36.931,20.061 -61.887,59.128 -61.887,104.111 0,22.77 6.388,44.065 17.525,62.124 l -45.77,26.231 c 9.963,-20.68 15.062,-46.421 15.062,-76.378 0,-41.285 -7.362,-74.789 -24.738,-95.571 25.958,2.248 54.295,-7.58 86.98,-26.451 4.64,-2.682 9.149,-5.361 13.521,-8.05 C -3.192,10.56 -1.605,5.159 0,0" /></g><g
           transform="translate(274.7402,283.2001)"
           id="g72"><path
             id="path74"
             style="fill:#100f0d;fill-opacity:1;fill-rule:nonzero;stroke:none"
             d="m 0,0 c 29.918,19.133 49.752,52.646 49.752,90.796 0,24.873 -8.353,47.836 -22.521,66.072 l 96.199,53.284 C 101.166,192.196 85.703,150.8 85.703,102.773 85.703,50.349 104.174,6.042 129.737,-8.751 103.297,2.888 58.386,-3.91 15.589,-28.614 8.262,-32.845 1.456,-37.388 -4.817,-42.16 c 1.58,5.21 3.173,10.696 4.777,16.46 3.426,2.154 7.001,4.303 10.72,6.451 C 43.37,-0.378 73.087,9.45 99.046,7.202 81.669,27.984 74.308,61.488 74.302,102.773 c 0.006,28.717 5.574,55.011 14.809,75.353 L 43.272,152.829 C 54.342,134.813 60.529,113.492 60.529,90.796 60.529,46.535 36.255,7.944 0.292,-12.392 0.229,-8.204 0.132,-4.07 0,0" /></g><g
           transform="translate(161.1143,449.4409)"
           id="g76"><path
             id="path78"
             style="fill:#100f0d;fill-opacity:1;fill-rule:nonzero;stroke:none"
             d="m 0,0 c -1.135,0 -5.389,-1.831 -5.389,-4.188 v -33.607 c 0,-2.372 4.278,-4.28 5.389,-4.28 1.111,0 5.385,1.908 5.385,4.28 V -4.188 C 5.385,-1.831 1.134,0 0,0" /></g><g
           transform="translate(273.8643,449.4409)"
           id="g80"><path
             id="path82"
             style="fill:#100f0d;fill-opacity:1;fill-rule:nonzero;stroke:none"
             d="m 0,0 c -1.135,0 -5.386,-1.831 -5.386,-4.188 v -33.607 c 0,-2.372 4.275,-4.28 5.386,-4.28 1.111,0 5.385,1.908 5.385,4.28 V -4.188 C 5.385,-1.831 1.134,0 0,0" /></g><g
           transform="translate(217.5352,556.0947)"
           id="g84"><path
             id="path86"
             style="fill:#100f0d;fill-opacity:1;fill-rule:nonzero;stroke:none"
             d="m 0,0 c 2.893,0 5.242,-7.434 5.242,-9.373 v -120.052 c 0,-1.933 -2.349,-3.503 -5.242,-3.503 -2.899,0 -5.245,1.57 -5.245,3.503 V -9.373 C -5.245,-7.434 -2.899,0 0,0" /></g><g
           transform="translate(209.3569,542.3188)"
           id="g88"><path
             id="path90"
             style="fill:#100f0d;fill-opacity:1;fill-rule:nonzero;stroke:none"
             d="M 0,0 H -19.316 V 6.615 H 0.318 C 0.105,5.672 0,4.89 0,4.403 Z" /></g><g
           transform="translate(225.7109,542.3163)"
           id="g92"><path
             id="path94"
             style="fill:#100f0d;fill-opacity:1;fill-rule:nonzero;stroke:none"
             d="m 0,0 v 4.405 c 0,0.491 -0.106,1.269 -0.321,2.22 L 19.318,6.617 V 0.002 C 19.318,0.002 0,0.002 0,0" /></g><g
           transform="translate(267.5303,308.4033)"
           id="g96"><path
             id="path98"
             style="fill:#100f0d;fill-opacity:1;fill-rule:nonzero;stroke:none"
             d="M 0,0 -41.095,23.397 -22.827,33.831 -1.854,21.963 C -1.135,14.79 -0.516,7.465 0,0" /></g><g
           transform="translate(253.7256,347.3788)"
           id="g100"><path
             id="path102"
             style="fill:#100f0d;fill-opacity:1;fill-rule:nonzero;stroke:none"
             d="M 0,0 9.339,5.322 C 9.84,1.572 10.311,-2.231 10.76,-6.088 Z" /></g><g
           transform="translate(176.1904,380.997)"
           id="g104"><path
             id="path106"
             style="fill:#100f0d;fill-opacity:1;fill-rule:nonzero;stroke:none"
             d="M 0,0 32.189,-18.21 13.942,-28.517 -3.037,-18.849 C -2.097,-12.383 -1.071,-6.096 0,0" /></g><g
           transform="translate(170.4756,341.3857)"
           id="g108"><path
             id="path110"
             style="fill:#100f0d;fill-opacity:1;fill-rule:nonzero;stroke:none"
             d="m 0,0 10.602,5.987 c 0,0.003 -9.227,5.26 -9.227,5.26 C 0.891,7.548 0.433,3.799 0,0" /></g><g
           transform="translate(169.3213,330.5234)"
           id="g112"><path
             id="path114"
             style="fill:#100f0d;fill-opacity:1;fill-rule:nonzero;stroke:none"
             d="M 0,0 C -0.71,-7.21 -1.321,-14.575 -1.825,-22.08 L 39.099,1.277 20.668,11.773 Z" /></g><g
           transform="translate(198.9902,347.4272)"
           id="g116"><path
             id="path118"
             style="fill:#100f0d;fill-opacity:1;fill-rule:nonzero;stroke:none"
             d="M 0,0 18.207,10.367 36.684,-0.08 18.436,-10.493 Z" /></g><g
           transform="translate(226.2227,362.936)"
           id="g120"><path
             id="path122"
             style="fill:#100f0d;fill-opacity:1;fill-rule:nonzero;stroke:none"
             d="M 0,0 32.367,18.439 C 33.49,12.186 34.519,5.924 35.501,-0.719 L 18.457,-10.444 C 18.457,-10.444 0,0.003 0,0" /></g><g
           transform="translate(249.667,422.2929)"
           id="g124"><path
             id="path126"
             style="fill:#100f0d;fill-opacity:1;fill-rule:nonzero;stroke:none"
             d="m 0,0 c 2.581,-9.865 5.041,-20.639 7.29,-32.195 l -39.514,-22.195 -39.548,22.375 c 2.206,11.485 4.621,22.201 7.164,32.015 h -15.626 v 11.33 h 18.732 c 6.903,23.798 14.46,41.04 21.189,49.336 L -40.31,4.377 c 0,-3.609 3.592,-6.437 8.178,-6.437 4.583,0 8.176,2.828 8.176,6.437 l 0.002,56.02 c 6.497,-8.396 13.948,-25.512 20.823,-49.07 l 19.01,0.003 V 0 Z" /></g><g
           transform="translate(218.0278,259.2011)"
           id="g128"><path
             id="path130"
             style="fill:#100f0d;fill-opacity:1;fill-rule:nonzero;stroke:none"
             d="M 0,0 C -16.953,0 -32.304,-4.486 -34.745,-7.571 -16.552,-76.27 -1.645,-78.255 0,-78.255 c 5.551,0 17.319,9.228 33.799,70.965 C 31.879,-4.291 17.233,0 0,0 M -51.17,38.605 -0.582,67.467 50.156,38.565 C 50.821,26.223 51.181,13.541 51.181,0.607 29.623,-77.065 13.163,-92.921 0.097,-92.921 c -12.415,0 -31.533,18.052 -52.267,93.528 0,12.948 0.35,25.641 1,37.998" /></g></g></g>
          </g></svg>