<?xml version="1.0" encoding="UTF-8" standalone="no"?><!DOCTYPE svg PUBLIC "-//W3C//DTD SVG 1.1//EN" "http://www.w3.org/Graphics/SVG/1.1/DTD/svg11.dtd"><svg width="100%" height="100%" viewBox="0 0 5100 3300" version="1.1" xmlns="http://www.w3.org/2000/svg" xmlns:xlink="http://www.w3.org/1999/xlink" xml:space="preserve" xmlns:serif="http://www.serif.com/" style="fill-rule:evenodd;clip-rule:evenodd;stroke-linejoin:round;stroke-miterlimit:2;"><path id="Layer-1" serif:id="Layer 1" d="M1214,2191.92l0,-241.632l-34.72,-9.955l-0.297,-4.353l924.76,0.018l0,255.922l-889.743,0Zm2587.56,-291.922l-1009.99,0.023l-0,291.899l1009.99,0l-0,-291.922Zm-1398.76,-545.74l-0,-18.804l-5.75,-3.524l-0,-5.196l5.75,-3.799l0.019,-16.612l20.025,-20.689l-0.118,0l11.747,-330.838l-11.305,-0c-1.985,-0 -3.597,-1.612 -3.597,-3.597l0,-12.453l-4.999,-0c-3.741,-0 -6.778,-3.037 -6.778,-6.778l0,-18.287l-2.221,-0c-2.012,-0 -3.645,-1.633 -3.645,-3.645l-0,-27.917c-0,-0.192 0.015,-0.38 0.043,-0.563c-0.029,-0.216 -0.043,-0.432 -0.043,-0.649c-0,-3.764 4.36,-7.381 12.386,-10.75l0,-25.233c-2.407,0.92 -3.707,-5.212 0,-6.629l0,-5.665c0,0 0.698,-2.502 7.144,-4.864c17.794,-6.517 20.312,-2.954 20.312,-2.954l0.019,6.305c6.949,-1.333 14.693,-2.587 23.137,-3.75l0.098,-8.325c0,-0 11.267,-5.6 20.808,-6.25c4.985,-0.34 8.413,-0.456 10.759,-0.442c6.552,0.038 4.662,1.087 4.662,1.087l0,9.878c8.105,-0.726 16.585,-1.384 25.388,-1.966l-0,-20.381l-3.023,0c-0.916,0 -1.66,-0.744 -1.66,-1.66l0,-2.812l-5.56,0c-1.3,0 -2.356,-1.055 -2.356,-2.356l0,-7.304l-3.07,-0c-1.546,-0 -2.802,-1.256 -2.802,-2.802l0,-32.088c0,-0.377 0.075,-0.737 0.21,-1.065c-0.178,-0.177 -0.269,-0.355 -0.269,-0.534c0,-1.653 7.696,-3.187 20.838,-4.454l0,-132.126c-4.997,-1.843 -8.564,-6.65 -8.564,-12.284c-0,-7.224 5.864,-13.088 13.088,-13.088c7.223,-0 13.088,5.864 13.088,13.088c0,5.634 -3.567,10.441 -8.565,12.284l0,131.36c21.723,-1.624 53.411,-2.648 88.673,-2.648c65.434,0 118.558,3.526 118.558,7.868c0,0.165 -0.076,0.329 -0.227,0.491c0.146,0.34 0.227,0.714 0.227,1.108l0,32.088c0,1.546 -1.255,2.802 -2.802,2.802l-3.129,-0l0,7.304c0,1.301 -1.055,2.356 -2.356,2.356l-5.56,0l0,2.812c0,0.916 -0.744,1.66 -1.66,1.66l-3.022,0l-0,20.381c9.096,0.602 17.842,1.284 26.178,2.037l-0,-9.949c-0,0 -1.89,-1.049 4.662,-1.087c2.345,-0.014 5.774,0.102 10.759,0.442c9.541,0.65 20.808,6.25 20.808,6.25l0.099,8.434c8.033,1.118 15.421,2.318 22.079,3.59l0.019,-6.254c-0,-0 2.517,-3.563 20.312,2.954c6.446,2.362 7.144,4.864 7.144,4.864l-0,5.564c4.209,1.591 2.697,7.648 -0,6.628l-0,25.224c8.194,3.399 12.653,7.054 12.653,10.861c-0,0.217 -0.015,0.433 -0.043,0.649c0.028,0.183 0.043,0.371 0.043,0.563l-0,27.917c-0,2.012 -1.633,3.645 -3.645,3.645l-2.222,-0l0,18.287c0,3.741 -3.037,6.778 -6.777,6.778l-5,-0l0,12.453c0,1.985 -1.611,3.597 -3.597,3.597l-11.305,-0l11.748,330.838l-0.136,0l20.043,20.689l0.019,16.612l5.75,3.799l0,5.196l-5.75,3.524l-0,16.978l153.134,31.236l16.249,24.796l0.742,12.277l-3.604,8.817l-3.477,7.511l-2.064,9.55l-4.582,-0.913l0.215,29.081l0.214,16.528l140.944,27.27l16.688,18.836l0,18.368l-0.01,30.927l-11.666,11.59l0.305,26.319l278.936,49.467l-311.023,0l-329.972,191.418l-0,-201.6l-12.922,-8.513l0,536.523l-102.916,0l-0,-575.813l-11.6,-6.495l0,582.308l-546.132,0l0,-594.513l-33.052,-38.556l-0.41,-51.244l19.426,-27.754l148.334,-4.766l-0.185,-41.935l-12.601,-19.267l0.224,-32.551l49.696,-26.467l113.37,-0.609Zm1678.91,567.446l-267.935,-21.706l0.277,291.922l242.947,-0.922l-0,-256.705l24.711,-12.589Zm-1865.08,26.23l-37.977,0l-0,206.382l37.977,0l-0,-206.382Zm362.705,0l-37.977,0l0,206.382l37.977,0l0,-206.382Zm570.101,51.382l-99.098,-0l0,155l99.098,0l-0,-155Zm-193.531,-0l-99.025,-0l-0,155l99.025,0l0,-155Zm387.113,-0l-99.131,-0l-0,155l99.131,0l0,-155Zm193.328,-0l-98.963,-0l0,155l98.963,0l0,-155Zm193.753,-0l-99.141,-0l0,155l99.141,0l0,-155Zm-1860.38,19.585l-86.459,-0l-0,135.415l86.459,0l-0,-135.415Zm169.272,-0l-86.615,-0l0,135.415l86.615,0l-0,-135.415Zm-338.173,-0l-86.605,-0l-0,135.415l86.605,0l0,-135.415Zm-169.122,-0l-86.577,-0l0,135.415l86.577,0l-0,-135.415Zm-169.078,-0l-86.513,-0l-0,135.415l86.513,0l0,-135.415Zm1060.56,-243.075c-13.448,-8.639 -29.293,-13.602 -46.183,-13.602c-45.281,0 -83.053,35.672 -87.281,82.218l-0.053,0l-0,0.61l-0.033,0.39l0.033,0l-0,295.206l42.443,-0l0,-295.206c3.916,-38.763 37.706,-69.912 80.831,-75.26c3.544,1.651 6.964,3.538 10.243,5.644Zm1.815,1.198c-43.21,5.031 -77.141,33.242 -81.616,68.418l0,295.206l120.944,-0l0,-295.206l0.041,0l-0.041,-0.487l0,-0.513l-0.045,0c-2.579,-28.398 -17.645,-52.748 -39.283,-67.418Zm-25.277,207.608l-42.664,-0l0,110.335l42.664,0l0,-110.335Zm57.067,-0l-42.664,-0l-0,110.335l42.664,0l-0,-110.335Zm-417.809,24.104c0,-21.561 -19.36,-39.04 -43.243,-39.04c-23.882,-0 -43.243,17.479 -43.243,39.04l86.486,0Zm-169.272,0c0,-21.561 -19.326,-39.04 -43.165,-39.04c-23.84,-0 -43.166,17.479 -43.166,39.04l86.331,0Zm-168.9,0c-0,-21.561 -19.359,-39.04 -43.239,-39.04c-23.88,-0 -43.239,17.479 -43.239,39.04l86.478,0Zm-169.123,0c0,-21.561 -19.352,-39.04 -43.224,-39.04c-23.872,-0 -43.224,17.479 -43.224,39.04l86.448,0Zm-169.077,0c-0,-21.561 -19.338,-39.04 -43.193,-39.04c-23.855,-0 -43.193,17.479 -43.193,39.04l86.386,0Zm2367.48,-21.055c0,-24.679 -22.161,-44.686 -49.497,-44.686c-27.337,-0 -49.498,20.007 -49.498,44.686l98.995,0Zm-387.081,0c-0,-24.679 -22.159,-44.686 -49.493,-44.686c-27.333,-0 -49.492,20.007 -49.492,44.686l98.985,0Zm-387.113,0c-0,-24.679 -22.135,-44.686 -49.44,-44.686c-27.304,-0 -49.439,20.007 -49.439,44.686l98.879,0Zm193.531,0c-0,-24.679 -22.151,-44.686 -49.476,-44.686c-27.325,-0 -49.476,20.007 -49.476,44.686l98.952,0Zm386.91,0c-0,-24.679 -22.121,-44.686 -49.409,-44.686c-27.287,-0 -49.408,20.007 -49.408,44.686l98.817,0Zm-1179.28,-110.127l-0.001,0.133l0,71.154l42.664,0l0,-71.154c0,-11.34 -9.55,-20.532 -21.332,-20.532c-11.735,-0 -21.257,9.121 -21.331,20.399Zm57.066,0l-0,0.133l-0,71.154l42.664,0l-0,-71.154c-0,-11.34 -9.551,-20.532 -21.332,-20.532c-11.736,-0 -21.258,9.121 -21.332,20.399Zm-1261.96,42.591l951.539,0l0.041,-148.251l-75.949,-29.713l-414.777,-0l-460.854,177.964Zm1970.37,-229.346l610.243,0.729l358.799,219.47l-290.39,-25l-1017.24,0l338.591,-195.199Zm-905.09,57.732l-39.59,-0l0,101.735l39.59,-0l0,-101.735Zm362.706,-0l-39.59,-0l-0,101.735l39.59,-0l-0,-101.735Zm-156.575,27.544c0.446,0.29 0.89,0.584 1.331,0.883c-0.44,-0.298 -0.883,-0.592 -1.331,-0.883Zm-0.372,-0.24l0.35,0.226l-0.146,-0.095l-0.204,-0.131Zm689.207,-208.509l-280.6,-38.662l-0.165,14.477l280.6,38.662l0.165,-14.477Zm-469.579,-47.662l-488.919,-0l0.004,13.5l488.919,-0l-0.004,-13.5Zm331.864,-97.371l-142.885,-19.688l-0.165,10.668l142.885,19.687l0.165,-10.667Zm-347.911,-30.703l-307.81,0l0.004,11.575l307.809,-0l-0.003,-11.575Zm-60.539,-105.956l40.949,0c62.887,0.726 135.9,4.562 206.485,10.184l-375.163,-2.896c0,0 52.893,-6.316 127.729,-7.288Zm243.027,-36.556l-2.303,-210.751c-0,-6.65 -1.01,-19.873 -10.947,-24.303c-5.898,-2.63 -12.598,5.162 -12.651,11.795l0,0.078l0,218.529l25.901,4.652Zm-360.966,-216.89c-0,-0 -3.98,213.11 -3.98,213.11l10.841,-1.781l12.292,-1.86l1.918,-216.538c-0,-3.869 -1.497,-11.643 -9.823,-11.619c-10.63,0.03 -11.248,14.819 -11.248,18.688Zm249.208,-9.697c0,0 0,211.451 0,211.451l41.087,3.761l-0,-211.697l-0.001,-0.128c-0.071,-10.896 -9.241,-23.172 -20.542,-23.172c-11.346,0 -20.544,8.858 -20.544,19.785Zm-195.323,2.763l-0,212.35l22.498,-2.246l20.818,-1.634l0,-208.47c0,-13.278 -9.697,-24.043 -21.658,-24.043c-11.962,0 -21.658,10.765 -21.658,24.043Zm89.24,-2.212c0,-0 0,208.462 0,208.462l28.022,-0.28l28.021,0.433l0,-208.615c0,-15.215 -12.546,-27.549 -28.021,-27.549c-15.476,-0 -28.022,12.334 -28.022,27.549Zm-156.405,-86.282c0,-0 36.055,-5.115 88.464,-9.05c52.41,-3.935 121.174,-6.69 186.593,-1.97l-275.057,11.02Zm-14.925,-25.107c0,0 32.241,-5.666 80.837,-10.152c48.595,-4.487 113.545,-7.793 178.965,-3.073l-259.802,13.225Zm44.751,-77.647l-0.285,24.209c-8.267,1.256 -15.857,2.608 -22.682,4.042l-0.072,-24.516c6.922,-1.327 14.632,-2.576 23.039,-3.735Zm324.434,0.109c7.993,1.113 15.347,2.308 21.982,3.575l-0.073,24.511c-6.536,-1.367 -13.769,-2.66 -21.624,-3.865l-0.285,-24.221Zm-62.584,-6.138c9.096,0.602 17.838,1.283 26.178,2.037l-0,23.699l0.594,0.137c-8.518,-0.851 -17.462,-1.619 -26.772,-2.295l-0,-23.578Zm-200.057,-0l-0,23.578c-8.808,0.64 -17.288,1.361 -25.388,2.158l0,-0l0,-23.77c8.1,-0.725 16.58,-1.383 25.388,-1.966Zm4.787,-34.7c0,0 16.544,-4.717 35.524,-5.909c18.98,-1.193 40.397,1.139 66.144,3.236l-101.668,2.673Z"/><path id="Layer-2" serif:id="Layer 2" d="M1932.63,2343.67c8.036,-8.116 15.429,-12.174 22.18,-12.174c4.018,-0 7.353,1.286 10.005,3.857c2.651,2.572 3.977,5.706 3.977,9.402c0,2.974 -0.904,5.445 -2.712,7.414c-1.808,1.968 -3.917,2.953 -6.328,2.953c-4.581,-0 -7.675,-2.813 -9.282,-8.438c-0.643,-2.411 -1.727,-3.616 -3.254,-3.616c-2.733,-0 -5.706,1.808 -8.92,5.424c3.455,4.741 5.826,8.86 7.112,12.355c1.285,3.496 1.928,7.253 1.928,11.271c0,6.991 -1.687,13.159 -5.062,18.503c-3.376,5.344 -8.981,10.065 -16.816,14.164c-7.835,4.098 -15.329,6.147 -22.481,6.147l-13.139,0c-9.321,0 -15.509,0.964 -18.563,2.893c-3.054,2.009 -4.58,4.942 -4.58,8.8c-0,3.134 1.245,5.544 3.736,7.232c2.492,1.687 7.193,2.531 14.104,2.531l29.773,-0.602c15.028,-0 25.856,2.511 32.486,7.533c6.63,5.023 9.944,11.914 9.944,20.673c0,9.643 -3.777,17.76 -11.33,24.349c-10.528,9.322 -26.238,13.983 -47.132,13.983c-17.277,-0 -30.095,-3.174 -38.452,-9.523c-6.59,-4.982 -9.884,-10.567 -9.884,-16.755c-0,-4.741 2.109,-9.081 6.328,-13.018c4.219,-3.938 11.311,-6.871 21.275,-8.8c-7.955,-1.928 -13.942,-4.761 -17.96,-8.498c-4.018,-3.737 -6.027,-8.377 -6.027,-13.922c-0,-5.143 1.627,-9.623 4.882,-13.441c3.254,-3.817 8.9,-7.091 16.936,-9.824c-6.831,-3.777 -11.974,-8.337 -15.43,-13.681c-3.455,-5.344 -5.183,-11.471 -5.183,-18.382c0,-10.929 4.299,-20.09 12.898,-27.484c8.599,-7.393 19.769,-11.089 33.51,-11.089c5.625,-0 11.05,0.803 16.273,2.411c5.224,1.607 10.286,4.058 15.188,7.352Zm-24.59,106.679c-14.786,-0 -25.334,2.049 -31.642,6.147c-6.308,4.099 -9.462,9.041 -9.462,14.827c-0,5.464 2.37,9.764 7.112,12.898c6.268,4.178 15.188,6.268 26.76,6.268c13.822,-0 24.228,-2.29 31.22,-6.871c6.991,-4.581 10.487,-9.683 10.487,-15.309c-0,-3.294 -1.085,-6.368 -3.255,-9.221c-2.17,-2.853 -5.625,-5.023 -10.366,-6.509c-4.742,-1.487 -11.693,-2.23 -20.854,-2.23Zm1778.59,-164.538l8.317,-17.237l7.594,-0l3.134,71.721l-8.076,0c-5.304,-20.17 -11.974,-35.037 -20.01,-44.6c-9.965,-11.973 -21.858,-17.96 -35.68,-17.96c-14.947,-0 -27.122,6.67 -36.524,20.01c-9.402,13.339 -14.103,35.921 -14.103,67.743c0,26.76 5.384,47.172 16.153,61.235c9.161,11.893 22.018,17.84 38.572,17.84c14.465,-0 26.6,-4.641 36.404,-13.923c9.804,-9.281 16.192,-23.284 19.166,-42.008l8.558,0c-2.491,21.215 -9.764,37.528 -21.818,48.94c-12.054,11.411 -27.242,17.116 -45.564,17.116c-14.867,0 -28.508,-3.736 -40.924,-11.21c-12.415,-7.474 -22.34,-18.222 -29.773,-32.245c-7.433,-14.022 -11.15,-29.391 -11.15,-46.106c-0,-17.76 3.837,-34.435 11.511,-50.025c7.675,-15.59 17.499,-27.302 29.473,-35.137c11.973,-7.835 24.871,-11.753 38.693,-11.753c7.715,0 15.188,1.326 22.421,3.978c7.232,2.652 15.107,7.192 23.626,13.621Zm-2380.47,0l8.318,-17.237l7.594,-0l3.134,71.721l-8.077,0c-5.303,-20.17 -11.973,-35.037 -20.009,-44.6c-9.965,-11.973 -21.858,-17.96 -35.68,-17.96c-14.947,-0 -27.122,6.67 -36.524,20.01c-9.402,13.339 -14.103,35.921 -14.103,67.743c-0,26.76 5.384,47.172 16.152,61.235c9.161,11.893 22.019,17.84 38.573,17.84c14.465,-0 26.599,-4.641 36.403,-13.923c9.804,-9.281 16.193,-23.284 19.166,-42.008l8.559,0c-2.492,21.215 -9.764,37.528 -21.818,48.94c-12.054,11.411 -27.242,17.116 -45.564,17.116c-14.867,0 -28.508,-3.736 -40.924,-11.21c-12.416,-7.474 -22.34,-18.222 -29.773,-32.245c-7.434,-14.022 -11.15,-29.391 -11.15,-46.106c-0,-17.76 3.837,-34.435 11.511,-50.025c7.675,-15.59 17.499,-27.302 29.472,-35.137c11.974,-7.835 24.872,-11.753 38.694,-11.753c7.714,0 15.188,1.326 22.42,3.978c7.233,2.652 15.108,7.192 23.626,13.621Zm1833.5,152.002l4.34,6.75c-5.867,6.027 -12.376,9.04 -19.528,9.04c-5.464,0 -10.065,-1.486 -13.802,-4.46c-3.736,-2.973 -7.011,-8.196 -9.824,-15.67c-7.634,8.036 -14.344,13.4 -20.13,16.092c-5.786,2.692 -12.737,4.038 -20.854,4.038c-11.571,0 -20.371,-2.491 -26.398,-7.473c-6.027,-4.982 -9.04,-11.371 -9.04,-19.166c-0,-11.733 6.89,-21.476 20.672,-29.231c13.782,-7.755 32.124,-12.918 55.027,-15.49l-0,-17.116c-0,-6.108 -2.451,-11.331 -7.353,-15.671c-4.902,-4.339 -11.13,-6.509 -18.684,-6.509c-6.991,0 -13.018,1.447 -18.081,4.34c-3.616,2.169 -5.424,4.299 -5.424,6.388c-0,1.206 0.964,3.094 2.893,5.666c2.33,3.214 3.495,6.067 3.495,8.558c0,3.616 -1.165,6.57 -3.495,8.86c-2.331,2.29 -5.384,3.435 -9.161,3.435c-4.018,0 -7.373,-1.366 -10.065,-4.098c-2.692,-2.732 -4.039,-6.228 -4.039,-10.487c0,-7.956 4.481,-15.228 13.441,-21.818c8.96,-6.59 20.713,-9.884 35.258,-9.884c13.42,-0 23.666,2.893 30.738,8.679c7.071,5.866 10.607,12.978 10.607,21.335l0,61.717c0,5.465 0.884,9.483 2.652,12.054c1.768,2.652 4.058,3.978 6.871,3.978c3.134,-0 6.429,-1.286 9.884,-3.857Zm-1675.59,-0l4.34,6.75c-5.867,6.027 -12.376,9.04 -19.528,9.04c-5.464,0 -10.065,-1.486 -13.802,-4.46c-3.737,-2.973 -7.011,-8.196 -9.824,-15.67c-7.634,8.036 -14.344,13.4 -20.13,16.092c-5.786,2.692 -12.737,4.038 -20.854,4.038c-11.572,0 -20.371,-2.491 -26.398,-7.473c-6.027,-4.982 -9.041,-11.371 -9.041,-19.166c0,-11.733 6.891,-21.476 20.673,-29.231c13.782,-7.755 32.124,-12.918 55.027,-15.49l-0,-17.116c-0,-6.108 -2.451,-11.331 -7.353,-15.671c-4.902,-4.339 -11.13,-6.509 -18.684,-6.509c-6.991,0 -13.018,1.447 -18.081,4.34c-3.616,2.169 -5.424,4.299 -5.424,6.388c-0,1.206 0.964,3.094 2.893,5.666c2.33,3.214 3.495,6.067 3.495,8.558c0,3.616 -1.165,6.57 -3.495,8.86c-2.331,2.29 -5.384,3.435 -9.161,3.435c-4.018,0 -7.373,-1.366 -10.066,-4.098c-2.692,-2.732 -4.038,-6.228 -4.038,-10.487c0,-7.956 4.48,-15.228 13.441,-21.818c8.96,-6.59 20.712,-9.884 35.258,-9.884c13.42,-0 23.666,2.893 30.738,8.679c7.071,5.866 10.607,12.978 10.607,21.335l0,61.717c0,5.465 0.884,9.483 2.652,12.054c1.768,2.652 4.058,3.978 6.871,3.978c3.134,-0 6.429,-1.286 9.884,-3.857Zm369.471,-43.274l-80.882,-0c0.401,17.197 3.616,29.331 9.643,36.403c6.911,7.955 15.71,11.933 26.398,11.933c15.751,0 28.407,-8.96 37.97,-26.88l7.836,3.375c-11.733,22.822 -28.689,34.233 -50.869,34.233c-15.107,0 -27.824,-5.464 -38.151,-16.393c-10.326,-10.929 -15.489,-24.912 -15.489,-41.948c-0,-18.322 5.083,-33.129 15.248,-44.419c10.166,-11.291 22.682,-16.936 37.549,-16.936c10.929,-0 20.371,2.812 28.327,8.438c7.955,5.625 13.942,13.701 17.96,24.228c2.813,7.393 4.299,16.715 4.46,27.966Zm327.605,-0l-80.883,-0c0.402,17.197 3.617,29.331 9.644,36.403c6.911,7.955 15.71,11.933 26.398,11.933c15.751,0 28.407,-8.96 37.97,-26.88l7.835,3.375c-11.732,22.822 -28.688,34.233 -50.868,34.233c-15.107,0 -27.824,-5.464 -38.151,-16.393c-10.326,-10.929 -15.489,-24.912 -15.489,-41.948c-0,-18.322 5.083,-33.129 15.248,-44.419c10.166,-11.291 22.682,-16.936 37.549,-16.936c10.929,-0 20.371,2.812 28.327,8.438c7.955,5.625 13.942,13.701 17.96,24.228c2.813,7.393 4.299,16.715 4.46,27.966Zm339.399,-0l-80.883,-0c0.402,17.197 3.616,29.331 9.643,36.403c6.911,7.955 15.711,11.933 26.399,11.933c15.75,0 28.407,-8.96 37.97,-26.88l7.835,3.375c-11.733,22.822 -28.689,34.233 -50.868,34.233c-15.108,0 -27.825,-5.464 -38.151,-16.393c-10.326,-10.929 -15.49,-24.912 -15.49,-41.948c0,-18.322 5.083,-33.129 15.249,-44.419c10.165,-11.291 22.682,-16.936 37.548,-16.936c10.929,-0 20.372,2.812 28.327,8.438c7.956,5.625 13.943,13.701 17.961,24.228c2.812,7.393 4.299,16.715 4.46,27.966Zm912.573,-60.632c15.188,-0 27.946,5.484 38.272,16.453c10.326,10.97 15.489,25.414 15.489,43.335c0,12.375 -2.31,22.923 -6.931,31.642c-4.621,8.719 -11.21,15.61 -19.768,20.672c-8.559,5.063 -17.78,7.594 -27.664,7.594c-14.626,0 -27.022,-5.544 -37.187,-16.634c-10.166,-11.09 -15.249,-25.474 -15.249,-43.154c0,-17.759 5.103,-32.184 15.309,-43.274c10.206,-11.089 22.782,-16.634 37.729,-16.634Zm-808.788,82.811l7.835,2.29c-6.268,23.064 -20.09,34.595 -41.466,34.595c-15.67,0 -28.487,-5.183 -38.452,-15.549c-9.965,-10.367 -14.947,-24.149 -14.947,-41.346c-0,-19.929 5.464,-35.378 16.393,-46.348c10.929,-10.969 23.787,-16.453 38.573,-16.453c11.09,-0 20.251,3.053 27.484,9.161c7.232,6.107 10.848,12.898 10.848,20.371c0,4.5 -1.346,8.217 -4.038,11.15c-2.692,2.933 -5.886,4.4 -9.583,4.4c-3.616,-0 -6.67,-1.246 -9.161,-3.737c-2.491,-2.491 -3.737,-5.505 -3.737,-9.04c0,-3.536 1.366,-6.911 4.099,-10.126c1.285,-1.527 1.928,-2.732 1.928,-3.616c0,-2.331 -1.567,-4.601 -4.701,-6.811c-3.134,-2.21 -7.393,-3.314 -12.777,-3.314c-9.804,-0 -17.237,3.576 -22.3,10.728c-7.232,10.366 -10.849,24.027 -10.849,40.983c0,16.153 3.215,28.388 9.644,36.705c6.428,8.317 14.625,12.476 24.59,12.476c13.741,-0 23.947,-8.84 30.617,-26.519Zm235.903,-144.769l92.093,-0c17.84,-0 31.682,4.058 41.526,12.174c9.844,8.117 14.766,18.765 14.766,31.944c0,7.875 -1.949,14.886 -5.846,21.034c-3.898,6.148 -9.523,11.05 -16.876,14.706c-7.353,3.656 -18.905,6.288 -34.655,7.895c11.491,3.134 19.407,6.208 23.746,9.222c4.34,3.013 7.815,6.911 10.427,11.692c2.612,4.782 5.605,14.525 8.98,29.231c2.411,10.527 4.983,17.72 7.715,21.577c2.089,2.973 4.339,4.46 6.75,4.46c2.491,-0 4.802,-1.828 6.931,-5.485c2.13,-3.656 3.436,-10.105 3.918,-19.346l8.196,-0c-1.526,27.322 -11.612,40.983 -30.255,40.983c-5.866,0 -10.949,-1.486 -15.249,-4.46c-4.299,-2.973 -7.533,-7.353 -9.703,-13.139c-1.688,-4.339 -3.576,-15.71 -5.665,-34.112c-1.206,-10.688 -3.114,-18.282 -5.726,-22.783c-2.612,-4.5 -6.69,-8.116 -12.235,-10.848c-5.545,-2.733 -12.175,-4.099 -19.889,-4.099l-14.586,0l0,70.034c0,2.974 0.764,5.063 2.291,6.268c1.928,1.527 4.942,2.291 9.04,2.291l17.117,-0l-0,9.04l-82.811,0l-0,-9.04l17.478,-0c3.857,-0 6.69,-0.764 8.498,-2.291c1.808,-1.526 2.712,-3.616 2.712,-6.268l0,-142.478c0,-3.054 -0.924,-5.344 -2.772,-6.871c-1.848,-1.527 -4.661,-2.291 -8.438,-2.291l-17.478,0l-0,-9.04Zm369.046,-0l44.118,-2.049l0,154.533c0,6.027 1.145,10.326 3.436,12.897c2.29,2.572 5.725,3.858 10.306,3.858l7.835,-0l0,9.04l-38.573,0l-2.893,-23.023c-4.58,8.197 -9.945,14.364 -16.092,18.503c-6.148,4.139 -13.039,6.208 -20.673,6.208c-12.857,-0 -23.807,-5.384 -32.847,-16.153c-9.041,-10.768 -13.561,-24.992 -13.561,-42.671c0,-19.126 5.786,-34.394 17.358,-45.805c9.081,-8.92 19.528,-13.38 31.34,-13.38c7.233,-0 13.722,1.808 19.468,5.424c5.746,3.616 10.748,9.081 15.007,16.394l0,-63.766c0,-3.376 -1.306,-6.048 -3.917,-8.016c-2.612,-1.969 -6.69,-2.954 -12.235,-2.954l-8.077,0l0,-9.04Zm764.613,-2.049l-0,83.896c4.741,-6.67 10.005,-11.652 15.791,-14.947c5.786,-3.295 12.094,-4.942 18.925,-4.942c13.259,-0 24.469,5.183 33.63,15.549c9.161,10.367 13.742,24.028 13.742,40.984c-0,18.403 -4.922,33.249 -14.766,44.54c-9.844,11.291 -22.039,16.936 -36.584,16.936c-6.911,-0 -13.179,-1.366 -18.805,-4.099c-5.625,-2.732 -11.411,-7.353 -17.357,-13.862c-4.581,7.313 -9.001,13.3 -13.26,17.961l-4.822,-1.688c2.251,-9.241 3.376,-18.884 3.376,-28.929l-0,-127.653c-0,-3.937 -1.387,-7.031 -4.159,-9.281c-2.772,-2.251 -6.69,-3.376 -11.753,-3.376l-5.062,0l-0,-9.04l41.104,-2.049Zm-137.185,65.333l0,74.855c0,9.161 2.311,16.233 6.931,21.215c4.621,4.983 10.588,7.474 17.901,7.474c9,-0 16.654,-3.636 22.962,-10.909c6.309,-7.273 9.463,-16.373 9.463,-27.302l-0,-42.31c-0,-3.857 -1.386,-6.851 -4.159,-8.98c-2.772,-2.13 -8.096,-3.315 -15.971,-3.556l-0,-8.438l39.657,-2.049l0,92.695c0,4.259 1.206,7.534 3.617,9.824c2.41,2.291 5.786,3.436 10.125,3.436l7.112,-0l-0,8.076l-37.97,0.964l-2.411,-22.3c-6.75,7.956 -13.541,13.943 -20.371,17.961c-6.831,4.018 -13.742,6.027 -20.733,6.027c-10.206,-0 -18.765,-3.415 -25.676,-10.246c-6.991,-6.75 -10.487,-18.202 -10.487,-34.354l0,-49.06c0,-4.34 -1.727,-7.634 -5.183,-9.884c-2.411,-1.608 -7.353,-2.492 -14.826,-2.652l-0,-8.438l40.019,-2.049Zm-64.016,-65.333l-0,163.694c-0,2.25 0.683,3.978 2.049,5.183c2.009,1.607 4.46,2.411 7.353,2.411l11.933,-0l0,9.04l-63.886,0l-0,-9.04l11.331,-0c3.696,-0 6.448,-0.884 8.257,-2.652c1.808,-1.768 2.712,-4.259 2.712,-7.474l-0,-137.416c-0,-4.018 -1.085,-6.951 -3.255,-8.799c-2.973,-2.572 -6.63,-3.858 -10.969,-3.858l-10.125,0l-0,-9.04l44.6,-2.049Zm-2190.96,67.382l37.488,-2.29c1.527,7.071 2.652,15.348 3.375,24.831c5.063,-8.197 11.03,-14.344 17.901,-18.443c6.871,-4.098 14.645,-6.147 23.324,-6.147c7.474,-0 13.742,1.466 18.805,4.399c5.062,2.934 9.121,7.574 12.174,13.923c3.054,6.348 4.581,13.46 4.581,21.335l-0,54.967c-0,4.098 0.924,7.011 2.772,8.739c1.849,1.728 4.942,2.592 9.282,2.592l7.956,-0l-0,9.04l-59.547,0l-0,-9.04l5.665,-0c5.304,-0 9,-0.844 11.09,-2.532c2.089,-1.687 3.134,-4.219 3.134,-7.594l-0,-48.336c-0,-10.528 -1.608,-18.323 -4.822,-23.385c-4.5,-7.233 -11.331,-10.849 -20.492,-10.849c-9.081,0 -16.654,3.656 -22.722,10.969c-6.067,7.313 -9.101,16.836 -9.101,28.568l0,41.828c0,4.098 0.945,7.011 2.833,8.739c1.889,1.728 5.003,2.592 9.342,2.592l7.835,-0l0,9.04l-59.788,0l0,-9.04l7.835,-0c3.938,-0 6.931,-0.804 8.981,-2.411c2.049,-1.607 3.073,-3.616 3.073,-6.027l0,-72.927c0,-4.822 -1.306,-8.478 -3.917,-10.969c-2.612,-2.491 -6.369,-3.737 -11.271,-3.737l-5.786,-0l0,-7.835Zm398.483,-0l44.841,-1.326l0,97.156c0,2.651 0.643,4.54 1.929,5.665c1.848,1.607 4.178,2.411 6.991,2.411l12.777,-0l0,9.04l-64.127,0l-0,-9.04l11.933,-0c3.536,-0 6.128,-0.864 7.775,-2.592c1.648,-1.728 2.471,-4.239 2.471,-7.534l0,-71.119c0,-4.5 -1.285,-7.895 -3.857,-10.185c-2.572,-2.29 -6.389,-3.436 -11.451,-3.436l-9.282,0l0,-9.04Zm639.554,-65.333l42.792,-2.049l-0,87.03c5.947,-7.715 12.335,-13.481 19.166,-17.298c6.831,-3.817 14.063,-5.725 21.697,-5.725c7.233,-0 13.742,1.727 19.528,5.183c4.5,2.732 8.337,7.514 11.511,14.344c3.175,6.831 4.762,14.907 4.762,24.229l-0,53.64c-0,3.456 0.884,5.967 2.652,7.534c1.768,1.567 4.54,2.351 8.317,2.351l9.643,-0l0,9.04l-60.993,0l-0,-9.04l6.75,-0c5.143,-0 8.699,-0.824 10.668,-2.471c1.969,-1.648 2.953,-4.119 2.953,-7.414l0,-53.64c0,-9.402 -2.27,-16.735 -6.811,-21.999c-4.54,-5.263 -10.346,-7.895 -17.418,-7.895c-5.544,-0 -10.688,1.487 -15.429,4.46c-4.741,2.973 -8.759,7.493 -12.054,13.561c-3.295,6.067 -4.942,12.476 -4.942,19.226l-0,45.082c-0,4.018 0.844,6.871 2.531,8.558c1.688,1.688 4.46,2.532 8.318,2.532l9.643,-0l-0,9.04l-59.668,0l0,-9.04l6.751,-0c4.58,-0 7.835,-0.904 9.763,-2.712c1.929,-1.809 2.893,-4.601 2.893,-8.378l0,-134.764c0,-4.822 -1.265,-8.418 -3.797,-10.789c-2.531,-2.37 -6.208,-3.556 -11.029,-3.556l-8.197,0l0,-9.04Zm-374.717,-0l144.649,-0l3.495,67.382l-8.317,0c-5.464,-39.618 -19.769,-59.426 -42.912,-59.426c-4.661,-0 -7.856,0.803 -9.583,2.41c-1.728,1.608 -2.592,4.259 -2.592,7.956l0,142.479c0,2.893 0.844,5.022 2.531,6.389c1.688,1.366 4.46,2.049 8.318,2.049l17.96,-0l0,9.04l-82.811,0l-0,-9.04l20.492,-0c2.732,-0 4.821,-0.683 6.268,-2.049c1.446,-1.367 2.17,-3.175 2.17,-5.425l-0,-144.528c-0,-3.054 -0.924,-5.364 -2.773,-6.931c-1.848,-1.567 -4.821,-2.35 -8.92,-2.35c-11.652,-0 -21.376,5.504 -29.171,16.514c-6.428,9.08 -11.049,23.384 -13.862,42.912l-8.799,0l3.857,-67.382Zm1039.81,65.333l44.841,-1.326l0,97.156c0,2.651 0.643,4.54 1.929,5.665c1.848,1.607 4.179,2.411 6.991,2.411l12.778,-0l-0,9.04l-64.128,0l0,-9.04l11.934,-0c3.536,-0 6.127,-0.864 7.775,-2.592c1.647,-1.728 2.471,-4.239 2.471,-7.534l-0,-71.119c-0,-4.5 -1.286,-7.895 -3.858,-10.185c-2.571,-2.29 -6.388,-3.436 -11.451,-3.436l-9.282,0l0,-9.04Zm-1809.57,-0l40.622,-2.049l0,45.684c4.34,-15.027 9.563,-26.398 15.671,-34.112c6.107,-7.715 13.661,-11.572 22.661,-11.572c6.108,-0 10.989,1.868 14.646,5.605c3.656,3.737 5.484,8.739 5.484,15.007c0,5.063 -1.225,9 -3.676,11.813c-2.451,2.813 -5.525,4.219 -9.221,4.219c-3.617,-0 -6.53,-1.205 -8.74,-3.616c-2.209,-2.411 -3.314,-5.666 -3.314,-9.764c-0,-2.652 0.642,-5.143 1.928,-7.474c1.206,-2.089 1.808,-3.335 1.808,-3.736c0,-1.206 -0.763,-1.808 -2.29,-1.808c-3.295,-0 -7.031,1.928 -11.21,5.786c-5.786,5.384 -10.246,12.777 -13.38,22.179c-4.822,14.626 -7.233,26.318 -7.233,35.077l0,24.229c0,2.732 0.965,4.822 2.893,6.268c1.929,1.446 5.224,2.17 9.885,2.17l14.344,-0l0,9.04l-70.155,0l0,-9.04l11.211,-0c3.777,-0 6.629,-0.744 8.558,-2.23c1.929,-1.487 2.893,-3.275 2.893,-5.364l0,-71.963c0,-5.464 -1.165,-9.462 -3.496,-11.994c-2.33,-2.531 -5.665,-3.797 -10.004,-3.797l-9.885,0l0,-8.558Zm1937.83,5.183c-9,0 -16.393,4.078 -22.179,12.235c-5.786,8.157 -8.679,21.034 -8.679,38.633c-0,17.921 2.873,31.019 8.619,39.296c5.745,8.277 13.159,12.416 22.239,12.416c9.402,0 17.017,-4.139 22.843,-12.416c5.826,-8.277 8.739,-21.817 8.739,-40.622c-0,-17.438 -2.873,-30.055 -8.619,-37.849c-5.746,-7.795 -13.4,-11.693 -22.963,-11.693Zm-1988.59,47.734c-20.412,2.813 -34.877,7.393 -43.395,13.742c-6.348,4.821 -9.522,11.652 -9.522,20.492c-0,6.187 1.647,11.029 4.942,14.525c3.294,3.495 7.594,5.243 12.898,5.243c9.482,0 17.699,-3.596 24.65,-10.788c6.951,-7.192 10.427,-16.213 10.427,-27.061l-0,-16.153Zm1675.59,0c-20.412,2.813 -34.876,7.393 -43.395,13.742c-6.348,4.821 -9.522,11.652 -9.522,20.492c-0,6.187 1.647,11.029 4.942,14.525c3.295,3.495 7.594,5.243 12.898,5.243c9.482,0 17.699,-3.596 24.65,-10.788c6.951,-7.192 10.427,-16.213 10.427,-27.061l-0,-16.153Zm904.15,-45.685c-9.081,0 -16.474,3.958 -22.179,11.874c-5.706,7.915 -8.559,20.994 -8.559,39.235c0,17.358 2.813,29.774 8.438,37.247c5.625,7.474 12.978,11.211 22.059,11.211c8.197,-0 14.786,-3.697 19.769,-11.09c6.268,-9.322 9.402,-22.621 9.402,-39.899c-0,-17.036 -2.753,-29.392 -8.257,-37.066c-5.505,-7.675 -12.396,-11.512 -20.673,-11.512Zm-801.98,-0.602c-8.679,-0 -15.57,3.576 -20.673,10.728c-5.102,7.152 -7.654,19.206 -7.654,36.162c0,18.402 2.612,31.36 7.835,38.874c5.224,7.514 11.934,11.271 20.13,11.271c8.76,-0 16.253,-4.199 22.481,-12.597c6.228,-8.397 9.342,-20.673 9.342,-36.825c0,-15.268 -3.335,-27.282 -10.005,-36.042c-5.786,-7.714 -12.938,-11.571 -21.456,-11.571Zm-1301.36,-2.291c-7.152,0 -13.058,2.632 -17.719,7.896c-4.661,5.263 -6.992,12.636 -6.992,22.119c0,10.125 2.331,17.98 6.992,23.566c4.661,5.585 10.607,8.377 17.84,8.377c7.232,0 13.159,-2.712 17.779,-8.136c4.621,-5.425 6.931,-13.2 6.931,-23.325c0,-9.402 -2.35,-16.835 -7.051,-22.3c-4.701,-5.464 -10.628,-8.197 -17.78,-8.197Zm-148.269,44.359l48.939,0c2.893,0 5.143,-0.984 6.75,-2.953c1.607,-1.969 2.411,-5.324 2.411,-10.065c0,-8.84 -2.752,-16.354 -8.257,-22.541c-5.505,-6.188 -11.994,-9.282 -19.467,-9.282c-8.358,0 -15.45,3.737 -21.276,11.21c-5.826,7.474 -8.859,18.684 -9.1,33.631Zm327.604,0l48.94,0c2.893,0 5.143,-0.984 6.75,-2.953c1.607,-1.969 2.411,-5.324 2.411,-10.065c-0,-8.84 -2.752,-16.354 -8.257,-22.541c-5.505,-6.188 -11.994,-9.282 -19.467,-9.282c-8.358,0 -15.45,3.737 -21.276,11.21c-5.826,7.474 -8.859,18.684 -9.101,33.631Zm339.399,0l48.94,0c2.892,0 5.143,-0.984 6.75,-2.953c1.607,-1.969 2.411,-5.324 2.411,-10.065c-0,-8.84 -2.753,-16.354 -8.257,-22.541c-5.505,-6.188 -11.994,-9.282 -19.468,-9.282c-8.357,0 -15.449,3.737 -21.275,11.21c-5.826,7.474 -8.86,18.684 -9.101,33.631Zm474.934,-32.064l21.095,0c14.143,0 25.213,-2.672 33.209,-8.016c7.996,-5.343 11.994,-14.846 11.994,-28.507c-0,-9.403 -1.507,-16.836 -4.521,-22.3c-3.013,-5.465 -6.971,-9.202 -11.873,-11.211c-4.902,-2.009 -14.545,-3.013 -28.93,-3.013c-9.482,-0 -15.348,0.663 -17.598,1.989c-2.251,1.326 -3.376,3.596 -3.376,6.81l0,64.248Zm421.482,-84.016c3.617,-0 6.791,1.366 9.523,4.098c2.732,2.732 4.098,5.947 4.098,9.643c0,3.617 -1.326,6.751 -3.977,9.402c-2.652,2.652 -5.827,3.978 -9.523,3.978c-3.697,0 -6.891,-1.346 -9.583,-4.038c-2.692,-2.692 -4.038,-5.846 -4.038,-9.462c-0,-3.616 1.366,-6.791 4.098,-9.523c2.732,-2.732 5.866,-4.098 9.402,-4.098Zm-1304.65,-0c3.616,-0 6.79,1.366 9.523,4.098c2.732,2.732 4.098,5.947 4.098,9.643c0,3.617 -1.326,6.751 -3.978,9.402c-2.652,2.652 -5.826,3.978 -9.522,3.978c-3.697,0 -6.891,-1.346 -9.583,-4.038c-2.692,-2.692 -4.039,-5.846 -4.039,-9.462c0,-3.616 1.367,-6.791 4.099,-9.523c2.732,-2.732 5.866,-4.098 9.402,-4.098Zm111.736,-1296.47l10.878,-22.546l9.933,0l4.099,93.808l-10.563,-0c-6.937,-26.382 -15.661,-45.827 -26.172,-58.334c-13.033,-15.661 -28.589,-23.491 -46.667,-23.491c-19.55,-0 -35.473,8.723 -47.771,26.171c-12.297,17.448 -18.446,46.982 -18.446,88.605c0,35 7.042,61.697 21.126,80.091c11.983,15.555 28.8,23.333 50.451,23.333c18.92,0 34.791,-6.07 47.614,-18.21c12.823,-12.139 21.178,-30.454 25.067,-54.944l11.194,0c-3.258,27.748 -12.77,49.085 -28.536,64.01c-15.766,14.925 -35.631,22.388 -59.595,22.388c-19.445,-0 -37.287,-4.888 -53.526,-14.663c-16.239,-9.775 -29.219,-23.833 -38.942,-42.174c-9.722,-18.341 -14.583,-38.442 -14.583,-60.304c-0,-23.229 5.019,-45.038 15.056,-65.429c10.038,-20.391 22.887,-35.71 38.548,-45.958c15.661,-10.248 32.53,-15.372 50.609,-15.372c10.09,0 19.865,1.735 29.324,5.203c9.46,3.469 19.76,9.407 30.902,17.816Zm-421.424,-18.131l98.222,-0l-0,11.824l-17.027,0c-7.043,0 -11.825,0.841 -14.347,2.523c-2.523,1.682 -3.784,3.941 -3.784,6.779c-0,2.207 0.946,5.413 2.838,9.617l1.261,3.311l61.329,156.241l54.393,-149.146c1.051,-2.943 1.577,-6.517 1.577,-10.721c-0,-5.886 -1.708,-10.458 -5.124,-13.716c-3.416,-3.259 -8.12,-4.888 -14.111,-4.888l-15.924,0l0,-11.824l86.083,-0l-0,11.824l-6.938,0c-5.255,0 -10.484,2.47 -15.687,7.41c-5.202,4.94 -9.906,13.086 -14.11,24.438l-72.208,195.024l-11.509,0l-82.299,-208.426c-2.837,-6.937 -6.122,-11.745 -9.853,-14.425c-3.732,-2.681 -8.803,-4.021 -15.214,-4.021l-7.568,0l-0,-11.824Zm-489.375,-0l77.884,-0l-0,11.824l-5.518,0c-8.199,0 -13.428,0.631 -15.687,1.892c-2.26,1.262 -3.39,3.259 -3.39,5.991c-0,1.892 0.788,4.888 2.365,8.987l0.946,2.995l47.455,148.043l41.622,-136.691c-4.834,-15.556 -8.539,-24.648 -11.115,-27.275c-2.575,-2.628 -7.699,-3.942 -15.371,-3.942l-14.19,0l0,-11.824l97.276,-0l0,11.824l-10.09,0c-8.829,0 -14.557,0.71 -17.185,2.129c-2.628,1.419 -3.941,3.547 -3.941,6.385c-0,2.207 0.315,4.257 0.946,6.149l48.401,153.245l39.73,-132.592c1.577,-5.15 2.365,-10.09 2.365,-14.82c0,-7.042 -1.603,-12.219 -4.809,-15.529c-3.205,-3.311 -8.014,-4.967 -14.425,-4.967l-7.253,0l0,-11.824l73.154,-0l0,11.824c-6.411,0.841 -11.509,2.391 -15.293,4.651c-3.784,2.26 -7.068,5.492 -9.853,9.696c-2.786,4.205 -5.597,11.194 -8.435,20.969l-57.388,191.556l-11.036,0l-53.92,-171.06l-51.082,171.06l-11.824,0l-65.586,-207.007c-2.628,-8.093 -5.597,-13.427 -8.908,-16.002c-3.311,-2.575 -8.593,-3.863 -15.845,-3.863l0,-11.824Zm424.735,116.668c15.03,3.679 26.749,9.775 35.158,18.288c10.721,10.826 16.081,24.227 16.081,40.203c-0,18.079 -6.412,32.583 -19.235,43.514c-14.609,12.613 -33.634,18.92 -57.072,18.92c-14.084,-0 -26.198,-2.313 -36.341,-6.937c-10.142,-4.625 -17.736,-10.879 -22.782,-18.762c-5.045,-7.883 -7.567,-16.764 -7.567,-26.644c-0,-7.988 1.944,-14.295 5.833,-18.919c3.889,-4.625 8.777,-6.937 14.663,-6.937c5.36,-0 9.669,1.76 12.928,5.281c3.258,3.521 4.887,8.33 4.887,14.426c0,3.889 -0.841,7.173 -2.522,9.854c-1.682,2.68 -4.625,5.176 -8.829,7.489c-4.52,2.417 -6.78,4.729 -6.78,6.937c0,3.153 1.603,6.7 4.809,10.642c3.206,3.941 7.935,7.094 14.189,9.459c6.254,2.365 14.163,3.547 23.728,3.547c16.502,0 28.72,-4.072 36.656,-12.218c7.935,-8.146 11.903,-21.205 11.903,-39.179c0,-18.814 -3.39,-32.188 -10.169,-40.124c-6.779,-7.935 -16.843,-11.903 -30.192,-11.903c-3.573,-0 -8.04,0.42 -13.401,1.261c-4.309,0.631 -7.41,0.946 -9.302,0.946c-3.153,0 -5.597,-0.657 -7.331,-1.971c-1.734,-1.313 -2.601,-2.969 -2.601,-4.966c-0,-2.207 0.814,-3.915 2.443,-5.124c1.63,-1.209 4.284,-1.813 7.962,-1.813l8.672,0.315l7.567,0.316c13.349,-0 23.386,-3.416 30.113,-10.248c6.727,-6.832 10.09,-17.395 10.09,-31.69c0,-17.552 -3.205,-30.034 -9.617,-37.444c-6.411,-7.41 -15.976,-11.115 -28.694,-11.115c-11.667,0 -20.969,2.102 -27.906,6.307c-6.937,4.204 -10.405,8.093 -10.405,11.666c-0,2.313 1.997,5.413 5.991,9.302c5.676,5.256 8.514,10.721 8.514,16.397c-0,4.309 -1.577,7.935 -4.73,10.878c-3.153,2.943 -7.2,4.415 -12.14,4.415c-5.255,-0 -9.538,-1.997 -12.849,-5.991c-3.311,-3.994 -4.967,-9.565 -4.967,-16.712c0,-11.141 3.994,-21.021 11.983,-29.64c11.351,-12.192 27.59,-18.289 48.716,-18.289c19.76,0 35.526,5.308 47.298,15.924c11.772,10.616 17.658,23.754 17.658,39.415c-0,11.246 -3.179,20.969 -9.538,29.167c-6.359,8.198 -17.317,15.45 -32.872,21.757Zm370.202,-304.964l125.972,-40.914l-25.363,33.248l162.317,-67.005l-18.159,26.864l196.63,-104.981l-138.338,47.884l35.323,-35.547l-149.747,54.954l28.912,-27.105l-217.547,112.602Zm610.998,-158.216l193.26,64.509l-18.918,-20.03l163.265,37.906l-27.897,-23.856l126.371,20.432l-223.773,-70.325l28.957,18.936l-146.551,-28.718l35.08,24.476l-129.794,-23.33Zm380.366,-219.156l-263.693,76.415l38.42,6.025l-102.447,36.175l36.22,3.743l-88.866,48.061l212.308,-57.877l-35.654,-0.775l115.071,-47.965l-32.253,-0.895l120.894,-62.907Zm-995.277,66.71l148.355,41.509l-36.307,6.357l132.061,27.049l-37.057,7.294l240.814,21.5l-104.584,-32.922l39.358,-9.492l-117.478,-18.547l41.643,-11.751l-306.805,-30.997Z" style="fill:#ee2d2e;"/></svg>