<svg xmlns="http://www.w3.org/2000/svg" xmlns:xlink="http://www.w3.org/1999/xlink" version="1.1" viewBox="206 176.25 220.98 368.25"><g><text fill="#000" font-family="Century" font-size="78" transform="matrix(1,0,-0,1,206,527.5)" xml:space="preserve"><tspan>W3VC</tspan></text><g><g><g><path fill="none" stroke="#000" stroke-width="2" d="M295,213.5 L267.25,202.25"/><path fill="none" stroke="#000" stroke-width="2" d="M280,202.175 L267.25,202.25"/><path fill="none" stroke="#000" stroke-width="2" d="M280,202.175 L255,191.25"/><path fill="none" stroke="#000" stroke-width="2" d="M267.25,191.243 L255,191.25"/><path fill="none" stroke="#000" stroke-width="2" d="M267.25,191.232 L215.5,179"/><path fill="none" stroke="#000" stroke-width="2" d="M234.75,189.25 L215.5,179"/><path fill="none" stroke="#000" stroke-width="2" d="M234.75,189.25 L226.5,189.251"/><path fill="none" stroke="#000" stroke-width="2" d="M259,202.25 L226.5,189.251"/><path fill="none" stroke="#000" stroke-width="2" d="M259,202.25 L247.75,202.25"/><path fill="none" stroke="#000" stroke-width="2" d="M295,213.5 L247.75,202.25"/></g><path fill="none" stroke="#000" stroke-width="3" d="M222.75,181.75 L259,190.75"/><path fill="none" stroke="#000" stroke-width="3" d="M227.438,183.938 L256,191.875"/><path fill="none" stroke="#000" stroke-width="3" d="M231.812,186.812 L265.188,196.938"/><path fill="none" stroke="#000" stroke-width="3" d="M231.625,189.625 L269.375,198.812"/><path fill="none" stroke="#000" stroke-width="3" d="M237.125,192.25 L275.5,201.062"/><path fill="none" stroke="#000" stroke-width="3" d="M244.875,195.625 L270.375,201.312"/><path fill="none" stroke="#000" stroke-width="3" d="M253.875,198.812 L270.812,204.625"/><path fill="none" stroke="#000" stroke-width="3" d="M255.5,201.75 L283.375,209.938"/></g><g><g><path fill="#000" stroke="#000" stroke-width="2" d="M341.25,213.5 L366.471,201.676"/><path fill="#000" stroke="#000" stroke-width="2" d="M354.875,201.597 L366.471,201.676"/><path fill="#000" stroke="#000" stroke-width="2" d="M354.875,201.601 L377.608,190.118"/><path fill="#000" stroke="#000" stroke-width="2" d="M366.471,190.114 L377.608,190.118"/><path fill="#000" stroke="#000" stroke-width="2" d="M366.471,190.1 L413.5,177.25"/><path fill="#000" stroke="#000" stroke-width="2" d="M395.994,188.016 L413.5,177.25"/><path fill="#000" stroke="#000" stroke-width="2" d="M395.994,188.016 L403.49,188.021"/><path fill="#000" stroke="#000" stroke-width="2" d="M373.968,201.676 L403.49,188.021"/><path fill="#000" stroke="#000" stroke-width="2" d="M373.968,201.676 L384.178,201.676"/><path fill="#000" stroke="#000" stroke-width="2" d="M341.25,213.5 L384.178,201.676"/></g><path fill="none" stroke="#000" stroke-width="3" d="M351.375,209.625 L377.125,202.75"/><path fill="none" stroke="#000" stroke-width="3" d="M359.938,205.844 L374.688,200.812"/><path fill="none" stroke="#000" stroke-width="3" d="M358.188,200.312 L376.812,199.562"/><path fill="none" stroke="#000" stroke-width="3" d="M366.125,202.75 L398.812,188.688"/><path fill="none" stroke="#000" stroke-width="3" d="M408.188,179.625 L362.375,199.188"/><path fill="none" stroke="#000" stroke-width="3" d="M367.5,199.188 L398.812,185.875"/><path fill="none" stroke="#000" stroke-width="3" d="M373.812,189.125 L399.25,182.5"/><path fill="none" stroke="#000" stroke-width="3" d="M387.438,187.125 L377.125,190.438"/></g><g><g><path fill="none" stroke="#000" stroke-width="2" d="M339.75,231 L373,251"/><path fill="none" stroke="#000" stroke-width="2" d="M339.75,231 L363,239.75"/><path fill="none" stroke="#000" stroke-width="2" d="M356.375,231 L363,239.75"/><path fill="none" stroke="#000" stroke-width="2" d="M356.375,231 L384.75,242"/><path fill="none" stroke="#000" stroke-width="2" d="M381.25,235.375 L384.75,242"/><path fill="none" stroke="#000" stroke-width="2" d="M381.25,235.375 L423.5,260.75"/><path fill="none" stroke="#000" stroke-width="2" d="M398.5,251 L423.5,260.75"/><path fill="none" stroke="#000" stroke-width="2" d="M398.5,251 L402.375,258"/><path fill="none" stroke="#000" stroke-width="2" d="M370.562,244.25 L402.375,258"/><path fill="none" stroke="#000" stroke-width="2" d="M370.562,244.25 L373,251"/></g><path fill="none" stroke="#000" stroke-width="3" d="M383.562,238.25 L413.688,256.062"/><path fill="none" stroke="#000" stroke-width="3" d="M359,233 L405.5,252"/><path fill="none" stroke="#000" stroke-width="3" d="M384.75,241.031 L399.625,252.312"/><path fill="none" stroke="#000" stroke-width="3" d="M360.188,235 L399.625,252.5"/><path fill="none" stroke="#000" stroke-width="3" d="M400.562,256.062 L361.938,238.25"/><path fill="none" stroke="#000" stroke-width="3" d="M349.062,235.25 L371.875,248.438"/><path fill="none" stroke="#000" stroke-width="3" d="M359,239.312 L371.188,245.125"/></g><g><g><path fill="none" stroke="#000" stroke-width="2" d="M295.75,228 L262.5,248"/><path fill="none" stroke="#000" stroke-width="2" d="M295.75,228 L272.5,236.75"/><path fill="none" stroke="#000" stroke-width="2" d="M279.125,228 L272.5,236.75"/><path fill="none" stroke="#000" stroke-width="2" d="M279.125,228 L250.75,239"/><path fill="none" stroke="#000" stroke-width="2" d="M254.25,232.375 L250.75,239"/><path fill="none" stroke="#000" stroke-width="2" d="M254.25,232.375 L212,257.75"/><path fill="none" stroke="#000" stroke-width="2" d="M237,248 L212,257.75"/><path fill="none" stroke="#000" stroke-width="2" d="M237,248 L233.125,255"/><path fill="none" stroke="#000" stroke-width="2" d="M264.938,241.25 L233.125,255"/><path fill="none" stroke="#000" stroke-width="2" d="M264.938,241.25 L262.5,248"/></g><path fill="none" stroke="#000" stroke-width="3" d="M220.875,253.5 L252.375,235.25"/><path fill="none" stroke="#000" stroke-width="3" d="M230.875,249.25 L251.562,238.688"/><path fill="none" stroke="#000" stroke-width="3" d="M236.625,248.75 L256,238.688"/><path fill="none" stroke="#000" stroke-width="3" d="M235.062,253 L255.5,238.5"/><path fill="none" stroke="#000" stroke-width="3" d="M241.219,250.5 L260.125,236.5"/><path fill="none" stroke="#000" stroke-width="3" d="M246.812,248.062 L263.25,235.25"/><path fill="none" stroke="#000" stroke-width="3" d="M267.062,233.75 L251.562,245.875"/><path fill="none" stroke="#000" stroke-width="3" d="M256,243.5 L272.188,231.625"/><path fill="none" stroke="#000" stroke-width="3" d="M276.875,229.812 L260.125,241.938"/><path fill="none" stroke="#000" stroke-width="3" d="M273.812,234.188 L264.312,241.188"/><path fill="none" stroke="#000" stroke-width="3" d="M273.812,235.875 L263.438,246.188"/><path fill="none" stroke="#000" stroke-width="3" d="M286.75,232.125 L267.688,243.188"/><path fill="none" stroke="#000" stroke-width="3" d="M278.188,235.625 L272.688,237.688"/></g><g><path fill="none" stroke="#000" stroke-width="8" d="M242.5,454.5 L396.5,454.5"/><path fill="none" stroke="#000" stroke-width="7" d="M380,454.5 L318.5,250.5"/><path fill="none" stroke="#000" stroke-width="7" d="M318.5,250.5 L259,454.5"/><path fill="none" stroke="#000" stroke-width="6" d="M318.5,253 L318.5,225"/><path fill="#000" stroke="#000" d="M324,222.5 C324,225.538,321.538,228,318.5,228 C315.462,228,313,225.538,313,222.5 C313,219.462,315.462,217,318.5,217 C321.538,217,324,219.462,324,222.5 C324,222.5,324,222.5,324,222.5 Z"/><path fill="none" stroke="#000" stroke-width="6" d="M280,382 L358,382.5"/><path fill="none" stroke="#000" stroke-width="6" d="M280,382 L380,454.5"/><path fill="none" stroke="#000" stroke-width="6" d="M358,382.5 L259,454.5"/><path fill="none" stroke="#000" stroke-width="6" d="M358,382.5 L294,333"/><path fill="none" stroke="#000" stroke-width="6" d="M343.5,333 L294,333"/><path fill="none" stroke="#000" stroke-width="6" d="M280,382 L343.5,333"/><path fill="none" stroke="#000" stroke-width="5" d="M304.5,294.5 L343.5,333"/><path fill="none" stroke="#000" stroke-width="5" d="M332,294.5 L294,333"/><path fill="none" stroke="#000" stroke-width="5" d="M332,294.5 L304.5,294.694"/></g></g></g></svg>