<?xml version="1.0" encoding="UTF-8"?>
<svg id="Layer_1" xmlns="http://www.w3.org/2000/svg" version="1.1" viewBox="50 210 472 392">
  <!-- Generator: Adobe Illustrator 29.3.1, SVG Export Plug-In . SVG Version: 2.1.0 Build 151)  -->
  <defs>
    <style>
      .st0 {
        fill: #fff;
      }
    </style>
  </defs>
  <path d="M495.7,240.4c0,1.7,0,3.2,0,4.7,0,80.1,0,160.2,0,240.3,0,2.5-.2,5,.1,7.5.7,4.2-1.3,5.4-5.1,6.1-45.6,8.8-91.2,17.8-136.7,26.7-37.5,7.3-75,14.5-112.5,21.8-38.2,7.4-76.4,15-114.7,22.4-13.6,2.6-27.2,5.2-41.3,7.9,0-1.7,0-3.2,0-4.6,0-75.9,0-151.7,0-227.6,0-7.4,0-14.7-.1-22.1,0-2.5.8-3.4,3.2-3.9,40.8-7.9,81.6-15.9,122.4-23.9,31.5-6.2,63-12.3,94.4-18.5,37.4-7.3,74.7-14.6,112.1-21.9,25.5-5,51-9.9,76.4-14.9.4,0,.7,0,1.7-.1ZM98.1,562.6c128.7-25,256.9-50,384.9-74.9v-232.1c-1.5.2-2.8.4-4,.6-9.2,1.8-18.4,3.6-27.6,5.4-25.5,5-51,10-76.5,14.9-46.6,9.1-93.1,18.2-139.7,27.2-44.1,8.6-88.2,17.2-132.4,25.6-3.9.8-5.1,2.1-5.1,6.2.2,41.7.2,83.5.3,125.2,0,32.2,0,64.5,0,96.7,0,1.6,0,3.2,0,5Z"/>
  <path class="st0" d="M98.1,562.6c0-1.8,0-3.4,0-5,0-32.2,0-64.5,0-96.7,0-41.7,0-83.5-.3-125.2,0-4.1,1.2-5.5,5.1-6.2,44.2-8.4,88.3-17,132.4-25.6,46.6-9.1,93.1-18.1,139.7-27.2,25.5-5,51-9.9,76.5-14.9,9.2-1.8,18.4-3.6,27.6-5.4,1.2-.2,2.4-.4,4-.6v232.1c-128,24.9-256.2,49.9-384.9,74.9ZM399.2,416.3c.3,0,.5,0,.8,0,3.7,21.3,7.3,42.6,11,63.9,6.9-.5,6.9-.5,8.2-6.6,3.3-15.8,6.6-31.5,9.9-47.3,1.1-5.3,2.1-10.7,3.2-16,.3,0,.6,0,.9.1-.6,21.9-1.1,43.8-1.7,65.9,4.4-.8,8.5-1.6,12.7-2.4.7-29.5,1.5-58.8,2.2-88.6-6.2,1.2-12.1,2.2-17.9,3.4-.7.2-1.4,1.6-1.6,2.5-2,9.1-4,18.3-6,27.4-1.6,7.5-3.3,15-4.9,22.4-.3,0-.6,0-.8,0-2.9-16-5.8-31.9-8.8-48.1-6.6,1.2-12.8,2.4-19.1,3.6-.8,29.8-1.6,59.1-2.4,88.8,4.5-.9,8.5-1.7,12.6-2.6.6-22.5,1.2-44.6,1.8-66.7ZM174.6,336.1c-3.1.6-5.9,1.3-8.7,1.6-2.6.3-3.5,1.6-3.9,4.1-2.9,15.7-5.9,31.4-8.9,47.1-.4,2-.8,4-1.1,6-.3,0-.5,0-.8-.1-2.4-17.4-4.9-34.9-7.3-52.5-4.7.9-9,1.7-13.6,2.6,4.7,28.7,9.3,57.1,13.9,85.7,3.6-.7,7-1.2,10.2-2.1,1-.3,2.1-1.6,2.3-2.6,1.4-6.6,2.5-13.2,3.8-19.9,2.3-12.3,4.7-24.6,7-37,.3,0,.5,0,.8,0,2.9,18.3,5.9,36.6,8.8,55.1,3.5-.6,6.5-1.2,9.6-1.7,2-.3,2.8-1.2,3.2-3.3,4.9-26.5,9.9-53,14.9-79.5.6-3,1.1-6,1.7-9.5-4.2.8-7.6,1.6-11,2.1-2.1.3-2.8,1.3-3.1,3.4-1.5,9.9-3.2,19.7-4.9,29.6-1.3,8.1-2.6,16.2-3.9,24.3-.3,0-.6,0-.9,0-2.7-17.6-5.4-35.2-8.2-53.1ZM227.7,414.2c0-10.1,0-19.9,0-29.8,0-6.8.2-6.8,6.9-8,.1,0,.2,0,.8.1,3.1,11.2,6.2,22.5,9.4,34.1,5.1-1,9.8-1.8,14.8-2.8-3.6-11.9-7.1-23.5-10.7-35-.5-1.7-.4-2.7.9-4.2,2.6-2.9,5.1-6.2,6.7-9.7,2.9-6.5,3-13.6,2.2-20.6-1.1-10.3-6.8-15.7-17-14.7-9.1.8-18.1,3-27.3,4.6-.7,29.8-1.3,59-2,88.7,5.1-.9,9.7-1.7,15.2-2.7ZM160.5,482.1c7-7.8,8.6-16.8,7.4-26.5-1-8.4-5.2-13.4-12.1-14.1-6.8-.7-12.9,1.5-18,5.9-8.7,7.5-13.3,30.5-2,39.6-1.7,2.1-3.8,4.1-4.9,6.5-4.7,10.6-5.5,21.5-1.4,32.4,1.7,4.5,5.4,7.2,10.3,7.6,12.5,1.2,23.6-5.9,26.6-18.1,1.6-6.4,1.6-13.3,1.7-20,0-5.5-2.3-10.1-7.5-13.3ZM212,472.1c8.4-9,9.3-19.3,6.9-30.2-1.6-7.1-6.6-10.8-13.8-10.5-9.4.3-16.4,4.4-20.6,13-5.8,11.9-4.8,23.8,3.1,32.4-9.8,10.6-10.5,23.1-7.4,36.4,1.1,4.6,4.1,8,8.7,9.6,7.6,2.6,19.7-1.6,24.6-8.1,6.1-8,6.9-17.1,6.6-26.6-.2-6.4-1.4-12.2-8.1-15.9ZM315.6,338.2c0-4.5.4-8.6,0-12.7-1.1-8.8-6.4-14.2-14.6-14.3-15.6-.1-27.3,8.1-29.4,24.8-.7,5.6-.5,11.2-.7,16.8-.3,10.9-.7,21.7-.8,32.6,0,12.3,6.7,18.5,18.8,17.7,19.8-1.3,28.6-17.5,25.5-37.4-2.8.5-5.6,1.4-8.4,1.6-4.3.3-6,2.1-5.6,6.6.3,3.5-.3,7.3-1.2,10.7-1,3.8-5.7,5.8-10.2,5-4.1-.8-4.1-4.1-4.3-7.3,0-.6,0-1.2,0-1.9.4-14.6.8-29.2,1.2-43.8,0-2,.3-4,.9-5.9,1-3.4,6.3-6.5,9.8-5.9,2.8.5,4.7,3.4,4.9,7.5,0,2.7,0,5.4,0,8.6,4.9-1,9.4-1.9,14.2-2.8ZM288,457.9c5-3.5,8.5-7.4,9.1-12.7.7-5.8,1.1-11.8.2-17.5-1.1-7.7-7.3-11.8-15.1-11.5-14.6.5-25.3,13.8-23.1,28.9,2.8-.5,5.5-1.3,8.3-1.5,3.2-.3,4.4-1.7,4.4-4.9,0-4,.9-7.8,5.2-9.6,3.6-1.5,5.9-.5,6.6,3.3.5,2.6.5,5.2.5,7.8-.1,7.1-2.4,12.8-10.3,14.5-.7.2-1.7,1.2-1.7,1.9-.2,3.3,0,6.7,0,10.2,1.9,0,3.7-.1,5.6,0,3,.2,5.6,1.6,5.7,4.8.2,5.8,0,11.7-.4,17.5,0,1.3-.9,2.6-1.7,3.7-1.8,2.5-4.4,3.8-7.5,3-3-.8-3.6-3.6-3.7-6.3-.1-2.3,0-4.6,0-7-4.6,1-8.7,2-12.7,2.9.2,4.5-.1,9,.7,13.4,1.2,6.2,4.7,9.3,10.8,9.6,9.4.4,17.8-2.4,23.9-10,6-7.4,5.8-16.5,5.8-25.4,0-7.1-2-12.9-10.4-15.1ZM338,494.7c4.4-.9,9-1.8,13.8-2.7.4-13.2.8-26.2,1.1-39.2,5.8-1.2,11.2-2.2,16.5-3.4,1.1-.3,2.8-1.5,2.9-2.5.3-3.6.1-7.2.1-11-6.4,1.1-12.6,2.2-18.8,3.3,0-6.9.1-13.3,0-19.8,0-2.5,1.1-3.1,3.2-3.5,6.9-1.2,13.7-2.5,20.6-4,1-.2,2.4-1.5,2.5-2.4.3-3.6.1-7.2.1-10.8-.7,0-1.2,0-1.7,0-12.1,2.3-24.3,4.8-36.4,7-2.5.5-2.4,1.9-2.4,3.7-.5,20-1,40-1.4,60-.2,8.3,0,16.7,0,25.4ZM363.7,299.4c-13.9,2.7-27.4,5.2-40.8,7.9-.7.1-1.7,1.2-1.7,1.9-.2,3.7,0,7.4,0,11.6,4.7-.8,9-1.6,13.8-2.4-.6,25.3-1.3,50.2-1.9,75.3,4.2-.8,7.7-1.6,11.3-2.1,2.4-.4,3.3-1.3,3.3-3.9.2-13,.7-26,1-39,.3-11.1.6-22.2.9-33.5,4.1-.8,7.9-1.4,11.6-2.3,1-.2,2.4-1.4,2.5-2.3.3-3.6.1-7.2.1-11.3ZM231.3,515.4c3.9-.8,7.8-1.4,11.7-2.4.8-.2,1.8-1.4,1.8-2.2.2-4.1,0-8.2,0-12.5-3.9.8-7.8,1.5-11.7,2.4-.8.2-1.8,1.4-1.8,2.2-.2,4.1,0,8.2,0,12.5Z"/>
  <path d="M399.2,416.3c-.6,22.1-1.2,44.2-1.8,66.7-4.1.8-8.2,1.7-12.6,2.6.8-29.7,1.6-59,2.4-88.8,6.2-1.2,12.4-2.3,19.1-3.6,3,16.2,5.9,32.1,8.8,48.1.3,0,.6,0,.8,0,1.6-7.5,3.3-14.9,4.9-22.4,2-9.1,3.9-18.3,6-27.4.2-.9.9-2.4,1.6-2.5,5.8-1.3,11.7-2.3,17.9-3.4-.8,29.8-1.5,59.1-2.2,88.6-4.2.8-8.2,1.5-12.7,2.4.6-22.1,1.1-44,1.7-65.9-.3,0-.6,0-.9-.1-1.1,5.3-2.1,10.7-3.2,16-3.3,15.8-6.6,31.5-9.9,47.3-1.3,6.1-1.3,6.1-8.2,6.6-3.7-21.3-7.3-42.6-11-63.9-.3,0-.5,0-.8,0Z"/>
  <path d="M174.6,336.1c2.8,17.9,5.5,35.5,8.2,53.1.3,0,.6,0,.9,0,1.3-8.1,2.6-16.2,3.9-24.3,1.6-9.9,3.4-19.7,4.9-29.6.3-2.1,1-3,3.1-3.4,3.4-.5,6.8-1.3,11-2.1-.6,3.5-1.2,6.5-1.7,9.5-5,26.5-10,53-14.9,79.5-.4,2.1-1.2,3-3.2,3.3-3.1.5-6.1,1.1-9.6,1.7-3-18.5-5.9-36.8-8.8-55.1-.3,0-.5,0-.8,0-2.3,12.3-4.7,24.6-7,37-1.2,6.6-2.4,13.3-3.8,19.9-.2,1-1.3,2.4-2.3,2.6-3.2.9-6.6,1.4-10.2,2.1-4.7-28.6-9.3-57-13.9-85.7,4.6-.9,8.8-1.7,13.6-2.6,2.5,17.7,4.9,35.1,7.3,52.5.3,0,.5,0,.8.1.4-2,.8-4,1.1-6,3-15.7,6-31.4,8.9-47.1.4-2.4,1.3-3.8,3.9-4.1,2.8-.3,5.6-1,8.7-1.6Z"/>
  <path d="M227.7,414.2c-5.5,1-10.1,1.8-15.2,2.7.7-29.7,1.3-58.9,2-88.7,9.2-1.6,18.2-3.8,27.3-4.6,10.2-.9,15.8,4.5,17,14.7.8,7,.7,14.1-2.2,20.6-1.6,3.5-4.1,6.8-6.7,9.7-1.3,1.5-1.5,2.5-.9,4.2,3.6,11.5,7.1,23.1,10.7,35-5,.9-9.7,1.8-14.8,2.8-3.2-11.5-6.3-22.9-9.4-34.1-.6-.1-.7-.2-.8-.1-6.8,1.2-6.9,1.2-6.9,8,0,9.8,0,19.7,0,29.8ZM228.7,365c8.7-.4,13.6-3.1,14.8-9.2.9-4.1.9-8.4.7-12.6,0-2.8-1.2-6-4.4-6.2-3.5-.3-7.1.6-10.6,1.2-.3,0-.6,1.1-.6,1.7,0,8.3,0,16.6,0,25.2Z"/>
  <path d="M160.5,482.1c5.1,3.2,7.6,7.8,7.5,13.3,0,6.7-.1,13.6-1.7,20-3,12.2-14,19.3-26.6,18.1-4.9-.5-8.6-3.1-10.3-7.6-4-10.9-3.2-21.8,1.4-32.4,1.1-2.4,3.2-4.3,4.9-6.5-11.3-9.1-6.7-32.1,2-39.6,5.1-4.4,11.2-6.6,18-5.9,6.9.7,11.1,5.7,12.1,14.1,1.2,9.7-.3,18.7-7.4,26.5ZM155.8,504.1c-.1,0-.3,0-.4-.1-.1-2.1,0-4.3-.5-6.3-.5-2.8-1.3-5.9-4.8-6.3-3.5-.4-6,1.4-7.5,4.5-2.9,5.8-2.8,12.1-2.1,18.3.3,3.1,1.2,6.3,5.1,6.8,3.3.4,6.7-1.8,7.9-5.6,1.1-3.6,1.6-7.5,2.3-11.3ZM155.4,465c-.1-2.5,0-3.9-.3-5.2-.5-2.6-.7-5.7-4.4-6.1-3.1-.3-6.4,1.8-6.9,5.5-.7,5-.8,10.1-.5,15.1.3,3.6,3.6,5.2,6.6,3.3,1.8-1.2,3.5-3.3,4.3-5.3,1-2.6,1-5.6,1.3-7.3Z"/>
  <path d="M212,472.1c6.7,3.7,7.9,9.5,8.1,15.9.3,9.5-.5,18.7-6.6,26.6-4.9,6.4-17,10.7-24.6,8.1-4.6-1.5-7.6-4.9-8.7-9.6-3.1-13.2-2.4-25.8,7.4-36.4-7.8-8.6-8.9-20.6-3.1-32.4,4.2-8.6,11.3-12.7,20.6-13,7.2-.2,12.2,3.4,13.8,10.5,2.4,10.8,1.5,21.1-6.9,30.2ZM191.7,497.1c.3,3.6,0,6.3.9,8.5.7,2,2.3,4.7,4,5.1,2,.4,4.7-.9,6.6-2.2,1.3-.8,2.4-2.8,2.5-4.4.4-6.1.8-12.3.4-18.5-.2-3.6-3.2-5.2-6.6-3.9-2.3.9-4.8,3-5.7,5.2-1.4,3.5-1.6,7.4-2.2,10.1ZM207.2,455c-.3-2.8-.3-4.7-.7-6.5-.8-4.7-4.3-6.3-8.1-3.4-1.5,1.1-2.9,3-3.2,4.8-.7,4-.9,8.2-.8,12.3,0,2.6.6,5.4,3.8,6.1,3,.6,6.2-1.1,7.3-4.6,1-3,1.3-6.3,1.7-8.6Z"/>
  <path d="M315.6,338.2c-4.8.9-9.2,1.8-14.2,2.8,0-3.2,0-5.9,0-8.6-.1-4.2-2.1-7.1-4.9-7.5-3.5-.6-8.9,2.5-9.8,5.9-.5,1.9-.8,3.9-.9,5.9-.5,14.6-.8,29.2-1.2,43.8,0,.6,0,1.3,0,1.9.2,3.2.2,6.5,4.3,7.3,4.5.9,9.1-1.2,10.2-5,.9-3.4,1.5-7.2,1.2-10.7-.3-4.5,1.4-6.3,5.6-6.6,2.8-.2,5.6-1,8.4-1.6,3.1,19.9-5.7,36.1-25.5,37.4-12.2.8-18.9-5.4-18.8-17.7,0-10.9.5-21.7.8-32.6.2-5.6,0-11.3.7-16.8,2-16.7,13.8-24.9,29.4-24.8,8.2,0,13.5,5.5,14.6,14.3.5,4,0,8.2,0,12.7Z"/>
  <path d="M288,457.9c8.4,2.2,10.4,8,10.4,15.1,0,8.9.2,18-5.8,25.4-6.1,7.6-14.5,10.4-23.9,10-6.1-.3-9.6-3.4-10.8-9.6-.8-4.3-.5-8.9-.7-13.4,4.1-.9,8.1-1.8,12.7-2.9,0,2.4,0,4.7,0,7,.1,2.7.7,5.4,3.7,6.3,3.1.8,5.7-.5,7.5-3,.8-1.1,1.6-2.4,1.7-3.7.3-5.8.5-11.7.4-17.5,0-3.3-2.7-4.6-5.7-4.8-1.8-.2-3.7,0-5.6,0,0-3.5,0-6.9,0-10.2,0-.7,1-1.7,1.7-1.9,7.9-1.7,10.1-7.3,10.3-14.5,0-2.6,0-5.3-.5-7.8-.7-3.9-2.9-4.9-6.6-3.3-4.3,1.8-5.2,5.6-5.2,9.6,0,3.3-1.2,4.7-4.4,4.9-2.8.2-5.6,1-8.3,1.5-2.3-15.1,8.5-28.4,23.1-28.9,7.8-.3,14,3.9,15.1,11.5.8,5.7.5,11.7-.2,17.5-.6,5.3-4.1,9.2-9.1,12.7Z"/>
  <path d="M338,494.7c0-8.8-.1-17.1,0-25.4.4-20,1-40,1.4-60,0-1.8,0-3.3,2.4-3.7,12.2-2.2,24.3-4.7,36.4-7,.5,0,1,0,1.7,0,0,3.6.2,7.3-.1,10.8,0,.9-1.5,2.2-2.5,2.4-6.8,1.5-13.7,2.8-20.6,4-2.1.4-3.3,1-3.2,3.5.2,6.5,0,12.9,0,19.8,6.2-1.1,12.4-2.2,18.8-3.3,0,3.9.2,7.5-.1,11,0,.9-1.7,2.2-2.9,2.5-5.3,1.3-10.7,2.3-16.5,3.4-.4,13-.8,26-1.1,39.2-4.8,1-9.4,1.9-13.8,2.7Z"/>
  <path d="M363.7,299.4c0,4.1.2,7.7-.1,11.3,0,.9-1.5,2.1-2.5,2.3-3.7.9-7.6,1.5-11.6,2.3-.3,11.3-.6,22.4-.9,33.5-.4,13-.8,26-1,39,0,2.5-1,3.5-3.3,3.9-3.6.5-7.1,1.3-11.3,2.1.6-25.2,1.3-50.1,1.9-75.3-4.8.8-9.1,1.6-13.8,2.4,0-4.2,0-7.9,0-11.6,0-.7,1-1.8,1.7-1.9,13.5-2.7,26.9-5.2,40.8-7.9Z"/>
  <path d="M231.3,515.4c0-4.3,0-8.4,0-12.5,0-.8,1.1-2,1.8-2.2,3.8-1,7.7-1.6,11.7-2.4,0,4.3,0,8.4,0,12.5,0,.8-1.1,2-1.8,2.2-3.8.9-7.7,1.6-11.7,2.4Z"/>
  <path class="st0" d="M228.7,365c0-8.5,0-16.8,0-25.2,0-.6.3-1.6.6-1.7,3.5-.5,7.1-1.4,10.6-1.2,3.1.3,4.3,3.5,4.4,6.2.1,4.2.1,8.5-.7,12.6-1.3,6.1-6.1,8.8-14.8,9.2Z"/>
  <path class="st0" d="M155.8,504.1c-.7,3.8-1.2,7.6-2.3,11.3-1.2,3.8-4.5,6-7.9,5.6-4-.5-4.8-3.7-5.1-6.8-.7-6.2-.7-12.4,2.1-18.3,1.5-3.1,4-4.9,7.5-4.5,3.6.4,4.3,3.5,4.8,6.3.4,2.1.3,4.2.5,6.3.1,0,.3,0,.4.1Z"/>
  <path class="st0" d="M155.4,465c-.3,1.8-.3,4.7-1.3,7.3-.8,2-2.4,4.2-4.3,5.3-3,1.9-6.3.3-6.6-3.3-.4-5-.2-10.2.5-15.1.5-3.7,3.8-5.8,6.9-5.5,3.7.4,3.8,3.4,4.4,6.1.3,1.3.2,2.7.3,5.2Z"/>
  <path class="st0" d="M191.7,497.1c.5-2.7.7-6.7,2.2-10.1.9-2.2,3.4-4.2,5.7-5.2,3.4-1.4,6.4.3,6.6,3.9.4,6.1,0,12.3-.4,18.5-.1,1.6-1.2,3.6-2.5,4.4-1.9,1.3-4.6,2.6-6.6,2.2-1.7-.4-3.3-3.1-4-5.1-.8-2.3-.6-4.9-.9-8.5Z"/>
  <path class="st0" d="M207.2,455c-.4,2.3-.8,5.6-1.7,8.6-1.1,3.4-4.3,5.2-7.3,4.6-3.3-.7-3.8-3.5-3.8-6.1,0-4.1.2-8.2.8-12.3.3-1.7,1.7-3.7,3.2-4.8,3.8-2.9,7.3-1.3,8.1,3.4.3,1.8.4,3.7.7,6.5Z"/>
</svg>
