<?xml version="1.0" encoding="UTF-8" standalone="no"?>
<!-- Created with Inkscape (http://www.inkscape.org/) -->

<svg
   xmlns:dc="http://purl.org/dc/elements/1.1/"
   xmlns:cc="http://creativecommons.org/ns#"
   xmlns:rdf="http://www.w3.org/1999/02/22-rdf-syntax-ns#"
   xmlns:svg="http://www.w3.org/2000/svg"
   xmlns="http://www.w3.org/2000/svg"
   version="1.1"
   width="1243.8218"
   height="889.35919"
   id="svg2">
  <defs
     id="defs4" />
  <metadata
     id="metadata7">
    <rdf:RDF>
      <cc:Work
         rdf:about="">
        <dc:format>image/svg+xml</dc:format>
        <dc:type
           rdf:resource="http://purl.org/dc/dcmitype/StillImage" />
        <dc:title></dc:title>
      </cc:Work>
    </rdf:RDF>
  </metadata>
  <g
     transform="translate(295.625,-10.859529)"
     id="layer3" />
  <g
     transform="translate(295.625,-10.859529)"
     id="layer1">
    <path
       d="m -254.05423,867.72879 c 31.75209,-148.40506 63.35253,-287.58258 77.08554,-341.31463 12.23446,-47.8688 98.372784,-13.05931 154.765645,-79.70363 C 37.283941,367.36268 103.09727,214.57495 156.70118,161.67672 197.10036,121.80934 351.2636,47.627466 460.15215,52.987626 c 105.85862,5.21102 148.94786,121.956924 217.6795,228.903904 39.36011,61.24464 173.8348,128.89441 208.50083,191.48648 35.65176,64.37189 17.97733,85.25966 -8.5781,122.9317 C 801.72027,704.17313 771.59558,710.90956 713.85258,698.83662 427.55947,652.0805 149.07396,617.2055 -129.44186,580.90369"
       id="path3766"
       style="opacity:0.80566801;fill:none;stroke:#000000;stroke-width:23.6769371;stroke-linecap:butt;stroke-linejoin:miter;stroke-miterlimit:4;stroke-opacity:1;stroke-dasharray:none" />
  </g>
</svg>
