<svg xmlns="http://www.w3.org/2000/svg" viewBox="0 0 358.09 425.29"><defs><style>.cls-1,.cls-3,.cls-5{fill:#fff;}.cls-1,.cls-2,.cls-3,.cls-4,.cls-5{stroke:#be1e2d;stroke-miterlimit:10;}.cls-1,.cls-2{stroke-width:9px;}.cls-2,.cls-4{fill:none;}.cls-3,.cls-4{stroke-width:5px;}.cls-5{stroke-width:2px;}</style></defs><g id="Layer_3" data-name="Layer 3"><path class="cls-1" d="M291.65,184.53V68.94c-76.24-13.1-146.7-10.21-214.54,0v186.4A83.57,83.57,0,0,0,108,320.2l65.6,53.3a19,19,0,0,0,24.27-.29l64.47-55a83.57,83.57,0,0,0,29.33-63.57v-6.89"/><path class="cls-2" d="M78.24,269l133.57-58.5A15.33,15.33,0,0,0,217,186.13L102.05,65.55"/><path class="cls-1" d="M142.15,64.88,263.8,197A18.65,18.65,0,0,1,261,224.72L118.3,327.43l55.28,44.92L303.65,238.43a29.74,29.74,0,0,0,.09-41.34L171.05,59.24"/><path class="cls-2" d="M291.65,69.93c-76.24-13.1-146.7-10.2-214.54,0"/><path class="cls-3" d="M82.08,231.83l-9.82,10.32L51.59,263.87a5.85,5.85,0,0,0,4.24,9.89h8.66l141.14-60.57a1.38,1.38,0,0,0-.55-2.65H131.75A68.58,68.58,0,0,0,82.08,231.83Z"/><line class="cls-4" x1="227.58" y1="145.63" x2="193.6" y2="210.54"/><path class="cls-3" d="M90.22,341.4l-4.69-1.78A6.87,6.87,0,0,1,81.89,330l24.72-46.73a61.54,61.54,0,0,1,35.48-29.78L233.32,224,246,219.89a6.87,6.87,0,0,1,5.53.58h0a6.88,6.88,0,0,1,.52,11.61L96.59,340.61A6.89,6.89,0,0,1,90.22,341.4Z"/><path class="cls-5" d="M95.31,244.1l-8.12,5c-13.55,4.67-20.61,5-24.67,3.26l9.74-10.23c3.35,2.65,11.9,2,22.5,0A1.05,1.05,0,0,1,95.31,244.1Z"/><path class="cls-5" d="M99,297.57s-.89,3.27,5.59,4.13,26.26-6.58,26.26-6.58L124,306.44S103.83,320.25,95.81,322s-8-3.17-8-3.17Z"/><path class="cls-5" d="M214.29,145.63h27.52l.05-.08a2.78,2.78,0,0,0-2.29-4.35H215.18l-1.87,2.45A1.23,1.23,0,0,0,214.29,145.63Z"/><path class="cls-5" d="M257.84,147.84h27.53l.05-.07a2.79,2.79,0,0,0-2.3-4.36H258.73l-1.86,2.45A1.23,1.23,0,0,0,257.84,147.84Z"/><polygon class="cls-5" points="266.41 147.84 227.58 225.85 233.32 224 271.26 147.84 266.41 147.84"/><path class="cls-5" d="M223.82,145.63l-31.54,62.21a2.22,2.22,0,0,0,2.64,3.11h0l33.14-65.32Z"/></g></svg>