<?xml version="1.0" encoding="UTF-8" ?>
<!DOCTYPE svg PUBLIC "-//W3C//DTD SVG 1.1//EN" "http://www.w3.org/Graphics/SVG/1.1/DTD/svg11.dtd">
<svg width="581pt" height="856pt" viewBox="0 0 581 856" version="1.1" xmlns="http://www.w3.org/2000/svg">
<path fill="#fefcfc" d=" M 0.00 0.00 L 581.00 0.00 L 581.00 856.00 L 0.00 856.00 L 0.00 0.00 Z" />
<path fill="#f4a925" d=" M 17.28 15.30 C 198.86 15.25 380.44 15.28 562.02 15.28 C 562.09 125.52 562.03 235.75 562.05 345.99 C 561.98 425.13 562.19 504.28 561.94 583.42 C 556.83 575.26 551.40 567.30 545.28 559.85 C 539.75 552.33 533.12 545.72 527.13 538.59 C 527.45 509.55 527.20 480.50 527.26 451.45 C 512.03 459.79 493.93 460.53 477.05 458.35 C 456.69 455.77 436.93 449.01 418.99 439.09 C 413.71 440.74 407.89 441.55 402.56 439.67 C 394.28 436.82 388.13 429.33 385.92 420.98 C 385.20 418.92 384.96 416.36 382.87 415.16 C 328.65 378.61 274.29 342.23 219.97 305.82 C 216.21 307.21 211.97 308.47 208.13 306.62 C 201.40 303.95 198.16 296.83 196.69 290.20 C 182.58 280.67 168.44 271.18 154.27 261.75 C 145.66 256.64 144.78 243.84 149.91 235.99 C 151.87 232.67 155.95 231.33 159.54 232.72 C 173.31 237.08 186.94 241.91 200.77 246.11 C 179.08 206.36 156.85 166.90 134.76 127.37 C 128.46 127.21 122.15 127.74 115.88 127.19 C 111.58 126.82 109.95 120.73 112.94 117.89 C 114.70 115.88 117.64 116.45 120.00 116.28 C 133.02 116.49 146.05 116.12 159.06 116.44 C 164.25 116.64 165.43 124.88 160.69 126.79 C 156.13 128.02 151.31 127.17 146.64 127.41 C 147.93 129.74 149.27 132.04 150.74 134.26 C 176.67 173.74 202.37 213.36 228.08 252.97 C 229.98 256.55 234.35 257.03 237.77 258.35 C 297.23 278.89 356.68 299.48 416.15 320.03 C 433.33 325.90 450.61 331.58 467.33 338.72 C 480.71 344.47 493.91 351.30 504.72 361.23 C 513.04 368.47 519.84 377.20 527.15 385.41 C 527.43 273.79 527.20 162.16 527.26 50.54 C 418.79 50.49 310.31 50.54 201.83 50.51 C 198.19 50.49 194.55 50.50 190.91 50.52 C 144.69 50.60 98.47 50.36 52.25 50.64 C 52.34 109.53 52.37 168.42 52.24 227.30 C 52.16 231.80 52.16 236.30 52.24 240.79 C 52.41 333.87 52.26 426.95 52.31 520.03 C 52.41 555.18 52.12 590.34 52.45 625.49 C 158.30 625.33 264.14 625.47 369.98 625.42 C 376.01 625.45 382.05 625.48 388.07 625.21 C 392.32 626.35 396.51 628.04 400.98 627.97 C 404.87 628.06 408.58 626.76 412.21 625.53 C 429.98 635.37 449.12 642.74 469.00 646.98 C 486.23 650.60 504.13 652.33 521.61 649.44 C 532.69 647.61 543.73 643.69 552.48 636.47 C 556.20 633.48 559.09 629.66 562.04 625.95 C 562.04 637.44 562.07 648.93 562.03 660.42 C 391.68 660.42 221.34 660.42 50.99 660.42 C 39.72 660.32 28.46 660.62 17.20 660.26 C 17.29 445.27 17.12 230.28 17.28 15.30 Z" />
<path fill="#431503" d=" M 190.91 50.52 C 194.55 50.50 198.19 50.49 201.83 50.51 C 215.05 71.11 228.64 91.47 241.89 112.04 C 243.58 114.54 245.01 117.71 248.19 118.55 C 289.82 132.90 331.41 147.34 373.03 161.70 C 389.06 167.31 405.33 172.34 420.86 179.25 C 432.07 184.21 442.64 190.95 450.83 200.16 C 454.12 204.02 457.97 207.47 460.43 211.98 C 440.57 213.69 420.25 212.37 401.35 205.68 C 403.37 214.56 405.18 223.49 407.42 232.31 C 428.76 240.62 453.25 244.17 475.07 235.49 C 474.21 243.01 471.77 250.75 466.04 256.00 C 458.01 263.42 446.60 265.56 436.00 265.61 C 420.95 265.49 406.03 261.78 392.30 255.72 C 389.08 254.37 386.16 252.33 382.81 251.31 C 378.75 251.41 374.56 253.02 370.63 251.25 C 363.23 248.87 359.07 241.51 357.55 234.31 C 347.24 227.30 336.73 220.58 326.62 213.29 C 299.29 194.93 271.95 176.61 244.62 158.26 C 242.70 156.99 240.90 155.46 238.76 154.58 C 235.68 154.65 232.42 156.22 229.52 154.57 C 225.55 152.88 223.37 148.97 222.14 145.05 C 221.59 142.50 219.27 141.14 217.27 139.81 C 208.38 134.09 199.71 128.03 190.86 122.25 C 184.95 118.85 184.17 110.58 186.80 104.85 C 188.05 102.23 190.81 99.59 193.93 100.87 C 204.14 103.99 214.20 107.60 224.41 110.74 C 213.41 90.57 202.03 70.61 190.91 50.52 Z" />
<path fill="#e12435" d=" M 52.25 50.64 C 98.47 50.36 144.69 50.60 190.91 50.52 C 202.03 70.61 213.41 90.57 224.41 110.74 C 214.20 107.60 204.14 103.99 193.93 100.87 C 190.81 99.59 188.05 102.23 186.80 104.85 C 184.17 110.58 184.95 118.85 190.86 122.25 C 199.71 128.03 208.38 134.09 217.27 139.81 C 219.27 141.14 221.59 142.50 222.14 145.05 C 223.37 148.97 225.55 152.88 229.52 154.57 C 232.42 156.22 235.68 154.65 238.76 154.58 C 240.90 155.46 242.70 156.99 244.62 158.26 C 271.95 176.61 299.29 194.93 326.62 213.29 C 336.73 220.58 347.24 227.30 357.55 234.31 C 359.07 241.51 363.23 248.87 370.63 251.25 C 374.56 253.02 378.75 251.41 382.81 251.31 C 386.16 252.33 389.08 254.37 392.30 255.72 C 406.03 261.78 420.95 265.49 436.00 265.61 C 446.60 265.56 458.01 263.42 466.04 256.00 C 471.77 250.75 474.21 243.01 475.07 235.49 C 453.25 244.17 428.76 240.62 407.42 232.31 C 405.18 223.49 403.37 214.56 401.35 205.68 C 420.25 212.37 440.57 213.69 460.43 211.98 C 457.97 207.47 454.12 204.02 450.83 200.16 C 442.64 190.95 432.07 184.21 420.86 179.25 C 405.33 172.34 389.06 167.31 373.03 161.70 C 331.41 147.34 289.82 132.90 248.19 118.55 C 245.01 117.71 243.58 114.54 241.89 112.04 C 228.64 91.47 215.05 71.11 201.83 50.51 C 310.31 50.54 418.79 50.49 527.26 50.54 C 527.20 162.16 527.43 273.79 527.15 385.41 C 519.84 377.20 513.04 368.47 504.72 361.23 C 493.91 351.30 480.71 344.47 467.33 338.72 C 450.61 331.58 433.33 325.90 416.15 320.03 C 356.68 299.48 297.23 278.89 237.77 258.35 C 234.35 257.03 229.98 256.55 228.08 252.97 C 202.37 213.36 176.67 173.74 150.74 134.26 C 149.27 132.04 147.93 129.74 146.64 127.41 C 151.31 127.17 156.13 128.02 160.69 126.79 C 165.43 124.88 164.25 116.64 159.06 116.44 C 146.05 116.12 133.02 116.49 120.00 116.28 C 117.64 116.45 114.70 115.88 112.94 117.89 C 109.95 120.73 111.58 126.82 115.88 127.19 C 122.15 127.74 128.46 127.21 134.76 127.37 C 156.85 166.90 179.08 206.36 200.77 246.11 C 186.94 241.91 173.31 237.08 159.54 232.72 C 155.95 231.33 151.87 232.67 149.91 235.99 C 144.78 243.84 145.66 256.64 154.27 261.75 C 168.44 271.18 182.58 280.67 196.69 290.20 C 198.16 296.83 201.40 303.95 208.13 306.62 C 211.97 308.47 216.21 307.21 219.97 305.82 C 274.29 342.23 328.65 378.61 382.87 415.16 C 384.96 416.36 385.20 418.92 385.92 420.98 C 388.13 429.33 394.28 436.82 402.56 439.67 C 407.89 441.55 413.71 440.74 418.99 439.09 C 436.93 449.01 456.69 455.77 477.05 458.35 C 493.93 460.53 512.03 459.79 527.26 451.45 C 527.20 480.50 527.45 509.55 527.13 538.59 C 517.93 528.35 506.86 519.83 494.84 513.15 C 476.15 502.71 455.98 495.33 435.85 488.22 C 352.74 459.67 269.74 430.80 186.68 402.13 C 184.05 401.18 181.25 400.57 178.84 399.11 C 176.61 396.91 175.22 394.03 173.48 391.46 C 140.70 341.24 107.85 291.06 75.10 240.81 C 80.44 240.63 85.79 241.03 91.12 240.63 C 95.78 240.31 98.40 234.13 95.72 230.39 C 94.47 227.92 91.57 227.22 89.02 227.31 C 76.76 227.31 64.50 227.37 52.24 227.30 C 52.37 168.42 52.34 109.53 52.25 50.64 Z" />
<path fill="#431503" d=" M 52.24 227.30 C 64.50 227.37 76.76 227.31 89.02 227.31 C 91.57 227.22 94.47 227.92 95.72 230.39 C 98.40 234.13 95.78 240.31 91.12 240.63 C 85.79 241.03 80.44 240.63 75.10 240.81 C 107.85 291.06 140.70 341.24 173.48 391.46 C 175.22 394.03 176.61 396.91 178.84 399.11 C 181.25 400.57 184.05 401.18 186.68 402.13 C 269.74 430.80 352.74 459.67 435.85 488.22 C 455.98 495.33 476.15 502.71 494.84 513.15 C 506.86 519.83 517.93 528.35 527.13 538.59 C 533.12 545.72 539.75 552.33 545.28 559.85 C 518.18 562.96 490.43 561.53 463.88 555.13 C 457.24 553.51 450.70 551.48 444.34 549.01 C 447.88 564.09 451.01 579.27 454.79 594.28 C 471.59 601.23 489.46 605.69 507.53 607.75 C 528.53 609.81 550.34 608.16 569.93 599.83 C 569.75 608.98 567.13 618.31 562.04 625.95 C 559.09 629.66 556.20 633.48 552.48 636.47 C 543.73 643.69 532.69 647.61 521.61 649.44 C 504.13 652.33 486.23 650.60 469.00 646.98 C 449.12 642.74 429.98 635.37 412.21 625.53 C 408.58 626.76 404.87 628.06 400.98 627.97 C 396.51 628.04 392.32 626.35 388.07 625.21 C 380.02 620.44 373.84 612.55 371.50 603.46 C 370.70 601.10 370.68 598.06 368.25 596.70 C 303.61 553.37 238.99 509.99 174.36 466.64 C 171.64 464.92 169.17 462.68 166.13 461.54 C 162.17 462.43 158.17 464.42 154.05 463.05 C 144.59 460.76 139.29 451.09 137.79 442.11 C 121.87 431.41 105.94 420.73 90.01 410.06 C 86.14 407.37 81.58 405.18 79.05 401.01 C 75.83 395.44 75.33 388.62 76.55 382.39 C 77.66 377.76 80.02 372.76 84.65 370.78 C 87.56 369.49 90.73 370.64 93.58 371.51 C 110.02 377.04 126.54 382.29 142.99 387.80 C 115.82 338.70 88.31 289.79 60.99 240.77 C 58.07 240.77 55.16 240.78 52.24 240.79 C 52.16 236.30 52.16 231.80 52.24 227.30 Z" />
<path fill="#e12435" d=" M 52.24 240.79 C 55.16 240.78 58.07 240.77 60.99 240.77 C 88.31 289.79 115.82 338.70 142.99 387.80 C 126.54 382.29 110.02 377.04 93.58 371.51 C 90.73 370.64 87.56 369.49 84.65 370.78 C 80.02 372.76 77.66 377.76 76.55 382.39 C 75.33 388.62 75.83 395.44 79.05 401.01 C 81.58 405.18 86.14 407.37 90.01 410.06 C 105.94 420.73 121.87 431.41 137.79 442.11 C 139.29 451.09 144.59 460.76 154.05 463.05 C 158.17 464.42 162.17 462.43 166.13 461.54 C 169.17 462.68 171.64 464.92 174.36 466.64 C 238.99 509.99 303.61 553.37 368.25 596.70 C 370.68 598.06 370.70 601.10 371.50 603.46 C 373.84 612.55 380.02 620.44 388.07 625.21 C 382.05 625.48 376.01 625.45 369.98 625.42 C 264.14 625.47 158.30 625.33 52.45 625.49 C 52.12 590.34 52.41 555.18 52.31 520.03 C 52.26 426.95 52.41 333.87 52.24 240.79 Z" />
<path fill="#e12435" d=" M 444.92 376.83 C 470.99 386.31 499.33 388.37 526.77 385.44 C 534.00 395.72 542.30 405.81 545.83 418.09 C 518.12 429.29 486.78 425.45 459.23 415.76 C 456.78 414.61 452.74 414.57 452.53 411.12 C 450.02 399.68 447.18 388.32 444.92 376.83 Z" />
<path fill="#431503" d=" M 132.57 709.48 C 138.68 705.77 146.37 705.92 153.15 707.36 C 158.66 708.48 163.13 713.29 163.75 718.89 C 164.25 723.48 163.91 728.11 163.99 732.72 C 160.84 732.71 157.69 732.70 154.54 732.71 C 154.28 728.28 154.80 723.65 153.36 719.40 C 151.37 714.71 145.12 714.55 140.94 715.86 C 135.98 717.55 135.46 723.46 135.30 727.90 C 134.93 742.88 134.28 757.90 135.57 772.86 C 135.87 775.50 136.83 778.43 139.30 779.81 C 144.70 782.91 153.22 780.14 154.46 773.64 C 155.62 767.66 155.15 761.53 155.24 755.48 C 151.25 755.46 147.26 755.46 143.27 755.48 C 143.25 752.60 143.15 749.73 143.29 746.87 C 150.43 746.48 157.60 746.82 164.76 746.71 C 164.72 760.65 164.83 774.59 164.70 788.53 C 161.80 788.49 158.90 788.49 156.01 788.50 C 156.00 786.82 155.99 785.14 155.98 783.47 C 149.70 790.14 138.31 792.04 130.96 786.07 C 126.17 782.17 125.16 775.62 124.92 769.82 C 124.20 754.18 124.35 738.49 125.40 722.87 C 125.98 717.75 127.99 712.31 132.57 709.48 Z" />
<path fill="#431503" d=" M 187.40 709.34 C 193.26 705.84 200.58 705.96 207.09 707.23 C 212.47 708.16 217.21 712.43 218.16 717.89 C 218.96 722.78 218.75 727.77 218.74 732.71 C 215.49 732.70 212.25 732.70 209.01 732.72 C 208.84 728.16 209.57 723.35 207.82 719.03 C 205.45 714.55 199.34 714.56 195.14 716.01 C 190.79 717.71 190.12 722.98 189.94 727.04 C 189.45 741.71 189.11 756.42 190.01 771.08 C 190.13 774.12 190.75 777.58 193.40 779.49 C 198.68 783.05 207.40 780.37 209.00 773.97 C 210.30 767.89 209.57 761.63 209.75 755.47 C 205.84 755.47 201.92 755.47 198.01 755.47 C 197.99 752.54 198.00 749.62 198.00 746.71 C 205.17 746.71 212.33 746.71 219.50 746.71 C 219.50 760.64 219.51 774.57 219.50 788.50 C 216.58 788.49 213.66 788.50 210.74 788.49 C 210.75 786.73 210.77 784.99 210.80 783.25 C 204.33 790.41 192.01 792.18 184.71 785.32 C 179.18 779.76 179.67 771.33 179.26 764.08 C 179.31 750.77 178.90 737.44 179.87 724.15 C 180.25 718.50 182.32 712.42 187.40 709.34 Z" />
<path fill="#431503" d=" M 18.50 788.50 C 18.49 761.57 18.50 734.64 18.50 707.71 C 27.06 707.93 35.68 707.18 44.21 708.26 C 49.86 708.88 54.90 712.98 56.42 718.50 C 58.14 724.85 58.06 731.94 55.48 738.05 C 54.07 741.62 50.78 743.99 47.14 744.92 C 50.56 745.62 53.94 747.32 55.70 750.47 C 59.46 756.64 58.97 764.24 58.48 771.17 C 58.14 776.12 56.19 781.08 52.31 784.32 C 48.46 787.85 42.98 788.34 38.00 788.49 C 31.50 788.53 25.00 788.49 18.50 788.50 Z" />
<path fill="#431503" d=" M 70.24 707.71 C 73.73 707.71 77.23 707.71 80.73 707.69 C 80.80 728.46 80.73 749.22 80.76 769.99 C 80.84 773.36 81.42 777.45 84.57 779.38 C 88.26 781.38 93.22 781.31 96.63 778.76 C 99.31 776.28 98.98 772.30 99.22 768.99 C 99.27 748.56 99.22 728.13 99.24 707.71 C 102.75 707.70 106.27 707.70 109.78 707.74 C 109.59 728.82 110.08 749.92 109.49 770.99 C 109.43 776.12 108.20 781.72 104.16 785.23 C 99.27 789.48 92.31 790.02 86.12 789.44 C 81.20 789.05 76.10 787.06 73.22 782.86 C 70.38 778.85 70.46 773.73 70.25 769.04 C 70.22 748.59 70.26 728.15 70.24 707.71 Z" />
<path fill="#431503" d=" M 223.88 707.72 C 227.55 707.70 231.22 707.71 234.89 707.70 C 238.77 720.96 242.76 734.18 246.57 747.46 C 250.66 734.25 254.49 720.95 258.47 707.71 C 262.11 707.71 265.74 707.69 269.38 707.73 C 264.35 721.88 259.17 735.97 254.10 750.10 C 253.12 753.01 251.56 755.86 251.74 759.02 C 251.75 768.85 251.78 778.68 251.74 788.50 C 248.16 788.50 244.58 788.50 241.00 788.50 C 241.00 778.65 241.00 768.80 241.01 758.95 C 241.15 755.87 239.62 753.10 238.72 750.25 C 233.78 736.07 228.75 721.92 223.88 707.72 Z" />
<path fill="#e12435" d=" M 275.54 788.51 C 281.34 761.58 287.13 734.66 292.91 707.74 C 296.34 707.70 299.76 707.70 303.19 707.71 C 309.14 734.64 315.09 761.57 321.03 788.50 C 317.43 788.50 313.84 788.50 310.25 788.47 C 309.29 783.34 308.32 778.21 307.49 773.07 C 301.31 772.92 295.13 773.03 288.96 773.00 C 288.02 778.15 287.13 783.33 286.20 788.49 C 282.64 788.49 279.09 788.49 275.54 788.51 Z" />
<path fill="#e12435" d=" M 328.77 707.72 C 332.25 707.71 335.74 707.70 339.23 707.72 C 339.25 731.56 339.25 755.40 339.23 779.24 C 347.08 779.26 354.92 779.25 362.76 779.25 C 362.78 782.34 362.77 785.44 362.67 788.55 C 351.37 788.43 340.07 788.54 328.77 788.48 C 328.75 761.56 328.76 734.64 328.77 707.72 Z" />
<path fill="#e12435" d=" M 371.29 707.73 C 374.69 707.71 378.10 707.71 381.51 707.71 C 381.55 724.11 381.51 740.51 381.52 756.91 C 381.64 762.91 381.09 769.03 382.40 774.95 C 383.93 781.19 392.43 782.20 397.17 779.14 C 400.53 776.49 399.96 771.75 400.25 767.96 C 400.34 747.90 400.30 727.83 400.27 707.76 C 403.68 707.70 407.10 707.70 410.52 707.72 C 410.55 728.15 410.51 748.58 410.54 769.02 C 410.52 774.53 409.77 780.65 405.68 784.73 C 400.79 789.40 393.49 790.05 387.07 789.42 C 381.96 789.00 376.47 786.86 373.80 782.22 C 371.54 778.56 371.35 774.13 371.30 769.96 C 371.29 749.22 371.31 728.48 371.29 707.73 Z" />
<path fill="#e12435" d=" M 426.32 788.50 C 426.30 761.56 426.24 734.63 426.35 707.69 C 431.39 707.73 436.44 707.70 441.49 707.71 C 445.19 731.48 449.10 755.22 452.57 779.02 C 456.34 755.26 459.86 731.48 463.58 707.72 C 468.74 707.71 473.89 707.71 479.05 707.72 C 479.04 734.64 479.06 761.57 479.04 788.49 C 475.87 788.50 472.70 788.49 469.54 788.47 C 470.06 770.38 470.32 752.28 470.61 734.18 C 470.89 728.67 470.75 723.15 470.57 717.65 C 467.43 741.35 462.92 764.86 459.29 788.49 C 454.99 788.49 450.70 788.48 446.42 788.52 C 442.32 764.92 438.80 741.23 434.44 717.69 C 435.26 741.28 435.63 764.89 436.04 788.49 C 432.80 788.49 429.55 788.49 426.32 788.50 Z" />
<path fill="#e12435" d=" M 495.29 707.73 C 499.90 707.70 504.50 707.71 509.11 707.72 C 514.26 730.57 519.93 753.32 524.70 776.25 C 525.05 772.82 525.14 769.36 524.88 765.92 C 524.51 746.52 524.20 727.12 523.75 707.73 C 527.06 707.71 530.38 707.71 533.69 707.68 C 533.87 734.60 533.67 761.52 533.80 788.44 C 528.99 788.53 524.18 788.47 519.37 788.51 C 513.98 765.68 509.35 742.65 503.62 719.90 C 504.74 742.73 504.43 765.64 505.32 788.49 C 501.98 788.49 498.65 788.49 495.32 788.50 C 495.26 761.57 495.31 734.65 495.29 707.73 Z" />
<path fill="#e12435" d=" M 549.54 707.73 C 552.95 707.71 556.35 707.71 559.77 707.73 C 559.73 734.66 559.82 761.59 559.72 788.52 C 556.32 788.49 552.93 788.49 549.54 788.48 C 549.54 761.56 549.53 734.64 549.54 707.73 Z" />
<path fill="#fefcfc" d=" M 28.76 716.96 C 33.46 717.09 38.39 716.37 42.89 718.07 C 47.04 719.91 47.48 725.10 47.52 729.07 C 47.42 733.18 46.52 738.54 42.03 740.05 C 37.74 741.32 33.17 740.48 28.76 740.71 C 28.75 732.79 28.76 724.87 28.76 716.96 Z" />
<path fill="#fefcfc" d=" M 297.94 723.85 C 300.59 737.21 303.12 750.60 305.59 764.00 C 300.62 764.00 295.65 764.00 290.68 764.00 C 293.14 750.62 295.43 737.21 297.94 723.85 Z" />
<path fill="#fefcfc" d=" M 28.76 749.72 C 33.75 749.90 39.11 748.97 43.78 751.16 C 48.36 754.05 48.40 760.21 48.56 765.04 C 48.64 769.63 48.52 775.53 44.01 778.13 C 39.27 780.41 33.82 779.21 28.76 779.49 C 28.76 769.56 28.76 759.64 28.76 749.72 Z" />
<path fill="#431503" d=" M 195.10 808.22 C 196.61 808.22 198.13 808.23 199.64 808.25 C 202.05 819.68 204.72 831.06 207.13 842.49 C 205.56 842.48 203.99 842.49 202.43 842.50 C 202.02 840.32 201.63 838.16 201.21 836.00 C 198.66 836.11 196.01 835.66 193.53 836.30 C 193.04 838.34 192.76 840.43 192.41 842.51 C 190.84 842.49 189.29 842.49 187.73 842.49 C 190.18 831.06 192.64 819.64 195.10 808.22 Z" />
<path fill="#431503" d=" M 214.26 808.26 C 217.83 807.20 223.19 807.23 224.82 811.33 C 225.51 813.64 225.17 816.11 225.27 818.50 C 224.28 818.50 222.30 818.51 221.31 818.51 C 221.36 815.88 221.70 811.58 217.95 811.49 C 214.50 811.28 213.41 815.57 214.91 818.06 C 217.62 822.29 222.04 825.11 224.70 829.40 C 226.32 832.10 226.40 835.57 225.38 838.51 C 223.11 843.81 215.14 844.39 211.16 840.74 C 208.55 838.00 209.35 833.92 209.24 830.50 C 210.65 830.48 212.06 830.49 213.47 830.50 C 213.46 833.52 212.97 837.13 215.86 839.07 C 216.67 839.06 218.30 839.05 219.12 839.04 C 221.20 837.70 222.41 835.14 221.22 832.78 C 218.50 827.54 212.32 824.71 210.36 818.96 C 209.34 815.18 209.90 809.64 214.26 808.26 Z" />
<path fill="#431503" d=" M 234.22 808.27 C 237.06 807.47 240.48 807.28 243.05 808.97 C 246.06 811.13 245.19 815.28 245.59 818.48 C 244.60 818.49 242.62 818.51 241.63 818.52 C 241.40 816.74 241.39 814.95 240.88 813.24 C 239.91 811.10 237.03 811.06 235.36 812.36 C 234.06 814.17 234.15 816.80 235.37 818.64 C 238.34 822.89 242.98 825.80 245.37 830.48 C 246.69 834.26 246.45 839.44 242.70 841.77 C 239.38 843.54 234.89 843.52 231.82 841.24 C 228.63 838.62 229.29 834.14 229.22 830.50 C 230.63 830.49 232.04 830.49 233.45 830.50 C 233.44 833.60 233.16 837.19 235.98 839.24 C 237.70 839.00 239.41 838.68 241.04 838.08 C 241.49 836.26 242.22 834.28 241.24 832.50 C 238.55 827.77 233.34 825.02 230.86 820.16 C 229.22 816.19 229.60 810.00 234.22 808.27 Z" />
<path fill="#431503" d=" M 255.25 808.27 C 258.49 807.35 262.65 807.25 265.15 809.88 C 267.15 812.07 267.07 815.22 267.24 818.00 C 267.30 823.71 267.28 829.43 266.85 835.13 C 266.58 837.58 265.97 840.44 263.64 841.77 C 260.71 843.36 256.97 843.44 253.94 842.12 C 250.61 840.47 250.17 836.29 250.23 832.99 C 250.35 826.96 249.99 820.91 250.43 814.90 C 250.58 811.98 252.40 809.18 255.25 808.27 Z" />
<path fill="#431503" d=" M 274.50 811.35 C 276.64 807.24 282.44 806.89 286.22 808.71 C 290.06 810.66 289.44 815.63 289.54 819.24 C 288.48 819.24 286.35 819.25 285.29 819.25 C 285.11 817.01 285.63 814.57 284.50 812.54 C 282.37 810.25 278.15 811.79 278.07 814.93 C 277.56 821.93 277.57 829.03 278.04 836.05 C 278.14 839.29 283.14 840.33 284.72 837.62 C 285.72 835.29 285.45 832.69 285.55 830.24 C 286.96 830.23 288.38 830.24 289.80 830.26 C 289.53 834.15 290.37 839.24 286.67 841.81 C 282.66 844.02 276.25 843.42 274.17 838.85 C 272.69 834.40 273.40 829.62 273.24 825.02 C 273.41 820.47 272.61 815.64 274.50 811.35 Z" />
<path fill="#431503" d=" M 294.51 808.23 C 296.01 808.22 297.50 808.23 299.00 808.24 C 299.00 819.66 299.00 831.08 299.00 842.50 C 297.50 842.49 296.00 842.49 294.50 842.50 C 294.50 831.07 294.48 819.65 294.51 808.23 Z" />
<path fill="#431503" d=" M 309.53 808.28 C 311.03 808.24 312.53 808.22 314.04 808.23 C 316.57 819.64 319.09 831.05 321.63 842.46 C 320.05 842.48 318.47 842.50 316.89 842.52 C 316.49 840.35 316.10 838.20 315.73 836.04 C 313.16 835.98 310.60 835.99 308.04 836.00 C 307.64 838.17 307.25 840.36 306.85 842.54 C 305.29 842.51 303.73 842.48 302.17 842.47 C 304.63 831.07 307.10 819.68 309.53 808.28 Z" />
<path fill="#431503" d=" M 319.75 808.24 C 325.58 808.24 331.41 808.23 337.24 808.25 C 337.24 809.57 337.24 810.90 337.24 812.24 C 335.08 812.23 332.93 812.23 330.77 812.24 C 330.74 822.32 330.77 832.41 330.76 842.50 C 329.25 842.49 327.74 842.49 326.24 842.49 C 326.24 832.41 326.25 822.32 326.24 812.24 C 324.07 812.23 321.92 812.23 319.76 812.24 C 319.75 810.90 319.75 809.56 319.75 808.24 Z" />
<path fill="#431503" d=" M 339.76 808.23 C 341.26 808.23 342.77 808.23 344.28 808.24 C 344.29 819.66 344.29 831.08 344.29 842.50 C 342.78 842.49 341.27 842.49 339.76 842.50 C 339.75 831.07 339.76 819.65 339.76 808.23 Z" />
<path fill="#431503" d=" M 356.11 808.10 C 359.60 807.32 364.19 807.34 366.30 810.78 C 368.10 814.20 367.46 818.25 367.75 821.98 C 367.50 826.99 367.81 832.07 367.00 837.04 C 366.06 844.73 352.80 845.27 351.13 837.82 C 350.00 830.60 350.65 823.25 350.81 815.99 C 350.73 812.62 352.62 808.91 356.11 808.10 Z" />
<path fill="#431503" d=" M 374.05 808.24 C 376.05 808.23 378.04 808.23 380.04 808.24 C 382.19 817.45 384.36 826.65 386.39 835.88 C 386.62 826.68 386.35 817.46 386.00 808.26 C 387.51 808.24 389.02 808.23 390.53 808.24 C 390.54 819.66 390.53 831.08 390.54 842.50 C 388.43 842.49 386.34 842.50 384.24 842.51 C 382.02 833.04 380.05 823.51 377.71 814.07 C 378.21 823.53 378.28 833.02 378.28 842.50 C 376.87 842.49 375.45 842.49 374.05 842.49 C 374.05 831.07 374.04 819.65 374.05 808.24 Z" />
<path fill="#fefcfc" d=" M 256.28 812.37 C 258.22 810.50 262.24 811.66 262.33 814.51 C 262.87 821.82 263.06 829.23 262.10 836.52 C 261.62 839.91 256.24 840.16 255.24 836.96 C 254.25 831.69 254.99 826.28 254.74 820.96 C 254.93 818.11 254.30 814.72 256.28 812.37 Z" />
<path fill="#fefcfc" d=" M 357.14 812.07 C 359.47 810.53 362.91 812.03 362.88 814.96 C 363.06 822.13 363.46 829.41 362.52 836.54 C 362.07 840.24 355.80 840.03 355.53 836.32 C 354.95 830.93 355.46 825.48 355.27 820.07 C 355.41 817.38 354.75 813.98 357.14 812.07 Z" />
<path fill="#fefcfc" d=" M 194.35 832.00 C 195.30 826.51 196.28 821.02 197.35 815.56 C 198.34 821.04 199.41 826.51 200.42 832.00 C 198.40 831.99 196.37 831.99 194.35 832.00 Z" />
<path fill="#fefcfc" d=" M 311.68 815.68 C 312.93 821.08 313.83 826.56 314.91 832.00 C 312.87 831.99 310.83 831.99 308.80 832.00 C 309.74 826.55 310.79 821.13 311.68 815.68 Z" />
</svg>
