<svg id="Layer_1" data-name="Layer 1" xmlns="http://www.w3.org/2000/svg" viewBox="0 0 288 288"><defs><style>.cls-1{fill:#be1e2d;}</style></defs><path class="cls-1" d="M16.54,77q30.57-1.74,61.2-2.52,30.38-.76,60.75-.55,30.63.21,61.24,1.4c4.19.16,8.41.24,12.58.78-.64-.08.46.07.64.1.42.06.84.14,1.25.21q1.43.27,2.82.63c.7.17.3.08.15,0l.68.2c.39.13.78.26,1.16.41a14,14,0,0,1,2.11.92A14.63,14.63,0,0,1,228,85.89a18.24,18.24,0,0,1,.69,10.72c-1.68,8.1-7.4,14.16-13.69,19.12-6.71,5.29-14.05,9.74-19.84,16.11-5.46,6-9.16,13.62-8,21.88,1.14,8.06,5.78,15.39,6.09,23.58.3,7.64-4.21,13.6-10.12,17.93-6.67,4.89-14.61,8.08-22.18,11.29-8.73,3.69-17.63,7-26.67,9.85q-6.81,2.15-13.71,4c-2.32.61-4.64,1.26-7,1.75-.44.09.29.14-.12,0s.55.14,0,0,.12,0,.18,0c-.2,0-.42-.07-.62-.13.78.21-.62-.37-.12-.09-.17-.09-.8-.52-.7-.44a6.28,6.28,0,0,1-2.19-3.67,7.61,7.61,0,0,1,.91-4.74l6.34-13.81L130,171.44q12.78-27.84,25.57-55.68l6.23-13.58c1.23-2.69-6.1-3.75-7.16-1.46q-13.19,28.75-26.39,57.49L115.09,187l-6.54,14.26-3.33,7.24a32.22,32.22,0,0,0-2.63,6.32c-.76,3.62,1.24,7.17,4.2,9.15a13,13,0,0,0,6.44,2,24.6,24.6,0,0,0,7.5-1.19q14.58-3.67,28.76-8.75,13.88-5,27.25-11.22c7.15-3.36,14.48-7.31,19.46-13.61a20.85,20.85,0,0,0,4.38-10.11c.54-4.13-.39-8.32-1.6-12.25-2.45-7.94-6.31-15.82-3.65-24.26,2.51-8,9.13-14,15.62-18.82,7.07-5.31,14.87-10.14,20.17-17.39,4.59-6.27,7.14-15,4.32-22.53-2.94-7.83-11.16-11.52-18.84-13a84,84,0,0,0-12.16-1.2q-8-.33-15.93-.59-15.67-.52-31.36-.78-31.87-.52-63.75,0-31.62.51-63.21,2.06-7.71.38-15.42.82c-1,.06-3.39.7-2.76,2.2S15.22,77,16.54,77Z"/><path class="cls-1" d="M15.41,66.85c22-1,44.08-1.64,66.12-2.23,18.8-.5,37.57-.75,56.37-.41,20.86.38,41.71,1,62.54,2.12,8.9.48,18.68.46,26.86,4.51A24.46,24.46,0,0,1,241,91c.55,9.87-4.83,18.46-11.72,25-7.1,6.79-16,11.51-23,18.44a28.73,28.73,0,0,0-7.51,12.29,31.51,31.51,0,0,0-.26,14.8c1.77,9.23,6.62,19.73,2.73,29a26.93,26.93,0,0,1-7.93,10,68.46,68.46,0,0,1-11.93,7.84l-1.57.83-.79.4c-.07,0-.73.37-.19.1-1.16.58-2.34,1.15-3.52,1.71-2.31,1.09-4.65,2.16-7,3.18q-7.17,3.14-14.52,5.84c-2.53.93-4.09,1.48-6.67,2.36s-5,1.67-7.57,2.46q-7.38,2.31-14.86,4.3-3.84,1-7.71,2l-3.64.89-1.82.43-.91.21-.45.1c.27-.06.27-.07,0,0a8,8,0,0,1-2.55,0,10.8,10.8,0,0,1-2.56-.68,8.74,8.74,0,0,1-3.93-3c-2.16-3.21-1.65-8.07-1-11.66A66.12,66.12,0,0,1,105,203.77c4.39-10,8.92-20,13.46-29.88,9.15-20,18.47-40,27.74-59.92L153,99.33c.77-1.65-1.15-2-2.4-1.83-1.65.26-4.2,1.19-5,2.86q-14.3,30.78-28.57,61.56-7,15.24-13.93,30.54c-2.26,5-4.57,10-6.69,15.1-2,4.75-3.87,9.74-4.44,14.89-.44,4-.33,8.58,2.43,11.69,3,3.37,7.88,4.33,12.17,4a55.44,55.44,0,0,0,8-1.71c2.58-.63,5.16-1.28,7.72-1.95,5.14-1.35,10.25-2.79,15.33-4.36a304.87,304.87,0,0,0,30.69-11.17c9.83-4.21,19.75-8.81,28.28-15.33a42.47,42.47,0,0,0,10.35-10.75,23.37,23.37,0,0,0,3.41-14c-.64-10.35-6.07-20.25-4.54-30.73a22.77,22.77,0,0,1,5.91-12.29c3.26-3.52,7.42-6.28,11.34-9.15,8.24-6,16.53-12.55,21.65-21.58,4.77-8.42,5.77-18.87.92-27.49a26.54,26.54,0,0,0-9.13-9.61,38.11,38.11,0,0,0-12.75-4.64,109.74,109.74,0,0,0-14.47-1.53q-8.3-.47-16.59-.84c-11-.49-22-.84-33-1.13-19.13-.49-38.26-.84-57.39-.4-22,.51-44.07,1.11-66.09,2Q28,61.68,19.77,62a7.82,7.82,0,0,0-5.42,2.31c-1,1.15-.69,2.57,1.06,2.5Z"/><path class="cls-1" d="M18.17,56.84c24.33-.78,48.67-1.26,73-2,8.92-.27,17.84-.65,26.76-.63,9.11,0,18.22.24,27.32.53,22.45.71,45.16,1.46,67.42,3.28,10.17.83,20.74,2.43,29,8.87,7.57,5.93,12.79,14.67,12.3,24.51A34.36,34.36,0,0,1,249,106.9a43.63,43.63,0,0,1-4.57,6.32,53.86,53.86,0,0,1-5.2,5.34,137.16,137.16,0,0,1-12.93,10.09c-4.38,3.09-8.9,6-12.45,10.12a24.72,24.72,0,0,0-5.9,15.08c-.29,5.81,1.07,11.53,2.24,17.18,1.1,5.3,2.11,10.68,1.8,16.11a22.43,22.43,0,0,1-5.08,13.43,34,34,0,0,1-5,4.87c-2.13,1.79-4.36,3.46-6.66,5l-.39.26c-.31.22-.63.43-.95.63-.51.34-1,.67-1.54,1q-1.94,1.23-3.92,2.37-3.66,2.13-7.43,4c-1.16.59-2.32,1.17-3.49,1.74l-2.07,1-.84.39a4.75,4.75,0,0,1-.56.25q-4,1.81-8,3.49c-5.26,2.17-10.6,4.16-16,6s-10.86,3.55-16.35,5.13l-2,.58-.39.11-.89.24c-1.49.42-3,.82-4.48,1.22q-4.14,1.09-8.31,2.12c-2.77.69-5.55,1.35-8.33,2l-4.06.93c-.64.14-1.27.29-1.91.41l-1,.17c-.1,0-1.17.13-.67.09s-.73,0-.66,0l-.81,0c-.61,0-1.21,0-1.81,0-.15,0-1-.08-.36,0l-.77-.09c-.63-.08-1.26-.19-1.88-.33a12.28,12.28,0,0,1-5-2.28c-8.11-6.8-2.94-19.21.45-27.07,4.86-11.29,9.89-22.52,15-33.71,10.2-22.34,20.7-44.53,31.13-66.76l7.64-16.27c.89-1.91-1.21-3-2.83-2.92-2.06.09-4.61,1.1-5.55,3.09-10.74,22.9-21.55,45.77-32.18,68.73q-7.86,17-15.47,34c-2.47,5.58-5,11.16-7.31,16.82-2,5.05-4,10.56-3.92,16.07,0,4.93,1.91,10,6,13,4.31,3.1,10,4,15.18,3.67,5.85-.37,11.66-2.14,17.34-3.53q9-2.2,18-4.75a314.64,314.64,0,0,0,33.27-11.31c10.95-4.47,21.83-9.56,31.7-16.12,9.45-6.28,19.35-13.9,21.56-25.7,1.06-5.62.32-11.43-.68-17s-2.64-11.14-2.91-16.85c-.24-5.28.75-10.64,4-14.65.34-.42.7-.83,1.07-1.23-.09.09.85-.86.5-.52l.53-.5c1-.93,2.1-1.8,3.2-2.63,2.14-1.63,4.38-3.13,6.58-4.68,9.3-6.59,18.32-13.86,24.31-23.71,5.8-9.54,7.92-21.52,3.07-31.9-4.41-9.45-13.09-16.41-22.86-19.71-11.32-3.83-23.51-4.07-35.33-4.79s-23.76-1.23-35.64-1.69c-18.85-.72-37.77-1.63-56.63-1-23.4.71-46.8,1.26-70.19,1.93l-18.48.56c-2,.07-4.69,1.1-5.55,3.09s1.16,3,2.83,2.92Z"/><path class="cls-1" d="M18.29,45.07c27.35-.54,54.72-.85,82.07-1.89l7.26-.29,2.92-.12,1.19-.05.68,0c.62,0,.41,0-.08,0,4.33-.21,8.72,0,13.06,0,9.08.16,18.16.45,27.23.92,12.85.66,25.7,1.25,38.54,2,6.63.41,13.27.87,19.9,1.42a139.69,139.69,0,0,1,19.11,2.56c11.37,2.55,22.48,7.78,29.88,17.06A34,34,0,0,1,266.85,81a35.21,35.21,0,0,1-1.11,17.55c-3.67,11.72-12,20.91-21.52,28.38-4.76,3.74-9.85,7-14.81,10.45-4.63,3.25-9,7.23-10.58,12.84-1.66,5.82-.72,11.93.46,17.74s2.53,11.74,2.75,17.78c.21,5.84-.56,11.76-3.35,17s-7.43,9.13-12.16,12.63A161.78,161.78,0,0,1,191.87,225c-5.38,3.16-10.35,5.74-15.71,8.23-2.84,1.33-5.72,2.59-8.61,3.79-1.32.55-2.64,1.09-4,1.62l-2,.78c-1.28.5.5-.18-.28.11l-1.4.53c-5.78,2.16-11.63,4.13-17.53,5.95-1.37.43-2.75.84-4.13,1.25l-1.25.37c.19-.06,1-.28,0,0l-2.5.72c-3.05.86-6.11,1.68-9.18,2.48-5.85,1.52-11.74,2.94-17.63,4.3-3.08.7-6.16,1.4-9.24,2.07l-.76.17c-1.19.27,1.14-.22-.06,0l-1.74.34-1.76.29-1.07.16c-.17,0-1.39.15-.23,0-1.26.12-2.5.21-3.76.29-.69,0,.93,0-.21,0h-1c-.7,0-1.4-.05-2.09-.11a25.41,25.41,0,0,1-2.84-.49,15.6,15.6,0,0,1-3.12-1.09,14.3,14.3,0,0,1-8-11.8c-.54-5.61,1.25-11.19,3.29-16.34,5-12.73,10.8-25.21,16.46-37.67,11.59-25.56,23.7-50.88,35.7-76.25l8.9-18.83c.72-1.52-3.29-1-3.82-.89a14.82,14.82,0,0,0-3.7,1.07c-.67.31-1.69.7-2,1.4-12.31,26-24.72,52-36.83,78.13-6,12.91-11.87,25.87-17.55,38.92-2.66,6.11-5.53,12.21-7.73,18.5-1.82,5.19-3.3,11.07-2.06,16.55a15.39,15.39,0,0,0,9.67,10.92c5.08,1.95,10.76,2,16.1,1.39a162.81,162.81,0,0,0,18.53-3.57c6-1.38,12.06-2.81,18.06-4.36,25-6.42,49.72-14.62,72.21-27.38a185.13,185.13,0,0,0,15.82-10.11c5-3.59,10.07-7.42,13.67-12.51,7.14-10.08,5.72-23.3,3.29-34.69-1.28-5.95-2.78-12.15-1.91-18.28.84-5.94,4.59-10.16,9.28-13.57,4.89-3.55,10.26-6.85,15.12-10.62a86.17,86.17,0,0,0,13.4-12.7c7.72-9.21,12.94-21.48,11.19-33.67-1.6-11.17-9.37-20.59-18.74-26.43-11.17-7-24.42-9.11-37.32-10.24-13.3-1.17-26.62-2-40-2.63-20.43-1-40.94-2.43-61.4-2.09-10.48.17-21,.8-31.43,1.09-14,.38-28.36.6-42.53.88l-20.84.41a14.13,14.13,0,0,0-6.86,1.71c-.41.25-1.32.75-1.17,1.35s1.27.65,1.67.64Z"/></svg>