<svg xmlns="http://www.w3.org/2000/svg" viewBox="0 0 358.09 425.29"><defs><style>.cls-1,.cls-2,.cls-4,.cls-6{fill:#fff;}.cls-2,.cls-3,.cls-4,.cls-5,.cls-6{stroke:#be1e2d;stroke-miterlimit:10;}.cls-2,.cls-3{stroke-width:9px;}.cls-3,.cls-5{fill:none;}.cls-4,.cls-5{stroke-width:5px;}.cls-6{stroke-width:2px;}</style></defs><g id="Layer_3" data-name="Layer 3"><circle class="cls-1" cx="178.66" cy="217.43" r="177.43"/><path class="cls-2" d="M271.31,190.22V89.64c-66.33-11.4-127.64-8.88-186.67,0v162.2a72.73,72.73,0,0,0,26.86,56.44l57.08,46.37a16.49,16.49,0,0,0,21.11-.25l56.11-47.87a72.7,72.7,0,0,0,25.51-55.31v-6"/><path class="cls-3" d="M85.63,263.75l116.21-50.9a13.34,13.34,0,0,0,4.48-21.24l-100-104.92"/><path class="cls-2" d="M141.23,86.11,247.09,201a16.23,16.23,0,0,1-2.46,24.16L120.48,314.57l48.1,39.08L281.76,237.12a25.88,25.88,0,0,0,.08-36L166.38,81.2"/><path class="cls-3" d="M271.31,90.51c-66.33-11.4-127.64-8.88-186.67,0"/><path class="cls-4" d="M89,231.38l-8.55,9-18,18.9a5.1,5.1,0,0,0,3.69,8.61h7.54l122.81-52.71a1.2,1.2,0,0,0-.48-2.31H132.18A59.66,59.66,0,0,0,89,231.38Z"/><line class="cls-5" x1="215.57" y1="156.37" x2="186" y2="212.85"/><path class="cls-4" d="M96,326.72,92,325.17a6,6,0,0,1-3.17-8.39l21.51-40.67a53.55,53.55,0,0,1,30.87-25.91l79.38-25.63L231.63,221a6,6,0,0,1,4.82.51h0a6,6,0,0,1,.44,10.1L101.59,326A6,6,0,0,1,96,326.72Z"/><path class="cls-6" d="M100.48,242.06l-7.07,4.36c-11.79,4.07-17.93,4.34-21.47,2.84l8.48-8.9c2.92,2.31,10.35,1.72,19.57,0A.92.92,0,0,1,100.48,242.06Z"/><path class="cls-6" d="M103.71,288.59s-.77,2.84,4.86,3.59,22.86-5.73,22.86-5.73l-6,9.86s-17.58,12-24.56,13.51-7-2.76-7-2.76Z"/><path class="cls-6" d="M204,156.37H228l.05-.06a2.43,2.43,0,0,0-2-3.79H204.78l-1.63,2.13A1.07,1.07,0,0,0,204,156.37Z"/><path class="cls-6" d="M241.9,158.29h24l0-.06a2.42,2.42,0,0,0-2-3.78H242.67l-1.62,2.13A1.06,1.06,0,0,0,241.9,158.29Z"/><polygon class="cls-6" points="249.35 158.29 215.57 226.18 220.56 224.56 253.58 158.29 249.35 158.29"/><path class="cls-6" d="M212.3,156.37l-27.44,54.14a1.92,1.92,0,0,0,2.29,2.7h0L216,156.37Z"/></g></svg>