<svg xmlns="http://www.w3.org/2000/svg" xmlns:xlink="http://www.w3.org/1999/xlink" viewBox="0 0 449.72 450"><defs><style>.cls-1,.cls-2,.cls-3,.cls-4{fill:none;}.cls-1,.cls-2,.cls-3,.cls-4,.cls-5{stroke:#fff;stroke-miterlimit:10;}.cls-1,.cls-3{stroke-width:9px;}.cls-2,.cls-5{stroke-width:2px;}.cls-3{stroke-linecap:round;}.cls-4{stroke-width:5px;}.cls-5,.cls-6{fill:#be1e2d;}.cls-7{fill:#e9b53e;}</style><symbol id="New_Symbol" data-name="New Symbol" viewBox="0 0 233.66 287.93"><path class="cls-1" d="M61.47,240.26l48.59,39.48a16.52,16.52,0,0,0,21.12-.25c29.71-28.19,83.88-56.94,82-104.32"/><path class="cls-1" d="M27.1,188.84a72.81,72.81,0,0,0,14.09,32.4"/><path class="cls-1" d="M212.8,15.59c-66.34-11.4-127.65-8.87-186.68,0"/><path class="cls-2" d="M42,167.14c-7.27,6.3-25.81,9.75-28.53,7.21l8.47-8.9C24.51,169.63,45.72,163.12,42,167.14Z"/><path class="cls-2" d="M45.19,213.67c.44,9,27.74-2.26,27.72-2.13l-6,9.85s-17.58,12-24.56,13.52-7-2.76-7-2.76Z"/><path class="cls-3" d="M212.8,112.71V12.13a534.54,534.54,0,0,0-105-7.44c-20.46.53-40.53,2.13-60.3,4.54q-10.76,1.29-21.39,2.9V158.41"/><path class="cls-1" d="M145.31,112.5c-14.74-17-51.19-46.92-97.48-100.72"/><path class="cls-1" d="M138.15,140.06c15-9.21,16.25-16.27,6.51-28.39"/><path class="cls-1" d="M27.11,191.31c57.55-26.93,93-40.36,110.45-50.89l.58-.35"/><path class="cls-1" d="M191.67,92l-9.14-8.9c-19.14-18.61-44.09-43-74.67-76.82"/><path class="cls-1" d="M179.58,114.45c15.68,18,16.43,27,.37,41-17.81,15.51-56.28,37.19-118,84.23l48.1,39.08C220.93,160.25,252.71,157.27,212.43,113.06h0c-5.68-6.24-12.81-13.31-21.36-21.65"/><path class="cls-1" d="M155.81,89.68c8.5,8.55,18.23,18.68,23.77,24.77"/><path class="cls-1" d="M82.72,11.19C107.62,40.28,128.55,62.08,145.2,79l2.46,2.49,9.51,9.59"/><path class="cls-4" d="M127.49,137.94H73.67a59.68,59.68,0,0,0-43.22,18.53l-3.25,3.38C20.35,167,8.78,179.29,3.92,184.34A5.1,5.1,0,0,0,7.61,193h7.54l122.41-52.53.39-.17.19-.18"/><path class="cls-4" d="M131.19,137.94h-.94"/><path class="cls-4" d="M130.25,137.94h-1.91"/><path class="cls-4" d="M128.34,137.94h-.85"/><path class="cls-4" d="M138.15,140.06c2.63-2.62-3.91-2.3-7.9-2.12-.78,0-1.46.07-1.95.07a2.63,2.63,0,0,1-.81-.07"/><path class="cls-1" d="M138.14,140.07h0"/><path class="cls-4" d="M162.05,149.65l11.06-3.57c5.38-2.14,10.35,5.63,6.44,8.89a5.13,5.13,0,0,1-1.17.71L43.08,250.12a4.55,4.55,0,0,1-5.55,1.69c-4.5-1.13-10.12-4.56-7.25-9.94L51.79,201.2a53.57,53.57,0,0,1,30.87-25.91c4.74-1.56,49.64-16,74.39-24"/><path class="cls-4" d="M159.9,150.35l2.13-.69"/><path class="cls-5" d="M145.2,79c-.77,1-1.35,2.24.29,2.49h23.95a2.43,2.43,0,0,0-2-3.85H146.26C146,77.92,145.59,78.42,145.2,79Z"/><path class="cls-5" d="M195.06,83.38h12.28a2.43,2.43,0,0,0-2-3.85H184.16c-.53.76-2.49,2.71-1.58,3.53a1.5,1.5,0,0,0,.81.32h7.45"/><polyline class="cls-5" points="162.05 149.65 179.58 114.45 191.06 91.41 195.06 83.38 190.84 83.38 188.22 88.64 176.89 111.41 157.05 151.27"/><line class="cls-4" x1="162.03" y1="149.66" x2="162.05" y2="149.65"/><line class="cls-2" x1="159.9" y1="150.35" x2="162.03" y2="149.66"/><line class="cls-4" x1="157.05" y1="151.27" x2="159.9" y2="150.35"/><path class="cls-5" d="M159.61,82.16l-3.8,7.52-11.15,22L132.53,135.6a31.3,31.3,0,0,0-3.67,1.31,8.41,8.41,0,0,0-1.81,1c-1.23,1-.31,1.49.69,1.18l.56-1.11,0-.07.52-1,13.94-27.47,11-21.75,2.74-5.41Z"/></symbol></defs><g id="Layer_3" data-name="Layer 3"><circle class="cls-6" cx="226.54" cy="228.48" r="188.72" transform="translate(-95.21 227.11) rotate(-45)"/><path class="cls-7" d="M226.54,42.76A185.77,185.77,0,0,1,298.83,399.6,185.77,185.77,0,0,1,154.26,57.35a184.56,184.56,0,0,1,72.28-14.59m0-6c-105.88,0-191.71,85.84-191.71,191.72S120.66,420.2,226.54,420.2s191.72-85.84,191.72-191.72S332.43,36.76,226.54,36.76Z"/><use width="233.66" height="287.93" transform="translate(105.27 92.76)" xlink:href="#New_Symbol"/></g></svg>