<?xml version="1.0" encoding="UTF-8" standalone="no"?>
<!DOCTYPE svg PUBLIC "-//W3C//DTD SVG 1.1//EN" "http://www.w3.org/Graphics/SVG/1.1/DTD/svg11.dtd">
<svg preserveAspectRatio="none" viewBox="0.00 0.00 1816.00 373.00" xmlns="http://www.w3.org/2000/svg" xmlns:xlink="http://www.w3.org/1999/xlink">
<g stroke-linecap="round" transform="translate(0.00, -776.00)" id="Layer_1_Copy_5">
<path d="M-83.02,1053.17 C-80.57,1052.74 -79.06,1052.35 -76.86,1051.52 C-71.34,1049.44 -66.65,1047.35 -64.93,1046.82 C-42.89,1039.90 -25.25,1036.08 -9.97,1031.23 C22.26,1020.72 87.28,999.38 120.07,988.55 C134.29,983.83 162.04,974.81 175.58,970.53 C205.32,961.94 266.70,944.84 298.34,936.34 C311.79,932.91 342.18,925.40 354.47,923.28 C362.95,921.91 394.88,917.75 413.48,916.09 C428.99,915.01 464.87,913.81 473.76,913.81 C487.89,913.93 515.82,914.91 528.52,915.52 C556.39,917.38 621.39,923.09 646.26,925.42 C677.81,928.42 747.21,935.05 785.06,938.69 C821.14,942.16 888.21,948.62 919.20,951.61 C956.45,955.22 1027.91,962.17 1062.14,965.51 C1084.53,967.76 1134.60,973.06 1162.27,976.10 C1191.99,979.73 1247.47,986.61 1273.23,989.85 C1306.98,994.14 1376.85,1003.10 1412.96,1007.76 C1445.14,1011.95 1513.71,1020.89 1550.12,1025.64 C1583.75,1030.03 1644.29,1037.93 1671.21,1041.43 C1706.32,1045.99 1767.43,1053.98 1793.42,1057.41 C1822.91,1061.43 1888.37,1070.39 1924.34,1075.34 C1955.19,1079.66 2023.08,1089.39 2053.34,1094.24 C2063.96,1096.12 2090.63,1101.08 2106.68,1104.16 C2121.36,1107.31 2140.75,1112.74 2143.25,1113.44" fill="none" stroke="rgb(255, 255, 255)" stroke-width="33.38" stroke-opacity="1.00" stroke-linejoin="round"/>
<path d="M-83.02,1025.17 C-80.57,1024.74 -79.06,1024.35 -76.86,1023.52 C-71.34,1021.44 -66.65,1019.35 -64.93,1018.82 C-42.89,1011.90 -25.25,1008.08 -9.97,1003.23 C22.26,992.72 87.28,971.38 120.07,960.55 C134.29,955.83 162.04,946.81 175.58,942.53 C205.32,933.94 266.70,916.84 298.34,908.34 C311.79,904.91 342.18,897.40 354.47,895.28 C362.95,893.91 394.88,889.75 413.48,888.09 C428.99,887.01 464.87,885.81 473.76,885.81 C487.89,885.93 515.82,886.91 528.52,887.52 C556.39,889.38 621.39,895.09 646.26,897.42 C677.81,900.42 747.21,907.05 785.06,910.69 C821.14,914.16 888.21,920.62 919.20,923.61 C956.45,927.22 1027.91,934.17 1062.14,937.51 C1084.53,939.76 1134.60,945.06 1162.27,948.10 C1191.99,951.73 1247.47,958.61 1273.23,961.85 C1306.98,966.14 1376.85,975.10 1412.96,979.76 C1445.14,983.95 1513.71,992.89 1550.12,997.64 C1583.75,1002.03 1644.29,1009.93 1671.21,1013.43 C1706.32,1017.99 1767.43,1025.98 1793.42,1029.41 C1822.91,1033.43 1888.37,1042.39 1924.34,1047.34 C1955.19,1051.66 2023.08,1061.39 2053.34,1066.24 C2063.96,1068.12 2090.63,1073.08 2106.68,1076.16 C2121.36,1079.31 2140.75,1084.74 2143.25,1085.44" fill="none" stroke="rgb(255, 255, 255)" stroke-width="33.38" stroke-opacity="1.00" stroke-linejoin="round"/>
</g>
<g stroke-linecap="round" transform="translate(0.00, -776.00)" id="Layer_1_Copy_6">
<path d="M-82.02,1137.17 C-79.57,1136.74 -78.06,1136.35 -75.86,1135.52 C-70.34,1133.44 -65.65,1131.35 -63.93,1130.82 C-41.89,1123.90 -24.25,1120.08 -8.97,1115.23 C23.26,1104.72 88.28,1083.38 121.07,1072.55 C135.29,1067.83 163.04,1058.81 176.58,1054.53 C206.32,1045.94 267.70,1028.84 299.34,1020.34 C312.79,1016.91 343.18,1009.40 355.47,1007.28 C363.95,1005.91 395.88,1001.75 414.48,1000.09 C429.99,999.01 465.87,997.81 474.76,997.81 C488.89,997.93 516.82,998.91 529.52,999.52 C557.39,1001.38 622.39,1007.09 647.26,1009.42 C678.81,1012.42 748.21,1019.05 786.06,1022.69 C822.14,1026.16 889.21,1032.62 920.20,1035.61 C957.45,1039.22 1028.91,1046.17 1063.14,1049.51 C1085.53,1051.76 1135.60,1057.06 1163.27,1060.10 C1192.99,1063.73 1248.47,1070.61 1274.23,1073.85 C1307.98,1078.14 1377.85,1087.10 1413.96,1091.76 C1446.14,1095.95 1514.71,1104.89 1551.12,1109.64 C1584.75,1114.03 1645.29,1121.93 1672.21,1125.43 C1707.32,1129.99 1768.43,1137.98 1794.42,1141.41 C1823.91,1145.43 1889.37,1154.39 1925.34,1159.34 C1956.19,1163.66 2024.08,1173.39 2054.34,1178.24 C2064.96,1180.12 2091.63,1185.08 2107.68,1188.16 C2122.36,1191.31 2141.75,1196.74 2144.25,1197.44" fill="none" stroke="rgb(255, 255, 255)" stroke-width="33.38" stroke-opacity="1.00" stroke-linejoin="round"/>
<path d="M-82.02,1109.17 C-79.57,1108.74 -78.06,1108.35 -75.86,1107.52 C-70.34,1105.44 -65.65,1103.35 -63.93,1102.82 C-41.89,1095.90 -24.25,1092.08 -8.97,1087.23 C23.26,1076.72 88.28,1055.38 121.07,1044.55 C135.29,1039.83 163.04,1030.81 176.58,1026.53 C206.32,1017.94 267.70,1000.84 299.34,992.34 C312.79,988.91 343.18,981.40 355.47,979.28 C363.95,977.91 395.88,973.75 414.48,972.09 C429.99,971.01 465.87,969.81 474.76,969.81 C488.89,969.93 516.82,970.91 529.52,971.52 C557.39,973.38 622.39,979.09 647.26,981.42 C678.81,984.42 748.21,991.05 786.06,994.69 C822.14,998.16 889.21,1004.62 920.20,1007.61 C957.45,1011.22 1028.91,1018.17 1063.14,1021.51 C1085.53,1023.76 1135.60,1029.06 1163.27,1032.10 C1192.99,1035.73 1248.47,1042.61 1274.23,1045.85 C1307.98,1050.14 1377.85,1059.10 1413.96,1063.76 C1446.14,1067.95 1514.71,1076.89 1551.12,1081.64 C1584.75,1086.03 1645.29,1093.93 1672.21,1097.43 C1707.32,1101.99 1768.43,1109.98 1794.42,1113.41 C1823.91,1117.43 1889.37,1126.39 1925.34,1131.34 C1956.19,1135.66 2024.08,1145.39 2054.34,1150.24 C2064.96,1152.12 2091.63,1157.08 2107.68,1160.16 C2122.36,1163.31 2141.75,1168.74 2144.25,1169.44" fill="none" stroke="rgb(255, 255, 255)" stroke-width="33.38" stroke-opacity="1.00" stroke-linejoin="round"/>
</g>
<g stroke-linecap="round" transform="translate(0.00, -776.00)" id="Layer_1_Copy_7">
<path d="M-84.02,1192.17 C-81.57,1191.74 -80.06,1191.35 -77.86,1190.52 C-72.34,1188.44 -67.65,1186.35 -65.93,1185.82 C-43.89,1178.90 -26.25,1175.08 -10.97,1170.23 C21.26,1159.72 86.28,1138.38 119.07,1127.55 C133.29,1122.83 161.04,1113.81 174.58,1109.53 C204.32,1100.94 265.70,1083.84 297.34,1075.34 C310.79,1071.91 341.18,1064.40 353.47,1062.28 C361.95,1060.91 393.88,1056.75 412.48,1055.09 C427.99,1054.01 463.87,1052.81 472.76,1052.81 C486.89,1052.93 514.82,1053.91 527.52,1054.52 C555.39,1056.38 620.39,1062.09 645.26,1064.42 C676.81,1067.42 746.21,1074.05 784.06,1077.69 C820.14,1081.16 887.21,1087.62 918.20,1090.61 C955.45,1094.22 1026.91,1101.17 1061.14,1104.51 C1083.53,1106.76 1133.60,1112.06 1161.27,1115.10 C1190.99,1118.73 1246.47,1125.61 1272.23,1128.85 C1305.98,1133.14 1375.85,1142.10 1411.96,1146.76 C1444.14,1150.95 1512.71,1159.89 1549.12,1164.64 C1582.75,1169.03 1643.29,1176.93 1670.21,1180.43 C1705.32,1184.99 1766.43,1192.98 1792.42,1196.41 C1821.91,1200.43 1887.37,1209.39 1923.34,1214.34 C1954.19,1218.66 2022.08,1228.39 2052.34,1233.24 C2062.96,1235.12 2089.63,1240.08 2105.68,1243.16 C2120.36,1246.31 2139.75,1251.74 2142.25,1252.44" fill="none" stroke="rgb(255, 255, 255)" stroke-width="33.38" stroke-opacity="1.00" stroke-linejoin="round"/>
<path d="M-84.02,1164.17 C-81.57,1163.74 -80.06,1163.35 -77.86,1162.52 C-72.34,1160.44 -67.65,1158.35 -65.93,1157.82 C-43.89,1150.90 -26.25,1147.08 -10.97,1142.23 C21.26,1131.72 86.28,1110.38 119.07,1099.55 C133.29,1094.83 161.04,1085.81 174.58,1081.53 C204.32,1072.94 265.70,1055.84 297.34,1047.34 C310.79,1043.91 341.18,1036.40 353.47,1034.28 C361.95,1032.91 393.88,1028.75 412.48,1027.09 C427.99,1026.01 463.87,1024.81 472.76,1024.81 C486.89,1024.93 514.82,1025.91 527.52,1026.52 C555.39,1028.38 620.39,1034.09 645.26,1036.42 C676.81,1039.42 746.21,1046.05 784.06,1049.69 C820.14,1053.16 887.21,1059.62 918.20,1062.61 C955.45,1066.22 1026.91,1073.17 1061.14,1076.51 C1083.53,1078.76 1133.60,1084.06 1161.27,1087.10 C1190.99,1090.73 1246.47,1097.61 1272.23,1100.85 C1305.98,1105.14 1375.85,1114.10 1411.96,1118.76 C1444.14,1122.95 1512.71,1131.89 1549.12,1136.64 C1582.75,1141.03 1643.29,1148.93 1670.21,1152.43 C1705.32,1156.99 1766.43,1164.98 1792.42,1168.41 C1821.91,1172.43 1887.37,1181.39 1923.34,1186.34 C1954.19,1190.66 2022.08,1200.39 2052.34,1205.24 C2062.96,1207.12 2089.63,1212.08 2105.68,1215.16 C2120.36,1218.31 2139.75,1223.74 2142.25,1224.44" fill="none" stroke="rgb(255, 255, 255)" stroke-width="33.38" stroke-opacity="1.00" stroke-linejoin="round"/>
</g>
<g stroke-linecap="round" transform="translate(0.00, -776.00)" id="Layer_1_Copy_8">
<path d="M-84.02,1245.17 C-81.57,1244.74 -80.06,1244.35 -77.86,1243.52 C-72.34,1241.44 -67.65,1239.35 -65.93,1238.82 C-43.89,1231.90 -26.25,1228.08 -10.97,1223.23 C21.26,1212.72 86.28,1191.38 119.07,1180.55 C133.29,1175.83 161.04,1166.81 174.58,1162.53 C204.32,1153.94 265.70,1136.84 297.34,1128.34 C310.79,1124.91 341.18,1117.40 353.47,1115.28 C361.95,1113.91 393.88,1109.75 412.48,1108.09 C427.99,1107.01 463.87,1105.81 472.76,1105.81 C486.89,1105.93 514.82,1106.91 527.52,1107.52 C555.39,1109.38 620.39,1115.09 645.26,1117.42 C676.81,1120.42 746.21,1127.05 784.06,1130.69 C820.14,1134.16 887.21,1140.62 918.20,1143.61 C955.45,1147.22 1026.91,1154.17 1061.14,1157.51 C1083.53,1159.76 1133.60,1165.06 1161.27,1168.10 C1190.99,1171.73 1246.47,1178.61 1272.23,1181.85 C1305.98,1186.14 1375.85,1195.10 1411.96,1199.76 C1444.14,1203.95 1512.71,1212.89 1549.12,1217.64 C1582.75,1222.03 1643.29,1229.93 1670.21,1233.43 C1705.32,1237.99 1766.43,1245.98 1792.42,1249.41 C1821.91,1253.43 1887.37,1262.39 1923.34,1267.34 C1954.19,1271.66 2022.08,1281.39 2052.34,1286.24 C2062.96,1288.12 2089.63,1293.08 2105.68,1296.16 C2120.36,1299.31 2139.75,1304.74 2142.25,1305.44" fill="none" stroke="rgb(255, 255, 255)" stroke-width="33.38" stroke-opacity="1.00" stroke-linejoin="round"/>
<path d="M-84.02,1217.17 C-81.57,1216.74 -80.06,1216.35 -77.86,1215.52 C-72.34,1213.44 -67.65,1211.35 -65.93,1210.82 C-43.89,1203.90 -26.25,1200.08 -10.97,1195.23 C21.26,1184.72 86.28,1163.38 119.07,1152.55 C133.29,1147.83 161.04,1138.81 174.58,1134.53 C204.32,1125.94 265.70,1108.84 297.34,1100.34 C310.79,1096.91 341.18,1089.40 353.47,1087.28 C361.95,1085.91 393.88,1081.75 412.48,1080.09 C427.99,1079.01 463.87,1077.81 472.76,1077.81 C486.89,1077.93 514.82,1078.91 527.52,1079.52 C555.39,1081.38 620.39,1087.09 645.26,1089.42 C676.81,1092.42 746.21,1099.05 784.06,1102.69 C820.14,1106.16 887.21,1112.62 918.20,1115.61 C955.45,1119.22 1026.91,1126.17 1061.14,1129.51 C1083.53,1131.76 1133.60,1137.06 1161.27,1140.10 C1190.99,1143.73 1246.47,1150.61 1272.23,1153.85 C1305.98,1158.14 1375.85,1167.10 1411.96,1171.76 C1444.14,1175.95 1512.71,1184.89 1549.12,1189.64 C1582.75,1194.03 1643.29,1201.93 1670.21,1205.43 C1705.32,1209.99 1766.43,1217.98 1792.42,1221.41 C1821.91,1225.43 1887.37,1234.39 1923.34,1239.34 C1954.19,1243.66 2022.08,1253.39 2052.34,1258.24 C2062.96,1260.12 2089.63,1265.08 2105.68,1268.16 C2120.36,1271.31 2139.75,1276.74 2142.25,1277.44" fill="none" stroke="rgb(255, 255, 255)" stroke-width="33.38" stroke-opacity="1.00" stroke-linejoin="round"/>
</g>
<g stroke-linecap="round" transform="translate(0.00, -776.00)" id="Layer_1_Copy_9">
<path d="M-84.02,1289.17 C-81.57,1288.74 -80.06,1288.35 -77.86,1287.52 C-72.34,1285.44 -67.65,1283.35 -65.93,1282.82 C-43.89,1275.90 -26.25,1272.08 -10.97,1267.23 C21.26,1256.72 86.28,1235.38 119.07,1224.55 C133.29,1219.83 161.04,1210.81 174.58,1206.53 C204.32,1197.94 265.70,1180.84 297.34,1172.34 C310.79,1168.91 341.18,1161.40 353.47,1159.28 C361.95,1157.91 393.88,1153.75 412.48,1152.09 C427.99,1151.01 463.87,1149.81 472.76,1149.81 C486.89,1149.93 514.82,1150.91 527.52,1151.52 C555.39,1153.38 620.39,1159.09 645.26,1161.42 C676.81,1164.42 746.21,1171.05 784.06,1174.69 C820.14,1178.16 887.21,1184.62 918.20,1187.61 C955.45,1191.22 1026.91,1198.17 1061.14,1201.51 C1083.53,1203.76 1133.60,1209.06 1161.27,1212.10 C1190.99,1215.73 1246.47,1222.61 1272.23,1225.85 C1305.98,1230.14 1375.85,1239.10 1411.96,1243.76 C1444.14,1247.95 1512.71,1256.89 1549.12,1261.64 C1582.75,1266.03 1643.29,1273.93 1670.21,1277.43 C1705.32,1281.99 1766.43,1289.98 1792.42,1293.41 C1821.91,1297.43 1887.37,1306.39 1923.34,1311.34 C1954.19,1315.66 2022.08,1325.39 2052.34,1330.24 C2062.96,1332.12 2089.63,1337.08 2105.68,1340.16 C2120.36,1343.31 2139.75,1348.74 2142.25,1349.44" fill="none" stroke="rgb(255, 255, 255)" stroke-width="33.38" stroke-opacity="1.00" stroke-linejoin="round"/>
<path d="M-84.02,1261.17 C-81.57,1260.74 -80.06,1260.35 -77.86,1259.52 C-72.34,1257.44 -67.65,1255.35 -65.93,1254.82 C-43.89,1247.90 -26.25,1244.08 -10.97,1239.23 C21.26,1228.72 86.28,1207.38 119.07,1196.55 C133.29,1191.83 161.04,1182.81 174.58,1178.53 C204.32,1169.94 265.70,1152.84 297.34,1144.34 C310.79,1140.91 341.18,1133.40 353.47,1131.28 C361.95,1129.91 393.88,1125.75 412.48,1124.09 C427.99,1123.01 463.87,1121.81 472.76,1121.81 C486.89,1121.93 514.82,1122.91 527.52,1123.52 C555.39,1125.38 620.39,1131.09 645.26,1133.42 C676.81,1136.42 746.21,1143.05 784.06,1146.69 C820.14,1150.16 887.21,1156.62 918.20,1159.61 C955.45,1163.22 1026.91,1170.17 1061.14,1173.51 C1083.53,1175.76 1133.60,1181.06 1161.27,1184.10 C1190.99,1187.73 1246.47,1194.61 1272.23,1197.85 C1305.98,1202.14 1375.85,1211.10 1411.96,1215.76 C1444.14,1219.95 1512.71,1228.89 1549.12,1233.64 C1582.75,1238.03 1643.29,1245.93 1670.21,1249.43 C1705.32,1253.99 1766.43,1261.98 1792.42,1265.41 C1821.91,1269.43 1887.37,1278.39 1923.34,1283.34 C1954.19,1287.66 2022.08,1297.39 2052.34,1302.24 C2062.96,1304.12 2089.63,1309.08 2105.68,1312.16 C2120.36,1315.31 2139.75,1320.74 2142.25,1321.44" fill="none" stroke="rgb(255, 255, 255)" stroke-width="33.38" stroke-opacity="1.00" stroke-linejoin="round"/>
</g>
<g stroke-linecap="round" transform="translate(0.00, -776.00)" id="Layer_1_Copy_4">
<path d="M-82.02,1080.17 C-79.57,1079.74 -78.06,1079.35 -75.86,1078.52 C-70.34,1076.44 -65.65,1074.35 -63.93,1073.82 C-41.89,1066.90 -24.25,1063.08 -8.97,1058.23 C23.26,1047.72 88.28,1026.38 121.07,1015.55 C135.29,1010.83 163.04,1001.81 176.58,997.53 C206.32,988.94 267.70,971.84 299.34,963.34 C312.79,959.91 343.18,952.40 355.47,950.28 C363.95,948.91 395.88,944.75 414.48,943.09 C429.99,942.01 465.87,940.81 474.76,940.81 C488.89,940.93 516.82,941.91 529.52,942.52 C557.39,944.38 622.39,950.09 647.26,952.42 C678.81,955.42 748.21,962.05 786.06,965.69 C822.14,969.16 889.21,975.62 920.20,978.61 C957.45,982.22 1028.91,989.17 1063.14,992.51 C1085.53,994.76 1135.60,1000.06 1163.27,1003.10 C1192.99,1006.73 1248.47,1013.61 1274.23,1016.85 C1307.98,1021.14 1377.85,1030.10 1413.96,1034.76 C1446.14,1038.95 1514.71,1047.89 1551.12,1052.64 C1584.75,1057.03 1645.29,1064.93 1672.21,1068.43 C1707.32,1072.99 1768.43,1080.98 1794.42,1084.41 C1823.91,1088.43 1889.37,1097.39 1925.34,1102.34 C1956.19,1106.66 2024.08,1116.39 2054.34,1121.24 C2064.96,1123.12 2091.63,1128.08 2107.68,1131.16 C2122.36,1134.31 2141.75,1139.74 2144.25,1140.44" fill="none" stroke="rgb(187, 0, 0)" stroke-width="33.38" stroke-opacity="1.00" stroke-linejoin="round"/>
</g>
<g stroke-linecap="round" transform="translate(0.00, -776.00)" id="Layer_1_Copy_3">
<path d="M-82.02,1002.17 C-79.57,1001.74 -78.06,1001.35 -75.86,1000.52 C-70.34,998.44 -65.65,996.35 -63.93,995.82 C-41.89,988.90 -24.25,985.08 -8.97,980.23 C23.26,969.72 88.28,948.38 121.07,937.55 C135.29,932.83 163.04,923.81 176.58,919.53 C206.32,910.94 267.70,893.84 299.34,885.34 C312.79,881.91 343.18,874.40 355.47,872.28 C363.95,870.91 395.88,866.75 414.48,865.09 C429.99,864.01 465.87,862.81 474.76,862.81 C488.89,862.93 516.82,863.91 529.52,864.52 C557.39,866.38 622.39,872.09 647.26,874.42 C678.81,877.42 748.21,884.05 786.06,887.69 C822.14,891.16 889.21,897.62 920.20,900.61 C957.45,904.22 1028.91,911.17 1063.14,914.51 C1085.53,916.76 1135.60,922.06 1163.27,925.10 C1192.99,928.73 1248.47,935.61 1274.23,938.85 C1307.98,943.14 1377.85,952.10 1413.96,956.76 C1446.14,960.95 1514.71,969.89 1551.12,974.64 C1584.75,979.03 1645.29,986.93 1672.21,990.43 C1707.32,994.99 1768.43,1002.98 1794.42,1006.41 C1823.91,1010.43 1889.37,1019.39 1925.34,1024.34 C1956.19,1028.66 2024.08,1038.39 2054.34,1043.24 C2064.96,1045.12 2091.63,1050.08 2107.68,1053.16 C2122.36,1056.31 2141.75,1061.74 2144.25,1062.44" fill="none" stroke="rgb(187, 0, 0)" stroke-width="33.38" stroke-opacity="1.00" stroke-linejoin="round"/>
<path d="M-82.02,974.17 C-79.57,973.74 -78.06,973.35 -75.86,972.52 C-70.34,970.44 -65.65,968.35 -63.93,967.82 C-41.89,960.90 -24.25,957.08 -8.97,952.23 C23.26,941.72 88.28,920.38 121.07,909.55 C135.29,904.83 163.04,895.81 176.58,891.53 C206.32,882.94 267.70,865.84 299.34,857.34 C312.79,853.91 343.18,846.40 355.47,844.28 C363.95,842.91 395.88,838.75 414.48,837.09 C429.99,836.01 465.87,834.81 474.76,834.81 C488.89,834.93 516.82,835.91 529.52,836.52 C557.39,838.38 622.39,844.09 647.26,846.42 C678.81,849.42 748.21,856.05 786.06,859.69 C822.14,863.16 889.21,869.62 920.20,872.61 C957.45,876.22 1028.91,883.17 1063.14,886.51 C1085.53,888.76 1135.60,894.06 1163.27,897.10 C1192.99,900.73 1248.47,907.61 1274.23,910.85 C1307.98,915.14 1377.85,924.10 1413.96,928.76 C1446.14,932.95 1514.71,941.89 1551.12,946.64 C1584.75,951.03 1645.29,958.93 1672.21,962.43 C1707.32,966.99 1768.43,974.98 1794.42,978.41 C1823.91,982.43 1889.37,991.39 1925.34,996.34 C1956.19,1000.66 2024.08,1010.39 2054.34,1015.24 C2064.96,1017.12 2091.63,1022.08 2107.68,1025.16 C2122.36,1028.31 2141.75,1033.74 2144.25,1034.44" fill="none" stroke="rgb(187, 0, 0)" stroke-width="33.38" stroke-opacity="1.00" stroke-linejoin="round"/>
</g>
</svg>
